<svg width="51" height="50" viewBox="0 0 51 50" fill="none" xmlns="http://www.w3.org/2000/svg">
<path d="M25.4154 35.334C20.6254 35.334 15.8674 35.334 11.082 35.334C11.2186 35.655 11.3233 35.9218 11.4463 36.1749C12.8532 39.0686 14.8475 41.4649 17.5794 43.2146C18.1531 43.5854 18.399 44.033 18.3853 44.7067C18.358 46.0133 18.3762 47.3245 18.3762 48.6673C20.7393 48.6673 23.0705 48.6673 25.4154 48.6673C27.7602 48.6673 30.0915 48.6673 32.4545 48.6673C32.4545 47.329 32.4773 46.0178 32.4454 44.7067C32.4318 44.033 32.6731 43.5854 33.2513 43.2146C35.9832 41.4649 37.9775 39.0686 39.3844 36.1749C39.5074 35.9172 39.6121 35.655 39.7487 35.334C34.9633 35.334 30.2053 35.334 25.4154 35.334Z" fill="black"/>
<path d="M41.0831 28.6481C41.0967 28.0132 40.4103 27.6103 39.8278 27.9037C39.8233 27.9037 39.8188 27.9081 39.8143 27.9081C38.5229 28.5474 37.0418 28.3022 35.9219 27.2994C35.6104 27.0192 35.3304 26.7127 35.0188 26.4368C34.3641 25.8588 33.5107 25.8544 32.8469 26.4237C32.5624 26.6689 32.305 26.9404 32.0341 27.1943C30.5575 28.5955 28.5843 28.6218 27.0716 27.26C26.8278 27.0411 26.602 26.7959 26.3627 26.5725C26.173 26.3974 25.9924 26.266 25.8073 26.1697C25.5634 26.0427 25.2699 26.0427 25.0261 26.1697C24.8409 26.266 24.6558 26.4018 24.4707 26.5725C24.2268 26.7959 24.0056 27.0367 23.7617 27.26C22.2491 28.6218 20.2758 28.5955 18.7992 27.1943C18.5283 26.936 18.2709 26.6645 17.9864 26.4237C17.3272 25.8544 16.4738 25.8588 15.8145 26.4368C15.5029 26.7127 15.2184 27.0236 14.9114 27.2994C13.7916 28.3022 12.3105 28.5474 11.019 27.9081C11.0145 27.9081 11.01 27.9037 11.0055 27.9037C10.423 27.6147 9.73665 28.0175 9.7502 28.6481C9.78181 30.0011 9.97597 31.3147 10.2921 32.6196C10.414 33.1319 10.6262 33.3333 11.2177 33.3333C15.9545 33.3202 20.6822 33.3202 25.4189 33.3158C30.1557 33.3158 34.8834 33.3202 39.6201 33.3333C40.2162 33.3333 40.4239 33.1363 40.5458 32.6196C40.8574 31.3147 41.0515 30.0011 41.0831 28.6481Z" fill="black"/>
<path d="M40.719 24.1381C40.1662 22.532 39.6044 20.9214 38.9882 19.3381C38.9157 19.1556 38.4943 19.0142 38.236 19.0142C33.9588 18.9959 29.6951 19.0005 25.4178 19.0005C21.1406 19.0005 16.8769 18.9959 12.5997 19.0142C12.3414 19.0142 11.9155 19.1556 11.8475 19.3381C11.2268 20.9214 10.6649 22.5275 10.1122 24.1381C10.0578 24.3023 10.0759 24.5807 10.1756 24.6902C10.6015 25.151 11.0455 25.6027 11.5304 25.9951C12.142 26.4833 12.8897 26.4331 13.4968 25.9084C13.8366 25.6164 14.1357 25.2788 14.4574 24.9685C15.8439 23.6499 17.833 23.6316 19.2466 24.9274C19.5593 25.2149 19.8447 25.5388 20.1574 25.8263C20.8642 26.4787 21.6481 26.497 22.3866 25.8674C22.6947 25.6073 22.962 25.297 23.2475 25.0141C23.2837 24.9776 23.32 24.9457 23.3562 24.9092C24.5252 23.837 26.2969 23.837 27.4659 24.9092C27.5021 24.9411 27.5384 24.9776 27.5746 25.0141C27.8601 25.297 28.1274 25.6027 28.4355 25.8674C29.174 26.497 29.9579 26.4787 30.6647 25.8263C30.9774 25.5388 31.2583 25.2149 31.5755 24.9274C32.9891 23.6316 34.9782 23.6499 36.3647 24.9685C36.691 25.2788 36.99 25.6164 37.3253 25.9084C37.9324 26.4331 38.6801 26.4833 39.2917 25.9951C39.7811 25.6073 40.2251 25.151 40.6465 24.6902C40.7553 24.5761 40.7734 24.2978 40.719 24.1381Z" fill="black"/>
<path d="M36.0003 15.354C35.1721 14.5984 34.2854 13.9077 33.3807 13.2448C32.9035 12.8925 32.6245 12.5171 32.656 11.8913C32.6875 11.2794 32.665 10.6629 32.665 10C30.2974 10 27.9523 10 25.5891 10C23.226 10 20.8809 10 18.5133 10C18.5133 10.6629 18.4863 11.2794 18.5223 11.8913C18.5538 12.5171 18.2747 12.8925 17.7976 13.2448C16.8974 13.9077 16.0061 14.5938 15.1779 15.354C14.5613 15.9195 14.0526 16.6056 13.418 17.3333C17.5095 17.3333 21.5471 17.3333 25.5846 17.3333C29.6222 17.3333 33.6597 17.3333 37.7513 17.3333C37.1211 16.6056 36.6125 15.9195 36.0003 15.354Z" fill="black"/>
<path d="M25.418 1.66602C22.0714 1.66602 18.7513 1.66602 15.418 1.66602C15.418 2.79004 15.418 3.86891 15.418 4.97036C16.1225 4.97036 16.7742 4.96134 17.4259 4.97488C18.1613 4.98842 18.4871 5.33149 18.5003 6.08987C18.5091 6.71282 18.5003 7.33126 18.5003 7.99935C20.8297 7.99935 23.1194 7.99935 25.418 7.99935C27.7165 7.99935 30.0107 7.99935 32.3356 7.99935C32.3356 7.33126 32.3312 6.71282 32.3356 6.08987C32.3444 5.33149 32.6703 4.98842 33.41 4.97488C34.0617 4.96134 34.7134 4.97036 35.418 4.97036C35.418 3.86891 35.418 2.79004 35.418 1.66602C32.089 1.66602 28.7645 1.66602 25.418 1.66602Z" fill="black"/>
</svg>
