<svg width="53" height="52" viewBox="0 0 53 52" fill="none" xmlns="http://www.w3.org/2000/svg">
<path d="M1.91039 25.8897C1.91039 22.7897 1.92039 19.6897 1.90039 16.5897C1.90039 15.9397 2.10039 15.4597 2.56039 14.9997C6.97039 10.6097 11.3704 6.20973 15.7604 1.78973C16.3204 1.22973 16.9004 0.969727 17.6904 0.969727C23.8404 0.989727 29.9804 0.989727 36.1304 0.969727C36.8904 0.969727 37.4604 1.21973 38.0004 1.75973C42.3904 6.17973 46.8004 10.5597 51.1704 14.9997C51.5604 15.3997 51.8704 16.0797 51.8804 16.6397C51.9304 22.8897 51.9104 29.1397 51.9204 35.3897C51.9204 36.1397 51.5504 36.6497 51.0504 37.1397C47.5304 40.6497 44.0104 44.1697 40.5004 47.6897C39.6204 48.5697 38.7704 49.4997 37.8304 50.3197C37.4604 50.6497 36.8904 50.9397 36.4104 50.9397C30.0604 50.9797 23.7004 50.9797 17.3504 50.9397C16.9104 50.9397 16.3604 50.7097 16.0504 50.3997C11.5304 45.9297 7.04039 41.4397 2.58039 36.9097C2.22039 36.5497 1.97039 35.9197 1.96039 35.4097C1.88039 32.2497 1.91039 29.0697 1.91039 25.8897ZM43.3204 35.3297C45.1904 35.3297 46.9804 35.3497 48.7704 35.2997C48.9204 35.2997 49.1704 34.8797 49.1704 34.6497C49.2004 32.1497 49.1804 29.6497 49.2004 27.1497C49.2004 26.6297 49.0104 26.4797 48.5204 26.4797C44.2504 26.4897 39.9804 26.4997 35.7104 26.4797C35.1004 26.4797 34.9504 26.6997 34.9804 27.2597C35.0204 28.0697 35.0304 28.8797 34.9804 29.6797C34.9404 30.3297 35.2204 30.4597 35.8004 30.4497C37.9304 30.4197 40.0704 30.4397 42.2004 30.4397C43.2904 30.4397 43.3204 30.4697 43.3204 31.5997C43.3204 32.8197 43.3204 34.0297 43.3204 35.3297ZM18.7104 26.4897C18.3704 26.4897 18.0904 26.4897 17.8004 26.4897C14.8804 26.4897 11.9704 26.4897 9.05039 26.4897C7.77039 26.4897 6.50039 26.4997 5.22039 26.4797C4.76039 26.4697 4.57039 26.6097 4.58039 27.0997C4.60039 29.6497 4.58039 32.1997 4.61039 34.7597C4.61039 34.9597 4.88039 35.3097 5.03039 35.3197C6.82039 35.3597 8.61039 35.3497 10.4804 35.3497C10.4804 34.0197 10.4804 32.7697 10.4804 31.5297C10.4804 30.4797 10.4904 30.4697 11.5104 30.4697C13.5904 30.4697 15.6804 30.4697 17.7604 30.4697C18.0604 30.4697 18.3704 30.4697 18.7104 30.4697C18.7104 29.1097 18.7104 27.8697 18.7104 26.4897ZM34.9804 21.5697C34.9804 22.6597 35.0204 23.6197 34.9704 24.5797C34.9304 25.2797 35.1204 25.5197 35.8704 25.5097C40.0104 25.4697 44.1504 25.4897 48.2904 25.4897C48.5604 25.4897 48.8404 25.4597 49.1904 25.4397C49.1904 22.5997 49.2004 19.8497 49.1704 17.0897C49.1704 16.9397 48.9004 16.6797 48.7604 16.6697C46.9704 16.6397 45.1804 16.6497 43.3204 16.6497C43.3204 17.8997 43.3204 19.0697 43.3204 20.2297C43.3204 21.5597 43.3204 21.5597 42.0404 21.5597C41.1804 21.5597 40.3204 21.5597 39.4604 21.5597C38.0004 21.5697 36.5504 21.5697 34.9804 21.5697ZM18.7204 21.5697C18.3704 21.5697 18.0904 21.5697 17.8104 21.5697C15.6704 21.5697 13.5404 21.5497 11.4004 21.5797C10.6904 21.5897 10.4304 21.3697 10.4604 20.6397C10.5104 19.3497 10.4704 18.0497 10.4704 16.7497C8.46039 16.7497 6.56039 16.7497 4.59039 16.7497C4.59039 19.4297 4.61039 22.0297 4.57039 24.6297C4.56039 25.3197 4.74039 25.5097 5.44039 25.5097C9.58039 25.4797 13.7204 25.4897 17.8704 25.4897C18.1404 25.4897 18.4204 25.4597 18.7204 25.4397C18.7204 24.1497 18.7204 22.9297 18.7204 21.5697ZM22.8204 17.8297C24.0504 17.8297 25.1504 17.8297 26.2404 17.8297C26.2904 17.7297 26.3304 17.6897 26.3304 17.6397C26.3404 13.1397 26.3604 8.63973 26.3404 4.13973C26.3404 3.97973 26.0104 3.67973 25.8304 3.67973C23.2604 3.64973 20.6804 3.64973 18.1104 3.67973C17.9304 3.67973 17.6004 3.92973 17.6004 4.06973C17.5604 5.77973 17.5804 7.47973 17.5804 9.23973C18.8804 9.23973 20.0704 9.23973 21.2604 9.23973C22.8304 9.23973 22.8304 9.23973 22.8304 10.8197C22.8204 13.1297 22.8204 15.4397 22.8204 17.8297ZM17.5604 42.7297C17.5604 44.4397 17.5804 46.0297 17.5504 47.6097C17.5404 48.1697 17.7404 48.3197 18.2704 48.3097C20.6604 48.2897 23.0604 48.2997 25.4504 48.2997C25.7304 48.2997 26.0004 48.2997 26.3004 48.2997C26.3004 43.5297 26.3004 38.8597 26.3004 34.1797C25.1204 34.1797 23.9904 34.1797 22.8204 34.1797C22.8204 36.7197 22.8204 39.1897 22.8204 41.6597C22.8204 42.7197 22.8104 42.7397 21.7204 42.7397C20.3704 42.7297 19.0204 42.7297 17.5604 42.7297ZM30.9804 34.1197C29.9904 34.1197 29.1104 34.1597 28.2404 34.1097C27.5604 34.0697 27.3504 34.2597 27.3504 34.9697C27.3804 39.1397 27.3704 43.3097 27.3704 47.4697C27.3704 47.7197 27.4004 47.9697 27.4104 48.2497C30.3404 48.2497 33.2104 48.2497 36.0904 48.2497C36.0904 46.3997 36.0904 44.6097 36.0904 42.7297C34.7004 42.7297 33.3604 42.7297 32.0104 42.7297C30.9804 42.7297 30.9804 42.7197 30.9804 41.6797C30.9804 39.1997 30.9804 36.7297 30.9804 34.1197ZM36.0904 3.71973C33.1404 3.71973 30.2904 3.71973 27.3604 3.71973C27.3604 4.65973 27.3604 5.53973 27.3604 6.40973C27.3604 9.96973 27.3504 13.5397 27.3704 17.0997C27.3704 17.3497 27.5604 17.8197 27.6804 17.8197C28.7604 17.8797 29.8304 17.8497 30.9604 17.8497C30.9604 15.2497 30.9604 12.7797 30.9604 10.3097C30.9604 9.22973 30.9604 9.21973 32.0404 9.21973C33.3804 9.21973 34.7204 9.21973 36.0704 9.21973C36.0904 7.33973 36.0904 5.54973 36.0904 3.71973ZM11.3404 35.3397C13.0504 35.3397 14.6304 35.3397 16.2204 35.3397C17.5604 35.3397 17.5604 35.3397 17.5604 36.6397C17.5604 38.0397 17.5604 39.4497 17.5604 40.8497C17.5604 41.1797 17.5604 41.4997 17.5604 41.8297C19.0504 41.8297 20.4204 41.8297 21.8004 41.8297C21.8004 39.2397 21.8004 36.7097 21.8004 34.1097C21.0704 34.1097 20.3904 34.0697 19.7204 34.1197C18.9504 34.1797 18.6904 33.8497 18.7404 33.1097C18.7804 32.5497 18.7504 31.9797 18.7504 31.3397C16.3404 31.3397 14.0304 31.3297 11.7304 31.3597C11.6004 31.3597 11.3604 31.5897 11.3604 31.7197C11.3304 32.8897 11.3404 34.0597 11.3404 35.3397ZM42.3504 31.3497C40.0004 31.3497 37.7104 31.3397 35.4304 31.3697C35.2804 31.3697 35.0304 31.6697 35.0104 31.8497C34.9504 32.3397 34.9704 32.8397 34.9904 33.3297C35.0104 33.8797 34.7904 34.1497 34.2104 34.1197C33.6904 34.0897 33.1604 34.1597 32.6504 34.0997C32.0004 34.0397 31.8604 34.3197 31.8704 34.9097C31.9004 36.9697 31.8804 39.0297 31.8804 41.0797C31.8804 41.3297 31.9204 41.5697 31.9404 41.8297C33.3704 41.8297 34.7104 41.8297 36.1304 41.8297C36.1304 41.4997 36.1304 41.2197 36.1304 40.9397C36.1304 39.3797 36.1404 37.8097 36.1304 36.2497C36.1204 35.6097 36.3504 35.2897 37.0504 35.3097C38.0904 35.3497 39.1304 35.3197 40.1704 35.3197C40.8904 35.3197 41.6104 35.3197 42.3504 35.3197C42.3504 33.9697 42.3504 32.7197 42.3504 31.3497ZM11.3904 20.5997C13.9004 20.5997 16.3004 20.5997 18.7504 20.5997C18.7504 19.9597 18.7904 19.3797 18.7404 18.8197C18.6804 18.0797 19.0104 17.8297 19.7104 17.8797C20.1804 17.9097 20.6504 17.8497 21.1204 17.8897C21.7004 17.9397 21.8904 17.7297 21.8804 17.1397C21.8504 15.1597 21.8704 13.1797 21.8704 11.1997C21.8704 10.8697 21.8704 10.5397 21.8704 10.1997C20.3904 10.1997 19.0204 10.1997 17.5704 10.1997C17.5704 10.5297 17.5704 10.8097 17.5704 11.0897C17.5704 12.6497 17.5404 14.2197 17.5804 15.7797C17.6004 16.4697 17.3304 16.7197 16.6704 16.6797C16.1304 16.6497 15.5804 16.6697 15.0304 16.6697C13.8404 16.6697 12.6404 16.6697 11.4004 16.6697C11.3904 18.0397 11.3904 19.2997 11.3904 20.5997ZM36.1304 10.1297C34.8704 10.1297 33.7304 10.1497 32.5804 10.1197C32.0404 10.0997 31.8604 10.2797 31.8604 10.8297C31.8904 12.7797 31.8704 14.7397 31.8704 16.6897C31.8704 17.9997 31.7304 17.8697 33.0204 17.8797C35.2404 17.8997 34.9504 17.6297 34.9704 19.8397C34.9704 19.8897 34.9804 19.9397 34.9704 19.9997C34.9104 20.5097 35.1304 20.6797 35.6404 20.6697C37.7204 20.6497 39.8004 20.6597 41.8904 20.6597C42.0404 20.6597 42.1804 20.6097 42.3204 20.5797C42.3204 19.2697 42.3204 18.0097 42.3204 16.6597C40.5904 16.6597 38.9004 16.6597 37.2204 16.6597C36.1804 16.6597 36.1304 16.5997 36.1304 15.5397C36.1304 13.7697 36.1304 12.0097 36.1304 10.1297ZM26.3504 33.1497C26.3504 31.0397 26.3604 28.9697 26.3304 26.8897C26.3304 26.7597 26.0104 26.5197 25.8204 26.5097C24.8904 26.4697 23.9504 26.4897 23.0104 26.4897C21.9304 26.4897 20.8404 26.4897 19.7504 26.4897C19.7504 27.8597 19.7504 29.1197 19.7504 30.4597C20.5204 30.4597 21.2504 30.4797 21.9704 30.4497C22.5804 30.4297 22.8204 30.6997 22.8104 31.2897C22.8004 31.8997 22.8104 32.5197 22.8104 33.1497C24.0404 33.1497 25.1504 33.1497 26.3504 33.1497ZM27.4104 33.1097C28.6404 33.1097 29.7904 33.1097 30.9804 33.1097C30.9804 32.4997 31.0204 31.9497 30.9704 31.4097C30.9004 30.6297 31.2704 30.3997 31.9804 30.4297C32.6704 30.4597 33.3604 30.4397 34.0604 30.4397C34.0604 29.0697 34.0604 27.8297 34.0604 26.5497C31.8304 26.5497 29.6404 26.5497 27.4104 26.5497C27.4104 28.7597 27.4104 30.9097 27.4104 33.1097ZM34.0504 21.5697C33.4004 21.5697 32.8004 21.5697 32.2104 21.5697C30.9804 21.5697 30.9804 21.5697 30.9804 20.3797C30.9804 19.8697 30.9804 19.3597 30.9804 18.8397C29.7204 18.8397 28.5704 18.8397 27.3704 18.8397C27.3704 20.3597 27.3604 21.8097 27.3804 23.2697C27.3904 23.9897 27.2004 24.9297 27.5804 25.3497C27.9004 25.7097 28.8904 25.4897 29.5904 25.4997C31.0604 25.5097 32.5404 25.4997 34.0604 25.4997C34.0504 24.1697 34.0504 22.9297 34.0504 21.5697ZM22.8204 18.8197C22.8204 19.5097 22.8104 20.1097 22.8204 20.6997C22.8304 21.3097 22.5804 21.6097 21.9304 21.5797C21.2104 21.5497 20.4904 21.5697 19.7704 21.5697C19.7704 22.9197 19.7704 24.1797 19.7704 25.4497C21.9704 25.4497 24.1204 25.4497 26.3004 25.4497C26.3004 23.2097 26.3004 21.0197 26.3004 18.8097C25.1304 18.8197 24.0204 18.8197 22.8204 18.8197ZM42.3304 41.8497C42.3304 39.9797 42.3304 38.1697 42.3304 36.3397C40.5904 36.3397 38.8904 36.3397 37.1904 36.3397C37.1904 38.2097 37.1904 40.0097 37.1904 41.8497C38.9204 41.8497 40.5804 41.8497 42.3304 41.8497ZM16.5704 36.3497C14.8104 36.3497 13.1304 36.3497 11.4204 36.3497C11.4204 38.2097 11.4204 40.0297 11.4204 41.8397C13.1804 41.8397 14.8504 41.8397 16.5704 41.8397C16.5704 39.9997 16.5704 38.2197 16.5704 36.3497ZM16.5704 10.1897C14.8004 10.1897 13.1204 10.1897 11.3404 10.1897C11.3404 11.9397 11.3304 13.6497 11.3504 15.3597C11.3504 15.4797 11.5504 15.7097 11.6504 15.7097C13.2804 15.7297 14.9004 15.7297 16.5604 15.7297C16.5704 13.8297 16.5704 12.0497 16.5704 10.1897ZM42.3304 10.1397C40.7104 10.1397 39.1204 10.1297 37.5404 10.1597C37.4004 10.1597 37.1404 10.3797 37.1404 10.4897C37.1104 12.1997 37.1204 13.9097 37.1204 15.6497C38.9204 15.6497 40.6204 15.6497 42.3304 15.6497C42.3304 13.7897 42.3304 11.9997 42.3304 10.1397ZM10.4404 11.3097C8.98039 12.7297 7.45039 14.2097 5.95039 15.6697C7.40039 15.6697 8.91039 15.6697 10.4404 15.6697C10.4404 14.0997 10.4404 12.5997 10.4404 11.3097ZM5.90039 36.3397C7.44039 37.8697 8.93039 39.3497 10.4104 40.8197C10.4104 39.3797 10.4104 37.8697 10.4104 36.3397C8.88039 36.3397 7.41039 36.3397 5.90039 36.3397ZM47.7404 15.6597C46.2704 14.2097 44.7704 12.7197 43.3704 11.3297C43.3704 12.6297 43.3704 14.1297 43.3704 15.6597C44.8904 15.6597 46.3704 15.6597 47.7404 15.6597ZM47.8204 36.3497C46.3804 36.3497 44.8704 36.3497 43.3804 36.3497C43.3804 37.9097 43.3804 39.3997 43.3804 40.7797C44.8404 39.3197 46.3404 37.8297 47.8204 36.3497ZM37.1704 9.18973C38.6304 9.18973 40.0404 9.18973 41.3004 9.18973C39.9604 7.81973 38.5704 6.41973 37.1704 4.99973C37.1704 6.34973 37.1704 7.72973 37.1704 9.18973ZM12.3604 42.7697C13.7604 44.1897 15.1504 45.5997 16.5504 47.0097C16.5504 45.6197 16.5504 44.2197 16.5504 42.7697C15.1104 42.7697 13.7204 42.7697 12.3604 42.7697ZM41.3704 42.7897C40.0404 42.7897 38.6204 42.7897 37.1704 42.7897C37.1704 44.2597 37.1704 45.6697 37.1704 47.0897C38.6104 45.6197 40.0104 44.1797 41.3704 42.7897ZM16.5604 5.11973C15.2004 6.48973 13.8104 7.88973 12.5304 9.17973C13.7404 9.17973 15.1504 9.17973 16.5604 9.17973C16.5604 7.73973 16.5604 6.35973 16.5604 5.11973ZM19.7504 18.8097C19.7504 19.4597 19.7504 20.0197 19.7504 20.6097C20.4504 20.6097 21.1104 20.6097 21.7904 20.6097C21.7904 19.9797 21.7904 19.3997 21.7904 18.8097C21.0904 18.8097 20.4504 18.8097 19.7504 18.8097ZM31.8804 18.8197C31.8804 19.3497 31.8504 19.7897 31.9004 20.2297C31.9204 20.3797 32.1104 20.6297 32.2304 20.6297C32.8404 20.6697 33.4504 20.6497 34.0404 20.6497C34.0404 19.9597 34.0404 19.3997 34.0404 18.8197C33.3204 18.8197 32.6504 18.8197 31.8804 18.8197ZM19.7604 31.3797C19.7604 32.0197 19.7604 32.5797 19.7604 33.1297C20.4704 33.1297 21.1304 33.1297 21.7804 33.1297C22.0304 31.3197 22.0304 31.3197 20.3504 31.3497C20.1704 31.3497 19.9904 31.3697 19.7604 31.3797ZM31.9204 33.1097C32.7004 33.1097 33.3904 33.1097 34.0504 33.1097C34.0504 32.4997 34.0504 31.9697 34.0504 31.4097C33.3204 31.4097 32.6304 31.4097 31.9204 31.4097C31.9204 32.0097 31.9204 32.5397 31.9204 33.1097Z" fill="black"/>
</svg>
