<svg width="50" height="50" viewBox="0 0 50 50" fill="none" xmlns="http://www.w3.org/2000/svg">
<path d="M33.5402 29.5891C33.5702 29.5591 33.6902 29.4791 33.7802 29.3791C34.2602 28.8091 34.6702 28.8591 35.2002 29.3891C37.9302 32.1591 40.7002 34.9091 43.4502 37.6591C44.4002 38.6091 45.3602 39.5491 46.3002 40.5191C47.8702 42.1391 47.8702 44.6291 46.3002 46.2291C44.7102 47.8491 42.1702 47.8991 40.5302 46.2791C36.9302 42.7091 33.3602 39.1191 29.7702 35.5391C28.7602 34.5291 28.7602 34.5291 29.5902 33.4891C28.0302 31.9291 26.4802 30.3791 24.8602 28.7591C21.0902 31.2491 16.8702 31.9291 12.4102 30.5991C9.14021 29.6291 6.59021 27.5991 4.75021 24.7291C0.960211 18.8291 2.12021 10.9691 7.44021 6.19914C12.6102 1.56914 20.4702 1.27914 25.8802 5.50914C31.3102 9.76914 33.3002 17.9291 28.8002 24.8391C30.3602 26.4191 31.9102 27.9691 33.5402 29.5891ZM17.1802 5.88914C10.9302 5.85914 5.98021 10.7991 5.88021 17.0291C5.79021 22.8091 10.4002 27.6791 16.2002 27.9191C22.6802 28.1791 27.7202 22.9691 27.9302 17.1091C28.1602 10.6891 22.9502 5.76914 17.1802 5.88914Z" fill="black"/>
<path d="M15.8919 9.1305C14.9319 9.3305 13.9119 9.5705 12.8819 9.7305C12.5819 9.7805 12.2419 9.6205 11.9219 9.5505C12.0619 9.2605 12.1219 8.8405 12.3619 8.6905C15.0719 6.9205 17.9619 6.6705 20.8919 8.0105C23.8019 9.3405 25.4619 11.6905 25.9319 14.8505C25.9619 15.0705 25.6919 15.3405 25.5519 15.5805C25.2819 15.3905 24.8919 15.2605 24.7719 15.0005C23.5019 12.2905 21.4719 10.4605 18.5919 9.6305C17.7519 9.3805 16.8619 9.3005 15.8919 9.1305Z" fill="black"/>
</svg>
