<svg width="57" height="56" viewBox="0 0 57 56" fill="none" xmlns="http://www.w3.org/2000/svg">
<path d="M12.5265 35.6778C12.5265 34.4678 12.5063 33.4364 12.5322 32.4051C12.5524 31.6704 12.2816 31.3218 11.5066 31.3564C10.6568 31.3967 9.804 31.3766 8.95126 31.3622C7.8738 31.3449 7.50504 30.9761 7.50216 29.9188C7.49928 24.7534 7.49928 19.5879 7.50216 14.4253C7.50216 13.3507 7.84787 13.0022 8.93973 13.0022C16.4214 12.9993 23.9032 12.9993 31.382 13.0022C32.5027 13.0022 32.8743 13.3652 32.8743 14.4743C32.8801 19.585 32.8801 24.6986 32.8743 29.8094C32.8743 30.9934 32.494 31.3622 31.2725 31.3622C27.7837 31.3679 24.2978 31.3506 20.8091 31.3823C20.3308 31.3852 19.8065 31.5293 19.3888 31.7597C17.3664 32.8833 15.3757 34.0587 13.3734 35.2139C13.1516 35.3465 12.9183 35.4675 12.5265 35.6778ZM29.4777 24.6237C30.6646 22.1894 30.2815 20.0575 28.4233 18.7208C26.7869 17.5453 24.4534 17.7355 23.013 19.1673C21.5466 20.6222 21.3334 22.8837 22.503 24.5661C23.8254 26.4675 25.9313 26.8593 28.4751 25.658C28.939 25.923 29.3106 26.8161 29.9703 26.1909C30.6992 25.5024 29.7197 25.1279 29.4777 24.6237ZM19.8987 24.7073C20.0427 25.0732 20.1666 25.3929 20.2905 25.7156C20.4576 26.1391 20.6823 26.5222 21.221 26.3321C21.7915 26.1276 21.7396 25.6925 21.5581 25.2172C20.7428 23.0623 19.9534 20.8958 19.1093 18.7524C18.9854 18.4413 18.6109 18.0322 18.3459 18.0265C18.0924 18.0236 17.715 18.4413 17.5911 18.7524C16.7556 20.8699 15.972 23.0104 15.1711 25.1423C15.125 25.2662 15.0127 25.416 15.0473 25.511C15.1567 25.7991 15.2633 26.1794 15.4909 26.3004C15.6522 26.3897 16.0613 26.1794 16.2601 25.995C16.4358 25.8337 16.5021 25.5283 16.5684 25.2748C16.675 24.8513 16.8881 24.6756 17.352 24.6958C18.1702 24.739 18.9941 24.7073 19.8987 24.7073ZM11.5268 19.2768C12.4112 19.2768 13.2064 19.2681 13.9986 19.2797C14.4711 19.2883 14.8888 19.2019 14.9061 18.6401C14.9234 18.0149 14.4653 17.9487 13.9727 17.9516C13.0162 17.9602 12.0598 17.9804 11.1033 17.9458C10.3658 17.9199 10.1123 18.2656 10.118 18.9541C10.1295 21.0802 10.1238 23.2063 10.1209 25.3324C10.1209 25.8366 10.1641 26.3782 10.8123 26.3696C11.4461 26.3609 11.5009 25.8395 11.4922 25.3209C11.4778 24.4048 11.4893 23.4858 11.4893 22.5063C12.3997 22.5063 13.1919 22.5005 13.9842 22.5091C14.4797 22.5149 14.9407 22.4285 14.9176 21.8148C14.9003 21.2675 14.4797 21.1666 14.0044 21.1782C13.1891 21.1955 12.3738 21.1839 11.5239 21.1839C11.5268 20.5184 11.5268 19.9451 11.5268 19.2768Z" fill="#BDBDBD"/>
<path d="M28.5795 23.3388C27.9745 23.2754 27.3522 23.0161 27.0814 23.2207C26.4159 23.7248 27.1246 24.1656 27.3925 24.5978C26.148 25.3554 24.696 25.1019 23.7626 23.9784C22.8753 22.9124 22.9098 21.2876 23.8404 20.2534C24.8141 19.1701 26.4159 18.9742 27.5971 19.7895C28.8186 20.6308 29.1729 22.1029 28.5795 23.3388Z" fill="#BDBDBD"/>
<path d="M19.3973 23.3477C18.6541 23.3477 18.0548 23.3477 17.3145 23.3477C17.6429 22.4431 17.9454 21.6163 18.3401 20.5273C18.7376 21.5933 19.0574 22.4403 19.3973 23.3477Z" fill="#BDBDBD"/>
<path d="M46.8951 21.0021C42.8605 20.9993 38.8229 20.9993 34.7882 21.0021C34.5256 21.0021 34.2658 21.0273 33.9914 21.0412C33.9914 22.2242 33.9914 23.3372 33.9914 24.5314H35.228H42.2348H44.0647C44.4631 24.5314 44.7849 24.8362 44.7849 25.2137C44.7849 25.5913 44.4631 25.8961 44.0647 25.8961H42.2348H35.228H33.9914V29.1234H35.228H42.2348H44.0647C44.4631 29.1234 44.7849 29.4282 44.7849 29.8057C44.7849 30.1833 44.4631 30.4881 44.0647 30.4881H42.2348H35.228H33.9914V30.7398C33.9618 30.765 33.9382 30.7929 33.9264 30.8209C33.3952 32.2527 32.2943 32.6666 30.7949 32.6387C28.0737 32.5883 25.3495 32.6247 22.5013 32.6247C22.5013 34.2579 22.4984 35.7792 22.5013 37.2978C22.5043 38.4863 22.8584 38.8275 24.0951 38.8275C27.6929 38.8303 31.2937 38.8163 34.8915 38.8415C35.3284 38.8443 35.8124 38.9645 36.1931 39.1659C38.33 40.2985 40.4432 41.4759 42.5683 42.6336C42.7867 42.7539 43.0228 42.8462 43.3504 43C43.3504 41.8562 43.3622 40.8271 43.3475 39.8007C43.3357 39.1239 43.6279 38.7967 44.3716 38.8219C45.2423 38.8499 46.116 38.8303 46.9896 38.8275C48.1348 38.8219 48.4978 38.4779 48.4978 37.3957C48.5007 32.4345 48.5007 27.4734 48.4978 22.515C48.4978 21.3433 48.1407 21.0021 46.8951 21.0021ZM44.1326 35.0857H42.4739H36.9664H36.1223H34.0002H33.1561H27.6457H25.987C25.6269 35.0857 25.3347 34.7808 25.3347 34.4033C25.3347 34.0258 25.6269 33.7209 25.987 33.7209H27.6457H33.1531H33.9973H36.1194H36.9635H42.4709H44.1296C44.4897 33.7209 44.7819 34.0258 44.7819 34.4033C44.7848 34.7808 44.4927 35.0857 44.1326 35.0857Z" fill="#BDBDBD"/>
</svg>
