<svg width="56" height="56" viewBox="0 0 56 56" fill="none" xmlns="http://www.w3.org/2000/svg">
<path d="M28 38C23.3215 38 18.6741 38 14 38C14.1334 38.313 14.2357 38.5731 14.3558 38.8199C15.73 41.6412 17.6779 43.9776 20.3463 45.6836C20.9066 46.0451 21.1468 46.4815 21.1334 47.1384C21.1067 48.4123 21.1245 49.6907 21.1245 51C23.4327 51 25.7097 51 28 51C30.2903 51 32.5673 51 34.8755 51C34.8755 49.6952 34.8977 48.4167 34.8666 47.1384C34.8532 46.4815 35.0889 46.0451 35.6537 45.6836C38.3221 43.9776 40.27 41.6412 41.6442 38.8199C41.7643 38.5687 41.8666 38.313 42 38C37.3259 38 32.6785 38 28 38Z" fill="white"/>
<path d="M42.9998 32.5277C43.0128 31.9216 42.3556 31.5371 41.7979 31.8172C41.7936 31.8172 41.7893 31.8213 41.785 31.8213C40.5485 32.4316 39.1304 32.1975 38.0582 31.2404C37.7599 30.9729 37.4919 30.6803 37.1936 30.417C36.5667 29.8652 35.7496 29.861 35.114 30.4044C34.8417 30.6385 34.5952 30.8976 34.3358 31.14C32.9221 32.4775 31.0328 32.5026 29.5845 31.2027C29.351 30.9937 29.1349 30.7597 28.9057 30.5465C28.7242 30.3793 28.5512 30.2539 28.374 30.162C28.1405 30.0408 27.8595 30.0408 27.626 30.162C27.4488 30.2539 27.2715 30.3835 27.0943 30.5465C26.8608 30.7597 26.649 30.9896 26.4155 31.2027C24.9672 32.5026 23.0779 32.4775 21.6642 31.14C21.4048 30.8934 21.1583 30.6343 20.886 30.4044C20.2547 29.861 19.4376 29.8652 18.8064 30.417C18.5081 30.6803 18.2357 30.977 17.9418 31.2404C16.8696 32.1975 15.4515 32.4316 14.215 31.8213C14.2107 31.8213 14.2064 31.8172 14.2021 31.8172C13.6444 31.5413 12.9872 31.9258 13.0002 32.5277C13.0305 33.8192 13.2164 35.0732 13.519 36.3187C13.6357 36.8077 13.8389 37 14.4053 37C18.9405 36.9875 23.467 36.9875 28.0022 36.9833C32.5373 36.9833 37.0639 36.9875 41.5991 37C42.1697 37 42.3686 36.8119 42.4853 36.3187C42.7836 35.0732 42.9695 33.8192 42.9998 32.5277Z" fill="white"/>
<path d="M42.9719 27.9045C42.4492 26.3715 41.9179 24.8341 41.3352 23.3228C41.2666 23.1486 40.8681 23.0135 40.6239 23.0135C36.5791 22.9961 32.5471 23.0005 28.5023 23.0005C24.4576 23.0005 20.4256 22.9961 16.3808 23.0135C16.1366 23.0135 15.7338 23.1486 15.6695 23.3228C15.0825 24.8341 14.5512 26.3671 14.0285 27.9045C13.9771 28.0613 13.9942 28.327 14.0885 28.4315C14.4912 28.8714 14.9111 29.3026 15.3696 29.6771C15.9481 30.1432 16.655 30.0953 17.2292 29.5944C17.5505 29.3157 17.8333 28.9934 18.1376 28.6972C19.4487 27.4385 21.3297 27.4211 22.6665 28.658C22.9622 28.9324 23.2321 29.2416 23.5278 29.516C24.1962 30.1388 24.9374 30.1562 25.6359 29.5552C25.9272 29.3069 26.18 29.0108 26.45 28.7408C26.4842 28.7059 26.5185 28.6754 26.5528 28.6406C27.6583 27.6171 29.3336 27.6171 30.4391 28.6406C30.4733 28.6711 30.5076 28.7059 30.5419 28.7408C30.8118 29.0108 31.0646 29.3026 31.356 29.5552C32.0544 30.1562 32.7957 30.1388 33.4641 29.516C33.7597 29.2416 34.0254 28.9324 34.3253 28.658C35.6622 27.4211 37.5432 27.4385 38.8543 28.6972C39.1628 28.9934 39.4456 29.3157 39.7627 29.5944C40.3368 30.0953 41.0438 30.1432 41.6222 29.6771C42.085 29.3069 42.5049 28.8714 42.9034 28.4315C43.0062 28.3226 43.0233 28.057 42.9719 27.9045Z" fill="white"/>
<path d="M38.273 19.1106C37.4562 18.3894 36.5816 17.7301 35.6892 17.0973C35.2186 16.7611 34.9434 16.4027 34.9745 15.8053C35.0055 15.2212 34.9834 14.6327 34.9834 14C32.6482 14 30.3352 14 28.0044 14C25.6737 14 23.3607 14 21.0255 14C21.0255 14.6327 20.9989 15.2212 21.0344 15.8053C21.0655 16.4027 20.7902 16.7611 20.3196 17.0973C19.4317 17.7301 18.5527 18.385 17.7358 19.1106C17.1276 19.6504 16.626 20.3053 16 21C20.0355 21 24.0178 21 28 21C31.9822 21 35.9645 21 40 21C39.3785 20.3053 38.8768 19.6504 38.273 19.1106Z" fill="white"/>
<path d="M28 6C24.6535 6 21.3333 6 18 6C18 7.06486 18 8.08696 18 9.13043C18.7045 9.13043 19.3562 9.12188 20.0079 9.13471C20.7433 9.14754 21.0691 9.47256 21.0823 10.191C21.0911 10.7812 21.0823 11.3671 21.0823 12C23.4117 12 25.7015 12 28 12C30.2985 12 32.5927 12 34.9177 12C34.9177 11.3671 34.9133 10.7812 34.9177 10.191C34.9265 9.47256 35.2523 9.14754 35.9921 9.13471C36.6438 9.12188 37.2955 9.13043 38 9.13043C38 8.08696 38 7.06486 38 6C34.6711 6 31.3465 6 28 6Z" fill="white"/>
</svg>
