<svg width="57" height="56" viewBox="0 0 57 56" fill="none" xmlns="http://www.w3.org/2000/svg">
<path d="M40.2078 15.2165C38.0829 15.5182 37.0978 16.5144 37.6962 18.6168C37.908 19.3616 37.787 20.1819 37.9517 20.9424C38.8831 25.2729 36.1832 28.4533 33.5775 31.2911C29.6572 35.5619 24.0827 34.5909 20.8819 29.7261C18.5015 26.1089 16.891 22.4603 18.2224 18.1392C18.7167 16.5301 17.9972 15.5716 16.3161 14.9808C15.062 14.5408 13.67 14.1857 12.5 12.7181C17.708 10.7948 22.7379 8.90608 27.7979 7.10221C28.6856 6.78795 29.6203 7.26877 30.481 7.59561C34.0045 8.93123 37.5449 10.2386 41.0315 11.6528C41.9124 12.0079 43.3985 11.9607 43.496 13.0072C43.5935 14.0694 41.8855 13.9626 41.3207 14.764C40.8869 14.7797 40.4566 14.8017 40.2078 15.2165Z" fill="#BDBDBD"/>
<path d="M27.9234 48.9547C22.8458 48.9517 17.7619 48.8633 12.6874 48.9974C10.6817 49.0492 10.3327 48.3237 10.5612 46.644C11.0562 42.9736 12.8715 40.3397 16.6003 39.1264C18.4886 38.5106 20.5609 38.4191 22.2428 37.2058C23.0299 36.6358 23.5281 37.3918 24.0486 37.7607C26.635 39.5928 29.2277 39.6294 31.7634 37.7393C32.6107 37.1083 33.2581 36.7973 34.2641 37.529C35.5525 38.4618 37.1837 38.5655 38.7261 38.8795C43.261 39.8001 45.8569 43.3577 45.4603 47.7567C45.3206 49.2901 44.3019 48.9456 43.4229 48.9486C38.2564 48.9669 33.0899 48.9578 27.9234 48.9547Z" fill="#BDBDBD"/>
<path d="M39.3667 15.4718C39.6059 15.0365 40.0197 15.01 40.4368 15C40.1717 20.3255 41.3355 25.5546 41.4842 30.8536C41.5165 32.0263 41.6458 33.0196 39.9583 32.9997C38.2126 32.9831 38.5133 31.9233 38.5294 30.7871C38.5941 25.6676 39.8775 20.6212 39.3667 15.4718Z" fill="#BDBDBD"/>
</svg>
