<svg width="56" height="56" viewBox="0 0 56 56" fill="none" xmlns="http://www.w3.org/2000/svg">
<path d="M17.8166 25.2681V24.9452H18.222V24.5535H18.6927V23.1963H12.6387V24.5535H13.106V24.9452H13.5114V25.2681H13.8206V40.3757H13.5114V40.6987H13.106V41.0904H12.6387V42.4476H18.6927V41.0904H18.222V40.6987H17.8166V40.3757H17.5108V25.2681H17.8166Z" fill="#BDBDBD"/>
<path d="M30.154 25.2681V24.9452H30.556V24.5535H31.0267V23.1963H24.9727V24.5535H25.4434V24.9452H25.8454V25.2681H26.1546V40.3757H25.8454V40.6987H25.4434V41.0904H24.9727V42.4476H31.0267V41.0904H30.556V40.6987H30.154V40.3757H29.8447V25.2681H30.154Z" fill="#BDBDBD"/>
<path d="M42.4899 25.2681V24.9452H42.8954V24.5535H43.3626V23.1963H37.3086V24.5535H37.7793V24.9452H38.1847V25.2681H38.4905V40.3757H38.1847V40.6987H37.7793V41.0904H37.3086V42.4476H43.3626V41.0904H42.8954V40.6987H42.4899V40.3757H42.1807V25.2681H42.4899Z" fill="#BDBDBD"/>
<path d="M46.211 43.4307H9.78711V45.8598H46.211V43.4307Z" fill="#BDBDBD"/>
<path d="M50 47.4131H6V49.8423H50V47.4131Z" fill="#BDBDBD"/>
<path d="M46.1616 18.091L39.6884 13.614L29.2433 6.38832C28.8722 6.13063 28.4428 6.0035 28.0133 6.00007C27.5769 5.99663 27.1371 6.12719 26.7592 6.38832L16.3072 13.614L9.83741 18.091C8.05419 19.3244 9.12275 21.7021 11.466 21.7021H27.9995H28.0098H44.533C46.8763 21.7021 47.9483 19.3244 46.1616 18.091ZM28.0098 18.8503C28.0064 18.8503 28.003 18.8503 27.9995 18.8503C26.3606 18.8503 25.0309 17.5206 25.0309 15.8817C25.0309 14.2428 26.3606 12.9131 27.9995 12.9131C28.003 12.9131 28.0064 12.9131 28.0098 12.9131C29.6453 12.9199 30.9681 14.2462 30.9681 15.8817C30.9681 17.5172 29.6453 18.8434 28.0098 18.8503Z" fill="#BDBDBD"/>
</svg>
