<svg width="30" height="30" viewBox="0 0 30 30" fill="none" xmlns="http://www.w3.org/2000/svg">
<g clip-path="url(#clip0_814_2994)">
<path d="M-1.90735e-06 13.7998V16.1998C-1.90735e-06 16.8623 0.220787 17.4279 0.662363 17.8967C1.10394 18.3654 1.67799 18.5998 2.38451 18.5998H16.7323L10.7609 24.1123C10.2446 24.5623 9.98641 25.1248 9.98641 25.7998C9.98641 26.4748 10.2446 27.0373 10.7609 27.4873L12.2894 28.9123C12.7921 29.3748 13.4035 29.6061 14.1236 29.6061C14.8302 29.6061 15.4484 29.3748 15.9783 28.9123L29.2459 16.6873C29.7486 16.2248 30 15.6623 30 14.9998C30 14.3498 29.7486 13.7811 29.2459 13.2936L15.9783 1.10605C15.462 0.631055 14.8437 0.393555 14.1236 0.393555C13.4171 0.393555 12.8057 0.631055 12.2894 1.10605L10.7609 2.49355C10.2446 2.96855 9.98641 3.5373 9.98641 4.1998C9.98641 4.8623 10.2446 5.43105 10.7609 5.90605L16.7323 11.3998H2.38451C1.67799 11.3998 1.10394 11.6342 0.662363 12.1029C0.220787 12.5717 -1.90735e-06 13.1373 -1.90735e-06 13.7998Z" fill="#454545"/>
</g>
<defs>
<clipPath id="clip0_814_2994">
<rect width="30" height="30" fill="white"/>
</clipPath>
</defs>
</svg>
