<svg width="30" height="30" viewBox="0 0 30 30" fill="none" xmlns="http://www.w3.org/2000/svg">
<g clip-path="url(#clip0_814_2992)">
<path d="M30 13.7998V16.1998C30 16.8623 29.7792 17.4279 29.3376 17.8967C28.8961 18.3654 28.322 18.5998 27.6155 18.5998H13.2677L19.2391 24.1123C19.7554 24.5623 20.0136 25.1248 20.0136 25.7998C20.0136 26.4748 19.7554 27.0373 19.2391 27.4873L17.7106 28.9123C17.2079 29.3748 16.5965 29.6061 15.8764 29.6061C15.1698 29.6061 14.5516 29.3748 14.0217 28.9123L0.754076 16.6873C0.251359 16.2248 0 15.6623 0 14.9998C0 14.3498 0.251359 13.7811 0.754076 13.2936L14.0217 1.10605C14.538 0.631055 15.1563 0.393555 15.8764 0.393555C16.5829 0.393555 17.1943 0.631055 17.7106 1.10605L19.2391 2.49355C19.7554 2.96855 20.0136 3.5373 20.0136 4.1998C20.0136 4.8623 19.7554 5.43105 19.2391 5.90605L13.2677 11.3998H27.6155C28.322 11.3998 28.8961 11.6342 29.3376 12.1029C29.7792 12.5717 30 13.1373 30 13.7998Z" fill="#454545"/>
</g>
<defs>
<clipPath id="clip0_814_2992">
<rect width="30" height="30" fill="white"/>
</clipPath>
</defs>
</svg>
