<svg width="51" height="50" viewBox="0 0 51 50" fill="none" xmlns="http://www.w3.org/2000/svg">
<path d="M41.125 6.25H36.4375V4.6875C36.4375 4.2731 36.2729 3.87567 35.9799 3.58265C35.6868 3.28962 35.2894 3.125 34.875 3.125C34.4606 3.125 34.0632 3.28962 33.7701 3.58265C33.4771 3.87567 33.3125 4.2731 33.3125 4.6875V6.25H17.6875V4.6875C17.6875 4.2731 17.5229 3.87567 17.2299 3.58265C16.9368 3.28962 16.5394 3.125 16.125 3.125C15.7106 3.125 15.3132 3.28962 15.0201 3.58265C14.7271 3.87567 14.5625 4.2731 14.5625 4.6875V6.25H9.875C9.0462 6.25 8.25134 6.57924 7.66529 7.16529C7.07924 7.75134 6.75 8.5462 6.75 9.375V40.625C6.75 41.4538 7.07924 42.2487 7.66529 42.8347C8.25134 43.4208 9.0462 43.75 9.875 43.75H41.125C41.9538 43.75 42.7487 43.4208 43.3347 42.8347C43.9208 42.2487 44.25 41.4538 44.25 40.625V9.375C44.25 8.5462 43.9208 7.75134 43.3347 7.16529C42.7487 6.57924 41.9538 6.25 41.125 6.25ZM33.6055 26.1328L24.4844 34.7266C24.3426 34.8656 24.1746 34.9751 23.9902 35.0488C23.8059 35.1226 23.6087 35.1591 23.4102 35.1562C23.0099 35.1578 22.6247 35.0037 22.3359 34.7266L17.3945 30.0391C17.2358 29.9006 17.1067 29.7314 17.015 29.5418C16.9233 29.3522 16.8709 29.1459 16.861 28.9355C16.851 28.7251 16.8837 28.5149 16.9571 28.3174C17.0305 28.12 17.143 27.9394 17.288 27.7865C17.4329 27.6337 17.6073 27.5117 17.8005 27.428C17.9938 27.3442 18.202 27.3004 18.4127 27.2992C18.6233 27.298 18.832 27.3394 19.0263 27.4209C19.2205 27.5024 19.3963 27.6223 19.543 27.7734L23.4102 31.4453L31.457 23.8672C31.6046 23.7239 31.7793 23.6115 31.971 23.5367C32.1626 23.462 32.3673 23.4263 32.5729 23.4317C32.7785 23.4372 32.981 23.4837 33.1684 23.5685C33.3558 23.6534 33.5243 23.7748 33.6641 23.9258C33.9486 24.2264 34.1023 24.6276 34.0913 25.0414C34.0803 25.4552 33.9056 25.8477 33.6055 26.1328ZM41.125 15.625H9.875V9.375H14.5625V10.9375C14.5625 11.3519 14.7271 11.7493 15.0201 12.0424C15.3132 12.3354 15.7106 12.5 16.125 12.5C16.5394 12.5 16.9368 12.3354 17.2299 12.0424C17.5229 11.7493 17.6875 11.3519 17.6875 10.9375V9.375H33.3125V10.9375C33.3125 11.3519 33.4771 11.7493 33.7701 12.0424C34.0632 12.3354 34.4606 12.5 34.875 12.5C35.2894 12.5 35.6868 12.3354 35.9799 12.0424C36.2729 11.7493 36.4375 11.3519 36.4375 10.9375V9.375H41.125V15.625Z" fill="black"/>
</svg>
