<?xml version="1.0" encoding="utf-8"?>
<!-- Generator: Adobe Illustrator 26.2.1, SVG Export Plug-In . SVG Version: 6.00 Build 0)  -->
<svg version="1.1" id="Layer_1" xmlns="http://www.w3.org/2000/svg" xmlns:xlink="http://www.w3.org/1999/xlink" x="0px" y="0px"
	 viewBox="0 0 51 50" style="enable-background:new 0 0 51 50;" xml:space="preserve">
<g>
	<path d="M41.2,44.1H9.9c-1.6,0-2.9-1.3-2.9-2.9V9.2c0-1.6,1.3-2.9,2.9-2.9h31.3c1.6,0,2.9,1.3,2.9,2.9v31.9
		C44.1,42.8,42.8,44.1,41.2,44.1z M9.9,8.4C9.4,8.4,9,8.8,9,9.2v31.9C9,41.6,9.4,42,9.9,42h31.3c0.5,0,0.8-0.4,0.8-0.8V9.2
		c0-0.5-0.4-0.8-0.8-0.8H9.9z"/>
</g>
<g>
	<path d="M16.1,12.5c-0.6,0-1-0.4-1-1V4.1c0-0.6,0.4-1,1-1s1,0.4,1,1v7.4C17.1,12.1,16.7,12.5,16.1,12.5z"/>
</g>
<g>
	<path d="M34.9,12.5c-0.6,0-1-0.4-1-1V4.1c0-0.6,0.4-1,1-1s1,0.4,1,1v7.4C35.9,12.1,35.5,12.5,34.9,12.5z"/>
</g>
<path d="M8,16.7v23.6c0,1.3,1.1,2.4,2.4,2.4h30.4c1.3,0,2.4-1.1,2.4-2.4V16.7H8z M33.8,24.5L23.3,35.1l-6.6-6.6
	c-0.4-0.4-0.4-1.1,0-1.5c0.4-0.4,1.1-0.4,1.5,0l5.1,5.1l9-9c0.4-0.4,1.1-0.4,1.5,0C34.3,23.4,34.3,24.1,33.8,24.5z"/>
</svg>
