<svg width="75" height="75" viewBox="0 0 75 75" fill="none" xmlns="http://www.w3.org/2000/svg">
<g clip-path="url(#clip0_757_2402)">
<path d="M28.125 37.5C34.1562 37.5 39.0625 32.5938 39.0625 26.5625C39.0625 20.5312 34.1562 15.625 28.125 15.625C22.0938 15.625 17.1875 20.5312 17.1875 26.5625C17.1875 32.5938 22.0938 37.5 28.125 37.5ZM28.125 21.875C30.7188 21.875 32.8125 23.9688 32.8125 26.5625C32.8125 29.1562 30.7188 31.25 28.125 31.25C25.5312 31.25 23.4375 29.1562 23.4375 26.5625C23.4375 23.9688 25.5312 21.875 28.125 21.875ZM28.2812 53.125H14.9062C18 51.5625 23.3438 50 28.125 50C28.4688 50 28.8438 50.0312 29.1875 50.0312C30.25 47.75 32.0937 45.875 34.3125 44.375C32.0312 43.9688 29.875 43.75 28.125 43.75C20.8125 43.75 6.25 47.4062 6.25 54.6875V59.375H28.125V54.6875C28.125 54.1562 28.1875 53.625 28.2812 53.125ZM51.5625 45.3125C45.8125 45.3125 34.375 48.4688 34.375 54.6875V59.375H68.75V54.6875C68.75 48.4688 57.3125 45.3125 51.5625 45.3125ZM55.3437 39.625C57.7187 38.2812 59.375 35.75 59.375 32.8125C59.375 28.5 55.875 25 51.5625 25C47.25 25 43.75 28.5 43.75 32.8125C43.75 35.75 45.4062 38.2812 47.7812 39.625C48.9062 40.25 50.1875 40.625 51.5625 40.625C52.9375 40.625 54.2187 40.25 55.3437 39.625Z" fill="white"/>
</g>
<defs>
<clipPath id="clip0_757_2402">
<rect width="75" height="75" fill="white"/>
</clipPath>
</defs>
</svg>
