<svg width="51" height="50" viewBox="0 0 51 50" fill="none" xmlns="http://www.w3.org/2000/svg">
<path d="M46.8402 29.0491C46.6902 29.2091 46.5602 29.3891 46.4002 29.5391C45.3802 30.5691 44.1202 31.0291 42.6902 31.0891C42.5402 31.0991 42.3902 31.0891 42.2402 31.0891C31.0702 31.0891 19.9102 31.0891 8.74016 31.0891C7.87016 31.0891 7.03016 30.9791 6.22016 30.6491C5.43016 30.3191 4.79016 29.7891 4.24016 29.1391C4.22016 29.1091 4.20016 29.0791 4.16016 29.0091C4.25016 28.9991 4.31016 28.9991 4.36016 28.9991C5.16016 29.0191 5.97016 29.0791 6.77016 29.0591C9.12016 29.0191 11.2402 28.3091 13.0502 26.7891C13.7102 26.2391 14.3202 25.6391 14.9402 25.0491C15.0802 24.9191 15.2102 24.8691 15.3902 24.8691C18.1002 24.8791 20.8202 24.8791 23.5302 24.8791C27.3302 24.8791 31.1302 24.8791 34.9302 24.8791C35.1702 24.8791 35.4202 24.8591 35.6602 24.8891C35.7802 24.8991 35.9202 24.9491 36.0002 25.0291C36.8502 25.8891 37.7202 26.7191 38.7302 27.3891C40.0902 28.3091 41.6002 28.8391 43.2302 28.9991C44.3602 29.1091 45.4802 29.0991 46.6002 29.0091C46.6602 28.9991 46.7302 29.0091 46.7902 29.0091C46.8202 29.0091 46.8302 29.0291 46.8402 29.0491Z" fill="black"/>
<path d="M4.20016 29.3398C4.25016 29.3898 4.30016 29.4398 4.34016 29.4898C5.26016 30.5698 6.43016 31.1798 7.84016 31.3098C8.15016 31.3398 8.45016 31.3498 8.76016 31.3498C19.9302 31.3498 31.1002 31.3498 42.2702 31.3498C43.2702 31.3498 44.2302 31.1998 45.1202 30.7398C45.7302 30.4298 46.2302 29.9798 46.6802 29.4698C46.7102 29.4298 46.7502 29.3898 46.7802 29.3498C46.7902 29.3398 46.8002 29.3498 46.8502 29.3398C46.8002 29.6298 46.7502 29.9098 46.7002 30.1798C46.4702 31.2598 46.0702 32.2598 45.3702 33.1198C44.5702 34.1098 43.5202 34.6698 42.2802 34.8798C41.9302 34.9398 41.5602 34.9598 41.2102 34.9598C36.1302 34.9698 31.0602 34.9598 25.9802 34.9598C22.0602 34.9598 18.1302 34.9598 14.2102 34.9598C12.6502 34.9598 11.0902 34.9798 9.53016 34.9498C8.32016 34.9298 7.21016 34.5598 6.27016 33.7698C5.47016 33.0998 4.94016 32.2498 4.62016 31.2798C4.42016 30.6898 4.31016 30.0798 4.17016 29.4698C4.16016 29.4298 4.16016 29.3898 4.16016 29.3498C4.16016 29.3698 4.18016 29.3598 4.20016 29.3398Z" fill="black"/>
<path d="M11.0195 15.3894C11.4195 15.4094 11.7695 15.4194 12.1095 15.4394C13.9295 15.5194 15.5795 15.0794 16.9695 13.8594C17.4395 13.4394 17.8695 12.9794 18.3095 12.5294C18.4195 12.4194 18.5295 12.3594 18.6895 12.3594C23.1795 12.3594 27.6695 12.3594 32.1495 12.3594C32.4195 12.3594 32.6095 12.4394 32.7995 12.6494C33.5895 13.5394 34.4495 14.3294 35.5395 14.8394C36.2795 15.1894 37.0595 15.3794 37.8695 15.4094C38.4995 15.4294 39.1395 15.3994 39.7695 15.3894C39.8195 15.3894 39.8695 15.3894 39.9595 15.3994C39.9195 15.4694 39.8995 15.5194 39.8595 15.5594C39.1695 16.4494 38.2395 16.8794 37.1295 16.9294C37.0595 16.9294 36.9895 16.9294 36.9095 16.9294C29.2995 16.9294 21.6795 16.9294 14.0695 16.9294C13.1995 16.9294 12.3895 16.7294 11.7095 16.1694C11.4695 15.9594 11.2295 15.7294 11.0195 15.3894Z" fill="black"/>
<path d="M25.4897 46.2705C17.9397 46.2705 10.3897 46.2705 2.83969 46.2705C2.76969 46.2705 2.68969 46.2905 2.62969 46.2605C2.56969 46.2405 2.49969 46.1805 2.49969 46.1405C2.48969 45.5505 2.48969 44.9605 2.49969 44.3705C2.49969 44.3305 2.56969 44.2705 2.61969 44.2605C2.67969 44.2405 2.74969 44.2505 2.80969 44.2505C17.9497 44.2505 33.0997 44.2505 48.2397 44.2505C48.5297 44.2505 48.5297 44.2505 48.5297 44.5405C48.5297 45.0405 48.5197 45.5505 48.5297 46.0505C48.5297 46.2105 48.4697 46.2805 48.3097 46.2605C48.2397 46.2505 48.1697 46.2605 48.0897 46.2605C40.5597 46.2705 33.0197 46.2705 25.4897 46.2705Z" fill="black"/>
<path d="M39.9995 15.7702C39.9295 16.1102 39.8795 16.4502 39.7895 16.7802C39.5995 17.5102 39.2995 18.1902 38.7795 18.7602C38.1395 19.4602 37.3295 19.8402 36.3795 19.8502C34.7295 19.8702 33.0795 19.8502 31.4295 19.8502C27.7295 19.8502 24.0395 19.8502 20.3395 19.8602C18.4295 19.8602 16.5295 19.8702 14.6195 19.8502C13.6195 19.8402 12.7795 19.4302 12.1295 18.6602C11.5895 18.0202 11.3095 17.2602 11.1395 16.4602C11.0895 16.2302 11.0595 16.0002 11.0195 15.7702C11.0395 15.7602 11.0595 15.7502 11.0695 15.7402C11.1195 15.8002 11.1695 15.8502 11.2195 15.9102C11.9095 16.7702 12.8195 17.1702 13.9095 17.1902C14.6395 17.2002 15.3595 17.1902 16.0895 17.1902C23.0395 17.1902 29.9795 17.1902 36.9295 17.1902C37.6495 17.1902 38.3395 17.0702 38.9495 16.6602C39.2195 16.4802 39.4595 16.2302 39.6995 16.0102C39.7795 15.9302 39.8495 15.8302 39.9295 15.7502C39.9495 15.7502 39.9795 15.7602 39.9995 15.7702Z" fill="black"/>
<path d="M16.4883 4.86086C16.5983 4.86086 16.6683 4.85086 16.7383 4.86086C18.3483 5.04086 19.7183 4.57086 20.7883 3.34086C21.0083 3.09086 21.2383 2.98086 21.5783 2.99086C24.2683 3.01086 26.9483 3.00086 29.6383 2.99086C29.8283 2.99086 29.9583 3.04086 30.0783 3.18086C30.5583 3.71086 31.0683 4.18086 31.7183 4.50086C32.2283 4.75086 32.7683 4.86086 33.3283 4.88086C33.6783 4.89086 34.0183 4.86086 34.3683 4.86086C34.4083 4.86086 34.4383 4.87086 34.5083 4.88086C34.3283 5.19086 34.0883 5.40086 33.7983 5.56086C33.4283 5.77086 33.0183 5.85086 32.5883 5.85086C29.4383 5.85086 26.2883 5.85086 23.1383 5.85086C21.5283 5.85086 19.9183 5.85086 18.2983 5.85086C17.5883 5.85086 16.9983 5.58086 16.5583 5.01086C16.5483 4.97086 16.5283 4.94086 16.4883 4.86086Z" fill="black"/>
<path d="M23.5787 39.6191C23.5787 38.4291 23.5787 37.2491 23.5787 36.0591C23.5787 35.7991 23.5887 35.7891 23.8387 35.7891C24.9487 35.7891 26.0687 35.7891 27.1787 35.7891C27.4287 35.7891 27.4387 35.7991 27.4387 36.0591C27.4387 38.4291 27.4387 40.7991 27.4387 43.1691C27.4387 43.4291 27.4287 43.4391 27.1787 43.4391C26.0687 43.4391 24.9487 43.4391 23.8387 43.4391C23.5887 43.4391 23.5787 43.4291 23.5787 43.1691C23.5687 41.9891 23.5787 40.7991 23.5787 39.6191Z" fill="black"/>
<path d="M34.4999 5.28969C34.4199 6.57969 33.6199 7.77969 32.1599 7.77969C27.7199 7.77969 23.2899 7.77969 18.8499 7.77969C17.8899 7.77969 17.2199 7.32969 16.8099 6.47969C16.6199 6.08969 16.4699 5.46969 16.4999 5.17969C16.5599 5.24969 16.6099 5.29969 16.6499 5.34969C17.0399 5.83969 17.5599 6.05969 18.1699 6.09969C18.2599 6.10969 18.3499 6.09969 18.4499 6.09969C23.1599 6.09969 27.8699 6.09969 32.5799 6.09969C33.1299 6.09969 33.6499 5.97969 34.0799 5.61969C34.2299 5.49969 34.3899 5.37969 34.4999 5.28969Z" fill="black"/>
<path d="M40.0117 39.6309C40.0117 38.2609 40.0117 36.8909 40.0117 35.5209C40.0117 35.2509 40.0217 35.2409 40.2917 35.2409C40.6617 35.2409 41.0217 35.2509 41.3917 35.2409C41.6117 35.2309 41.6317 35.3309 41.6317 35.5109C41.6317 37.7109 41.6317 39.9109 41.6317 42.1209C41.6317 42.6509 41.6317 43.1809 41.6317 43.7109C41.6317 43.9909 41.6317 43.9909 41.3417 43.9909C40.9717 43.9909 40.5917 43.9809 40.2217 43.9909C40.0317 44.0009 40.0117 43.9109 40.0117 43.7609C40.0117 42.4109 40.0117 41.0609 40.0117 39.7109C40.0117 39.6809 40.0117 39.6609 40.0117 39.6309Z" fill="black"/>
<path d="M10.9989 39.6102C10.9989 40.9702 10.9989 42.3302 10.9989 43.7002C10.9989 43.9902 10.9989 43.9902 10.6989 43.9902C10.3389 43.9902 9.97891 43.9802 9.61891 43.9902C9.42891 44.0002 9.37891 43.9302 9.37891 43.7402C9.38891 42.4602 9.37891 41.1902 9.37891 39.9102C9.37891 38.4502 9.37891 36.9902 9.37891 35.5302C9.37891 35.2502 9.38891 35.2402 9.66891 35.2402C10.0189 35.2402 10.3789 35.2402 10.7289 35.2402C10.9989 35.2402 10.9989 35.2502 10.9989 35.5202C10.9989 36.8902 10.9989 38.2502 10.9989 39.6102Z" fill="black"/>
<path d="M17.1117 39.6302C17.1117 41.0102 17.1117 42.3902 17.1117 43.7702C17.1117 43.9402 17.0617 44.0002 16.8917 43.9902C16.5017 43.9802 16.1217 43.9802 15.7317 43.9902C15.5717 43.9902 15.5117 43.9302 15.5117 43.7702C15.5217 43.2802 15.5117 42.7902 15.5117 42.3002C15.5117 40.0502 15.5117 37.7902 15.5117 35.5402C15.5117 35.2502 15.5217 35.2402 15.8017 35.2402C16.1717 35.2402 16.5317 35.2402 16.9017 35.2402C17.0517 35.2402 17.1017 35.2802 17.1017 35.4402C17.1117 36.8402 17.1117 38.2302 17.1117 39.6302Z" fill="black"/>
<path d="M21.649 39.6292C21.649 38.2692 21.649 36.9092 21.649 35.5392C21.649 35.2492 21.659 35.2392 21.939 35.2392C22.289 35.2392 22.629 35.2492 22.979 35.2392C23.179 35.2292 23.239 35.2992 23.239 35.4992C23.229 36.8192 23.239 38.1492 23.239 39.4692C23.239 40.8792 23.239 42.2892 23.239 43.6892C23.239 43.9892 23.239 43.9892 22.929 43.9892C22.619 43.9892 22.309 43.9892 22.009 43.9892C21.629 43.9892 21.649 44.0692 21.649 43.6192C21.639 42.2892 21.649 40.9592 21.649 39.6292Z" fill="black"/>
<path d="M27.7795 39.5902C27.7795 38.2302 27.7795 36.8702 27.7795 35.5002C27.7795 35.2402 27.7795 35.2402 28.0495 35.2402C28.3995 35.2402 28.7595 35.2402 29.1095 35.2402C29.3695 35.2402 29.3695 35.2502 29.3695 35.5002C29.3695 37.6502 29.3695 39.8102 29.3695 41.9602C29.3695 42.5402 29.3695 43.1302 29.3695 43.7102C29.3695 43.9802 29.3695 43.9802 29.0895 43.9802C28.7395 43.9802 28.3795 43.9702 28.0295 43.9802C27.8295 43.9902 27.7695 43.9202 27.7695 43.7202C27.7795 42.3502 27.7695 40.9702 27.7795 39.5902Z" fill="black"/>
<path d="M33.9084 39.6102C33.9084 38.2502 33.9084 36.9002 33.9084 35.5402C33.9084 35.2402 33.9084 35.2402 34.2184 35.2402C34.5484 35.2402 34.8884 35.2402 35.2184 35.2402C35.4784 35.2402 35.4984 35.2602 35.4984 35.5202C35.4984 36.4402 35.4984 37.3702 35.4984 38.2902C35.4984 40.0802 35.4984 41.8802 35.4984 43.6702C35.4984 43.9802 35.4984 43.9802 35.1784 43.9802C34.8284 43.9802 34.4884 43.9702 34.1384 43.9802C33.9584 43.9902 33.8984 43.9302 33.8984 43.7502C33.9084 42.3702 33.9084 40.9902 33.9084 39.6102Z" fill="black"/>
<path d="M30.6016 42.6991C30.6016 42.5391 30.6016 42.3891 30.6016 42.2491C30.6016 40.4491 30.6016 38.6491 30.6016 36.8491C30.6016 36.6791 30.6416 36.6191 30.8216 36.6191C31.4116 36.6291 32.0016 36.6291 32.5916 36.6191C32.7616 36.6191 32.8216 36.6791 32.8216 36.8491C32.8216 38.7391 32.8216 40.6391 32.8216 42.5291C32.8216 42.6391 32.8116 42.7391 32.6616 42.7391C32.0116 42.7391 31.3516 42.7391 30.6916 42.7391C30.6716 42.7291 30.6516 42.7191 30.6016 42.6991Z" fill="black"/>
<path d="M20.4114 39.6794C20.4114 40.6094 20.4114 41.5394 20.4114 42.4694C20.4114 42.6594 20.3614 42.7294 20.1614 42.7294C19.5814 42.7194 18.9914 42.7194 18.4114 42.7294C18.2414 42.7294 18.1914 42.6694 18.1914 42.5094C18.1914 40.6294 18.1914 38.7494 18.1914 36.8694C18.1914 36.6194 18.2014 36.6094 18.4614 36.6094C19.0214 36.6094 19.5914 36.6194 20.1514 36.6094C20.3514 36.6094 20.4114 36.6794 20.4114 36.8694C20.4014 37.8094 20.4114 38.7494 20.4114 39.6794Z" fill="black"/>
<path d="M19.0617 23.6209C18.6217 23.6209 18.1817 23.6109 17.7417 23.6209C17.5717 23.6209 17.5117 23.5709 17.5117 23.3909C17.5217 22.7109 17.5217 22.0309 17.5117 21.3509C17.5117 21.1709 17.5817 21.1309 17.7417 21.1309C18.6217 21.1309 19.5117 21.1409 20.3917 21.1309C20.5617 21.1309 20.6217 21.1909 20.6217 21.3609C20.6217 22.0409 20.6117 22.7209 20.6217 23.4009C20.6217 23.5709 20.5517 23.6309 20.3817 23.6209C19.9517 23.6109 19.5017 23.6209 19.0617 23.6209Z" fill="black"/>
<path d="M31.9516 21.13C32.3916 21.13 32.8316 21.13 33.2716 21.13C33.4416 21.13 33.5016 21.18 33.5016 21.36C33.4916 22.04 33.4916 22.72 33.5016 23.4C33.5016 23.58 33.4316 23.62 33.2716 23.62C32.3916 23.61 31.5016 23.61 30.6216 23.62C30.4516 23.62 30.3816 23.57 30.3916 23.39C30.4016 22.71 30.3916 22.03 30.3916 21.35C30.3916 21.18 30.4616 21.12 30.6316 21.13C31.0616 21.13 31.5116 21.13 31.9516 21.13Z" fill="black"/>
<path d="M25.5088 21.1309C25.9388 21.1309 26.3688 21.1409 26.8088 21.1309C26.9888 21.1309 27.0688 21.1709 27.0588 21.3709C27.0488 22.0409 27.0488 22.7209 27.0588 23.3909C27.0588 23.5609 27.0088 23.6209 26.8388 23.6209C25.9488 23.6109 25.0588 23.6109 24.1688 23.6209C24.0188 23.6209 23.9688 23.5609 23.9688 23.4109C23.9787 22.7209 23.9787 22.0209 23.9688 21.3309C23.9688 21.1709 24.0388 21.1309 24.1788 21.1309C24.6188 21.1309 25.0588 21.1309 25.5088 21.1309Z" fill="black"/>
<path d="M15.0508 22.3702C15.0508 21.7002 15.0508 21.0202 15.0508 20.3502C15.0508 20.1802 15.1108 20.1002 15.2908 20.1102C15.6008 20.1202 15.9208 20.1202 16.2308 20.1102C16.3808 20.1102 16.4408 20.1602 16.4408 20.3202C16.4408 21.6802 16.4408 23.0402 16.4408 24.4002C16.4408 24.5502 16.3908 24.6102 16.2408 24.6102C15.9208 24.6002 15.6008 24.6002 15.2808 24.6102C15.1008 24.6202 15.0608 24.5402 15.0608 24.3802C15.0508 23.7102 15.0508 23.0402 15.0508 22.3702Z" fill="black"/>
<path d="M21.5686 22.3602C21.5686 21.7002 21.5786 21.0402 21.5686 20.3702C21.5686 20.1802 21.6186 20.1002 21.8186 20.1102C22.1286 20.1202 22.4386 20.1202 22.7386 20.1102C22.8886 20.1102 22.9486 20.1702 22.9486 20.3202C22.9486 21.6802 22.9486 23.0502 22.9486 24.4102C22.9486 24.5702 22.8786 24.6102 22.7286 24.6102C22.4186 24.6002 22.0986 24.6002 21.7886 24.6102C21.6186 24.6202 21.5586 24.5502 21.5586 24.3802C21.5686 23.7102 21.5686 23.0302 21.5686 22.3602Z" fill="black"/>
<path d="M29.4503 22.3701C29.4503 23.0301 29.4503 23.6801 29.4503 24.3401C29.4503 24.6101 29.4503 24.6101 29.1703 24.6101C28.8803 24.6101 28.5803 24.6001 28.2903 24.6101C28.1303 24.6101 28.0703 24.5601 28.0703 24.4001C28.0703 23.0401 28.0703 21.6901 28.0703 20.3301C28.0703 20.1701 28.1403 20.1101 28.2903 20.1101C28.6003 20.1201 28.9103 20.1201 29.2103 20.1101C29.4103 20.1001 29.4503 20.1901 29.4503 20.3701C29.4403 21.0301 29.4503 21.7001 29.4503 22.3701Z" fill="black"/>
<path d="M34.5781 22.3494C34.5781 21.6794 34.5881 21.0194 34.5781 20.3494C34.5781 20.1694 34.6481 20.1094 34.8181 20.1094C35.1281 20.1194 35.4381 20.1194 35.7381 20.1094C35.8881 20.1094 35.9681 20.1594 35.9681 20.3194C35.9681 21.6794 35.9681 23.0394 35.9681 24.3994C35.9681 24.5494 35.9081 24.5994 35.7581 24.5994C35.4381 24.5894 35.1181 24.5894 34.7981 24.5994C34.6281 24.5994 34.5881 24.5394 34.5881 24.3794C34.5781 23.7094 34.5781 23.0294 34.5781 22.3494Z" fill="black"/>
<path d="M24.4414 10.0696C24.4414 9.72961 24.4414 9.38961 24.4414 9.04961C24.4414 8.90961 24.4914 8.84961 24.6414 8.84961C25.2214 8.85961 25.7914 8.85961 26.3714 8.84961C26.5114 8.84961 26.5714 8.90961 26.5714 9.04961C26.5714 9.73961 26.5714 10.4396 26.5714 11.1296C26.5714 11.2596 26.5214 11.3196 26.3814 11.3196C25.8014 11.3196 25.2114 11.3096 24.6314 11.3196C24.4814 11.3196 24.4414 11.2496 24.4414 11.1096C24.4514 10.7596 24.4414 10.4196 24.4414 10.0696Z" fill="black"/>
<path d="M30.8991 10.0996C30.8991 10.4496 30.8991 10.7896 30.8991 11.1396C30.8991 11.2696 30.8591 11.3096 30.7291 11.3096C30.1491 11.2996 29.5791 11.2996 28.9991 11.3096C28.8491 11.3096 28.7891 11.2596 28.7891 11.1096C28.7991 10.4196 28.7891 9.72961 28.7891 9.04961C28.7891 8.90961 28.8391 8.84961 28.9891 8.84961C29.5591 8.84961 30.1291 8.85961 30.6991 8.84961C30.8591 8.84961 30.9091 8.90961 30.8991 9.05961C30.8991 9.40961 30.8991 9.75961 30.8991 10.0996Z" fill="black"/>
<path d="M20.1106 10.0704C20.1106 9.74045 20.1206 9.40045 20.1106 9.07045C20.1106 8.92045 20.1506 8.84045 20.3206 8.85045C20.8806 8.86045 21.4406 8.86045 22.0106 8.85045C22.1806 8.85045 22.2206 8.92045 22.2206 9.07045C22.2106 9.74045 22.2106 10.4204 22.2206 11.0904C22.2206 11.2404 22.1806 11.3204 22.0106 11.3104C21.4506 11.3004 20.8906 11.3004 20.3206 11.3104C20.1506 11.3104 20.1006 11.2504 20.1106 11.0904C20.1106 10.7604 20.1106 10.4104 20.1106 10.0704Z" fill="black"/>
<path d="M32.5519 10.0795C32.5519 10.6895 32.5519 11.2995 32.5519 11.9095C32.5519 12.0695 32.4919 12.1095 32.3419 12.0995C32.1019 12.0895 31.8719 12.0895 31.6319 12.0995C31.4719 12.1095 31.4219 12.0495 31.4219 11.8895C31.4319 10.9195 31.4319 9.94953 31.4319 8.97953C31.4319 8.71953 31.4319 8.46953 31.4219 8.20953C31.4219 8.06953 31.4719 8.01953 31.6119 8.01953C31.8619 8.01953 32.1119 8.01953 32.3619 8.01953C32.5119 8.01953 32.5519 8.07953 32.5519 8.21953C32.5519 8.84953 32.5519 9.46953 32.5519 10.0795Z" fill="black"/>
<path d="M28.2316 10.0791C28.2316 10.6791 28.2316 11.2691 28.2316 11.8691C28.2316 12.0391 28.1916 12.1191 28.0016 12.1091C27.7516 12.0891 27.5016 12.0991 27.2516 12.1091C27.1416 12.1091 27.1016 12.0691 27.1016 11.9591C27.1016 10.7091 27.1016 9.45906 27.1016 8.20906C27.1016 8.08906 27.1516 8.03906 27.2616 8.03906C27.5216 8.03906 27.7716 8.03906 28.0316 8.03906C28.1916 8.03906 28.2216 8.11906 28.2216 8.25906C28.2216 8.85906 28.2316 9.46906 28.2316 10.0791Z" fill="black"/>
<path d="M18.4581 10.0595C18.4581 9.45953 18.4681 8.86953 18.4581 8.26953C18.4581 8.07953 18.5281 8.01953 18.7081 8.01953C18.9381 8.02953 19.1681 8.02953 19.3981 8.01953C19.5281 8.01953 19.5881 8.06953 19.5881 8.19953C19.5881 9.42953 19.5881 10.6595 19.5881 11.8895C19.5881 12.0295 19.5381 12.0895 19.3881 12.0895C19.1481 12.0795 18.9181 12.0795 18.6781 12.0895C18.5081 12.0995 18.4481 12.0495 18.4581 11.8695C18.4581 11.2795 18.4581 10.6695 18.4581 10.0595Z" fill="black"/>
<path d="M23.9112 10.0891C23.9112 10.6991 23.9112 11.3091 23.9112 11.9191C23.9112 12.0591 23.8712 12.1191 23.7212 12.1091C23.4712 12.0991 23.2212 12.0991 22.9712 12.1091C22.8412 12.1091 22.7812 12.0691 22.7812 11.9291C22.7812 10.6891 22.7812 9.45906 22.7812 8.21906C22.7812 8.09906 22.8313 8.03906 22.9513 8.03906C23.2013 8.03906 23.4513 8.04906 23.7013 8.03906C23.8513 8.03906 23.9112 8.09906 23.9012 8.24906C23.9012 8.85906 23.9112 9.46906 23.9112 10.0891Z" fill="black"/>
</svg>
