<?xml version="1.0" encoding="utf-8"?>
<!-- Generator: Adobe Illustrator 26.2.1, SVG Export Plug-In . SVG Version: 6.00 Build 0)  -->
<svg version="1.1" id="Layer_1" xmlns="http://www.w3.org/2000/svg" xmlns:xlink="http://www.w3.org/1999/xlink" x="0px" y="0px"
	 viewBox="0 0 850.39 850.39" style="enable-background:new 0 0 850.39 850.39;" xml:space="preserve">
<style type="text/css">
	.st0{fill:#9B6414;}
</style>
<path class="st0" d="M717.17,605.24c-1.37,0-10.76,2.29-56.08,15.57l-0.92,0.23c-22.66,6.41-26.55,13.73-26.55,22.2
	c0,1.37,0.23,2.52,0.23,3.89c0.92,8.01,4.81,18.54,9.16,20.83c0.92,0.23,1.83,0.23,2.75-0.23c21.75-10.53,67.76-13.51,72.11-13.51
	c3.43,0,7.32-2.98,10.3-8.01c6.18-9.61,8.93-25.64,3.2-34.57C728.38,607.3,723.58,605.01,717.17,605.24z"/>
<path class="st0" d="M263.88,194.82c-12.59-5.49-84.93,25.41-89.27,32.05c-0.23,0.92-0.23,3.2-0.23,6.18
	c0,7.78,0.92,19.46,5.04,23.58c0.92,0.92,2.06,1.14,3.66,0.92c5.04-1.14,14.42-5.72,24.72-10.76c22.2-10.99,36.63-17.4,43.03-13.73
	c3.66,2.06,9.16,6.64,9.39,10.53c0.69,6.64-12.59,11.67-39.83,21.75l-21.75,8.24c-13.51,5.26-15.11,14.65-15.11,18.31v1.6
	c0,2.52-0.23,6.87,2.06,8.7c2.06,1.83,5.95,1.37,9.16,0.69c2.52-0.69,10.3-2.98,18.08-5.72c8.7-2.75,17.4-5.49,21.29-6.41
	c8.93-2.06,16.02,7.55,17.63,11.22c0.46,1.37,0.46,2.98-0.46,4.35c-2.75,5.49-16.02,8.93-37.08,14.19l-17.63,4.58
	c-4.58,1.37-8.93,3.66-9.61,16.25c-0.46,6.41,0.69,10.76,2.98,12.82c1.83,1.6,4.35,1.83,8.93,1.37c9.38-1.37,18.54-3.89,26.78-6.18
	c12.82-3.43,21.06-5.72,25.18-2.29c0.92,0.92,9.39,12.36,7.1,16.71c-3.66,6.41-18.31,8.93-37.54,11.67l-8.47,1.37
	c-24.49,3.89-21.75,21.52-20.6,29.99c0.92,6.87,1.14,8.01,16.94,7.78c5.49,0,59.97-7.33,75.31-12.36c1.6-0.69,4.35-2.06,3.89-5.72
	c-3.66-35.48-5.26-70.05-6.41-100.26C278.76,244.72,276.93,200.54,263.88,194.82z"/>
<path class="st0" d="M686.24,687.42c0,0-38.23,8.7-39.6,8.93c-5.95,3.66-10.07,20.14-10.07,35.25c0,5.72,0.69,11.22,2.06,15.79
	c0.92,3.2,2.98,8.7,6.87,8.7c29.3,0.69,54.02,6.64,65.93,9.61l5.95,1.37c2.29,0,7.32-3.43,10.53-17.63
	c2.29-11.45,3.43-20.83,3.43-28.38c0-17.85-5.04-26.78-10.53-31.13C713.48,683.99,701.81,683.08,686.24,687.42z"/>
<path class="st0" d="M0.02,0v850.39h850.62V0H0.02z M174.91,457.82c-37.54,10.76-67.53,19.23-94.31,14.19
	c-12.82-2.29-28.38-16.71-36.63-24.49l-3.89-3.43c-1.6-1.37-2.06-2.75-2.06-3.66c0-0.69,0.23-0.92,0.23-1.37
	c1.37-3.89,8.01-4.35,31.13-5.26l5.72-0.23c33.19-1.37,67.3-8.93,79.89-14.19c0.23-2.29,0.23-6.64,0.23-13.51
	c0-44.64-5.95-172.83-12.36-180.61l-5.95-5.72c-6.64-6.41-16.94-16.02-22.43-22.2c-4.35-5.04-5.72-10.3-5.72-14.88
	c0-2.75,0.69-5.26,1.37-6.87c1.37-2.75,3.43-3.2,4.35-2.98c1.6,0,3.66,1.14,10.07,4.81c8.01,4.58,21.75,12.13,36.4,17.4l0.23,0.23
	c5.04,1.37,8.47,0,10.99-4.12c3.2-6.18,15.79-39.83,8.24-47.84c-1.83-2.06-5.49-2.06-10.99-0.46l-3.2,1.14
	c-68.44,23.12-82.86,25.87-87.44,25.41h-0.23c-7.78,0-38.69-16.71-40.52-24.72c0-0.46-0.23-0.69-0.23-0.92
	c0-1.83,1.14-3.43,3.2-4.35c8.7-3.43,22.43-5.26,37.77-7.78l29.3-4.58l8.93-1.6c54.48-9.61,83.78-17.63,86.76-23.58v-0.23
	c0-0.23,0-0.23,0-0.46c-6.41-10.53-20.37-21.06-31.59-29.3c-11.67-8.7-20.6-15.34-20.6-21.06c0-0.92,0.23-1.83,0.92-2.75
	c0.69-1.14,2.29-3.89,21.75-0.92l37.08,6.64l14.88,2.75c0.23,0,0.46,0,0.69,0c7.78,2.52,6.18,10.07,4.58,17.4
	c-1.14,6.41-2.75,13.28-0.46,20.6c0.92,3.43,3.2,3.2,23.81-2.29l0.92-0.23c22.43-5.95,32.96-11.45,40.52-15.79
	c5.27-2.75,9.16-5.04,15.11-5.95c21.29-3.43,44.18,9.39,47.38,21.98c0,0.23,0,0.69,0,1.14c0,1.37-0.46,2.98-1.6,4.58
	c-1.83,2.29-6.41,6.64-17.63,7.78c-33.19,3.43-70.05,8.01-90.88,16.94c-31.82,13.51-41.43,28.38-57.46,72.33
	c1.83,0.23,5.72,0.46,8.7,0c10.53-1.6,28.16-15.11,42.35-25.87c8.47-6.64,15.79-12.13,20.6-14.42c5.26-2.75,18.08-1.37,29.76,5.49
	c8.93,5.04,23.58,16.94,24.26,40.29c0,8.24-0.92,23.35-1.83,37.08l-0.92,20.83v0.92c-0.23,76.91,4.81,131.16,12.59,138.26
	c0.23,0.23,0.46,0.46,0.92,0.46c24.26-1.37,44.41-6.41,60.43-10.53c14.42-3.66,25.64-6.41,34.34-5.26c1.37,0.46,2.98,0.69,4.58,1.14
	c14.88,5.72,25.64,21.52,28.61,31.13c0.46,2.06,0.92,3.66,0.92,5.26c0,1.83-0.46,3.2-1.37,4.35c-4.35,5.26-17.63,5.26-47.84,4.35
	c-28.61-0.69-67.76-1.6-111.71,3.43C246.56,437.21,206.73,448.66,174.91,457.82z M772.13,681.46c-2.52,40.52-5.72,90.88-5.72,98.2
	c0,10.3-8.7,21.98-14.19,27.01c-3.66,3.2-5.72,3.66-6.87,3.66c-19.46-0.46-30.9-6.87-42.12-13.05
	c-11.67-6.41-23.81-13.28-46.24-13.28c-5.04,0-13.51,1.37-20.83,2.29c-6.64,0.92-11.9,1.83-14.65,1.6
	c-10.07-0.46-12.13-24.95-11.67-39.37c0.23-1.14,0.92-118.35,0.46-128.42l-0.46-6.41c-0.23-10.53-0.92-25.87-7.1-30.67
	c-5.72-4.35-55.4,20.37-71.65,35.71c-3.43,3.89-2.29,38-1.37,65.7c1.83,57.68,2.29,99.12-8.7,107.82
	c-4.35,3.43-9.61,4.58-15.79,3.89c-35.02-4.58-89.5-73.94-90.19-74.62c-0.92-1.6-0.69-3.43,0.92-4.58
	c4.12-2.98,20.37,1.14,28.84,8.7c4.81,4.12,24.95,18.08,32.5,22.43c5.26-5.95,17.4-52.42,17.4-100.49c0-3.89-0.23-7.55-0.23-11.67
	c-1.83-0.23-10.99,0.69-51.05,29.3c-2.98,2.06-19.92,12.82-25.64,10.3l-6.87-3.2c-31.59-14.65-39.37-18.31-39.37-24.26
	c0-1.37,0.46-2.98,1.14-4.81c2.06-5.26,13.73-9.39,42.58-19c21.29-6.87,47.38-15.79,75.08-27.47c2.06-4.12,6.18-33.88,6.18-45.55
	c0-0.46,0-0.69,0-1.14c0-9.84-1.83-16.25-5.26-18.08c-4.12-2.52-12.36,1.37-19.91,5.04l-3.66,1.83
	c-22.66,11.9-31.82,15.34-36.17,13.28c-34.57-14.88-37.77-21.98-37.54-26.1c0.46-3.43,3.89-5.95,10.07-7.1l28.84-5.26
	c28.16-5.04,57.68-10.53,59.52-16.02c5.95-17.17-3.43-68.9-4.35-71.88c-3.66-11.45-11.9-20.14-17.17-25.64
	c-4.12-4.35-6.64-6.87-6.18-9.84l2.06-2.98c4.35-2.75,32.51,1.83,41.2,7.55c21.52,14.42,24.26,69.59,25.18,87.67c0,0,0,0.92,0,1.6
	c6.64-1.37,21.06-4.12,21.06-4.12c4.81-1.14,22.66,1.37,29.99,8.47c2.98,2.98,3.89,6.18,2.52,9.84c-0.69,1.83-2.29,2.29-6.87,2.75
	c-8.24,1.37-24.95,3.89-38.91,14.88c-7.78,6.18-9.84,26.32-9.61,31.59v0.69c0.23,11.9,0.69,26.78,4.35,28.61
	c0.92,0.46,2.52,0,3.43-0.46c29.07-14.42,51.73-18.77,67.99-13.28c14.88,5.04,21.29,17.17,25.64,28.38
	c2.06,4.81,30.67-2.29,49.22-7.1c28.16-7.1,57.46-14.42,69.13-7.78c16.48,9.84,22.89,35.25,23.81,54.02
	C775.1,632.47,773.96,650.33,772.13,681.46z M823.18,512.98c-1.14,2.29-4.81,3.66-84.93,20.6c-31.36,6.64-60.66,12.82-69.13,15.34
	c-21.98,6.64-41.89,7.1-52.65,1.6c-24.49-13.05-20.37-70.96-17.4-113.08c1.14-13.73,1.83-25.64,1.37-33.19
	c-0.92-19.23-7.78-28.38-10.76-32.28l-1.14-1.37c-2.52-3.43-1.37-7.78,2.29-10.53c8.47-5.95,27.24-2.75,48.3,18.08
	c2.75,2.52,3.66,13.96,3.66,26.55s-0.92,26.1-2.06,33.88c12.59-5.26,46.93-19.91,76.23-34.11c16.02-7.78,29.53-2.98,36.4,0.69
	c9.16,4.81,16.02,13.05,16.02,19.69c0,2.98,0,3.2-42.58,16.94c-27.7,8.93-65.7,21.06-73.94,26.78
	c-23.81,16.02-18.54,48.53-18.31,48.99c0.23,1.14,1.6,3.43,4.12,5.04c2.29,1.37,6.41,2.98,12.82,1.83
	c44.18-8.01,92.71-27.47,113.54-35.94c6.87-2.75,10.07-4.12,11.67-4.35c14.19-3.43,33.19,4.12,41.89,13.51
	C823.86,502.68,825.24,508.18,823.18,512.98z"/>
</svg>
