<svg width="40" height="39" viewBox="0 0 40 39" fill="none" xmlns="http://www.w3.org/2000/svg">
<path d="M21.0997 8.2998L32.7997 18.4998C33.1997 18.8998 32.9997 19.5998 32.3997 19.5998H29.5997C29.2997 19.5998 29.0997 19.7998 29.0997 20.0998V30.1998C29.0997 30.5998 28.7997 30.8998 28.3997 30.8998H24.1997C23.8997 30.8998 23.6997 30.6998 23.6997 30.3998V21.5998C23.6997 21.1998 23.3997 20.9998 23.0997 20.9998H19.9997H16.7997C16.4997 20.9998 16.1997 21.2998 16.1997 21.5998V30.4998C16.1997 30.7998 15.9997 30.9998 15.6997 30.9998H11.2997C10.9997 30.9998 10.7997 30.7998 10.7997 30.4998V20.0998C10.7997 19.8998 10.5997 19.6998 10.3997 19.6998H7.59971C6.99971 19.6998 6.6997 18.9998 7.1997 18.5998L18.7997 8.2998C19.4997 7.7998 20.4997 7.7998 21.0997 8.2998Z" stroke="white" stroke-width="1.9843" stroke-miterlimit="10"/>
</svg>
