<svg width="470" height="270" viewBox="0 0 470 270" fill="none" xmlns="http://www.w3.org/2000/svg">
<path d="M177.181 223.73C176.411 223.99 175.591 224.15 174.831 224.15C170.751 224.15 169.031 220.77 169.031 216.97C169.031 212.59 171.381 209.83 174.741 209.83C175.661 209.83 176.591 210.01 177.181 210.33V212.06C176.481 211.58 175.671 211.36 174.761 211.36C172.651 211.36 170.731 213.19 170.731 216.61C170.731 220.23 172.061 222.62 174.871 222.62C175.701 222.62 176.521 222.38 177.181 221.96V223.73Z" fill="#9A630B"/>
<path d="M182.641 209.98H184.271V215.97H188.781V209.98H190.401V224.01H188.781V217.49H184.271V224.01H182.641V209.98Z" fill="#9A630B"/>
<path d="M196.801 209.98H202.811V211.5H198.431V215.97H202.601V217.49H198.431V222.48H203.051V224.01H196.801V209.98Z" fill="#9A630B"/>
<path d="M210.028 217.13C210.028 212.81 211.468 211.28 213.168 211.28C215.348 211.28 216.158 214.02 216.158 216.85C216.158 221.18 214.718 222.7 213.018 222.7C210.838 222.7 210.028 219.97 210.028 217.13ZM208.328 217.13C208.328 221.47 210.158 224.15 213.018 224.15C216.068 224.15 217.858 221.69 217.858 216.85C217.858 212.51 216.028 209.83 213.168 209.83C210.118 209.83 208.328 212.29 208.328 217.13Z" fill="#9A630B"/>
<path d="M224.039 209.98H226.049L230.909 221.56H230.949V209.98H232.499V224.01H230.489L225.619 212.51H225.589V224.01H224.039V209.98Z" fill="#9A630B"/>
<path d="M247.141 223.43C246.391 223.73 245.091 224.16 243.941 224.16C239.861 224.16 238.141 220.78 238.141 216.98C238.141 212.6 240.491 209.84 243.851 209.84C244.961 209.84 245.991 210 246.881 210.46V212.23C245.901 211.69 244.811 211.37 243.871 211.37C241.761 211.37 239.851 213.2 239.851 216.62C239.851 220.24 241.171 222.63 243.981 222.63C244.501 222.63 245.161 222.49 245.591 222.25V217.82H243.431V216.29H247.141V223.43V223.43Z" fill="#9A630B"/>
<path d="M252.32 222.26C252.59 222.34 252.91 222.46 253.22 222.46C254.33 222.46 254.85 221.69 254.85 220.23V209.98H256.48V220.34C256.48 222.57 255.61 224.16 253.67 224.16C253.25 224.16 252.75 224.08 252.32 224.02V222.26V222.26Z" fill="#9A630B"/>
<path d="M271.141 218.841C271.141 220.231 271.071 220.991 270.631 221.981C270.091 223.151 268.971 224.161 267.101 224.161C265.231 224.161 264.111 223.151 263.571 221.981C263.131 221.001 263.051 220.231 263.051 218.841V209.971H264.681V219.101C264.681 221.291 265.571 222.701 267.101 222.701C268.631 222.701 269.521 221.291 269.521 219.101V209.971H271.141V218.841V218.841Z" fill="#9A630B"/>
<path d="M284.77 209.98H286.4V216.07H286.44L290.71 209.98H292.65L287.8 216.61L293.05 224.01H290.95L286.44 217.21H286.4V224.01H284.77V209.98Z" fill="#9A630B"/>
<path d="M298.36 217.13C298.36 212.81 299.8 211.28 301.5 211.28C303.67 211.28 304.49 214.02 304.49 216.85C304.49 221.18 303.05 222.7 301.35 222.7C299.18 222.7 298.36 219.97 298.36 217.13ZM296.66 217.13C296.66 221.47 298.49 224.15 301.36 224.15C304.4 224.15 306.19 221.69 306.19 216.85C306.19 212.51 304.36 209.83 301.5 209.83C298.45 209.83 296.66 212.29 296.66 217.13Z" fill="#9A630B"/>
<path d="M313.458 211.421H314.748C316.168 211.421 317.108 212.171 317.108 213.731C317.108 214.961 316.448 216.201 314.708 216.201H313.448V211.421M311.828 224.011H313.458V217.651H314.198C315.418 217.651 315.878 218.101 316.248 219.261L317.728 224.001H319.488L317.678 218.371C317.418 217.571 317.048 217.161 316.278 217.001V216.961C318.188 216.521 318.828 215.091 318.828 213.601C318.828 212.581 318.538 211.611 317.868 210.921C317.278 210.321 316.518 209.961 315.148 209.961H311.838V224.011H311.828Z" fill="#9A630B"/>
<path d="M324.738 209.98H330.748V211.5H326.368V215.97H330.548V217.49H326.368V222.48H330.988V224.01H324.738V209.98Z" fill="#9A630B"/>
<path d="M338.472 218.82L340.502 211.82H340.542L342.522 218.82H338.472ZM339.692 209.98L335.352 224.01H336.982L338.022 220.35H342.952L343.982 224.01H345.682L341.472 209.98H339.692Z" fill="#9A630B"/>
<path d="M359.852 212.01L358.202 214.02L357.352 212.71L359.992 209.98H361.472V224.01H359.852V212.01Z" fill="#9A630B"/>
<path d="M369.128 221.9C369.978 222.4 370.868 222.71 371.588 222.71C372.998 222.71 374.228 221.6 374.228 219.89C374.228 218.46 373.288 217.5 371.718 217.5H370.518V216.05H371.188C373.198 216.05 374.198 215.03 374.198 213.58C374.198 212.19 373.258 211.29 371.908 211.29C371.228 211.29 370.278 211.59 369.538 212.08L369.388 210.43C370.218 210.01 371.218 209.85 372.218 209.85C374.228 209.85 375.818 210.98 375.818 213.33C375.818 215.26 374.798 216.32 373.438 216.63V216.67C375.028 216.89 375.928 218.36 375.928 220.13C375.928 222.34 374.538 224.17 371.738 224.17C370.798 224.17 369.688 223.95 368.988 223.65L369.128 221.9Z" fill="#9A630B"/>
<path d="M386.779 211.5H381.539V209.98H388.339V211.64L384.349 224.01H382.559L386.779 211.5Z" fill="#9A630B"/>
<path d="M398.98 211.5H393.73V209.98H400.53V211.64L396.54 224.01H394.75L398.98 211.5Z" fill="#9A630B"/>
<path d="M198.271 93.61C199.961 92.94 201.281 92.64 201.621 91.83C202.171 90.51 200.741 90.71 198.331 90.71C197.601 90.71 166.261 90.71 165.521 90.71C163.101 90.71 161.681 90.51 162.231 91.83C162.571 92.64 163.891 92.94 165.581 93.61C169.751 95.26 171.401 96.31 171.401 101.6V171.01C171.401 176.31 169.741 177.35 165.581 179.01C163.891 179.68 162.571 179.98 162.231 180.79C161.691 182.11 163.101 181.91 165.521 181.91C166.251 181.91 197.591 181.91 198.331 181.91C200.741 181.91 202.171 182.1 201.621 180.79C201.281 179.98 199.961 179.68 198.271 179.01C194.101 177.36 192.441 176.32 192.441 171.01V101.6C192.441 96.3 194.101 95.26 198.271 93.61Z" fill="white"/>
<path d="M408.732 179.01C404.562 177.36 402.902 176.32 402.902 171.01V101.6C402.902 96.3 404.562 95.26 408.732 93.61C410.412 92.94 411.742 92.64 412.072 91.83C412.622 90.51 411.202 90.71 408.782 90.71C408.052 90.71 376.702 90.71 375.972 90.71C373.562 90.71 372.142 90.51 372.692 91.83C373.022 92.64 374.352 92.94 376.032 93.61C380.192 95.26 381.862 96.31 381.862 101.6V171.01C381.862 176.31 380.202 177.35 376.032 179.01C374.342 179.68 373.022 179.98 372.692 180.79C372.142 182.11 373.562 181.91 375.972 181.91C376.712 181.91 408.062 181.91 408.782 181.91C411.202 181.91 412.612 182.1 412.072 180.79C411.742 179.98 410.422 179.68 408.732 179.01Z" fill="white"/>
<path d="M315.109 181.18C315.469 180.65 315.099 180.38 310.329 177.48C301.759 172.29 279.359 152.57 261.839 127.05L283.329 106.09C292.019 97.8297 296.529 96.1697 300.489 94.2897C303.919 92.6597 306.089 92.6897 306.419 91.6697C306.719 90.7097 304.669 90.6797 303.129 90.6797C301.589 90.6797 295.099 90.6797 288.959 90.6797C282.649 90.6797 279.009 90.6797 277.709 90.6797C276.399 90.6797 274.839 91.0097 275.649 91.9297C276.109 92.4597 277.439 92.6397 279.769 93.8597C283.109 95.6197 282.019 98.0897 276.379 103.54C273.739 106.09 256.729 122.21 248.569 129.93V101.6C248.569 96.2997 250.229 95.2597 254.389 93.6097C256.079 92.9397 257.399 92.6397 257.739 91.8297C258.279 90.5097 256.869 90.7097 254.449 90.7097C253.709 90.7097 222.379 90.7097 221.629 90.7097C219.219 90.7097 217.809 90.5097 218.349 91.8297C218.689 92.6397 220.009 92.9397 221.689 93.6097C225.859 95.2597 227.519 96.3097 227.519 101.6V171.01C227.519 176.31 225.859 177.35 221.689 179.01C219.999 179.68 218.689 179.98 218.349 180.79C217.809 182.11 219.219 181.91 221.629 181.91C222.369 181.91 253.709 181.91 254.449 181.91C256.869 181.91 258.279 182.1 257.739 180.79C257.409 179.98 256.079 179.68 254.389 179.01C250.229 177.36 248.569 176.32 248.569 171.01V140.8C272.919 177.39 288.229 180.31 292.219 181.26C301.839 183.56 314.259 182.46 315.109 181.18Z" fill="white"/>
<path d="M352.66 90.71C351.93 90.71 320.58 90.71 319.85 90.71C317.44 90.71 316.02 90.51 316.56 91.83C316.9 92.64 318.22 92.94 319.91 93.61C324.08 95.26 325.74 96.31 325.74 101.6V142.81C325.74 175.26 326.55 186.16 311.57 195.51C308.7 197.31 306.77 197.5 306.85 198.32C306.94 199.24 309.7 199.54 312.75 199.26C333.02 197.39 346.79 186.3 346.79 149.55V101.6C346.79 96.3 348.45 95.26 352.61 93.61C354.3 92.94 355.62 92.64 355.96 91.83C356.49 90.51 355.07 90.71 352.66 90.71Z" fill="white"/>
<path d="M93.3616 77.9599C93.5816 79.1599 95.1416 79.4799 97.9416 80.6099C108.262 84.8099 111.902 87.4699 111.902 97.4399V163.49C111.902 182.05 109.292 207.91 85.7416 221.72C82.7116 223.5 80.7716 223.85 81.0216 224.94C81.3816 226.45 85.3616 226.86 88.9416 226.31C105.102 223.86 119.962 215 128.262 199.19C133.582 189.06 136.322 175.11 136.322 158.23C136.322 144.51 136.322 108.46 136.322 76.6699C135.892 76.6699 102.112 76.6699 98.0516 76.6699C94.8116 76.6799 93.1416 76.6799 93.3616 77.9599Z" fill="white"/>
<path d="M166.591 64.9597C166.531 64.9597 166.121 65.0597 164.141 65.6397L164.101 65.6497C163.111 65.9297 162.941 66.2497 162.941 66.6197C162.941 66.6797 162.951 66.7297 162.951 66.7897C162.991 67.1397 163.161 67.5997 163.351 67.6997C163.391 67.7097 163.431 67.7097 163.471 67.6897C164.421 67.2297 166.431 67.0997 166.621 67.0997C166.771 67.0997 166.941 66.9697 167.071 66.7497C167.341 66.3297 167.461 65.6297 167.211 65.2397C167.081 65.0497 166.871 64.9497 166.591 64.9597Z" fill="#9A630B"/>
<path d="M146.789 47.0304C146.239 46.7904 143.079 48.1404 142.889 48.4304C142.879 48.4704 142.879 48.5704 142.879 48.7004C142.879 49.0404 142.919 49.5504 143.099 49.7304C143.139 49.7704 143.189 49.7804 143.259 49.7704C143.479 49.7204 143.889 49.5204 144.339 49.3004C145.309 48.8204 145.939 48.5404 146.219 48.7004C146.379 48.7904 146.619 48.9904 146.629 49.1604C146.659 49.4504 146.079 49.6704 144.889 50.1104L143.939 50.4704C143.349 50.7004 143.279 51.1104 143.279 51.2704V51.3404C143.279 51.4504 143.269 51.6404 143.369 51.7204C143.459 51.8004 143.629 51.7804 143.769 51.7504C143.879 51.7204 144.219 51.6204 144.559 51.5004C144.939 51.3804 145.319 51.2604 145.489 51.2204C145.879 51.1304 146.189 51.5504 146.259 51.7104C146.279 51.7704 146.279 51.8404 146.239 51.9004C146.119 52.1404 145.539 52.2904 144.619 52.5204L143.849 52.7204C143.649 52.7804 143.459 52.8804 143.429 53.4304C143.409 53.7104 143.459 53.9004 143.559 53.9904C143.639 54.0604 143.749 54.0704 143.949 54.0504C144.359 53.9904 144.759 53.8804 145.119 53.7804C145.679 53.6304 146.039 53.5304 146.219 53.6804C146.259 53.7204 146.629 54.2204 146.529 54.4104C146.369 54.6904 145.729 54.8004 144.889 54.9204L144.519 54.9804C143.449 55.1504 143.569 55.9204 143.619 56.2904C143.659 56.5904 143.669 56.6404 144.359 56.6304C144.599 56.6304 146.979 56.3104 147.649 56.0904C147.719 56.0604 147.839 56.0004 147.819 55.8404C147.659 54.2904 147.589 52.7804 147.539 51.4604C147.439 49.2104 147.359 47.2804 146.789 47.0304Z" fill="#9A630B"/>
<path d="M165.24 68.5501C165.24 68.5501 163.57 68.9301 163.51 68.9401C163.25 69.1001 163.07 69.8201 163.07 70.4801C163.07 70.7301 163.1 70.9701 163.16 71.1701C163.2 71.3101 163.29 71.5501 163.46 71.5501C164.74 71.5801 165.82 71.8401 166.34 71.9701L166.6 72.0301C166.7 72.0301 166.92 71.8801 167.06 71.2601C167.16 70.7601 167.21 70.3501 167.21 70.0201C167.21 69.2401 166.99 68.8501 166.75 68.6601C166.43 68.4001 165.92 68.3601 165.24 68.5501Z" fill="#9A630B"/>
<path d="M135.262 38.5195V75.6695H172.422V38.5195H135.262ZM142.902 58.5195C141.262 58.9895 139.952 59.3595 138.782 59.1395C138.222 59.0395 137.542 58.4095 137.182 58.0695L137.012 57.9195C136.942 57.8595 136.922 57.7995 136.922 57.7595C136.922 57.7295 136.932 57.7195 136.932 57.6995C136.992 57.5295 137.282 57.5095 138.292 57.4695L138.542 57.4595C139.992 57.3995 141.482 57.0695 142.032 56.8395C142.042 56.7395 142.042 56.5495 142.042 56.2495C142.042 54.2995 141.782 48.6995 141.502 48.3595L141.242 48.1095C140.952 47.8295 140.502 47.4095 140.262 47.1395C140.072 46.9195 140.012 46.6895 140.012 46.4895C140.012 46.3695 140.042 46.2595 140.072 46.1895C140.132 46.0695 140.222 46.0495 140.262 46.0595C140.332 46.0595 140.422 46.1095 140.702 46.2695C141.052 46.4695 141.652 46.7995 142.292 47.0295L142.302 47.0395C142.522 47.0995 142.672 47.0395 142.782 46.8595C142.922 46.5895 143.472 45.1195 143.142 44.7695C143.062 44.6795 142.902 44.6795 142.662 44.7495L142.522 44.7995C139.532 45.8095 138.902 45.9295 138.702 45.9095H138.692C138.352 45.9095 137.002 45.1795 136.922 44.8295C136.922 44.8095 136.912 44.7995 136.912 44.7895C136.912 44.7095 136.962 44.6395 137.052 44.5995C137.432 44.4495 138.032 44.3695 138.702 44.2595L139.982 44.0595L140.372 43.9895C142.752 43.5695 144.032 43.2195 144.162 42.9595V42.9495C144.162 42.9395 144.162 42.9395 144.162 42.9295C143.882 42.4695 143.272 42.0095 142.782 41.6495C142.272 41.2695 141.882 40.9795 141.882 40.7295C141.882 40.6895 141.892 40.6495 141.922 40.6095C141.952 40.5595 142.022 40.4395 142.872 40.5695L144.492 40.8595L145.142 40.9795C145.152 40.9795 145.162 40.9795 145.172 40.9795C145.512 41.0895 145.442 41.4195 145.372 41.7395C145.322 42.0195 145.252 42.3195 145.352 42.6395C145.392 42.7895 145.492 42.7795 146.392 42.5395L146.432 42.5295C147.412 42.2695 147.872 42.0295 148.202 41.8395C148.432 41.7195 148.602 41.6195 148.862 41.5795C149.792 41.4295 150.792 41.9895 150.932 42.5395C150.932 42.5495 150.932 42.5695 150.932 42.5895C150.932 42.6495 150.912 42.7195 150.862 42.7895C150.782 42.8895 150.582 43.0795 150.092 43.1295C148.642 43.2795 147.032 43.4795 146.122 43.8695C144.732 44.4595 144.312 45.1095 143.612 47.0295C143.692 47.0395 143.862 47.0495 143.992 47.0295C144.452 46.9595 145.222 46.3695 145.842 45.8995C146.212 45.6095 146.532 45.3695 146.742 45.2695C146.972 45.1495 147.532 45.2095 148.042 45.5095C148.432 45.7295 149.072 46.2495 149.102 47.2695C149.102 47.6295 149.062 48.2895 149.022 48.8895L148.982 49.7995V49.8395C148.972 53.1995 149.192 55.5695 149.532 55.8795C149.542 55.8895 149.552 55.8995 149.572 55.8995C150.632 55.8395 151.512 55.6195 152.212 55.4395C152.842 55.2795 153.332 55.1595 153.712 55.2095C153.772 55.2295 153.842 55.2395 153.912 55.2595C154.562 55.5095 155.032 56.1995 155.162 56.6195C155.182 56.7095 155.202 56.7795 155.202 56.8495C155.202 56.9295 155.182 56.9895 155.142 57.0395C154.952 57.2695 154.372 57.2695 153.052 57.2295C151.802 57.1995 150.092 57.1595 148.172 57.3795C146.032 57.6195 144.292 58.1195 142.902 58.5195ZM168.992 68.2895C168.882 70.0595 168.742 72.2595 168.742 72.5795C168.742 73.0295 168.362 73.5395 168.122 73.7595C167.962 73.8995 167.872 73.9195 167.822 73.9195C166.972 73.8995 166.472 73.6195 165.982 73.3495C165.472 73.0695 164.942 72.7695 163.962 72.7695C163.742 72.7695 163.372 72.8295 163.052 72.8695C162.762 72.9095 162.532 72.9495 162.412 72.9395C161.972 72.9195 161.882 71.8495 161.902 71.2195C161.912 71.1695 161.942 66.0495 161.922 65.6095L161.902 65.3295C161.892 64.8695 161.862 64.1995 161.592 63.9895C161.342 63.7995 159.172 64.8795 158.462 65.5495C158.312 65.7195 158.362 67.2095 158.402 68.4195C158.482 70.9395 158.502 72.7495 158.022 73.1295C157.832 73.2795 157.602 73.3295 157.332 73.2995C155.802 73.0995 153.422 70.0695 153.392 70.0395C153.352 69.9695 153.362 69.8895 153.432 69.8395C153.612 69.7095 154.322 69.8895 154.692 70.2195C154.902 70.3995 155.782 71.0095 156.112 71.1995C156.342 70.9395 156.872 68.9095 156.872 66.8095C156.872 66.6395 156.862 66.4795 156.862 66.2995C156.782 66.2895 156.382 66.3295 154.632 67.5795C154.502 67.6695 153.762 68.1395 153.512 68.0295L153.212 67.8895C151.832 67.2495 151.492 67.0895 151.492 66.8295C151.492 66.7695 151.512 66.6995 151.542 66.6195C151.632 66.3895 152.142 66.2095 153.402 65.7895C154.332 65.4895 155.472 65.0995 156.682 64.5895C156.772 64.4095 156.952 63.1095 156.952 62.5995C156.952 62.5795 156.952 62.5695 156.952 62.5495C156.952 62.1195 156.872 61.8395 156.722 61.7595C156.542 61.6495 156.182 61.8195 155.852 61.9795L155.692 62.0595C154.702 62.5795 154.302 62.7295 154.112 62.6395C152.602 61.9895 152.462 61.6795 152.472 61.4995C152.492 61.3495 152.642 61.2395 152.912 61.1895L154.172 60.9595C155.402 60.7395 156.692 60.4995 156.772 60.2595C157.032 59.5095 156.622 57.2495 156.582 57.1195C156.422 56.6195 156.062 56.2395 155.832 55.9995C155.652 55.8095 155.542 55.6995 155.562 55.5695L155.652 55.4395C155.842 55.3195 157.072 55.5195 157.452 55.7695C158.392 56.3995 158.512 58.8095 158.552 59.5995C158.552 59.5995 158.552 59.6395 158.552 59.6695C158.842 59.6095 159.472 59.4895 159.472 59.4895C159.682 59.4395 160.462 59.5495 160.782 59.8595C160.912 59.9895 160.952 60.1295 160.892 60.2895C160.862 60.3695 160.792 60.3895 160.592 60.4095C160.232 60.4695 159.502 60.5795 158.892 61.0595C158.552 61.3295 158.462 62.2095 158.472 62.4395V62.4695C158.482 62.9895 158.502 63.6395 158.662 63.7195C158.702 63.7395 158.772 63.7195 158.812 63.6995C160.082 63.0695 161.072 62.8795 161.782 63.1195C162.432 63.3395 162.712 63.8695 162.902 64.3595C162.992 64.5695 164.242 64.2595 165.052 64.0495C166.282 63.7395 167.562 63.4195 168.072 63.7095C168.792 64.1395 169.072 65.2495 169.112 66.0695C169.122 66.1495 169.072 66.9295 168.992 68.2895ZM171.222 60.9295C171.172 61.0295 171.012 61.0895 167.512 61.8295C166.142 62.1195 164.862 62.3895 164.492 62.4995C163.532 62.7895 162.662 62.8095 162.192 62.5695C161.122 61.9995 161.302 59.4695 161.432 57.6295C161.482 57.0295 161.512 56.5095 161.492 56.1795C161.452 55.3395 161.152 54.9395 161.022 54.7695L160.972 54.7095C160.862 54.5595 160.912 54.3695 161.072 54.2495C161.442 53.9895 162.262 54.1295 163.182 55.0395C163.302 55.1495 163.342 55.6495 163.342 56.1995C163.342 56.7495 163.302 57.3395 163.252 57.6795C163.802 57.4495 165.302 56.8095 166.582 56.1895C167.282 55.8495 167.872 56.0595 168.172 56.2195C168.572 56.4295 168.872 56.7895 168.872 57.0795C168.872 57.2095 168.872 57.2195 167.012 57.8195C165.802 58.2095 164.142 58.7395 163.782 58.9895C162.742 59.6895 162.972 61.1095 162.982 61.1295C162.992 61.1795 163.052 61.2795 163.162 61.3495C163.262 61.4095 163.442 61.4795 163.722 61.4295C165.652 61.0795 167.772 60.2295 168.682 59.8595C168.982 59.7395 169.122 59.6795 169.192 59.6695C169.812 59.5195 170.642 59.8495 171.022 60.2595C171.252 60.4795 171.312 60.7195 171.222 60.9295Z" fill="#9A630B"/>
</svg>
