<svg width="51" height="50" viewBox="0 0 51 50" fill="none" xmlns="http://www.w3.org/2000/svg">
<path d="M4.13921 24.0797C4.13921 18.4097 4.13921 12.7397 4.13921 7.06969C4.13921 4.23969 5.67921 2.68969 8.50921 2.68969C17.0092 2.67969 25.5192 2.67969 34.0192 2.67969C36.6592 2.67969 38.1992 4.12969 38.2492 6.76969C38.3092 9.86969 38.2792 12.9797 38.2792 16.0797C38.2792 16.2797 38.2592 16.4797 38.2292 16.6797C38.1092 17.5097 37.8292 18.2197 36.8492 18.2697C36.1192 18.3097 35.5292 17.5497 35.5092 16.5397C35.4792 14.4497 35.4992 12.3597 35.4792 10.2597C35.4692 9.61969 35.4392 8.97969 35.3692 8.33969C35.1392 6.31969 34.4692 5.66969 32.4392 5.66969C24.9492 5.65969 17.4592 5.65969 9.96921 5.67969C7.87921 5.67969 6.98921 6.55969 6.97921 8.63969C6.95921 18.9597 6.95921 29.2897 6.98921 39.6097C6.99921 41.8897 7.84921 42.6797 10.1492 42.7197C11.7692 42.7497 13.3892 42.7297 15.0092 42.7497C15.3392 42.7497 15.6892 42.7697 16.0092 42.8497C16.7792 43.0397 17.4292 43.3997 17.3492 44.3397C17.2692 45.1897 16.6392 45.5897 15.8792 45.5997C13.0092 45.6397 10.1392 45.7097 7.27921 45.5697C5.40921 45.4797 4.13921 43.6797 4.13921 41.4997C4.12921 35.6897 4.13921 29.8797 4.13921 24.0797Z" fill="black"/>
<path d="M39.9101 36.4294C42.9001 37.9094 45.0001 40.0894 46.0901 43.1594C46.4001 44.0394 46.6401 44.9594 46.8301 45.8794C46.9801 46.5694 46.6401 47.0794 45.9501 47.2594C45.2401 47.4494 44.8001 47.0994 44.5901 46.4194C44.2201 45.2394 43.9801 43.9894 43.4401 42.8894C41.6801 39.3194 37.7301 37.3194 33.8701 37.9094C29.8801 38.5094 26.6501 41.7094 26.0101 45.6894C25.9701 45.9194 25.9101 46.1494 25.8501 46.3794C25.6901 47.0894 25.2101 47.4294 24.5201 47.2894C23.7701 47.1294 23.4801 46.5594 23.6101 45.8394C24.3501 41.7694 26.3601 38.5794 30.1401 36.6594C30.2501 36.5994 30.3501 36.5094 30.4701 36.4294C25.3301 32.0694 26.7701 26.2294 29.5401 23.6094C32.8801 20.4394 37.9001 20.5294 41.0701 23.7894C43.9601 26.7594 44.7301 32.4794 39.9101 36.4294ZM35.2601 35.4794C38.4801 35.4594 41.0901 32.7994 41.0501 29.5794C41.0201 26.1794 38.4301 23.5994 35.1001 23.6394C31.9301 23.6794 29.2801 26.4094 29.3401 29.5894C29.3901 32.9094 32.0101 35.4994 35.2601 35.4794Z" fill="black"/>
<path d="M21.2202 12.5103C24.2502 12.5103 27.2802 12.5003 30.3202 12.5103C31.8202 12.5103 32.5802 13.0203 32.5502 13.9603C32.5202 14.8603 31.6802 15.3903 30.2402 15.3903C24.1802 15.3903 18.1102 15.3903 12.0502 15.3903C10.7602 15.3903 9.85017 14.7803 9.83017 13.9503C9.82017 13.0803 10.6402 12.5303 12.0202 12.5303C15.0902 12.5203 18.1502 12.5303 21.2202 12.5303C21.2202 12.5203 21.2202 12.5103 21.2202 12.5103Z" fill="black"/>
<path d="M16.4999 23.2101C15.0199 23.2101 13.5299 23.2301 12.0499 23.2001C10.7099 23.1801 9.84993 22.5901 9.83993 21.7501C9.82993 20.9201 10.7399 20.2901 12.0399 20.2801C15.0099 20.2601 17.9799 20.2701 20.9399 20.2701C21.1399 20.2701 21.3499 20.2701 21.5399 20.3101C22.3499 20.4801 23.0999 20.8301 23.0599 21.7801C23.0199 22.7101 22.2999 23.1001 21.4499 23.1201C19.7999 23.1701 18.1499 23.2101 16.4999 23.2101C16.4999 23.2401 16.4999 23.1901 16.4999 23.2101Z" fill="black"/>
</svg>
