<svg width="181" height="150" viewBox="0 0 181 150" fill="none" xmlns="http://www.w3.org/2000/svg">
<g clip-path="url(#clip0_339_4155)">
<path d="M140.788 0H90.3458H39.8973C16.0395 15.9351 0.277154 42.8553 0.00966808 73.4362C0.00644536 73.7011 0 73.9628 0 74.2277C0 74.3872 0.00644528 74.5436 0.00644528 74.7032C0.170804 106.302 16.8774 134.02 41.9888 149.809H72.5306C72.3275 149.659 72.1245 149.499 71.9279 149.32C71.654 149.132 71.3865 148.918 71.1255 148.685C70.8515 148.497 70.5841 148.283 70.323 148.05C70.0491 147.862 69.7816 147.648 69.5206 147.415C69.2466 147.227 68.9791 147.013 68.7181 146.78C68.4442 146.592 68.1767 146.378 67.9156 146.145C67.6417 145.956 67.3742 145.743 67.1132 145.51C66.8393 145.321 66.5718 145.107 66.3107 144.874C66.0368 144.686 65.7693 144.472 65.5083 144.239C65.2343 144.051 64.9668 143.837 64.7058 143.604C64.4319 143.416 64.1644 143.202 63.9034 142.969C63.6294 142.781 63.3619 142.567 63.1009 142.334C62.827 142.146 62.5595 141.932 62.2984 141.699C62.0245 141.511 61.757 141.297 61.496 141.064C61.222 140.876 60.9546 140.662 60.6935 140.429C60.4196 140.24 60.1521 140.027 59.8911 139.794C59.6171 139.605 59.3496 139.391 59.0886 139.159C58.8147 138.97 58.5472 138.756 58.2861 138.523C58.0122 138.335 57.7447 138.121 57.4837 137.888C57.2098 137.7 56.9423 137.486 56.6812 137.253C56.4073 137.065 56.1398 136.851 55.8788 136.618C55.6048 136.43 55.3374 136.216 55.0763 135.983C54.8024 135.795 54.5349 135.581 54.2739 135.348C53.9999 135.16 53.7324 134.946 53.4714 134.713C53.1975 134.524 52.93 134.311 52.6689 134.078C52.395 133.889 52.1275 133.676 51.8665 133.443C51.5926 133.254 51.3251 133.04 51.064 132.807C50.7901 132.619 50.5226 132.405 50.2616 132.172C49.9876 131.984 49.7202 131.77 49.4591 131.537C49.1852 131.349 48.9177 131.135 48.6567 130.902C48.3827 130.714 48.1152 130.5 47.8542 130.267C47.5803 130.079 47.3128 129.865 47.0517 129.632C46.8906 129.52 46.7295 129.402 46.5716 129.274C46.4298 129.163 46.2912 129.038 46.1558 128.914C46.1365 128.898 46.1204 128.882 46.101 128.866C45.9335 128.706 45.7755 128.54 45.6209 128.371C45.5725 128.317 45.5274 128.263 45.4823 128.209C45.3791 128.087 45.2792 127.963 45.1858 127.838C45.1374 127.774 45.0923 127.711 45.0472 127.647C44.957 127.519 44.87 127.385 44.7862 127.251C44.7507 127.19 44.712 127.133 44.6766 127.072C44.5638 126.878 44.4575 126.68 44.3608 126.476C44.3608 126.476 44.3608 126.476 44.3608 126.472C44.2834 126.31 44.2157 126.144 44.1481 125.974C44.1287 125.923 44.1094 125.876 44.0933 125.824C44.0449 125.697 44.003 125.569 43.9611 125.441C43.945 125.39 43.9289 125.339 43.9128 125.285C43.8612 125.11 43.8097 124.928 43.7678 124.746C43.713 124.513 43.6679 124.273 43.6324 124.031L37.5576 84.4628C37.5544 84.4596 37.5544 84.4596 37.5512 84.4564C37.2804 84.284 37.0194 84.0894 36.7648 83.8691C36.4941 83.6968 36.2331 83.5021 35.9785 83.2819C35.7078 83.1096 35.4467 82.9149 35.1921 82.6947C34.9214 82.5223 34.6604 82.3277 34.4058 82.1074C34.1351 81.9351 33.874 81.7404 33.6194 81.5202C33.3487 81.3479 33.0877 81.1532 32.8331 80.933C32.5527 80.7543 32.282 80.55 32.0177 80.3234C32.0113 80.317 32.0049 80.3138 31.9984 80.3074C31.8856 80.2085 31.776 80.1064 31.6665 79.9979C31.6407 79.9723 31.6149 79.9468 31.5891 79.9213C31.4731 79.8032 31.3603 79.6851 31.2475 79.5575C31.1218 79.417 31.0026 79.2702 30.8898 79.1234C30.8543 79.0787 30.8221 79.0309 30.7867 78.983C30.7093 78.8777 30.6352 78.7723 30.5611 78.667C30.5256 78.6128 30.4902 78.5585 30.4547 78.5043C30.387 78.3957 30.3194 78.2872 30.2549 78.1755C30.2259 78.1245 30.1969 78.0766 30.1679 78.0255C29.9778 77.6809 29.8166 77.3202 29.678 76.95C29.6587 76.8989 29.6426 76.8511 29.6233 76.8C29.5524 76.5989 29.4879 76.3947 29.4331 76.1872C29.3074 75.7085 29.2236 75.2074 29.1785 74.6872C29.1753 74.6649 29.1721 74.6457 29.1721 74.6234C29.1495 74.3521 29.1399 74.0777 29.1399 73.7968C29.1399 73.6691 29.1495 73.5447 29.156 73.4202C29.1624 73.2702 29.1624 73.117 29.1753 72.9702C29.2204 72.4277 29.3074 71.9075 29.4396 71.4096C29.4943 71.2021 29.5588 70.9979 29.6297 70.7968C29.6458 70.7457 29.6652 70.6979 29.6845 70.6468C29.8231 70.2766 29.9842 69.9192 30.1743 69.5713C30.2001 69.5202 30.2324 69.4723 30.2581 69.4245C30.3226 69.3128 30.387 69.2043 30.4579 69.0957C30.4934 69.0415 30.5288 68.9872 30.5643 68.933C30.6352 68.8277 30.7125 68.7223 30.7899 68.617C30.8253 68.5692 30.8576 68.5245 30.893 68.4766C31.0058 68.3298 31.125 68.183 31.2507 68.0426C31.4054 67.867 31.5666 67.7011 31.7309 67.5447C31.7438 67.5319 31.7567 67.5191 31.7696 67.5064C31.9275 67.3564 32.0854 67.2192 32.2498 67.0883C32.2691 67.0723 32.2917 67.0532 32.311 67.0372C32.4689 66.9128 32.6333 66.7979 32.7976 66.6894C32.8234 66.6734 32.8492 66.6574 32.875 66.6383C33.0393 66.533 33.2069 66.4404 33.3777 66.3511C33.4067 66.3383 33.4325 66.3223 33.4615 66.3096C33.6323 66.2234 33.8064 66.1468 33.9836 66.0798C34.0126 66.0702 34.0384 66.0606 34.0674 66.0479C34.2479 65.9808 34.4316 65.9234 34.6185 65.8723C34.6443 65.866 34.6668 65.8596 34.6926 65.8532C34.886 65.8053 35.0793 65.7638 35.2791 65.7319C35.2952 65.7287 35.3114 65.7287 35.3275 65.7255C35.537 65.6936 35.7497 65.6713 35.9656 65.6617C36.088 65.6553 36.2105 65.6521 36.333 65.6521H49.7234L49.7427 65.5596H48.8307L48.9467 64.9915H48.0347L48.1507 64.4234H47.2387L47.3547 63.8553H46.4426L46.5587 63.2872H45.6466L45.7626 62.7191H44.8506L44.9666 62.1511H44.0546L44.1706 61.583H43.2586L48.9306 33.5457C49.0627 32.8468 49.2303 32.1702 49.4301 31.5192C49.5622 31.0851 49.7137 30.6606 49.8748 30.2489C49.9554 30.0415 50.0424 29.8404 50.1327 29.6394C50.2229 29.4383 50.3164 29.2404 50.413 29.0457C50.6064 28.6564 50.8159 28.2734 51.0382 27.9064C51.3186 27.4436 51.6183 27 51.9438 26.5723C52.2693 26.1447 52.6174 25.733 52.9912 25.3372C53.2877 25.0213 53.6003 24.7181 53.929 24.4213C56.5491 22.0691 59.5462 20.8915 62.9172 20.8915H72.2985C72.2985 20.7702 72.3018 20.6521 72.3114 20.534C72.3243 20.3777 72.3437 20.2277 72.3694 20.0777C72.3759 20.0394 72.3823 20.0043 72.392 19.966C72.421 19.8191 72.4565 19.6723 72.5016 19.5287C72.5467 19.3883 72.6015 19.2511 72.6627 19.1138C72.6788 19.0787 72.6949 19.0468 72.7111 19.0117C72.8238 18.7787 72.956 18.5521 73.1139 18.3351C73.1912 18.2298 73.275 18.1277 73.3653 18.0255C74.0775 17.2213 74.9186 16.8191 75.8919 16.8191H90.3264H97.4615C97.5711 16.8191 97.6807 16.8255 97.787 16.8351C97.8257 16.8383 97.8644 16.8447 97.9031 16.8511C97.9675 16.8606 98.032 16.8702 98.0964 16.883C98.1448 16.8926 98.1931 16.9021 98.2415 16.9149C98.2898 16.9277 98.3381 16.9404 98.3865 16.9564C98.4413 16.9723 98.4993 16.9883 98.5541 17.0106C98.5734 17.017 98.5927 17.0266 98.6121 17.0362C98.8473 17.1287 99.0729 17.25 99.2888 17.4C99.2953 17.4064 99.3017 17.4096 99.3114 17.416C99.3855 17.4702 99.4629 17.5277 99.5338 17.5883C99.8335 17.7128 100.12 17.8883 100.388 18.1117C100.687 18.2362 100.974 18.4117 101.242 18.6351C101.542 18.7596 101.828 18.9351 102.096 19.1585C102.396 19.283 102.682 19.4585 102.95 19.6819C103.25 19.8064 103.536 19.9819 103.804 20.2053C104.104 20.3298 104.387 20.5053 104.658 20.7287C104.767 20.7734 104.874 20.8277 104.98 20.8851H110.456C110.749 20.8851 111.039 20.8979 111.326 20.9138C111.39 20.917 111.451 20.9202 111.513 20.9266C111.799 20.9489 112.083 20.9777 112.363 21.016C112.386 21.0191 112.405 21.0223 112.428 21.0255C112.702 21.067 112.973 21.1149 113.24 21.1723C113.279 21.1819 113.314 21.1883 113.353 21.1947C113.64 21.2585 113.923 21.3319 114.204 21.4149C114.22 21.4181 114.233 21.4245 114.249 21.4277C114.835 21.6032 115.409 21.8234 115.97 22.0851C115.973 22.0883 115.979 22.0883 115.983 22.0915C116.55 22.3596 117.104 22.6692 117.645 23.0266C117.939 23.1894 118.229 23.3681 118.516 23.5564C118.809 23.7191 119.099 23.8979 119.386 24.0862C119.679 24.2489 119.969 24.4277 120.256 24.616C120.549 24.7787 120.839 24.9574 121.126 25.1457C121.419 25.3085 121.709 25.4872 121.996 25.6755C122.289 25.8383 122.579 26.017 122.866 26.2053C123.16 26.3681 123.45 26.5468 123.736 26.7351C124.03 26.8979 124.32 27.0766 124.607 27.2649C124.9 27.4277 125.19 27.6064 125.477 27.7947C125.77 27.9574 126.06 28.1362 126.347 28.3245C126.64 28.4872 126.93 28.666 127.217 28.8543C127.51 29.017 127.8 29.1957 128.087 29.384C128.38 29.5468 128.67 29.7255 128.957 29.9138C129.25 30.0766 129.541 30.2553 129.827 30.4436C130.121 30.6064 130.411 30.7851 130.697 30.9734C130.991 31.1362 131.281 31.3149 131.568 31.5032C131.861 31.666 132.151 31.8447 132.438 32.033C132.731 32.1957 133.021 32.3745 133.308 32.5628C133.601 32.7255 133.891 32.9043 134.178 33.0926C134.471 33.2553 134.761 33.434 135.048 33.6223C135.341 33.7851 135.631 33.9638 135.918 34.1521C136.212 34.3149 136.502 34.4936 136.788 34.6819C137.082 34.8447 137.372 35.0234 137.659 35.2117C137.952 35.3745 138.242 35.5532 138.529 35.7415C138.822 35.9043 139.112 36.083 139.399 36.2713C139.692 36.434 139.982 36.6128 140.269 36.8011C140.562 36.9638 140.852 37.1426 141.139 37.3309C141.432 37.4936 141.722 37.6723 142.009 37.8606C142.303 38.0234 142.593 38.2021 142.879 38.3904C143.173 38.5532 143.463 38.7319 143.75 38.9202C144.043 39.083 144.333 39.2617 144.62 39.45C144.913 39.6128 145.203 39.7915 145.49 39.9798C145.783 40.1426 146.073 40.3213 146.36 40.5096C146.653 40.6723 146.943 40.8511 147.23 41.0394C147.523 41.2021 147.813 41.3809 148.1 41.5692C148.393 41.7319 148.683 41.9106 148.97 42.0989C149.264 42.2617 149.554 42.4404 149.84 42.6287C150.134 42.7915 150.424 42.9702 150.711 43.1585C151.004 43.3213 151.294 43.5 151.581 43.6883C151.874 43.8511 152.164 44.0298 152.451 44.2181C152.744 44.3809 153.034 44.5596 153.321 44.7479C153.614 44.9106 153.904 45.0894 154.191 45.2777C154.484 45.4404 154.774 45.6192 155.061 45.8074C155.355 45.9702 155.645 46.1489 155.931 46.3372C156.225 46.5 156.515 46.6787 156.802 46.867C157.095 47.0298 157.385 47.2085 157.672 47.3968C157.965 47.5596 158.255 47.7383 158.542 47.9266C158.835 48.0894 159.125 48.2681 159.412 48.4564C159.705 48.6191 159.995 48.7979 160.282 48.9862C160.575 49.1489 160.865 49.3277 161.152 49.516C161.445 49.6787 161.736 49.8574 162.022 50.0457C162.316 50.2085 162.606 50.3872 162.892 50.5755C163.186 50.7383 163.476 50.917 163.763 51.1053C164.056 51.2681 164.346 51.4468 164.633 51.6351C164.926 51.7979 165.216 51.9766 165.503 52.1649C165.796 52.3277 166.086 52.5064 166.373 52.6947C166.666 52.8574 166.956 53.0362 167.243 53.2245C167.536 53.3872 167.826 53.566 168.113 53.7543C168.407 53.917 168.697 54.0957 168.983 54.284C169.277 54.4468 169.567 54.6255 169.854 54.8138C170.147 54.9766 170.437 55.1553 170.724 55.3436C171.017 55.5064 171.307 55.6851 171.594 55.8734C171.887 56.0362 172.177 56.2149 172.464 56.4032C172.757 56.566 173.047 56.7447 173.334 56.933C173.627 57.0957 173.917 57.2745 174.204 57.4628C174.497 57.6255 174.788 57.8043 175.074 57.9926C175.368 58.1553 175.658 58.334 175.945 58.5223C176.238 58.6851 176.528 58.8638 176.815 59.0521C177.108 59.2149 177.398 59.3936 177.685 59.5819C177.978 59.7447 178.268 59.9234 178.555 60.1117C178.848 60.2745 179.138 60.4532 179.425 60.6415C179.483 60.6734 179.541 60.7085 179.599 60.7436C175.819 35.4926 161.294 13.6915 140.788 0Z" fill="#FFC85B"/>
<path d="M180.682 73.4362C180.643 69.1309 180.305 64.8989 179.673 60.7628C179.615 60.7309 179.557 60.6957 179.499 60.6606C179.212 60.4723 178.922 60.2968 178.629 60.1309C178.342 59.9426 178.052 59.767 177.759 59.6011C177.472 59.4128 177.182 59.2372 176.889 59.0713C176.602 58.883 176.312 58.7075 176.019 58.5415C175.732 58.3532 175.442 58.1777 175.148 58.0117C174.862 57.8234 174.572 57.6479 174.278 57.4819C173.992 57.2936 173.701 57.1181 173.408 56.9521C173.121 56.7638 172.831 56.5883 172.538 56.4223C172.251 56.234 171.961 56.0585 171.668 55.8926C171.381 55.7043 171.091 55.5287 170.798 55.3628C170.511 55.1745 170.221 54.9989 169.928 54.833C169.641 54.6447 169.351 54.4692 169.058 54.3032C168.771 54.1149 168.481 53.9394 168.187 53.7734C167.901 53.5851 167.611 53.4064 167.317 53.2436C167.03 53.0553 166.74 52.8798 166.447 52.7138C166.16 52.5255 165.87 52.3468 165.577 52.184C165.29 51.9958 165 51.8202 164.707 51.6543C164.42 51.466 164.13 51.2904 163.837 51.1245C163.55 50.9362 163.26 50.7575 162.967 50.5947C162.68 50.4064 162.39 50.2309 162.096 50.0649C161.81 49.8766 161.52 49.6979 161.226 49.5351C160.939 49.3468 160.649 49.1681 160.356 49.0053C160.069 48.817 159.779 48.6383 159.486 48.4755C159.199 48.2872 158.909 48.1085 158.616 47.9458C158.329 47.7575 158.039 47.5787 157.746 47.416C157.459 47.2277 157.169 47.0489 156.876 46.8862C156.589 46.6979 156.299 46.5192 156.006 46.3564C155.719 46.1681 155.429 45.9894 155.135 45.8266C154.849 45.6383 154.559 45.4596 154.265 45.2968C153.978 45.1085 153.688 44.9298 153.395 44.767C153.108 44.5787 152.818 44.4 152.525 44.2372C152.238 44.0489 151.948 43.8702 151.655 43.7074C151.368 43.5192 151.078 43.3404 150.785 43.1777C150.498 42.9894 150.208 42.8106 149.915 42.6479C149.628 42.4596 149.338 42.2809 149.044 42.1181C148.758 41.9298 148.468 41.7511 148.174 41.5883C147.887 41.4 147.597 41.2213 147.304 41.0585C147.017 40.8702 146.727 40.6915 146.434 40.5287C146.147 40.3404 145.857 40.1617 145.564 39.9989C145.277 39.8106 144.987 39.6319 144.694 39.4692C144.407 39.2809 144.117 39.1021 143.824 38.9394C143.537 38.7511 143.247 38.5723 142.953 38.4096C142.667 38.2213 142.377 38.0426 142.083 37.8798C141.797 37.6915 141.506 37.5128 141.213 37.35C140.926 37.1617 140.636 36.983 140.343 36.8202C140.056 36.6319 139.766 36.4532 139.473 36.2904C139.186 36.1021 138.896 35.9234 138.603 35.7606C138.316 35.5723 138.026 35.3936 137.733 35.2309C137.446 35.0426 137.156 34.8638 136.863 34.7011C136.576 34.5128 136.286 34.334 135.992 34.1713C135.706 33.983 135.416 33.8043 135.122 33.6415C134.835 33.4532 134.545 33.2745 134.252 33.1117C133.965 32.9234 133.675 32.7447 133.382 32.5819C133.095 32.3936 132.805 32.2149 132.512 32.0521C132.225 31.8638 131.935 31.6851 131.642 31.5223C131.355 31.334 131.065 31.1553 130.772 30.9926C130.485 30.8043 130.195 30.6255 129.901 30.4628C129.615 30.2745 129.325 30.0957 129.031 29.933C128.745 29.7447 128.454 29.566 128.161 29.4032C127.874 29.2149 127.584 29.0362 127.291 28.8734C127.004 28.6851 126.714 28.5064 126.421 28.3436C126.134 28.1553 125.844 27.9766 125.551 27.8138C125.264 27.6255 124.974 27.4468 124.681 27.284C124.394 27.0957 124.104 26.917 123.811 26.7543C123.524 26.566 123.234 26.3872 122.94 26.2245C122.654 26.0362 122.364 25.8575 122.07 25.6947C121.783 25.5064 121.493 25.3277 121.2 25.1649C120.913 24.9766 120.623 24.7979 120.33 24.6351C120.043 24.4468 119.753 24.2681 119.46 24.1053C119.173 23.917 118.883 23.7383 118.59 23.5755C118.303 23.3872 118.013 23.2085 117.72 23.0457C117.178 22.6915 116.624 22.3787 116.057 22.1106C116.053 22.1074 116.047 22.1075 116.044 22.1043C115.483 21.8426 114.909 21.6223 114.323 21.4468C114.307 21.4436 114.294 21.4372 114.278 21.434C113.997 21.3511 113.714 21.2777 113.427 21.2138C113.388 21.2043 113.353 21.1979 113.314 21.1915C113.047 21.134 112.776 21.0862 112.502 21.0447C112.479 21.0415 112.46 21.0383 112.438 21.0351C112.157 20.9968 111.874 20.9681 111.587 20.9457C111.526 20.9426 111.461 20.9362 111.4 20.933C111.113 20.9138 110.823 20.9043 110.53 20.9043H105.067C104.961 20.8468 104.854 20.7926 104.745 20.7479C104.477 20.5245 104.191 20.3489 103.891 20.2245C103.623 20.0011 103.337 19.8255 103.037 19.7011C102.769 19.4777 102.483 19.3021 102.183 19.1777C101.915 18.9543 101.629 18.7787 101.329 18.6543C101.061 18.4309 100.774 18.2553 100.475 18.1309C100.207 17.9074 99.9205 17.7319 99.6208 17.6074C99.5466 17.5468 99.4725 17.4894 99.3984 17.4351C99.392 17.4287 99.3855 17.4255 99.3758 17.4192C99.1599 17.2692 98.9343 17.1447 98.6991 17.0553C98.6797 17.0489 98.6604 17.0394 98.6411 17.0298C98.5863 17.0106 98.5315 16.9947 98.4735 16.9755C98.4251 16.9596 98.3768 16.9468 98.3285 16.934C98.2801 16.9213 98.2318 16.9117 98.1834 16.9021C98.119 16.8894 98.0545 16.8798 97.9901 16.8702C97.9514 16.8638 97.9127 16.8574 97.874 16.8543C97.7677 16.8447 97.6614 16.8383 97.5486 16.8383H90.3458H75.9112C74.9379 16.8383 74.0936 17.2404 73.3846 18.0447C73.2944 18.1468 73.2138 18.2489 73.1332 18.3543C73.0655 18.4468 73.0011 18.5394 72.9431 18.6351C72.9366 18.6447 72.9302 18.6574 72.9237 18.6702C72.8528 18.7883 72.7884 18.9064 72.7304 19.0309C72.7143 19.0628 72.6981 19.0979 72.682 19.133C72.6208 19.267 72.566 19.4074 72.5209 19.5479C72.4758 19.6883 72.4403 19.8351 72.4113 19.9851C72.4049 20.0234 72.3952 20.0585 72.3888 20.0968C72.363 20.2468 72.3404 20.3968 72.3308 20.5532C72.3211 20.6713 72.3179 20.7894 72.3179 20.9106H62.9365C59.5656 20.9106 56.5684 22.0883 53.9484 24.4404C53.6196 24.734 53.307 25.0404 53.0105 25.3564C52.6367 25.7521 52.2887 26.1606 51.9632 26.5915C51.6377 27.0192 51.3347 27.466 51.0576 27.9255C50.8352 28.2957 50.6257 28.6755 50.4324 29.0649C50.3357 29.2596 50.2422 29.4575 50.152 29.6585C50.0618 29.8596 49.978 30.0638 49.8942 30.2681C49.8684 30.3383 49.8426 30.4085 49.8168 30.4787C49.791 30.5489 49.7653 30.616 49.7395 30.6862C49.6364 30.967 49.5397 31.2479 49.4494 31.5383C49.2496 32.1894 49.082 32.8628 48.9499 33.5649L43.2779 61.6021H44.19L44.0739 62.1702H44.986L44.8699 62.7383H45.782L45.666 63.3064H46.578L46.462 63.8745H47.374L47.258 64.4426H48.17L48.054 65.0106H48.966L48.85 65.5787H49.762L49.7427 65.6713H36.3523C36.2266 65.6713 36.1041 65.6745 35.9849 65.6809C35.769 65.6904 35.5563 65.7128 35.3468 65.7447C35.3307 65.7479 35.3146 65.7479 35.2985 65.7511C35.0987 65.783 34.9053 65.8245 34.7119 65.8723C34.6861 65.8787 34.6636 65.8851 34.6378 65.8915C34.4509 65.9426 34.2672 66 34.0867 66.067C34.0577 66.0766 34.0319 66.0862 34.0029 66.0989C33.8257 66.166 33.6517 66.2426 33.4809 66.3287C33.4518 66.3415 33.4261 66.3575 33.3971 66.3702C33.2263 66.4564 33.0587 66.5521 32.8943 66.6575C32.8685 66.6734 32.8427 66.6894 32.817 66.7085C32.6526 66.817 32.4883 66.9319 32.3303 67.0564C32.311 67.0723 32.2884 67.0883 32.2691 67.1075C32.1047 67.2383 31.9468 67.3755 31.7889 67.5255C31.776 67.5383 31.7631 67.5511 31.7502 67.5638C31.5859 67.7202 31.428 67.8862 31.2701 68.0617C31.1444 68.2021 31.0251 68.3489 30.9123 68.4958C30.8769 68.5404 30.8447 68.5883 30.8092 68.6362C30.7319 68.7415 30.6577 68.8468 30.5836 68.9521C30.5482 69.0064 30.5127 69.0606 30.4773 69.1149C30.4096 69.2234 30.3419 69.3319 30.2775 69.4436C30.2485 69.4915 30.2195 69.5426 30.1937 69.5904C30.1067 69.75 30.0229 69.9128 29.9455 70.0755C29.8553 70.267 29.7779 70.4649 29.7038 70.666C29.6845 70.717 29.6684 70.7649 29.649 70.816C29.5781 71.017 29.5137 71.2213 29.4589 71.4287C29.3268 71.9298 29.2397 72.45 29.1946 72.9894C29.1817 73.1362 29.1817 73.2894 29.1753 73.4394C29.1721 73.5638 29.1592 73.6883 29.1592 73.816C29.1592 74.0968 29.1688 74.3713 29.1914 74.6426C29.1946 74.6649 29.1979 74.684 29.1979 74.7064C29.243 75.2234 29.3268 75.7245 29.4524 76.2064C29.5072 76.4138 29.5717 76.6181 29.6426 76.8192C29.6587 76.8702 29.678 76.9181 29.6974 76.9692C29.7715 77.1702 29.8488 77.3649 29.9391 77.5596C30.0164 77.7255 30.1002 77.8851 30.1872 78.0447C30.2162 78.0957 30.2452 78.1436 30.2742 78.1947C30.3387 78.3064 30.4032 78.4149 30.4741 78.5234C30.5095 78.5777 30.545 78.6319 30.5804 78.6862C30.6513 78.7915 30.7286 78.8968 30.806 79.0021C30.8414 79.05 30.8737 79.0947 30.9091 79.1426C31.0219 79.2894 31.1412 79.4362 31.2668 79.5766C31.3796 79.7043 31.4924 79.8223 31.6084 79.9404C31.6342 79.966 31.66 79.9915 31.6858 80.017C31.7954 80.1255 31.9049 80.2277 32.0177 80.3266C32.0242 80.333 32.0306 80.3362 32.0371 80.3426C32.2981 80.5692 32.572 80.7734 32.8524 80.9521C33.107 81.1692 33.3681 81.3638 33.6388 81.5394C33.8934 81.7564 34.1544 81.9511 34.4251 82.1266C34.6797 82.3436 34.9407 82.5383 35.2115 82.7138C35.466 82.9309 35.7271 83.1255 35.9978 83.3011C36.2524 83.5181 36.5134 83.7128 36.7841 83.8883C37.0387 84.1053 37.2998 84.3 37.5705 84.4755C37.5737 84.4787 37.5737 84.4787 37.5769 84.4819L43.6518 124.05C43.6904 124.293 43.7356 124.532 43.7871 124.765C43.829 124.95 43.8774 125.129 43.9321 125.304C43.9483 125.355 43.9644 125.41 43.9805 125.461C44.0224 125.591 44.0643 125.719 44.1126 125.844C44.1319 125.895 44.1481 125.946 44.1674 125.994C44.2351 126.163 44.3027 126.329 44.3801 126.492C44.3801 126.492 44.3801 126.491 44.3801 126.495C44.4768 126.699 44.5831 126.897 44.6959 127.092C44.7314 127.152 44.77 127.21 44.8055 127.27C44.8893 127.404 44.9731 127.535 45.0665 127.666C45.1117 127.73 45.1568 127.794 45.2051 127.857C45.2986 127.985 45.3985 128.106 45.5016 128.228C45.5467 128.282 45.5918 128.336 45.6402 128.39C45.7916 128.56 45.9496 128.726 46.1204 128.885C46.1397 128.901 46.1558 128.917 46.1751 128.933C46.3105 129.061 46.4491 129.182 46.5909 129.294C46.7488 129.421 46.9099 129.539 47.0711 129.651C47.3321 129.884 47.5996 130.098 47.8735 130.286C48.1346 130.519 48.4021 130.733 48.676 130.921C48.937 131.154 49.2045 131.368 49.4784 131.556C49.7395 131.789 50.007 132.003 50.2809 132.192C50.5419 132.424 50.8094 132.638 51.0834 132.827C51.3444 133.06 51.6119 133.273 51.8858 133.462C52.1469 133.695 52.4143 133.909 52.6883 134.097C52.9493 134.33 53.2168 134.544 53.4907 134.732C53.7518 134.965 54.0193 135.179 54.2932 135.367C54.5542 135.6 54.8217 135.814 55.0956 136.002C55.3567 136.235 55.6242 136.449 55.8981 136.637C56.1591 136.87 56.4266 137.084 56.7006 137.272C56.9616 137.505 57.2291 137.719 57.503 137.907C57.7641 138.14 58.0315 138.354 58.3055 138.543C58.5665 138.776 58.834 138.989 59.1079 139.178C59.369 139.411 59.6365 139.624 59.9104 139.813C60.1714 140.046 60.4389 140.26 60.7128 140.448C60.9739 140.681 61.2414 140.895 61.5153 141.083C61.7763 141.316 62.0438 141.53 62.3178 141.718C62.5788 141.951 62.8463 142.165 63.1202 142.353C63.3813 142.586 63.6487 142.8 63.9227 142.988C64.1837 143.221 64.4512 143.435 64.7251 143.623C64.9862 143.856 65.2537 144.07 65.5276 144.259C65.7886 144.492 66.0561 144.705 66.3301 144.894C66.5911 145.127 66.8586 145.34 67.1325 145.529C67.3936 145.762 67.661 145.976 67.935 146.164C68.196 146.397 68.4635 146.611 68.7374 146.799C68.9985 147.032 69.2659 147.246 69.5399 147.434C69.8009 147.667 70.0684 147.881 70.3423 148.069C70.6034 148.302 70.8709 148.516 71.1448 148.704C71.4058 148.937 71.6733 149.151 71.9472 149.339C72.1438 149.515 72.3469 149.674 72.5499 149.828H90.3651H138.728C163.837 134.039 180.54 106.318 180.704 74.7223C180.704 74.5628 180.711 74.4064 180.711 74.2468C180.692 73.966 180.685 73.7011 180.682 73.4362Z" fill="#D6A64B"/>
<path d="M76.4531 82.1258C75.4729 82.1258 74.6225 82.5288 73.9084 83.3379C73.191 84.1439 72.834 85.1002 72.834 86.2036V112.708C72.834 113.811 73.191 114.768 73.9084 115.574C74.6257 116.38 75.4729 116.783 76.4531 116.783C77.4334 116.783 78.2838 116.38 78.9979 115.574C79.7152 114.768 80.0723 113.811 80.0723 112.708V86.2036C80.0723 85.1002 79.7152 84.1439 78.9979 83.3379C78.2838 82.5288 77.4366 82.1258 76.4531 82.1258Z" fill="#F5F5F5"/>
<path d="M58.3506 85.8838C58.2759 84.7804 57.8507 83.8561 57.0782 83.1109C56.3057 82.3689 55.4293 82.0394 54.4458 82.1226C53.4656 82.2089 52.6443 82.6855 51.9854 83.5554C51.3265 84.4254 51.0344 85.4136 51.1091 86.517L52.9202 113.021C52.9949 114.083 53.3812 114.975 54.079 115.698C54.7769 116.421 55.5981 116.782 56.5394 116.782H56.8218C57.802 116.696 58.6232 116.22 59.2821 115.35C59.941 114.48 60.2332 113.491 60.1585 112.388L58.3506 85.8838Z" fill="#F5F5F5"/>
<path d="M120.188 82.1258C119.208 82.0395 118.331 82.3689 117.555 83.1141C116.783 83.8561 116.358 84.7804 116.283 85.887L114.472 112.391C114.397 113.495 114.689 114.483 115.348 115.353C116.007 116.223 116.828 116.703 117.809 116.786H118.091C119.036 116.786 119.853 116.424 120.551 115.702C121.249 114.979 121.635 114.086 121.71 113.025L123.521 86.5203C123.596 85.4169 123.304 84.4286 122.645 83.5586C121.989 82.6887 121.168 82.2122 120.188 82.1258Z" fill="#F5F5F5"/>
<path d="M98.1807 82.1258C97.2004 82.1258 96.35 82.5288 95.6359 83.3379C94.9186 84.1439 94.5615 85.1002 94.5615 86.2036V112.708C94.5615 113.811 94.9186 114.768 95.6359 115.574C96.3532 116.38 97.2004 116.783 98.1807 116.783C99.1609 116.783 100.011 116.38 100.725 115.574C101.443 114.768 101.8 113.811 101.8 112.708V86.2036C101.8 85.1002 101.443 84.1439 100.725 83.3379C100.008 82.5288 99.1609 82.1258 98.1807 82.1258Z" fill="#F5F5F5"/>
<path d="M138.011 65.8177H36.6229C34.6234 65.8177 32.9161 66.6141 31.5041 68.2068C30.0889 69.7996 29.3813 71.7217 29.3813 73.9733C29.3813 76.2249 30.0889 78.1471 31.5041 79.7399C32.9193 81.3326 34.6267 82.129 36.6229 82.129H37.47L43.978 124.305C44.2799 126.259 45.1108 127.874 46.4676 129.147C47.8244 130.42 49.3726 131.06 51.1059 131.06H123.524C125.261 131.06 126.806 130.423 128.163 129.147C129.52 127.874 130.35 126.259 130.652 124.305L137.16 82.129H138.007C140.007 82.129 141.714 81.3326 143.126 79.7399C144.541 78.1471 145.249 76.2249 145.249 73.9733C145.249 71.7217 144.541 69.7996 143.126 68.2068C141.718 66.6109 140.01 65.8177 138.011 65.8177ZM59.2823 115.353C58.6233 116.223 57.8021 116.703 56.8219 116.786H56.5395C55.595 116.786 54.777 116.424 54.0791 115.701C53.3813 114.979 52.995 114.086 52.9204 113.025L51.1092 86.5203C51.0345 85.4168 51.3266 84.4286 51.9856 83.5586C52.6445 82.6887 53.4657 82.209 54.4459 82.1258C55.4262 82.0394 56.3026 82.3689 57.0783 83.1141C57.8508 83.8561 58.276 84.7804 58.3507 85.887L60.1619 112.391C60.2365 113.495 59.9444 114.483 59.2823 115.353ZM80.0753 112.708C80.0753 113.811 79.7182 114.768 79.0009 115.574C78.2836 116.38 77.4364 116.783 76.4561 116.783C75.4759 116.783 74.6255 116.38 73.9114 115.574C73.194 114.768 72.837 113.811 72.837 112.708V86.2036C72.837 85.1002 73.194 84.1439 73.9114 83.3379C74.6287 82.532 75.4759 82.1258 76.4561 82.1258C77.4364 82.1258 78.2868 82.5288 79.0009 83.3379C79.7182 84.1439 80.0753 85.1002 80.0753 86.2036V112.708ZM101.8 112.708C101.8 113.811 101.443 114.768 100.725 115.574C100.008 116.38 99.161 116.783 98.1807 116.783C97.2005 116.783 96.35 116.38 95.636 115.574C94.9186 114.768 94.5616 113.811 94.5616 112.708V86.2036C94.5616 85.1002 94.9186 84.1439 95.636 83.3379C96.3533 82.532 97.2005 82.1258 98.1807 82.1258C99.161 82.1258 100.011 82.5288 100.725 83.3379C101.443 84.1439 101.8 85.1002 101.8 86.2036V112.708ZM123.528 86.5235L121.716 113.028C121.642 114.09 121.256 114.982 120.558 115.705C119.86 116.428 119.039 116.789 118.097 116.789H117.815C116.835 116.703 116.013 116.226 115.355 115.356C114.696 114.486 114.404 113.498 114.478 112.394L116.289 85.8902C116.364 84.7868 116.789 83.8625 117.562 83.1173C118.334 82.3753 119.211 82.0458 120.194 82.129C121.174 82.2153 121.996 82.6919 122.655 83.5618C123.31 84.4318 123.602 85.4168 123.528 86.5235Z" fill="#1F3754"/>
<path d="M63.3852 20.9616C59.9901 20.9616 56.9714 22.1418 54.3325 24.4989C51.6936 26.8561 50.0123 29.9041 49.2982 33.6429L43.5854 61.7399H51.0542L56.3157 35.4915C56.7312 33.6237 57.5881 32.0949 58.8897 30.9051C60.1913 29.7154 61.6909 29.1205 63.3885 29.1205H72.8372V20.9648L63.3852 20.9616Z" fill="#1F3754"/>
<path d="M125.336 33.6429C124.618 29.9041 122.94 26.8561 120.301 24.4989C117.662 22.1418 114.644 20.9616 111.249 20.9616H101.8V29.1173H111.249C112.946 29.1173 114.446 29.7122 115.747 30.9019C117.049 32.0917 117.906 33.6205 118.321 35.4883L123.583 61.7367H131.052L125.336 33.6429Z" fill="#1F3754"/>
<path d="M100.725 18.0959C100.008 17.29 99.1609 16.887 98.1806 16.887H76.4561C75.4758 16.887 74.6254 17.29 73.9113 18.0959C73.194 18.9019 72.8369 19.8582 72.8369 20.9616V29.1173C72.8369 30.2207 73.194 31.177 73.9113 31.9829C74.6286 32.7889 75.4758 33.1919 76.4561 33.1919H98.1806C99.1609 33.1919 100.011 32.7889 100.725 31.9829C101.443 31.177 101.8 30.2207 101.8 29.1173V20.9616C101.8 19.8582 101.443 18.9019 100.725 18.0959Z" fill="#EE724B"/>
</g>
<defs>
<clipPath id="clip0_339_4155">
<rect width="180.795" height="150" fill="white"/>
</clipPath>
</defs>
</svg>
