<svg width="19" height="19" viewBox="0 0 19 19" fill="none" xmlns="http://www.w3.org/2000/svg">
<path d="M17.9748 8.17H10.8048V1C10.8048 0.734784 10.6994 0.48043 10.5119 0.292893C10.3243 0.105357 10.07 0 9.80477 0C9.53955 0 9.28519 0.105357 9.09766 0.292893C8.91012 0.48043 8.80477 0.734784 8.80477 1V8.17H1.63477C1.36955 8.17 1.1152 8.27536 0.927659 8.46289C0.740123 8.65043 0.634766 8.90478 0.634766 9.17C0.634766 9.43522 0.740123 9.68957 0.927659 9.87711C1.1152 10.0646 1.36955 10.17 1.63477 10.17H8.80477V17.34C8.80477 17.6052 8.91012 17.8596 9.09766 18.0471C9.28519 18.2346 9.53955 18.34 9.80477 18.34C10.07 18.34 10.3243 18.2346 10.5119 18.0471C10.6994 17.8596 10.8048 17.6052 10.8048 17.34V10.17H17.9748C18.24 10.17 18.4943 10.0646 18.6819 9.87711C18.8694 9.68957 18.9748 9.43522 18.9748 9.17C18.9748 8.90478 18.8694 8.65043 18.6819 8.46289C18.4943 8.27536 18.24 8.17 17.9748 8.17Z" fill="#C4C4C4"/>
</svg>
