<svg width="91" height="75" viewBox="0 0 91 75" fill="none" xmlns="http://www.w3.org/2000/svg">
<path d="M58.5599 71.5H28.4399C27.6099 71.5 26.9399 70.83 26.9399 70V66.14C3.65991 59.36 4.49991 36.16 4.50991 35.93C4.54991 35.13 5.20991 34.5 6.00991 34.5H80.9899C81.7899 34.5 82.4499 35.13 82.4899 35.93C82.4999 36.17 83.3399 59.36 60.0599 66.14V70C60.0599 70.83 59.3899 71.5 58.5599 71.5ZM29.9399 68.5H57.0599V64.99C57.0599 64.31 57.5199 63.71 58.1799 63.54C77.1599 58.61 79.2799 42.45 79.4799 37.5H7.50991C7.70991 42.45 9.82991 58.61 28.8099 63.54C29.4699 63.71 29.9299 64.31 29.9299 64.99V68.5H29.9399Z" fill="#767676"/>
<path d="M80 40.5H6V43.5H80V40.5Z" fill="#767676"/>
<path d="M86 9V7H24V9H86Z" fill="#767676"/>
<path d="M86 17V14H24V17H86Z" fill="#767676"/>
<path d="M42 37H44V4H42V37Z" fill="#767676"/>
<path d="M49.03 37H51.03V4H49.03V37Z" fill="#767676"/>
<path d="M35 37H37V4H35V37Z" fill="#767676"/>
<path d="M58 64H28V70H58V64Z" fill="#767676"/>
</svg>
