<svg width="41" height="40" viewBox="0 0 41 40" fill="none" xmlns="http://www.w3.org/2000/svg">
<path d="M20.6354 37.9163C30.5305 37.9163 38.5521 29.8948 38.5521 19.9997C38.5521 10.1046 30.5305 2.08301 20.6354 2.08301C10.7403 2.08301 2.71875 10.1046 2.71875 19.9997C2.71875 29.8948 10.7403 37.9163 20.6354 37.9163Z" stroke="#C4C4C4" stroke-linecap="round" stroke-linejoin="round"/>
<path d="M28.2224 21.4162L29.6176 14.9162C29.7183 14.4469 29.3814 14 28.9269 14H17.3343L17.0638 12.5997C16.9964 12.2507 16.7063 12 16.3699 12H13.3438C12.9526 12 12.6355 12.3358 12.6355 12.75V13.25C12.6355 13.6642 12.9526 14 13.3438 14H15.4064L17.4796 24.7323C16.9836 25.0344 16.6494 25.6007 16.6494 26.25C16.6494 27.2165 17.3894 28 18.3022 28C19.215 28 19.9549 27.2165 19.9549 26.25C19.9549 25.7602 19.7647 25.3177 19.4584 25H25.6459C25.3397 25.3177 25.1494 25.7602 25.1494 26.25C25.1494 27.2165 25.8894 28 26.8022 28C27.715 28 28.4549 27.2165 28.4549 26.25C28.4549 25.5571 28.0746 24.9584 27.5229 24.6748L27.6858 23.9162C27.7865 23.4469 27.4496 23 26.995 23H19.073L18.8798 22H27.5317C27.8624 22 28.1491 21.7577 28.2224 21.4162Z" fill="#C4C4C4"/>
</svg>
