<svg width="20" height="20" viewBox="0 0 20 20" fill="none" xmlns="http://www.w3.org/2000/svg">
<path d="M10 3.75C9.3 3.75 8.7 3.95 8.7 3.95C6.3625 4.65 4.625 6.1375 4.625 6.1375C3.075 7.3875 1.9 8.925 1.35 10.45C0.762498 12.025 0.849997 13.475 1.6 14.5125C2.2875 15.4625 3.475 16 4.95 16.0625C6.575 16.1375 6.7875 14.8875 6.7875 14.8875C7.1 13.8125 6.1875 12.8875 4.0625 12.1125C4.0625 12.1125 3.5 11.925 3.5 11.325C3.5 11.1375 3.5875 10.7625 3.95 10.575C4.3 10.4 4.6125 10.525 4.6125 10.525C6.4125 11.15 7.825 12.2 8.575 13.525L8.95 14.175V8.4375C8.95 7.8625 9.425 7.4 10 7.4C10.5625 7.4 11.0375 7.8625 11.0375 8.4375V14.175L11.4125 13.525C12.175 12.2125 13.5875 11.15 15.3875 10.525C15.3875 10.525 15.7 10.4 16.05 10.575C16.4 10.7625 16.4875 11.1375 16.4875 11.325C16.4875 11.925 15.9375 12.1125 15.9375 12.1125C13.8125 12.875 12.9 13.8125 13.2125 14.8875C13.2125 14.8875 13.4375 16.15 15.05 16.0625C16.525 15.9875 17.7125 15.4625 18.3875 14.5125C19.15 13.4625 19.2375 12.025 18.65 10.45C18.0625 8.9125 16.9125 7.375 15.35 6.1375C15.35 6.1375 13.625 4.6625 11.2875 3.95C11.2875 3.95 10.6625 3.75 10 3.75Z" fill="#E96000"/>
</svg>
