<svg width="41" height="40" viewBox="0 0 41 40" fill="none" xmlns="http://www.w3.org/2000/svg">
<path d="M20.6354 37.9163C30.5305 37.9163 38.5521 29.8948 38.5521 19.9997C38.5521 10.1046 30.5305 2.08301 20.6354 2.08301C10.7403 2.08301 2.71875 10.1046 2.71875 19.9997C2.71875 29.8948 10.7403 37.9163 20.6354 37.9163Z" stroke="#C4C4C4" stroke-linecap="round" stroke-linejoin="round"/>
<path d="M28.9748 19.17H21.8048V12C21.8048 11.7348 21.6994 11.4804 21.5119 11.2929C21.3243 11.1054 21.07 11 20.8048 11C20.5395 11 20.2852 11.1054 20.0977 11.2929C19.9101 11.4804 19.8048 11.7348 19.8048 12V19.17H12.6348C12.3695 19.17 12.1152 19.2754 11.9277 19.4629C11.7401 19.6504 11.6348 19.9048 11.6348 20.17C11.6348 20.4352 11.7401 20.6896 11.9277 20.8771C12.1152 21.0646 12.3695 21.17 12.6348 21.17H19.8048V28.34C19.8048 28.6052 19.9101 28.8596 20.0977 29.0471C20.2852 29.2346 20.5395 29.34 20.8048 29.34C21.07 29.34 21.3243 29.2346 21.5119 29.0471C21.6994 28.8596 21.8048 28.6052 21.8048 28.34V21.17H28.9748C29.24 21.17 29.4943 21.0646 29.6819 20.8771C29.8694 20.6896 29.9748 20.4352 29.9748 20.17C29.9748 19.9048 29.8694 19.6504 29.6819 19.4629C29.4943 19.2754 29.24 19.17 28.9748 19.17Z" fill="#C4C4C4"/>
</svg>
