<svg width="51" height="108" viewBox="0 0 51 108" fill="none" xmlns="http://www.w3.org/2000/svg">
<g clip-path="url(#clip0_259_1681)">
<path d="M34.5043 0H16.4996C16.132 0 15.834 0.298025 15.834 0.665657V7.21062C15.834 7.57825 16.132 7.87628 16.4996 7.87628H34.5043C34.8719 7.87628 35.1699 7.57825 35.1699 7.21062V0.665657C35.1699 0.298025 34.8719 0 34.5043 0Z" fill="#EB6220"/>
<path d="M45.2425 48.7998H4.90051V50.7928H45.2425V48.7998Z" fill="#EB6220"/>
<path d="M46.8408 51.7773H4.40222V53.7703H46.8408V51.7773Z" fill="#EB6220"/>
<path d="M45.2943 62.6152H6.25574V64.6082H45.2943V62.6152Z" fill="#EB6220"/>
<path d="M45.8563 65.5928H5.77344V67.5858H45.8563V65.5928Z" fill="#EB6220"/>
<path d="M44.6885 77.4238H5.79736V79.4168H44.6885V77.4238Z" fill="#EB6220"/>
<path d="M6.25702 80.3986L6.24902 82.3916L45.2873 82.5483L45.2953 80.5553L6.25702 80.3986Z" fill="#EB6220"/>
<path d="M12.6133 15.2264L25.4123 15.1466H25.5877L38.3866 15.2303C38.0546 15.5209 37.7695 15.861 37.5416 16.2388H38.6018C39.2139 16.2388 39.801 15.9956 40.2338 15.5628C40.6666 15.13 40.9097 14.543 40.9097 13.9309C40.9097 13.3188 40.6666 12.7318 40.2338 12.299C39.801 11.8662 39.2139 11.623 38.6018 11.623H12.3981C11.786 11.623 11.199 11.8662 10.7662 12.299C10.3334 12.7318 10.0902 13.3188 10.0902 13.9309C10.0902 14.543 10.3334 15.13 10.7662 15.5628C11.199 15.9956 11.786 16.2388 12.3981 16.2388H13.4584C13.2322 15.8586 12.947 15.5168 12.6133 15.2264Z" fill="#EB6220"/>
<path d="M39.989 107.773H11.011C9.57138 107.788 8.13889 107.569 6.76992 107.123C4.96935 106.525 3.38109 105.417 2.19801 103.934C1.78093 103.407 1.42272 102.837 1.12977 102.232C0.823676 101.636 0.624034 100.991 0.539849 100.327C0.495017 99.8285 0.481704 99.328 0.49999 98.828C0.49999 98.6367 0.49999 98.4295 0.49999 98.258V86.9299C0.49999 85.8019 0.591667 84.343 1.3211 83.0715C1.90305 82.0551 2.87164 81.7402 3.64891 81.4771C3.92987 81.3943 4.20323 81.2876 4.46603 81.1582C4.91246 80.9231 5.45455 80.5484 5.51434 80.098C5.63392 79.229 4.35044 78.1688 3.86813 77.7662C2.62893 76.8166 1.66571 75.5534 1.07796 74.1071C0.7504 73.2023 0.644248 72.2322 0.768378 71.278C0.892507 70.3238 1.24331 69.4132 1.79144 68.6224C2.14701 68.1569 2.55944 67.7378 3.01912 67.3748C3.23038 67.1994 3.41772 67.028 3.60506 66.8526C4.31456 66.1391 4.7012 65.4655 4.75302 64.8596C4.83672 63.8591 3.87212 63.0301 3.04702 62.5079C1.78347 61.7107 0.97432 60.7222 0.655442 59.5742C0.189084 57.936 0.683344 56.1702 2.11829 54.3247C2.36042 54.0291 2.61856 53.747 2.89157 53.4797C3.14087 53.2314 3.37136 52.9649 3.58114 52.6825C3.86997 52.2611 4.05067 51.7752 4.10729 51.2675C4.21613 50.11 3.95218 48.948 3.35394 47.9511C3.20115 47.6957 3.02785 47.4531 2.83577 47.2257C2.60802 46.9541 2.40021 46.6663 2.21396 46.3647C-2.80438 37.9942 9.20933 26.674 9.72352 26.1957L9.75541 26.1638C12.0513 24.2227 12.6173 23.2341 12.709 23.0508V22.9711C13.8849 19.8381 13.295 17.8531 12.5934 16.741L11.6607 15.2383H39.3472L38.3866 16.7689C37.6811 17.881 37.0912 19.866 38.271 22.999V23.0428C38.3308 23.1743 38.849 24.1629 41.2286 26.1758L41.2645 26.2077C41.7787 26.686 53.7924 37.9982 48.7741 46.3767C48.5852 46.6775 48.3761 46.9651 48.1483 47.2376C47.6786 47.7931 47.3246 48.4367 47.107 49.1307C46.8893 49.8248 46.8124 50.5553 46.8807 51.2794C46.9362 51.7868 47.1155 52.2727 47.4029 52.6944C47.6151 52.975 47.8454 53.2413 48.0925 53.4916C48.3575 53.7606 48.609 54.0426 48.8458 54.3367C50.2808 56.1822 50.771 57.9479 50.3047 59.5862C49.9818 60.7341 49.1766 61.7187 47.9131 62.5199C47.092 63.042 46.1274 63.8711 46.2111 64.8716C46.2629 65.4854 46.6495 66.159 47.359 66.8646C47.5344 67.0399 47.7337 67.2113 47.945 67.3907C48.4052 67.7503 48.8165 68.1684 49.1687 68.6343C49.7172 69.425 50.0685 70.3354 50.1933 71.2896C50.3181 72.2437 50.2128 73.2139 49.8861 74.119C49.2974 75.5648 48.3343 76.8277 47.096 77.7781C46.6137 78.1767 45.3302 79.241 45.4498 80.1099C45.5135 80.5603 46.0556 80.935 46.4981 81.1702C46.7547 81.2979 47.0213 81.4045 47.2953 81.4891C48.0925 81.7442 49.0411 82.0591 49.6231 83.0835C50.3525 84.355 50.4442 85.8139 50.4442 86.9419V98.27C50.4442 98.4574 50.4442 98.6686 50.4442 98.84C50.4671 99.3397 50.4564 99.8404 50.4123 100.339C50.3261 100.999 50.1279 101.639 49.8264 102.232C49.5311 102.836 49.1716 103.407 48.7541 103.934C47.5718 105.418 45.9833 106.526 44.1822 107.123C42.8286 107.564 41.4126 107.783 39.989 107.773ZM11.0628 27.6825C10.5925 28.1249 -0.197555 38.4685 3.92394 45.3523C4.06707 45.5771 4.22416 45.7928 4.39428 45.998C4.65563 46.3085 4.8903 46.6405 5.09581 46.9905C5.90904 48.3624 6.25456 49.9613 6.08035 51.5465C5.98082 52.3789 5.67833 53.1742 5.19945 53.8623C4.93393 54.2136 4.64495 54.5465 4.33449 54.8588C4.11537 55.0765 3.90908 55.3068 3.71667 55.5484C2.69227 56.8638 2.31361 58.0356 2.59661 59.0321C2.87099 59.7994 3.42079 60.4373 4.13918 60.8218C6.47496 62.3006 6.85761 63.9229 6.76593 65.027C6.67426 66.1311 6.09629 67.2113 5.04399 68.2676C4.80882 68.5028 4.56966 68.7061 4.33449 68.9054C4.00376 69.1606 3.70528 69.455 3.44562 69.7823C3.08258 70.3089 2.85051 70.9145 2.7687 71.5489C2.6869 72.1833 2.75772 72.828 2.97528 73.4295C3.44414 74.5405 4.19587 75.5094 5.1556 76.2396C5.9528 76.8893 7.78236 78.4079 7.51131 80.377C7.36781 81.4094 6.66628 82.2663 5.42266 82.928C5.05922 83.111 4.68043 83.2617 4.29065 83.3784C3.64093 83.5897 3.26227 83.7252 3.07094 84.06C2.57668 84.925 2.5129 86.053 2.5129 86.9299V98.258C2.5129 98.4613 2.5129 98.6566 2.5129 98.8759C2.49448 99.2905 2.50247 99.7059 2.53682 100.119C2.59525 100.553 2.73022 100.973 2.93542 101.359C3.16746 101.833 3.4494 102.281 3.77646 102.694C4.71634 103.875 5.97948 104.755 7.41166 105.23C8.56966 105.606 9.78146 105.79 10.999 105.776H39.977C41.1946 105.79 42.4064 105.606 43.5644 105.23C45.0022 104.756 46.27 103.872 47.2116 102.686C47.5394 102.275 47.8214 101.828 48.0526 101.355C48.2561 100.968 48.3909 100.549 48.4512 100.116C48.4775 99.7027 48.4775 99.2887 48.4512 98.8759C48.4512 98.6686 48.4512 98.4773 48.4512 98.2541V86.9299C48.4512 86.049 48.3914 84.9369 47.8932 84.06C47.7018 83.7252 47.3232 83.5897 46.6735 83.3784C46.2839 83.261 45.9052 83.1103 45.5414 82.928C44.3018 82.2663 43.6003 81.4094 43.4568 80.377C43.1857 78.4079 45.0233 76.8893 45.8085 76.2396C46.7705 75.5117 47.5227 74.5421 47.9888 73.4295C48.209 72.8284 48.2812 72.1832 48.1994 71.5484C48.1175 70.9136 47.884 70.3078 47.5185 69.7823C47.2588 69.455 46.9603 69.1606 46.6296 68.9054C46.3984 68.7061 46.1553 68.5068 45.9201 68.2676C44.8718 67.2113 44.2898 66.1192 44.1982 65.027C44.1065 63.9349 44.4891 62.3006 46.8249 60.8218C47.5433 60.4373 48.0931 59.7994 48.3675 59.0321C48.6505 58.0356 48.2758 56.8638 47.2514 55.5484C47.0579 55.3077 46.8517 55.0775 46.6336 54.8588C46.3231 54.5465 46.0342 54.2136 45.7686 53.8623C45.2885 53.1745 44.9846 52.3792 44.8838 51.5465C44.7107 49.9613 45.0561 48.3628 45.8683 46.9905C46.0751 46.6404 46.3111 46.3084 46.5738 45.998C46.7427 45.7918 46.8997 45.5762 47.0441 45.3523C51.1696 38.4605 40.3756 28.1249 39.9013 27.6825C37.1111 25.3228 36.4973 24.0951 36.3578 23.6766C35.3174 20.8864 35.441 18.7619 35.9592 17.2313H15.0209C15.5231 18.7619 15.6507 20.8864 14.6223 23.6766C14.4708 24.0831 13.849 25.3228 11.0628 27.6825Z" fill="#EB6220"/>
<path d="M38.3867 15.2262L25.5877 15.1465H25.4124L12.6134 15.2302C12.9467 15.5194 13.232 15.8598 13.4584 16.2386H37.5417C37.7692 15.8595 38.0543 15.5179 38.3867 15.2262Z" fill="#EB6220"/>
</g>
<defs>
<clipPath id="clip0_259_1681">
<rect width="50" height="107.773" fill="white" transform="translate(0.5)"/>
</clipPath>
</defs>
</svg>
