<svg width="91" height="85" viewBox="0 0 91 85" fill="none" xmlns="http://www.w3.org/2000/svg">
<g clip-path="url(#clip0_259_1639)">
<path d="M90.8315 61.3411C91.8168 74.5135 81.026 82.7383 67.1581 82.8384C56.6781 82.9174 47.6893 72.6061 47.6314 60.751C47.5734 48.3004 57.2577 40.123 69.977 39.6014C78.9026 39.2326 92.6914 50.7505 90.8315 61.3411ZM50.7875 60.5086C49.8496 72.506 59.5655 80.2092 67.3688 79.8087C81.7215 79.0658 88.3445 72.5587 88.4446 60.2135C88.5079 52.1204 79.4558 42.8523 70.1298 42.7206C59.6182 42.5678 49.5282 49.4859 50.7875 60.5086V60.5086Z" fill="#767676"/>
<path d="M24.9854 21.1552C23.8579 8.95756 34.6487 -0.168261 47.6419 0.000345503C56.7572 0.121531 68.4384 11.1969 68.4121 21.603C68.3805 34.4645 56.8204 42.8632 44.4542 43.0318C34.9543 43.2057 23.8315 32.2516 24.9854 21.1552ZM27.6199 21.2447C27.6199 29.322 32.4094 36.6511 39.5541 39.4331C45.2182 41.6408 56.7466 39.0538 60.7774 34.0746C69.0654 23.8634 66.7577 11.592 54.5969 4.81089C43.8377 -1.17463 26.8717 6.00168 27.641 21.2447H27.6199Z" fill="#767676"/>
<path d="M20.4542 84.4564C9.95315 85.937 0.221403 73.792 0.00010684 63.0276C-0.268609 49.4759 10.9174 41.8201 22.7198 41.6251C31.6138 41.4512 43.6797 52.2579 43.5005 62.9802C43.2898 75.8733 34.2904 84.4511 20.4542 84.4564ZM40.3181 63.3174C41.7196 52.6899 29.8961 44.1437 22.4511 44.4967C9.90573 45.0921 2.60297 50.8985 2.70835 63.1698C2.78738 72.9279 9.16808 81.7745 19.7007 81.7376C31.5348 81.6955 41.0452 75.8996 40.3181 63.3174V63.3174Z" fill="#767676"/>
<path d="M82.6064 57.3997C82.7551 57.3959 82.9024 57.4284 83.0356 57.4945C83.1687 57.5606 83.2837 57.6583 83.3704 57.7791C83.8499 58.4324 84.4611 59.1016 84.3821 59.6812C84.2637 60.1191 84.0378 60.5205 83.725 60.849C83.4122 61.1775 83.0222 61.4226 82.5906 61.5622C82.0216 61.6623 80.6833 60.5506 80.7043 60.0184C80.736 59.2649 81.3577 58.5378 81.853 57.8002C81.9354 57.6785 82.0459 57.5785 82.1753 57.5088C82.3047 57.4391 82.449 57.4016 82.5959 57.3997H82.6064Z" fill="#767676"/>
<path d="M73.6073 48.6057C73.7392 48.7199 73.8431 48.8629 73.9109 49.0236C73.9788 49.1844 74.0088 49.3585 73.9986 49.5327C73.9884 49.7069 73.9383 49.8764 73.8522 50.0281C73.7661 50.1798 73.6462 50.3097 73.5019 50.4077C72.8433 50.8556 72.3743 51.1717 72.0266 51.0716C71.5934 50.9196 71.2006 50.6707 70.8783 50.3438C70.5559 50.0169 70.3125 49.6206 70.1667 49.1853C70.0718 48.6584 71.3416 47.3043 71.7737 47.3939C72.3744 47.5203 72.896 47.984 73.6073 48.6057Z" fill="#767676"/>
<path d="M62.2896 50.6134C62.4261 50.7486 62.5315 50.912 62.5984 51.0922C62.6654 51.2723 62.6923 51.4648 62.6772 51.6564C62.6622 51.848 62.6056 52.034 62.5113 52.2015C62.4171 52.3689 62.2875 52.5139 62.1315 52.6261C61.6583 53.0497 61.0794 53.3374 60.456 53.4586C59.966 53.485 58.8753 52.1309 58.9912 51.5723C59.1388 50.7767 60.1451 49.5807 60.7721 49.586C61.2411 49.5912 61.71 50.0549 62.2896 50.6134Z" fill="#767676"/>
<path d="M56.9046 63.4061C56.6587 63.6493 56.3301 63.7909 55.9844 63.8026C55.6387 63.8143 55.3013 63.6953 55.0394 63.4694C54.3966 62.9109 53.8645 62.4525 53.9488 62.2733C54.2132 61.7437 54.57 61.2655 55.0025 60.8612C55.2514 60.6154 55.5849 60.474 55.9347 60.4662C56.2844 60.4583 56.6239 60.5846 56.8836 60.8191C57.3082 61.1427 57.6362 61.5763 57.832 62.0731C57.9215 62.3734 57.4315 62.8371 56.9046 63.4061Z" fill="#767676"/>
<path d="M76.679 69.8456C76.7862 69.7192 76.919 69.6169 77.0686 69.5454C77.2181 69.474 77.3811 69.435 77.5468 69.431C77.7126 69.427 77.8772 69.4581 78.0301 69.5223C78.1829 69.5865 78.3204 69.6823 78.4336 69.8034C79.05 70.4673 79.54 70.9784 79.4294 71.1944C79.1031 71.7506 78.6632 72.2317 78.1385 72.6065C77.9089 72.7881 77.62 72.8779 77.3279 72.8584C77.0358 72.839 76.7613 72.7116 76.5578 72.5011C76.1892 72.1975 75.9347 71.7776 75.836 71.3104C75.7991 70.8783 76.1785 70.4252 76.679 69.8456Z" fill="#767676"/>
<path d="M71.7683 59.3916C71.8826 59.4914 71.971 59.6175 72.0259 59.7589C72.0808 59.9004 72.1005 60.0531 72.0834 60.2039C72.0663 60.3547 72.0129 60.499 71.9277 60.6246C71.8425 60.7502 71.7282 60.8533 71.5944 60.9249C70.7303 61.3938 70.1454 61.7311 69.608 61.6678C69.176 61.6204 68.7913 61.1409 68.412 60.6457C68.2679 60.46 68.1988 60.227 68.2183 59.9929C68.2378 59.7587 68.3445 59.5404 68.5173 59.3811C68.9469 58.8874 69.505 58.5226 70.1296 58.3273C70.5301 58.2746 71.0148 58.7383 71.7683 59.3916Z" fill="#767676"/>
<path d="M65.8617 70.6353C66.062 70.8434 66.1739 71.121 66.1739 71.4098C66.1739 71.6986 66.062 71.9762 65.8617 72.1843C65.2769 72.7692 64.8079 73.2381 64.6551 73.1696C63.8127 72.7588 63.1454 72.0597 62.7741 71.1991C62.6582 70.8039 63.8279 69.5393 64.418 69.5499C64.8343 69.5499 65.2822 70.0768 65.8617 70.6353Z" fill="#767676"/>
<path d="M47.8683 21.8606C47.7283 22.007 47.5589 22.1221 47.3713 22.1985C47.1837 22.2749 46.982 22.3107 46.7796 22.3038C46.5771 22.2968 46.3784 22.2472 46.1965 22.1581C46.0146 22.069 45.8535 21.9425 45.7239 21.7869C45.197 21.123 44.7702 20.6172 44.8861 20.3379C45.1824 19.7941 45.6167 19.338 46.1454 19.0154C46.4232 18.8114 46.7647 18.7131 47.1085 18.7382C47.4523 18.7633 47.7759 18.9102 48.0211 19.1524C48.4257 19.4618 48.7046 19.9073 48.8062 20.4064C48.8115 20.8437 48.411 21.2863 47.8683 21.8606Z" fill="#767676"/>
<path d="M50.6504 10.4696C50.5219 10.713 50.3388 10.9233 50.1154 11.084C49.892 11.2447 49.6344 11.3514 49.3628 11.3959C49.0912 11.4403 48.813 11.4211 48.5501 11.34C48.2871 11.2588 48.0466 11.1178 47.8473 10.928C47.4811 10.6629 47.2244 10.2731 47.1254 9.83207C47.0938 9.14184 48.1792 7.91944 48.8642 7.81933C49.5491 7.71922 50.7294 8.74139 50.9085 9.46324C50.945 9.81873 50.8534 10.1756 50.6504 10.4696Z" fill="#767676"/>
<path d="M43.1106 30.5603C43.2432 30.6558 43.3527 30.7798 43.4312 30.9231C43.5097 31.0664 43.5552 31.2255 43.5643 31.3886C43.5734 31.5518 43.5459 31.7149 43.4838 31.866C43.4217 32.0172 43.3266 32.1525 43.2054 32.2622C42.5257 32.8997 42.0463 33.3739 41.5088 33.4372C40.9714 33.5004 39.965 32.3201 39.9281 31.6563C39.8913 30.9924 40.7554 29.6857 41.2823 29.6541C41.8092 29.6224 42.3571 30.0334 43.1106 30.5603Z" fill="#767676"/>
<path d="M61.3043 18.868C61.4337 19.0027 61.5334 19.163 61.5969 19.3386C61.6604 19.5143 61.6863 19.7013 61.6729 19.8876C61.6595 20.0739 61.6071 20.2553 61.5191 20.42C61.4311 20.5848 61.3094 20.7292 61.162 20.8439C60.6351 21.2654 60.182 21.571 59.7868 21.5288C59.3441 21.4028 58.9587 21.1272 58.6962 20.749C58.4777 20.5039 58.3569 20.187 58.3569 19.8586C58.3569 19.5302 58.4777 19.2133 58.6962 18.9681C59.036 18.5018 59.497 18.1374 60.0292 17.9143C60.3137 17.8564 60.7458 18.2937 61.3043 18.868Z" fill="#767676"/>
<path d="M34.0637 23.7103C33.824 23.9418 33.5038 24.0711 33.1706 24.0711C32.8374 24.0711 32.5172 23.9418 32.2775 23.7103C31.6927 23.1518 31.2237 22.6934 31.287 22.3614C31.4799 21.8154 31.8233 21.335 32.2775 20.9757C32.5084 20.7529 32.8143 20.6245 33.1351 20.6157C33.4558 20.6069 33.7683 20.7184 34.011 20.9283C34.4864 21.2632 34.8528 21.7304 35.0648 22.2719C35.1544 22.6565 34.6591 23.136 34.0637 23.7103Z" fill="#767676"/>
<path d="M56.2038 30.7599C56.3549 30.9047 56.4688 31.0839 56.5359 31.2821C56.6031 31.4804 56.6214 31.6919 56.5893 31.8988C56.5572 32.1056 56.4758 32.3017 56.3518 32.4703C56.2278 32.6389 56.065 32.7752 55.8771 32.8675C55.4175 33.159 54.8922 33.3311 54.3491 33.368C53.8802 33.368 52.9371 32.0508 53.0846 31.7347C53.4376 30.9759 54.2438 30.1171 54.9919 29.9748C55.3239 29.9011 55.6716 30.2435 56.2038 30.7599Z" fill="#767676"/>
<path d="M39.2326 10.8805C39.375 10.9919 39.4901 11.1342 39.5693 11.2967C39.6485 11.4592 39.6897 11.6376 39.6897 11.8183C39.6897 11.9991 39.6485 12.1775 39.5693 12.34C39.4901 12.5025 39.375 12.6448 39.2326 12.7562C38.6003 13.241 38.1156 13.5992 37.6519 13.594C37.0724 13.594 36.0028 12.4137 36.0713 11.8341C36.1239 11.1755 37.125 10.1955 37.8205 10.1059C38.1683 10.0532 38.6162 10.3957 39.2326 10.8805Z" fill="#767676"/>
<path d="M31.5663 72.4691C31.7081 72.5827 31.8224 72.7266 31.9011 72.8903C31.9797 73.054 32.0205 73.2333 32.0205 73.4149C32.0205 73.5965 31.9797 73.7758 31.9011 73.9395C31.8224 74.1032 31.7081 74.2472 31.5663 74.3607C30.8392 74.9403 30.3229 75.3565 29.9119 75.2722C29.3512 75.0537 28.8775 74.6577 28.563 74.1447C28.3822 73.9271 28.2832 73.6531 28.2832 73.3701C28.2832 73.0872 28.3822 72.8132 28.563 72.5956C28.8862 72.105 29.3622 71.7346 29.9171 71.5418C30.3703 71.4944 30.8656 71.9054 31.5663 72.4691Z" fill="#767676"/>
<path d="M23.3625 63.2857C23.1944 63.4572 22.993 63.5924 22.7706 63.6829C22.5482 63.7734 22.3096 63.8173 22.0695 63.8118C21.8295 63.8064 21.5931 63.7518 21.3751 63.6513C21.157 63.5508 20.9619 63.4067 20.8018 63.2277C20.3328 62.7009 20.0167 62.2951 20.1063 62.0475C20.3034 61.5783 20.603 61.1593 20.9832 60.821C21.3634 60.4827 21.8145 60.2339 22.3034 60.0927C22.8303 60.0084 24.0105 61.3257 24.0948 62.0949C24.1317 62.4374 23.8209 62.822 23.3625 63.2857Z" fill="#767676"/>
<path d="M10.0111 62.9589C10.1657 63.1083 10.2831 63.2919 10.3538 63.4949C10.4246 63.6979 10.4468 63.9147 10.4186 64.1279C10.3904 64.341 10.3127 64.5446 10.1916 64.7222C10.0705 64.8999 9.90941 65.0466 9.72131 65.1508C9.27754 65.4665 8.75301 65.6493 8.20912 65.6777C7.62954 65.625 6.62844 64.3446 6.74436 63.8651C6.94985 63.1117 7.95095 62.0579 8.60429 62.0684C9.01 62.0632 9.43679 62.432 10.0111 62.9589Z" fill="#767676"/>
<path d="M14.0471 51.8888C14.2601 52.0516 14.4327 52.2613 14.5515 52.5017C14.6703 52.742 14.7321 53.0065 14.7321 53.2746C14.7321 53.5427 14.6703 53.8072 14.5515 54.0475C14.4327 54.2878 14.2601 54.4975 14.0471 54.6603C13.7297 54.9344 13.3434 55.1166 12.9301 55.1872C12.4295 55.2399 11.244 53.9332 11.3494 53.4959C11.495 53.0551 11.733 52.6504 12.0473 52.3088C12.3617 51.9672 12.7452 51.6965 13.1724 51.5147C13.3884 51.441 13.6993 51.6043 14.0471 51.8888Z" fill="#767676"/>
<path d="M36.8826 60.7455C37.0133 60.8621 37.1148 61.0077 37.1788 61.1707C37.2429 61.3337 37.2677 61.5095 37.2513 61.6839C37.2349 61.8582 37.1777 62.0263 37.0844 62.1745C36.991 62.3227 36.8642 62.4468 36.714 62.537C35.9658 62.9796 35.4389 63.2957 34.9384 63.2588C34.3272 63.2219 33.1996 61.9679 33.3208 61.6781C33.6527 60.8562 34.4589 59.8182 35.2124 59.6917C35.6128 59.6022 36.1239 60.0658 36.8826 60.7455Z" fill="#767676"/>
<path d="M25.5702 50.1291C25.7102 50.2612 25.8217 50.4204 25.898 50.5971C25.9742 50.7738 26.0136 50.9642 26.0136 51.1566C26.0136 51.349 25.9742 51.5394 25.898 51.7161C25.8217 51.8928 25.7102 52.052 25.5702 52.184C24.9853 52.7109 24.5164 53.143 24.3003 53.0481C23.8826 52.8481 23.5131 52.5599 23.2175 52.2033C22.9219 51.8468 22.7071 51.4303 22.5879 50.9827C22.5036 50.5243 23.6417 49.402 24.3267 49.402C24.7008 49.3546 25.0854 49.6813 25.5702 50.1291Z" fill="#767676"/>
<path d="M15.6488 71.868C15.7809 71.7134 15.9449 71.5893 16.1295 71.5042C16.3142 71.4191 16.5151 71.375 16.7184 71.375C16.9217 71.375 17.1226 71.4191 17.3073 71.5042C17.4919 71.5893 17.6559 71.7134 17.788 71.868C18.22 72.3685 18.5151 72.7584 18.473 73.1062C18.3887 73.7701 17.3507 74.8133 16.7711 74.7817C16.3501 74.6843 15.9609 74.4813 15.6401 74.1918C15.3194 73.9024 15.0775 73.536 14.9375 73.1273C14.8743 72.7953 15.1904 72.3949 15.6488 71.868Z" fill="#767676"/>
</g>
<defs>
<clipPath id="clip0_259_1639">
<rect width="91" height="84.5772" fill="white"/>
</clipPath>
</defs>
</svg>
