<svg width="41" height="40" viewBox="0 0 41 40" fill="none" xmlns="http://www.w3.org/2000/svg">
<path d="M20.6354 37.9163C30.5305 37.9163 38.5521 29.8948 38.5521 19.9997C38.5521 10.1046 30.5305 2.08301 20.6354 2.08301C10.7403 2.08301 2.71875 10.1046 2.71875 19.9997C2.71875 29.8948 10.7403 37.9163 20.6354 37.9163Z" stroke="#C4C4C4" stroke-linecap="round" stroke-linejoin="round"/>
<path d="M27.5869 21.4162L28.9821 14.9162C29.0828 14.4469 28.7459 14 28.2914 14H16.6988L16.4283 12.5997C16.3609 12.2507 16.0709 12 15.7344 12H12.7083C12.3171 12 12 12.3358 12 12.75V13.25C12 13.6642 12.3171 14 12.7083 14H14.7709L16.8441 24.7323C16.3481 25.0344 16.0139 25.6007 16.0139 26.25C16.0139 27.2165 16.7539 28 17.6667 28C18.5795 28 19.3194 27.2165 19.3194 26.25C19.3194 25.7602 19.1292 25.3177 18.8229 25H25.0104C24.7042 25.3177 24.5139 25.7602 24.5139 26.25C24.5139 27.2165 25.2539 28 26.1667 28C27.0795 28 27.8194 27.2165 27.8194 26.25C27.8194 25.5571 27.4391 24.9584 26.8874 24.6748L27.0503 23.9162C27.151 23.4469 26.8141 23 26.3595 23H18.4375L18.2443 22H26.8962C27.2269 22 27.5136 21.7577 27.5869 21.4162Z" fill="#C4C4C4"/>
</svg>
