<svg width="79" height="80" viewBox="0 0 79 80" fill="none" xmlns="http://www.w3.org/2000/svg">
<path d="M63.1527 72.6426V68.5662H67.6715C67.8295 68.5662 67.9717 68.5346 68.1139 68.4714C68.2561 68.4082 68.3825 68.3134 68.4773 68.187C68.5721 68.0606 68.6511 67.9342 68.6827 67.7762C68.7143 67.634 68.7301 67.476 68.6985 67.318L62.1257 33.506C61.6517 31.0412 59.5661 29.319 57.0539 29.319H43.9557V24.2946H51.8557C52.1401 24.2946 52.3929 24.184 52.5983 23.9944C52.7879 23.8048 52.8985 23.5362 52.8985 23.2518V20.392H57.4805C61.2883 20.392 64.3851 17.2952 64.3851 13.4874V7.64143C64.3851 7.35703 64.2745 7.10423 64.0849 6.89883C63.8953 6.70923 63.6267 6.59863 63.3423 6.59863H13.7303C13.4459 6.59863 13.1931 6.70923 12.9877 6.89883C12.7981 7.08843 12.6875 7.35703 12.6875 7.64143V13.4874C12.6875 17.2952 15.7843 20.392 19.5921 20.392H24.1741V23.2518C24.1741 23.5362 24.2847 23.789 24.4743 23.9944C24.6639 24.184 24.9325 24.2946 25.2169 24.2946H33.1169V29.319H20.0187C17.5065 29.319 15.4209 31.0412 14.9469 33.506L8.37407 67.3022C8.34247 67.4602 8.34247 67.6182 8.38987 67.7604C8.42147 67.9026 8.50047 68.0448 8.59527 68.1712C8.69007 68.2976 8.81647 68.3924 8.95867 68.4556C9.10087 68.5188 9.25887 68.5504 9.40107 68.5504H13.9199V72.6268C13.9199 72.9112 14.0305 73.164 14.2201 73.3694C14.4097 73.559 14.6783 73.6696 14.9627 73.6696H62.0941C62.3785 73.6696 62.6313 73.559 62.8367 73.3694C63.0421 73.1798 63.1527 72.9112 63.1527 72.6426ZM19.5763 18.2906C16.9219 18.2906 14.7731 16.1418 14.7731 13.4874V8.68423H62.2679V13.4874C62.2679 16.1418 60.1191 18.2906 57.4647 18.2906H19.5763ZM26.2597 22.1932V20.3762H50.8129V22.1932H26.2597ZM41.8543 24.2946V29.319H35.2025V24.2946H41.8543ZM61.0513 71.584H16.0213V68.5504H61.0513V71.584ZM10.6809 66.4648L17.0009 33.901C17.2853 32.4316 18.5177 31.4204 20.0187 31.4204H57.0539C58.5391 31.4204 59.7873 32.4474 60.0717 33.901L66.3917 66.4648H10.6809Z" fill="#BCBCBC"/>
<path d="M38.5361 36.1602C31.4893 36.1602 25.7539 41.8956 25.7539 48.9424C25.7539 55.9892 31.4893 61.7246 38.5361 61.7246C45.5829 61.7246 51.3183 55.9892 51.3183 48.9424C51.3183 41.8956 45.5829 36.1602 38.5361 36.1602ZM46.1359 49.685C46.3255 49.8746 46.5941 49.9852 46.8785 49.9852H49.1695C48.6797 55.0412 44.6349 59.0702 39.5947 59.56V57.269C39.5947 56.9846 39.4841 56.7318 39.2945 56.5264C39.1049 56.3368 38.8363 56.2262 38.5519 56.2262C38.2675 56.2262 38.0147 56.3368 37.8093 56.5264C37.6197 56.716 37.5091 56.9846 37.5091 57.269V59.56C32.4531 59.0702 28.4241 55.0254 27.9343 49.9852H30.2253C30.5097 49.9852 30.7625 49.8746 30.9679 49.685C31.1733 49.4954 31.2681 49.2268 31.2681 48.9424C31.2681 48.658 31.1575 48.4052 30.9679 48.1998C30.7783 47.9944 30.5097 47.8996 30.2253 47.8996H27.9343C28.4241 42.8436 32.4689 38.8146 37.5091 38.3248V40.6158C37.5091 40.9002 37.6197 41.153 37.8093 41.3584C37.9989 41.548 38.2675 41.6586 38.5519 41.6586C38.8363 41.6586 39.0891 41.548 39.2945 41.3584C39.4841 41.1688 39.5947 40.9002 39.5947 40.6158V38.3248C44.6507 38.8146 48.6797 42.8594 49.1695 47.8996H46.8785C46.5941 47.8996 46.3413 48.0102 46.1359 48.1998C45.9305 48.3894 45.8357 48.658 45.8357 48.9424C45.8357 49.211 45.9463 49.4796 46.1359 49.685Z" fill="#BCBCBC"/>
<path d="M43.4185 43.002C43.1341 43.002 42.8813 43.1126 42.6759 43.3022L39.9425 46.0356C39.5001 45.8144 39.0261 45.7038 38.5363 45.7196C36.7667 45.7196 35.3289 47.1574 35.3289 48.927C35.3289 50.6966 36.7667 52.1344 38.5363 52.1344C40.3059 52.1344 41.7437 50.6966 41.7437 48.927C41.7437 48.4214 41.6331 47.9474 41.4277 47.5208L44.1611 44.7874C44.3507 44.5978 44.4613 44.3292 44.4613 44.0448C44.4613 43.7604 44.3507 43.5076 44.1611 43.3022C43.9557 43.1126 43.6871 43.002 43.4185 43.002ZM38.5363 50.0488C37.9201 50.0488 37.4303 49.5432 37.4303 48.9428C37.4303 48.3266 37.9359 47.8368 38.5363 47.8368C39.1525 47.8368 39.6423 48.3424 39.6423 48.9428C39.6423 49.5432 39.1525 50.0488 38.5363 50.0488Z" fill="#EB6220"/>
</svg>
