<svg width="79" height="80" viewBox="0 0 79 80" fill="none" xmlns="http://www.w3.org/2000/svg">
<path d="M27.367 16.2998C25.7003 16.2998 24.3366 17.6875 24.3366 19.3574V20.3805H17.6582C15.7118 20.3805 14.22 22.0974 14.22 24.0849V61.5754C14.22 63.5629 15.7118 65.2798 17.6582 65.2798H61.3417C63.2881 65.2798 64.78 63.5629 64.78 61.5754V24.0849C64.78 22.0974 63.2881 20.3805 61.3417 20.3805H54.675V19.3691C54.675 17.6875 53.2997 16.3116 51.6446 16.3116C49.9896 16.3116 48.6143 17.6992 48.6143 19.3691V20.3805H30.3973V19.3691C30.3973 17.6875 29.0337 16.2998 27.367 16.2998Z" stroke="#BCBCBC" stroke-miterlimit="10"/>
<path d="M27.6501 17.8799C28.1041 17.8799 28.4401 18.3005 28.4401 18.8688V24.791C28.4401 25.3593 28.1041 25.7799 27.6501 25.7799C27.5502 25.7799 27.4413 25.7571 27.3414 25.7117C27.2415 25.6662 27.1598 25.5866 27.0871 25.4957C27.0145 25.4048 26.9509 25.2911 26.9146 25.1774C26.8783 25.0524 26.8601 24.9274 26.8601 24.791V18.8688C26.8601 18.3005 27.2052 17.8799 27.6501 17.8799Z" fill="#BCBCBC"/>
<path d="M51.3501 17.8799C51.8041 17.8799 52.1401 18.3005 52.1401 18.8688V24.791C52.1401 25.3593 51.8041 25.7799 51.3501 25.7799C51.2502 25.7799 51.1412 25.7571 51.0413 25.7117C50.9414 25.6662 50.8597 25.5866 50.7871 25.4957C50.7144 25.4048 50.6509 25.2911 50.6145 25.1774C50.5782 25.0524 50.5601 24.9274 50.5601 24.791V18.8688C50.5691 18.3005 50.9051 17.8799 51.3501 17.8799Z" fill="#BCBCBC"/>
<path d="M47.9997 32.0996H42.0605C41.7983 32.0996 41.5475 32.2022 41.3651 32.3846C41.1827 32.567 41.0801 32.8178 41.0801 33.08V39.0192C41.0801 39.2814 41.1827 39.5322 41.3651 39.7146C41.5475 39.897 41.7983 39.9996 42.0605 39.9996H47.9997C48.2619 39.9996 48.5127 39.897 48.6951 39.7146C48.8775 39.5322 48.9801 39.2814 48.9801 39.0192V33.08C48.9801 32.8178 48.8775 32.567 48.6951 32.3846C48.5127 32.2136 48.2619 32.0996 47.9997 32.0996ZM47.0193 38.0389H43.0636V34.0832H47.0193V38.0389Z" fill="#BCBCBC"/>
<path d="M58.1739 32.3846C57.9913 32.2022 57.7401 32.0996 57.4776 32.0996H51.5418C51.2792 32.0996 51.0281 32.2022 50.8454 32.3846C50.6628 32.567 50.5601 32.8178 50.5601 33.08V39.0192C50.5601 39.2814 50.6628 39.5322 50.8454 39.7146C51.0281 39.897 51.2792 39.9996 51.5418 39.9996H57.4776C57.7401 39.9996 57.9913 39.897 58.1739 39.7146C58.3565 39.5322 58.4593 39.2814 58.4593 39.0192V33.08C58.4707 32.8178 58.3565 32.567 58.1739 32.3846ZM56.4845 38.0275H52.5234V34.0718H56.4845V38.0275Z" fill="#BCBCBC"/>
<path d="M27.4597 43.1602H21.5318C21.2696 43.1602 21.0188 43.2626 20.8364 43.4447C20.6426 43.6383 20.54 43.8887 20.54 44.1505V50.0812C20.54 50.343 20.6426 50.5934 20.825 50.7756C21.0074 50.9577 21.2582 51.0602 21.5204 51.0602H27.4597C27.7219 51.0602 27.9727 50.9577 28.155 50.7756C28.3374 50.5934 28.44 50.343 28.44 50.0812V44.1505C28.44 43.8887 28.3374 43.6383 28.155 43.4561C27.9727 43.2626 27.7219 43.1602 27.4597 43.1602ZM26.4679 49.0795H22.5122V45.1295H26.4679V49.0795Z" fill="#BCBCBC"/>
<path d="M36.9382 43.1602H31.0018C30.7392 43.1602 30.4881 43.2628 30.3054 43.4451C30.1228 43.6275 30.02 43.8783 30.02 44.1405V50.0798C30.02 50.342 30.1228 50.5928 30.3054 50.7752C30.4881 50.9576 30.7392 51.0602 31.0018 51.0602H36.9382C37.2008 51.0602 37.452 50.9576 37.6346 50.7752C37.8173 50.5928 37.92 50.342 37.92 50.0798V44.1405C37.92 43.8783 37.8173 43.6275 37.6346 43.4451C37.452 43.2628 37.2008 43.1602 36.9382 43.1602ZM35.945 49.088H31.9836V45.1323H35.945V49.088Z" fill="#BCBCBC"/>
<path d="M47.9997 43.1602H42.0605C41.7983 43.1602 41.5475 43.2628 41.3651 43.4451C41.1827 43.6275 41.0801 43.8783 41.0801 44.1405V50.0798C41.0801 50.342 41.1827 50.5928 41.3651 50.7752C41.5475 50.9576 41.7983 51.0602 42.0605 51.0602H47.9997C48.2619 51.0602 48.5127 50.9576 48.6951 50.7752C48.8775 50.5928 48.9801 50.342 48.9801 50.0798V44.1405C48.9801 43.8783 48.8775 43.6275 48.6951 43.4451C48.5127 43.2628 48.2619 43.1602 47.9997 43.1602ZM47.0193 49.088H43.0636V45.1323H47.0193V49.088Z" fill="#BCBCBC"/>
<path d="M57.4783 43.1602H51.5419C51.2793 43.1602 51.0281 43.2628 50.8455 43.4451C50.6628 43.6275 50.5601 43.8783 50.5601 44.1405V50.0798C50.5601 50.342 50.6628 50.5928 50.8455 50.7752C51.0281 50.9576 51.2793 51.0602 51.5419 51.0602H57.4783C57.7408 51.0602 57.992 50.9576 58.1747 50.7752C58.3573 50.5928 58.4601 50.342 58.4601 50.0798V44.1405C58.4601 43.8783 58.3573 43.6275 58.1747 43.4451C57.992 43.2628 57.7408 43.1602 57.4783 43.1602ZM56.4851 49.088H52.5236V45.1323H56.4851V49.088Z" fill="#EB6220"/>
<path d="M27.4597 52.6396H21.5318C21.2696 52.6396 21.0188 52.7421 20.8364 52.9242C20.6426 53.1177 20.54 53.3682 20.54 53.63V59.5607C20.54 59.8225 20.6426 60.0729 20.825 60.2551C21.0074 60.4372 21.2582 60.5396 21.5204 60.5396H27.4597C27.7219 60.5396 27.9727 60.4372 28.155 60.2551C28.3374 60.0729 28.44 59.8225 28.44 59.5607V53.63C28.44 53.3682 28.3374 53.1177 28.155 52.9356C27.9727 52.7535 27.7219 52.6396 27.4597 52.6396ZM26.4679 58.5703H22.5122V54.6203H26.4679V58.5703Z" fill="#BCBCBC"/>
<path d="M36.9382 52.6396H31.0018C30.7392 52.6396 30.4881 52.7422 30.3054 52.9246C30.1228 53.107 30.02 53.3578 30.02 53.62V59.5593C30.02 59.8215 30.1228 60.0723 30.3054 60.2547C30.4881 60.4371 30.7392 60.5396 31.0018 60.5396H36.9382C37.2008 60.5396 37.452 60.4371 37.6346 60.2547C37.8173 60.0723 37.92 59.8215 37.92 59.5593V53.62C37.92 53.3578 37.8173 53.107 37.6346 52.9246C37.452 52.7536 37.2008 52.6396 36.9382 52.6396ZM35.945 58.5789H31.9836V54.6232H35.945V58.5789Z" fill="#BCBCBC"/>
<path d="M47.9997 52.6396H42.0605C41.7983 52.6396 41.5475 52.7422 41.3651 52.9246C41.1827 53.107 41.0801 53.3578 41.0801 53.62V59.5593C41.0801 59.8215 41.1827 60.0723 41.3651 60.2547C41.5475 60.4371 41.7983 60.5396 42.0605 60.5396H47.9997C48.2619 60.5396 48.5127 60.4371 48.6951 60.2547C48.8775 60.0723 48.9801 59.8215 48.9801 59.5593V53.62C48.9801 53.3578 48.8775 53.107 48.6951 52.9246C48.5127 52.7536 48.2619 52.6396 47.9997 52.6396ZM47.0193 58.5789H43.0636V54.6232H47.0193V58.5789Z" fill="#EB6220"/>
</svg>
