<svg width="66" height="66" viewBox="0 0 66 66" fill="none" xmlns="http://www.w3.org/2000/svg">
<path d="M33 66C51.2254 66 66 51.2254 66 33C66 14.7746 51.2254 0 33 0C14.7746 0 0 14.7746 0 33C0 51.2254 14.7746 66 33 66Z" fill="white"/>
<path d="M41.9965 20.9463C42.4202 20.9463 42.753 20.9463 43.0857 20.9463C45.2718 20.9463 47.4554 20.9307 49.6415 20.9489C52.5347 20.9749 54.4739 22.8699 54.4843 25.7527C54.5077 32.2461 54.518 38.7395 54.4791 45.233C54.4531 49.6442 51.2921 52.9039 46.8809 52.9351C37.6398 53.0001 28.4014 52.9975 19.1604 52.9377C14.6685 52.9091 11.5102 49.6052 11.5024 45.0952C11.4868 35.2303 11.4946 25.3654 11.4998 15.5005C11.4998 13.7614 12.2146 13.0258 13.9277 13.0232C22.4799 13.0154 31.0346 13.0128 39.5868 13.0206C41.3025 13.0232 41.9913 13.7536 41.9939 15.5031C41.9965 17.2785 41.9965 19.0513 41.9965 20.9463ZM40.8761 50.1641C39.3607 48.2067 39.1527 46.174 39.1631 44.0346C39.2021 35.0431 39.1813 26.0516 39.1813 17.0601C39.1813 16.691 39.1813 16.3219 39.1813 15.9164C30.8527 15.9164 22.6072 15.9164 14.302 15.9164C14.302 16.3791 14.302 16.7508 14.302 17.1225C14.302 26.27 14.302 35.4174 14.302 44.5675C14.302 48.2925 16.1554 50.1589 19.87 50.1615C26.457 50.1641 33.0466 50.1641 39.6336 50.1641C39.9663 50.1641 40.2991 50.1641 40.8761 50.1641ZM42.0381 23.8057C42.0199 24.076 41.9991 24.258 41.9991 24.4426C41.9991 31.4637 41.9991 38.4874 42.0043 45.5085C42.0043 45.7866 42.0329 46.07 42.0953 46.3403C42.6464 48.7812 44.8351 50.3825 47.2552 50.1277C49.917 49.847 51.6743 47.8974 51.6821 45.1264C51.7003 38.7291 51.6925 32.3293 51.6873 25.9321C51.6873 24.5491 50.9802 23.7511 49.8001 23.7641C48.7005 23.7745 48.1806 24.4608 48.1806 25.9061C48.1806 32.0849 48.1832 38.2638 48.178 44.4453C48.178 45.6099 47.6503 46.2675 46.7509 46.2675C45.8749 46.2675 45.368 45.5969 45.368 44.4219C45.3654 37.5698 45.368 30.7176 45.368 23.8057C44.3594 23.8057 43.2494 23.8057 42.0381 23.8057Z" fill="#696969"/>
<path d="M26.9511 32.4906C26.9511 33.0677 26.9511 33.5304 26.9511 34.0607C23.6394 34.0607 20.3589 34.0607 17.0264 34.0607C17.0264 33.533 17.0264 33.0209 17.0264 32.4906C20.3537 32.4906 23.6108 32.4906 26.9511 32.4906Z" fill="#696969"/>
<path d="M26.9378 28.3755C26.9378 29.0072 26.9378 29.4647 26.9378 29.9898C23.6365 29.9898 20.3794 29.9898 17.1223 29.9898C16.6856 28.5575 16.8181 28.3729 18.2816 28.3729C20.8057 28.3729 23.3323 28.3729 25.8564 28.3729C26.1917 28.3755 26.5297 28.3755 26.9378 28.3755Z" fill="#696969"/>
<path d="M17.0132 38.1783C17.0132 37.6064 17.0132 37.1229 17.0132 36.5926C20.3249 36.5926 23.582 36.5926 26.9119 36.5926C26.9119 37.1125 26.9119 37.6168 26.9119 38.1783C23.621 38.1783 20.3665 38.1783 17.0132 38.1783Z" fill="#696969"/>
<path d="M17.9385 24.9131V19.6414H18.8821V24.9131H17.9385ZM19.9453 24.9131L19.0173 20.7929H18.6117V19.6414H19.4098L20.3378 23.7615H20.5873V24.9131H19.9453ZM20.4755 24.9131V19.6414H21.4191V24.9131H20.4755Z" fill="#696969"/>
<path d="M22.6646 24.9131V19.6414H23.6445V24.9131H22.6646ZM22.6646 20.546V19.644H26.2804V20.546H22.6646ZM22.6646 22.7269V21.8223H25.6123V22.7269H22.6646ZM22.6646 24.9131V24.011H26.2804V24.9131H22.6646Z" fill="#696969"/>
<path d="M27.3902 24.9131L26.8262 19.6414H27.7906L28.1129 24.0396H28.2169L28.6094 20.9775H29.4776L29.1657 21.9913H29.0175L28.7212 24.9131H27.3902V24.9131ZM29.3632 24.9131L29.0669 21.9913H28.9187L28.6146 20.9775H29.4828L29.8675 24.0396H29.9715L30.2938 19.6414H31.2582L30.6941 24.9131H29.3632Z" fill="#696969"/>
<path d="M33.5429 24.9884C33.244 24.9884 32.9529 24.9624 32.6695 24.913C32.3862 24.8636 32.134 24.7908 31.9131 24.6998L32.0457 23.6964C32.3186 23.8108 32.5889 23.8992 32.8567 23.959C33.1244 24.0214 33.374 24.0526 33.6001 24.0526C33.8653 24.0526 34.068 24.0058 34.2084 23.9122C34.3488 23.8186 34.419 23.6834 34.419 23.5067C34.419 23.2753 34.2734 23.0934 33.9848 22.9582L33.2284 22.5917C32.8541 22.4097 32.5655 22.181 32.3602 21.9132C32.1548 21.6429 32.0509 21.3465 32.0509 21.019C32.0509 20.5589 32.2042 20.2028 32.5084 19.9506C32.8125 19.6985 33.244 19.5711 33.8003 19.5711C34.1252 19.5711 34.432 19.6283 34.7231 19.7427C35.0142 19.8571 35.2716 20.0208 35.4977 20.2366L34.8219 21.0112C34.6503 20.8474 34.4787 20.7227 34.3072 20.6343C34.133 20.5459 33.9666 20.5017 33.8055 20.5017C33.5871 20.5017 33.4182 20.5485 33.296 20.6421C33.1738 20.7357 33.114 20.8682 33.114 21.045C33.114 21.162 33.1556 21.2712 33.2414 21.3751C33.3272 21.4791 33.4494 21.5727 33.6079 21.6585L34.3202 22.025C34.6919 22.2174 34.9778 22.4435 35.1806 22.7009C35.3834 22.9582 35.4821 23.2337 35.4821 23.5275C35.4821 23.9954 35.3132 24.3567 34.9778 24.6088C34.6425 24.861 34.1642 24.9884 33.5429 24.9884Z" fill="#696969"/>
<path d="M27.0055 32.4803H16.9717V34.105H27.0055V32.4803Z" fill="#696969"/>
<path d="M26.9382 28.3678H16.9043V29.9924H26.9382V28.3678Z" fill="#696969"/>
<path d="M26.9382 36.5744H16.9043V38.199H26.9382V36.5744Z" fill="#696969"/>
<path d="M36.5143 40.6502H17.1094V42.2748H36.5143V40.6502Z" fill="#696969"/>
<path d="M36.5143 44.6716H17.1094V46.2963H36.5143V44.6716Z" fill="#696969"/>
<path d="M28.9526 28.3729V29.6311V29.9976V36.5352V37.3462V38.1572H36.6678V37.445V36.5326V29.995V29.7298V28.3729H28.9526ZM30.5773 36.5352V29.9976C30.6189 29.9976 30.6605 29.9976 30.6995 29.9976C30.8112 29.9976 30.9204 29.9976 31.0322 29.9976C31.1934 29.9976 31.3571 29.9976 31.5183 29.9976C31.7132 29.9976 31.9056 29.9976 32.1006 29.9976C32.3085 29.9976 32.5165 29.9976 32.7244 29.9976C32.9272 29.9976 33.13 29.9976 33.3327 29.9976C33.5121 29.9976 33.6914 29.9976 33.8682 29.9976C34.0034 29.9976 34.1411 29.9976 34.2763 29.9976C34.3491 29.9976 34.4271 29.9898 34.4999 30.0002C34.583 30.0132 34.6454 30.06 34.7104 30.1094C34.7858 30.1665 34.8534 30.2289 34.9158 30.3017C34.9548 30.3485 35.0016 30.3953 35.0275 30.4525C35.0561 30.5149 35.0457 30.5851 35.0457 30.65C35.0457 30.7462 35.0457 30.8398 35.0457 30.936C35.0457 31.0686 35.0457 31.2011 35.0457 31.3363C35.0457 31.5001 35.0457 31.6612 35.0457 31.825C35.0457 32.0096 35.0457 32.1941 35.0457 32.3813C35.0457 32.5814 35.0457 32.779 35.0457 32.9791C35.0457 33.1845 35.0457 33.3925 35.0457 33.5978C35.0457 33.8032 35.0457 34.0085 35.0457 34.2139C35.0457 34.4088 35.0457 34.6064 35.0457 34.8014C35.0457 34.9807 35.0457 35.1601 35.0457 35.3394C35.0457 35.4954 35.0457 35.6514 35.0457 35.8047C35.0457 35.9269 35.0457 36.0517 35.0457 36.1739C35.0457 36.2571 35.0457 36.3402 35.0457 36.4234C35.0457 36.4598 35.0457 36.4962 35.0457 36.5352H30.5773V36.5352Z" fill="#696969"/>
</svg>
