<?xml version="1.0" encoding="utf-8"?>
<!-- Generator: Adobe Illustrator 26.2.1, SVG Export Plug-In . SVG Version: 6.00 Build 0)  -->
<svg version="1.1" id="Layer_1" xmlns="http://www.w3.org/2000/svg" xmlns:xlink="http://www.w3.org/1999/xlink" x="0px" y="0px"
	 viewBox="0 0 850.39 850.39" style="enable-background:new 0 0 850.39 850.39;" xml:space="preserve">
<style type="text/css">
	.st0{fill:#EB6321;}
</style>
<path class="st0" d="M425.26,136.11c-20.15,0.28-40.16,3.42-59.43,9.34c-68.54,22.55-132.38,57.72-188.3,103.72
	c-67.44,52.45-119.81,122.19-151.68,202C-1.3,524.82,2.79,592.5,37.63,641.51c18.57,23.04,42.04,41.54,68.64,54.11
	c26.63,12.57,55.72,18.89,85.08,18.5c75.32,3.63,85.06-55.23,85.06-55.23c14.34-50.31-27.92-93.87-125.78-129.66
	c-7.09-2.61-13.28-7.24-17.83-13.32c-4.55-6.08-7.28-13.36-7.85-20.97c-0.54-7.61,1.06-15.22,4.66-21.93
	c3.6-6.7,9.02-12.22,15.62-15.87c4.66-2.45,9.79-3.92,15.02-4.32c5.23-0.4,10.5,0.28,15.48,1.99
	c75.73,22.95,140.81,72.63,183.44,140.03l17.42,30.34V355.23c0.87-12.28,6.32-23.77,15.24-32.15c8.91-8.38,20.64-13.04,32.8-13.04
	c12.16,0,23.88,4.66,32.8,13.04c8.91,8.38,14.34,19.87,15.24,32.15v268.65l17.42-30.34c42.69-67.33,107.74-117,183.44-140.03
	c9.68-3.17,20.2-2.37,29.31,2.21c9.13,4.59,16.11,12.6,19.44,22.32c3.35,9.72,2.81,20.39-1.5,29.71
	c-4.33,9.32-12.1,16.56-21.62,20.17C601.29,563.72,559,607.28,573.1,657.59c0,0,10.25,58.87,85.33,55.23
	c67.88-3.37,122.7-28.01,153.7-72.61c35.36-49.01,39.72-116.69,12.57-190.33c-32.85-79.82-85.87-149.49-153.73-202
	c-55.26-45.41-118.31-80.13-186-102.43C465.58,139.64,445.49,136.5,425.26,136.11L425.26,136.11z"/>
</svg>
