<svg width="227" height="68" viewBox="0 0 227 68" fill="none" xmlns="http://www.w3.org/2000/svg">
<g clip-path="url(#clip0_136_1127)">
<path d="M20.5754 46.1199C20.5702 46.038 20.5472 45.9583 20.5079 45.8861C20.4687 45.8139 20.4141 45.7509 20.348 45.7016C18.1821 44.0606 12.8867 41.583 4.41833 38.3224C4.41833 38.3224 -0.0216064 36.5849 -0.0216064 31.9836C-0.0216064 28.0044 7.78619 23.2959 23.8025 17.5792C24.6465 17.2917 25.5307 17.1361 26.4231 17.118C27.1716 17.0441 27.9239 17.2135 28.5667 17.6005C29.2094 17.9874 29.7075 18.571 29.9859 19.2631C30.1836 19.8827 30.2366 20.5387 30.1409 21.1816C30.0453 21.8244 29.8034 22.4374 29.4336 22.9741C28.2857 24.5937 25.4593 25.7306 21.1602 27.4252L12.2153 31.7155C11.1324 32.2303 12.0637 32.788 12.0637 32.788C23.2177 36.3918 28.5781 40.6606 28.6539 45.8517C28.7258 47.068 28.5542 48.2864 28.1491 49.4368C27.7439 50.5873 27.1132 51.647 26.2932 52.5552C26.0333 52.7804 25.6109 53.2202 25.5135 53.306C24.5497 54.2284 23.77 54.8183 22.8387 55.5798C21.2612 56.9304 19.5527 58.1232 17.7381 59.1407C16.2305 59.908 14.6391 60.5018 12.995 60.9104L12.6918 60.9962C9.97367 61.7685 2.44743 62.0688 1.59193 58.347C1.18043 56.4915 2.56655 55.6549 4.12595 55.1293C5.84778 54.5394 7.47215 53.9603 9.16149 53.3167C9.97367 53.0271 10.6667 52.6303 11.3923 52.3192C13.3502 51.5919 15.2006 50.607 16.8935 49.3912C20.3696 46.9028 20.5754 46.1199 20.5754 46.1199Z" fill="white"/>
<path d="M57.6759 53.5312C57.6959 53.821 57.654 54.1117 57.5531 54.3844C57.4523 54.6571 57.2945 54.9058 57.0903 55.1141C56.886 55.3225 56.6397 55.486 56.3675 55.594C56.0952 55.7019 55.8031 55.7519 55.5101 55.7407L56.7987 62.4656V63.6669C56.7987 63.6669 56.7987 63.7205 56.7987 63.7527C56.5388 64.5678 55.5859 65.2328 53.8532 65.7905C53.8254 65.8013 53.7944 65.8013 53.7666 65.7905C52.0123 65.7262 50.1605 62.8946 48.2762 57.3495C45.585 57.6663 42.9306 58.2373 40.3493 59.0549C40.3493 59.0549 34.7182 60.7602 34.2308 60.964C34.27 61.3205 34.27 61.6801 34.2308 62.0366C34.2308 63.742 33.2562 64.5678 31.242 64.5678H29.8992C28.708 64.5678 27.5601 62.4227 26.5097 58.2612C26.4982 58.2477 26.4919 58.2306 26.4919 58.2129C26.4919 58.1953 26.4982 58.1782 26.5097 58.1647C26.5747 57.6391 27.5926 56.6738 29.4877 55.2902C34.1009 41.0252 38.2701 33.8391 41.8221 33.8391H42.2336C45.5906 33.8391 48.731 38.2151 52.4779 49.1016L53.5608 48.8013C53.9473 48.7086 54.3436 48.6618 54.7412 48.6618C55.9649 48.6618 57.2102 49.1981 57.2102 50.3779C57.4287 51.4189 57.5842 52.4719 57.6759 53.5312ZM37.1006 53.1773H37.5554L45.2874 50.9035V50.4744C43.4897 45.3262 42.1469 44.0391 41.3997 44.0391H41.3672L37.1006 53.1773Z" fill="white"/>
<path d="M143.562 53.4776C143.571 53.7617 143.521 54.0447 143.415 54.3089C143.309 54.5732 143.15 54.8133 142.947 55.0143C142.744 55.2153 142.502 55.373 142.235 55.4776C141.968 55.5823 141.683 55.6316 141.396 55.6227L142.674 62.3369C142.674 62.3369 142.674 62.3369 142.674 62.3905V63.5918C142.674 63.5918 142.674 63.6454 142.674 63.6776C142.425 64.4927 141.461 65.1577 139.739 65.7155C139.707 65.7236 139.673 65.7236 139.641 65.7155C137.898 65.7155 136.025 62.8196 134.151 57.2744C131.456 57.5914 128.798 58.1625 126.213 58.9798C126.213 58.9798 120.604 60.6959 120.106 60.8997C120.138 61.2565 120.138 61.6154 120.106 61.9722C120.106 63.6561 119.131 64.4927 117.117 64.4927H115.828C114.637 64.4927 113.478 62.3476 112.439 58.1968C112.428 58.1618 112.428 58.1246 112.439 58.0896C112.504 57.564 113.522 56.5987 115.417 55.2044C120.052 40.9394 124.199 33.7533 127.762 33.7533H128.184C131.541 33.7533 134.682 38.1186 138.418 49.0158L139.501 48.7155C139.894 48.6221 140.298 48.5753 140.703 48.576C141.916 48.576 143.172 49.1016 143.172 50.3028C143.372 51.3514 143.502 52.412 143.562 53.4776ZM122.986 53.1022H123.452L131.206 50.8391V50.4101C129.397 45.2618 128.065 43.9748 127.296 43.9748H127.22L122.986 53.1022Z" fill="white"/>
<path d="M68.2885 56.9098C67.4763 60.1274 67.0864 61.2 65.7111 61.6934H64.3142C61.4012 61.6934 59.9825 59.5483 59.9825 55.3438V54.2713C59.9825 43.342 61.6502 35.5338 65.6787 27.2858C65.6932 27.2488 65.7166 27.2158 65.7467 27.1897C65.7769 27.1636 65.813 27.145 65.8519 27.1356L68.1044 26.6315H68.2235C71.8729 26.6315 74.591 32.1123 76.7785 43.7924C76.7785 43.7924 76.8543 44.1035 76.9734 44.1035C77.0926 44.1035 77.2225 43.9104 77.255 43.7924C79.8107 35.448 82.6695 31.3937 85.9183 31.3937C90.5965 31.3937 93.2388 37.4751 94.5058 51.118V56.395C94.5058 58.1968 94.0401 59.2479 93.098 59.5375H91.5603C89.1995 59.5375 87.7376 57.3924 87.2286 53.2631C86.2865 46.8278 85.496 43.7817 84.857 43.7817C82.1714 52.9735 79.4425 57.4461 76.7244 57.4461C73.7139 57.4461 71.0499 52.8019 68.6242 43.2347C68.6242 43.2347 68.5484 42.9773 68.3751 42.9773C68.3424 42.9787 68.3103 42.9864 68.2806 43.0001C68.2509 43.0138 68.2242 43.0331 68.2021 43.0571C68.18 43.081 68.1628 43.109 68.1516 43.1394C68.1404 43.1699 68.1354 43.2023 68.1369 43.2347L67.6496 52.1798L68.1477 54.5716C68.4514 55.3148 68.5008 56.1361 68.2885 56.9098Z" fill="white"/>
<path d="M166.768 55.2688H166.259C166.217 55.2827 166.172 55.2827 166.129 55.2688C163.758 53.971 159.221 48.9514 152.626 40.3817C153.243 41.1754 152.398 44.5432 152.225 45.5192C151.997 46.9672 152.225 48.7369 151.694 50.1205C151.304 51.1931 150.416 53.2202 149.149 53.3382C142.923 53.6921 144.742 44.5647 145.381 41.2612C146.052 37.7861 146.54 34.2789 146.994 30.7609C146.985 30.7258 146.985 30.6887 146.994 30.6536C148.186 28.5085 149.702 27.436 151.456 27.436H152.463C152.505 27.436 152.547 27.4457 152.584 27.4643C152.622 27.4829 152.655 27.5099 152.68 27.5432L165.685 44.2536V40.3388C165.685 25.9344 167.353 18.8877 170.775 18.8877H171.771C171.849 18.8952 171.922 18.9293 171.977 18.9842L173.515 20.7432C173.54 20.7664 173.56 20.7947 173.573 20.8262C173.586 20.8576 173.592 20.8915 173.591 20.9255V38.3867C173.537 49.5949 171.241 55.2688 166.768 55.2688Z" fill="white"/>
<path d="M183.229 49.9811C185.265 53.1987 188.708 54.7754 193.462 54.6038L196.386 54.518C196.412 54.5064 196.439 54.5004 196.467 54.5004C196.495 54.5004 196.523 54.5064 196.549 54.518L197.989 55.3975H198.509L200.339 50.8713H199.851L192.91 52.1155C192.857 52.1313 192.8 52.1313 192.748 52.1155C191.286 51.5363 190.452 50.9142 190.268 50.2599C190.263 50.2499 190.26 50.2389 190.26 50.2278C190.26 50.2166 190.263 50.2056 190.268 50.1956L190.213 48.3401C190.202 48.2906 190.202 48.2393 190.213 48.1899C191.73 45.5192 197.068 44.0391 206.057 43.7388H206.154C206.791 43.8997 207.388 44.1871 207.909 44.5835C208.43 44.9799 208.865 45.4771 209.186 46.0448C209.194 46.0634 209.198 46.0835 209.198 46.1038C209.198 46.1241 209.194 46.1441 209.186 46.1628V48.0076C209.192 48.0539 209.192 48.1007 209.186 48.147L202.689 62.2618C202.826 63.6631 202.617 65.0763 202.082 66.3804C201.902 66.8049 201.602 67.1687 201.217 67.4276C200.833 67.6864 200.381 67.8294 199.916 67.8391H198.487C198.441 67.8555 198.392 67.8555 198.346 67.8391C197.603 67.4877 196.971 66.9426 196.517 66.2624C196.063 65.5823 195.804 64.7926 195.769 63.9779L196.624 59.0227L190.127 60.7603H190.062C182.427 61.0177 177.403 57.3174 175.161 49.8202V49.7451V49.2732C174.934 42.6448 180.467 36.1022 191.589 29.817C191.589 29.817 194.036 28.3476 198.714 28.5729C200.501 28.648 202.158 29.6454 203.707 31.7905C204.4 32.7451 203.837 34.9224 203.837 34.9224C203.024 36.5741 202.461 37.282 200.685 37.3464H200.252L196.776 36.6707C196.441 36.5969 196.091 36.6346 195.78 36.7779C190.634 38.6246 186.33 42.2406 183.651 46.9672C183.651 46.9672 182.676 48.9836 183.229 49.9811Z" fill="white"/>
<path d="M108.627 67.1634L107.208 67.9678C107.169 67.9788 107.128 67.9788 107.089 67.9678H106.125C105.828 67.9067 105.543 67.7981 105.281 67.646L103.786 66.3697C103.381 65.812 103.175 65.1364 103.201 64.4498L103.483 55.3975C103.514 54.1741 103.641 52.9549 103.862 51.7508L105.486 43.4492C94.7223 37.3249 90.3257 30.5785 90.3257 25.5697V25.4625C90.3123 25.4133 90.3123 25.3615 90.3257 25.3123L90.3906 25.2158C90.7469 24.5826 91.2737 24.0598 91.9123 23.7056C92.551 23.3515 93.2763 23.18 94.0076 23.2101H94.17C94.2403 23.2139 94.3063 23.2447 94.3541 23.2959L94.4624 23.3924L106.277 36.4669L107.262 36.9924C107.489 36.2645 107.753 35.5485 108.053 34.8473C108.259 34.4183 108.432 33.9678 108.605 33.4959C108.85 32.5512 109.256 31.6551 109.807 30.8467C110.24 29.9672 110.674 29.0126 111.161 28.0044C112.666 24.8618 114.171 21.6763 115.763 18.5766C116.01 18.0401 116.311 17.5298 116.662 17.0536C117.115 16.5781 117.62 16.1536 118.167 15.788C118.585 15.4225 119.039 15.0992 119.521 14.8227C119.963 14.642 120.443 14.5756 120.918 14.6296C121.643 14.6296 122.369 14.6296 123.084 14.6296C125.174 14.6296 126.571 15.3268 127.231 16.689V16.7426V16.9249C127.231 16.9249 127.231 16.9249 127.231 16.9893V18.0618C127.232 18.1116 127.22 18.1608 127.195 18.2042C127.17 18.2476 127.134 18.2836 127.091 18.3085L126.885 18.4265C124.048 20.0461 118.113 29.8921 117.897 31.5975V31.6511C113.359 40.2315 109.916 54.5502 109.114 65.8549C109.064 66.3244 108.897 66.7741 108.627 67.1634Z" fill="white"/>
<path d="M209.348 0C208.497 0.0115876 207.651 0.141563 206.836 0.38612C203.939 1.31897 201.241 2.7734 198.877 4.67634C196.026 6.84559 193.813 9.73025 192.466 13.0315C191.318 16.0776 191.491 18.877 192.964 20.9041C193.747 21.8589 194.739 22.6253 195.864 23.1455C196.99 23.6657 198.22 23.9261 199.461 23.9073C202.645 24.0574 203.057 21.6227 203.057 21.6227C203.663 19.542 201.876 17.7401 197.74 16.2599C197.423 16.1441 197.149 15.9351 196.956 15.661C196.762 15.3868 196.658 15.0607 196.657 14.7262C196.658 14.4303 196.739 14.1401 196.891 13.8856C197.044 13.6311 197.262 13.4214 197.523 13.2782C197.923 13.0793 198.386 13.0446 198.812 13.1817C202.014 14.1353 204.765 16.194 206.565 18.9842L207.302 20.2284V9.06309C207.339 8.5551 207.569 8.07998 207.946 7.7332C208.323 7.38641 208.818 7.19365 209.332 7.19365C209.846 7.19365 210.342 7.38641 210.718 7.7332C211.095 8.07998 211.325 8.5551 211.363 9.06309V20.1748L212.099 18.9306C213.897 16.1463 216.638 14.0888 219.831 13.1281C220.26 12.9915 220.727 13.0262 221.131 13.2246C221.41 13.376 221.64 13.604 221.792 13.8813C221.944 14.1586 222.012 14.4734 221.988 14.7881C221.964 15.1028 221.849 15.4039 221.656 15.6555C221.464 15.907 221.202 16.0983 220.903 16.2063C216.766 17.6864 214.98 19.4883 215.575 21.5691C215.575 21.5691 216.008 24.0038 219.181 23.8536C220.424 23.8773 221.655 23.619 222.782 23.0984C223.908 22.5779 224.899 21.8089 225.679 20.8505C227.173 18.8233 227.357 16.024 226.209 12.9779C224.821 9.67642 222.58 6.79485 219.712 4.62271C217.383 2.74678 214.725 1.31074 211.872 0.38612C211.052 0.146029 210.203 0.0161598 209.348 0V0Z" fill="white"/>
</g>
<defs>
<clipPath id="clip0_136_1127">
<rect width="227" height="68" fill="white"/>
</clipPath>
</defs>
</svg>
