<svg width="300" height="97" viewBox="0 0 300 97" fill="none" xmlns="http://www.w3.org/2000/svg">
<g clip-path="url(#clip0_443_1468)">
<g filter="url(#filter0_d_443_1468)">
<path d="M298.401 26.705C298.401 32.3859 298.401 38.0726 298.315 43.7534C298.235 49.1813 295.577 52.2116 291.19 52.1311C286.575 52.0448 283.212 48.4512 283.098 43.4833C283.081 42.776 283.133 42.0572 283.076 41.3557C283.036 40.9016 282.871 40.0735 282.723 40.0679C280.678 39.9528 278.61 39.7688 276.592 40.0103C275.922 40.0908 275.036 41.2408 274.843 42.0457C273.689 46.8297 272.16 48.0199 267.274 48.3707C258.415 49.0031 249.569 49.831 240.723 50.5786C239.711 50.6648 238.699 50.774 237.687 50.7799C233.778 50.8143 231.153 48.5603 231.136 44.6505C231.09 34.5537 231.153 24.4512 231.392 14.3543C231.494 10.0592 233.04 8.61019 237.285 8.23645C246.364 7.43147 255.455 6.74148 264.54 5.99975C265.552 5.91925 266.57 5.88475 267.569 5.741C271.797 5.15451 273.643 6.26999 275.495 10.2144C275.832 10.9274 276.921 11.3759 277.757 11.7094C278.285 11.9221 278.985 11.6979 279.609 11.6691C283.036 11.5024 283.24 11.2954 283.422 7.79372C283.747 1.44009 289.332 -1.81435 294.712 1.2676C297.638 2.94656 298.405 5.85025 298.445 8.95519C298.518 14.8661 298.401 20.7884 298.401 26.705C298.44 26.705 298.355 26.705 298.401 26.705ZM247.251 28.3841C247.221 28.3841 247.194 28.3841 247.165 28.3841C247.165 30.6667 247.211 32.9495 247.148 35.2322C247.098 37.0319 247.818 37.8771 249.637 37.7276C252.194 37.5206 254.751 37.3596 257.313 37.1642C258.938 37.0376 259.603 36.0831 259.603 34.4905C259.603 29.925 259.609 25.3596 259.665 20.7999C259.682 19.1842 258.961 18.4712 257.405 18.5747C254.767 18.753 252.132 18.9543 249.494 19.1325C248.001 19.2359 247.228 19.9777 247.244 21.5416C247.267 23.8186 247.251 26.1013 247.251 28.3841ZM283.087 25.8771C283.053 24.2441 283.428 22.4387 280.78 22.502C275.74 22.6169 275.189 23.0136 275.115 26.8201C275.08 28.614 275.547 29.6317 277.587 29.626C282.075 29.6087 283.07 28.9993 283.087 25.8771Z" fill="#103380"/>
</g>
<g filter="url(#filter1_d_443_1468)">
<path d="M155.826 59.2534C155.826 54.7255 155.786 50.192 155.838 45.6642C155.879 42.0294 157.557 40.1636 161.227 39.7314C166.714 39.0828 172.22 38.5652 177.713 37.9451C181.887 37.4731 181.962 37.3535 181.962 33.3661C181.962 31.1818 181.898 28.9918 181.975 26.8075C182.051 24.7029 181.068 24.1056 179.017 24.2933C173.114 24.8223 167.193 25.2205 161.285 25.6699C158.836 25.8576 156.854 25.1068 155.593 22.9566C154.231 20.6357 154.231 18.1785 155.767 16.0909C156.603 14.9589 158.21 13.8212 159.572 13.6847C170.578 12.5926 181.595 11.6597 192.629 10.8463C197.79 10.4651 200.14 12.7973 200.099 17.9509C200.034 26.4605 199.893 34.9702 199.759 43.4798C199.694 47.3422 197.924 49.1454 193.967 49.5378C187.586 50.175 181.215 50.886 174.827 51.4491C172.425 51.6596 171.461 52.6379 171.6 55.0327C171.77 57.911 171.706 60.812 171.577 63.696C171.484 65.8234 172.232 66.6596 174.505 66.4719C180.817 65.9428 187.136 65.539 193.459 65.1237C197.924 64.8279 200.233 66.341 200.484 69.6288C200.8 73.8097 198.24 76.8245 194.085 77.1658C183.938 77.9905 173.786 78.8154 163.635 79.6346C158.392 80.0555 155.832 77.7801 155.803 72.6152C155.774 68.1613 155.796 63.713 155.796 59.2591C155.815 59.2534 155.821 59.2534 155.826 59.2534Z" fill="#103380"/>
</g>
<g filter="url(#filter2_d_443_1468)">
<path d="M65.7892 77.5927C65.7892 80.601 65.812 83.6036 65.7835 86.6118C65.7551 90.185 63.9918 92.3519 60.5562 92.6401C48.7418 93.637 36.9162 94.5419 25.0905 95.464C20.2669 95.8387 15.4434 96.242 10.6141 96.5014C6.68924 96.7146 4.75526 95.147 4.66993 91.2396C4.52774 84.9982 4.57892 78.7452 4.82921 72.5039C4.98847 68.533 7.01345 66.7752 10.9724 66.4641C23.9585 65.4382 36.9503 64.4066 49.942 63.4269C53.7474 63.1388 57.5641 62.9946 61.3809 62.8506C63.8268 62.7526 65.6926 64.6256 65.7665 67.3861C65.8631 70.7922 65.7892 74.1924 65.7892 77.5927ZM24.1348 84.3182C27.5306 84.03 31.3304 83.6784 35.1358 83.3845C39.8683 83.0156 44.6066 82.6642 49.3448 82.3529C51.0399 82.2435 51.8874 81.5057 51.8987 79.7077C51.9385 74.1462 51.8874 74.613 47.1889 75.0568C38.6625 75.8637 30.1131 76.4169 21.5865 77.2065C20.6423 77.293 19.1804 78.0537 18.9699 78.7971C17.7356 83.1713 18.8335 84.4564 23.2588 84.3182C23.4125 84.3124 23.5717 84.3182 24.1348 84.3182Z" fill="#103380"/>
</g>
<g filter="url(#filter3_d_443_1468)">
<path d="M97.0821 88.8359C94.3369 88.9715 91.859 88.6721 89.506 87.8364C82.1346 85.2048 78.9631 75.9376 82.6916 68.2967C85.3002 62.9488 89.5969 59.7692 95.6384 59.2667C106.664 58.3519 117.69 57.2901 128.739 56.7536C136.514 56.3753 142.22 59.6563 143.579 67.2238C145.153 75.9997 140.373 83.9341 132.479 85.634C128.091 86.577 123.533 86.7691 119.037 87.1361C111.734 87.7234 104.391 88.322 97.0821 88.8359C97.1049 88.7399 97.0651 88.932 97.0821 88.8359ZM123.806 68.0427C122.578 68.1781 120.805 68.421 119.02 68.5565C112.734 69.0308 106.448 69.4375 100.163 69.9175C97.2469 70.1378 95.286 72.0691 95.4907 74.3901C95.684 76.6378 97.7073 77.7446 100.833 77.4735C108.04 76.8524 115.252 76.3103 122.465 75.7116C123.857 75.593 125.261 75.4576 126.613 75.1357C128.642 74.65 129.995 72.8315 129.79 71.1261C129.569 69.2907 128.017 68.1046 125.761 68.0427C125.295 68.0313 124.829 68.0427 123.806 68.0427Z" fill="#103380"/>
</g>
<g filter="url(#filter4_d_443_1468)">
<path d="M205.24 43.4999C205.24 33.7651 205.223 24.0246 205.246 14.2898C205.258 9.18488 208.048 6.24328 212.822 6.21465C218.098 6.18032 221.239 9.1162 221.274 14.3127C221.316 20.4362 221.256 26.5655 221.158 32.6892C221.129 34.4976 221.548 35.5735 223.615 35.997C226.422 36.5751 227.818 38.4521 228.034 41.1763C228.266 44.1924 227.023 46.9394 224.316 47.5919C221 48.3873 220.72 50.3044 220.756 53.0858C220.843 59.8332 220.667 66.5863 220.534 73.3337C220.434 78.1811 217.312 81.2315 212.594 81.2144C208.107 81.1971 205.194 78.3013 205.152 73.4196C205.059 63.4502 205.123 53.4751 205.123 43.4999C205.165 43.4999 205.204 43.4999 205.24 43.4999Z" fill="#103380"/>
</g>
<g filter="url(#filter5_d_443_1468)">
<path d="M120.857 34.0001C121.229 40.0105 119.998 45.8717 114.662 49.7373C106.096 55.9368 96.6376 56.7398 86.9497 52.7252C82.6841 50.9588 80.0961 47.317 79.8155 42.6257C79.5523 38.3415 79.4148 33.96 80.0217 29.7332C80.7316 24.8066 83.9036 21.1649 88.2723 18.8079C95.0973 15.1144 102.426 14.5982 109.807 16.4105C117.049 18.1884 120.668 23.1779 120.857 30.645C120.88 31.6716 120.857 32.6982 120.857 34.0001ZM93.6774 36.3572C93.6086 38.2785 93.3968 40.9453 96.0821 42.6028C100.159 45.1205 106.062 42.3332 106.554 37.5903C106.732 35.8754 106.686 34.1262 106.6 32.4C106.411 28.5574 103.428 26.3036 99.6377 27.0491C95.229 27.9152 93.6659 30.169 93.6774 36.3572Z" fill="#103380"/>
</g>
<g filter="url(#filter6_d_443_1468)">
<path d="M47.4484 52.8519C47.4032 57.7635 43.0782 61.0846 38.4083 59.5786C33.2972 57.932 28.8704 55.1503 25.5066 50.8794C24.1214 49.1261 23.5221 49.1261 22.2669 51.0256C19.4005 55.3751 15.5674 58.6739 11.0896 61.2813C10.4903 61.6297 9.85714 61.9445 9.21262 62.1974C5.57731 63.6247 2.23033 62.6526 0.703837 59.7472C-0.850923 56.7801 0.274158 52.8182 3.05576 50.6547C6.21052 48.1989 9.48964 45.8218 12.2317 42.9559C15.426 39.6178 16.7264 35.3244 16.7659 30.6602C16.8112 25.3777 20.9836 22.1578 26.1793 23.2704C28.9779 23.8661 30.8945 25.9059 30.8662 29.0924C30.787 38.095 35.9149 43.2312 43.5248 46.6816C46.4308 47.991 47.4767 49.6488 47.4484 52.8519Z" fill="#103380"/>
</g>
<g filter="url(#filter7_d_443_1468)">
<path d="M235.821 64.2429C235.821 62.9466 235.832 61.6448 235.821 60.3485C235.782 56.5486 238.482 53.856 242.527 53.6725C246.751 53.4833 250.723 56.2593 250.633 59.8589C250.532 63.8256 250.639 64.5377 255.978 63.9925C262.762 63.3026 269.581 62.9521 276.376 62.4181C281.398 62.023 286.41 61.5669 291.427 61.1385C292.273 61.0661 293.127 60.9438 293.974 60.9271C297.686 60.8659 299.81 62.8298 299.985 66.4404C300.182 70.5072 298.41 72.499 294.427 72.7826C279.353 73.862 264.275 74.9524 249.203 76.054C247.503 76.1763 245.819 76.4989 244.119 76.6047C239.668 76.8718 236.273 74.1067 235.809 69.7394C235.618 67.9258 235.775 66.0787 235.775 64.2484C235.792 64.2429 235.809 64.2429 235.821 64.2429Z" fill="#103380"/>
</g>
<g filter="url(#filter8_d_443_1468)">
<path d="M130.15 34.0845C130.15 29.3894 130.055 24.6942 130.177 20.0047C130.309 14.614 135.087 11.0072 139.552 12.8022C141.522 13.5931 142.992 15.0516 143.247 17.2786C143.502 19.4999 144.479 20.0272 146.433 19.9262C149.283 19.7747 150.966 21.1715 151.407 23.6621C151.938 26.6464 150.733 29.395 148.344 30.3486C147.553 30.6683 146.64 30.7189 145.78 30.7749C144.468 30.8646 143.444 31.2348 143.529 32.9009C143.613 34.5276 144.766 34.7295 145.891 34.5333C149.66 33.877 151.959 36.5078 151.433 40.67C151.104 43.2785 149.342 45.1407 146.507 45.3426C144.351 45.4997 143.486 46.2682 143.359 48.6578C143.157 52.4611 140.088 55.3499 136.93 55.1872C132.083 54.9405 130.134 52.8873 130.113 47.9343C130.092 43.3176 130.108 38.701 130.108 34.0845C130.118 34.0845 130.134 34.0845 130.15 34.0845Z" fill="#103380"/>
</g>
<g filter="url(#filter9_d_443_1468)">
<path d="M52.0998 40.4639C52.0998 35.4963 51.9466 30.5172 52.1411 25.5553C52.3475 20.3293 57.5482 17.1593 62.5839 18.974C65.0486 19.8642 66.3752 21.6215 66.5168 24.1425C66.6288 26.1066 66.5404 28.088 66.5757 30.0577C66.6288 33.0671 66.9943 33.3772 69.9839 33.0498C73.1267 32.7109 75.5266 34.0777 76.2755 36.6449C77.1128 39.5048 75.8333 42.7782 73.2447 43.9326C72.1715 44.4092 70.9096 44.5929 69.7185 44.6619C67.4013 44.7997 66.4047 45.822 66.5404 48.1248C66.6702 50.3244 66.676 52.5525 66.499 54.7464C66.1335 59.3005 62.9494 61.1497 58.5034 61.3105C54.4231 61.4541 52.1234 58.9558 52.0704 54.6602C52.0115 49.9281 52.0586 45.196 52.0586 40.4639C52.0704 40.4639 52.0822 40.4639 52.0998 40.4639Z" fill="#103380"/>
</g>
</g>
<defs>
<filter id="filter0_d_443_1468" x="227.122" y="0.0917969" width="75.3467" height="60.0408" filterUnits="userSpaceOnUse" color-interpolation-filters="sRGB">
<feFlood flood-opacity="0" result="BackgroundImageFix"/>
<feColorMatrix in="SourceAlpha" type="matrix" values="0 0 0 0 0 0 0 0 0 0 0 0 0 0 0 0 0 0 127 0" result="hardAlpha"/>
<feOffset dy="4"/>
<feGaussianBlur stdDeviation="2"/>
<feComposite in2="hardAlpha" operator="out"/>
<feColorMatrix type="matrix" values="0 0 0 0 0 0 0 0 0 0 0 0 0 0 0 0 0 0 0.25 0"/>
<feBlend mode="normal" in2="BackgroundImageFix" result="effect1_dropShadow_443_1468"/>
<feBlend mode="normal" in="SourceGraphic" in2="effect1_dropShadow_443_1468" result="shape"/>
</filter>
<filter id="filter1_d_443_1468" x="150.592" y="10.8062" width="53.9185" height="76.8777" filterUnits="userSpaceOnUse" color-interpolation-filters="sRGB">
<feFlood flood-opacity="0" result="BackgroundImageFix"/>
<feColorMatrix in="SourceAlpha" type="matrix" values="0 0 0 0 0 0 0 0 0 0 0 0 0 0 0 0 0 0 127 0" result="hardAlpha"/>
<feOffset dy="4"/>
<feGaussianBlur stdDeviation="2"/>
<feComposite in2="hardAlpha" operator="out"/>
<feColorMatrix type="matrix" values="0 0 0 0 0 0 0 0 0 0 0 0 0 0 0 0 0 0 0.25 0"/>
<feBlend mode="normal" in2="BackgroundImageFix" result="effect1_dropShadow_443_1468"/>
<feBlend mode="normal" in="SourceGraphic" in2="effect1_dropShadow_443_1468" result="shape"/>
</filter>
<filter id="filter2_d_443_1468" x="0.591797" y="62.8469" width="69.2244" height="41.6736" filterUnits="userSpaceOnUse" color-interpolation-filters="sRGB">
<feFlood flood-opacity="0" result="BackgroundImageFix"/>
<feColorMatrix in="SourceAlpha" type="matrix" values="0 0 0 0 0 0 0 0 0 0 0 0 0 0 0 0 0 0 127 0" result="hardAlpha"/>
<feOffset dy="4"/>
<feGaussianBlur stdDeviation="2"/>
<feComposite in2="hardAlpha" operator="out"/>
<feColorMatrix type="matrix" values="0 0 0 0 0 0 0 0 0 0 0 0 0 0 0 0 0 0 0.25 0"/>
<feBlend mode="normal" in2="BackgroundImageFix" result="effect1_dropShadow_443_1468"/>
<feBlend mode="normal" in="SourceGraphic" in2="effect1_dropShadow_443_1468" result="shape"/>
</filter>
<filter id="filter3_d_443_1468" x="77.1226" y="56.7244" width="70.7551" height="40.1428" filterUnits="userSpaceOnUse" color-interpolation-filters="sRGB">
<feFlood flood-opacity="0" result="BackgroundImageFix"/>
<feColorMatrix in="SourceAlpha" type="matrix" values="0 0 0 0 0 0 0 0 0 0 0 0 0 0 0 0 0 0 127 0" result="hardAlpha"/>
<feOffset dy="4"/>
<feGaussianBlur stdDeviation="2"/>
<feComposite in2="hardAlpha" operator="out"/>
<feColorMatrix type="matrix" values="0 0 0 0 0 0 0 0 0 0 0 0 0 0 0 0 0 0 0.25 0"/>
<feBlend mode="normal" in2="BackgroundImageFix" result="effect1_dropShadow_443_1468"/>
<feBlend mode="normal" in="SourceGraphic" in2="effect1_dropShadow_443_1468" result="shape"/>
</filter>
<filter id="filter4_d_443_1468" x="201.102" y="6.21436" width="30.9592" height="83" filterUnits="userSpaceOnUse" color-interpolation-filters="sRGB">
<feFlood flood-opacity="0" result="BackgroundImageFix"/>
<feColorMatrix in="SourceAlpha" type="matrix" values="0 0 0 0 0 0 0 0 0 0 0 0 0 0 0 0 0 0 127 0" result="hardAlpha"/>
<feOffset dy="4"/>
<feGaussianBlur stdDeviation="2"/>
<feComposite in2="hardAlpha" operator="out"/>
<feColorMatrix type="matrix" values="0 0 0 0 0 0 0 0 0 0 0 0 0 0 0 0 0 0 0.25 0"/>
<feBlend mode="normal" in2="BackgroundImageFix" result="effect1_dropShadow_443_1468"/>
<feBlend mode="normal" in="SourceGraphic" in2="effect1_dropShadow_443_1468" result="shape"/>
</filter>
<filter id="filter5_d_443_1468" x="75.5918" y="15.3979" width="49.3264" height="47.7959" filterUnits="userSpaceOnUse" color-interpolation-filters="sRGB">
<feFlood flood-opacity="0" result="BackgroundImageFix"/>
<feColorMatrix in="SourceAlpha" type="matrix" values="0 0 0 0 0 0 0 0 0 0 0 0 0 0 0 0 0 0 127 0" result="hardAlpha"/>
<feOffset dy="4"/>
<feGaussianBlur stdDeviation="2"/>
<feComposite in2="hardAlpha" operator="out"/>
<feColorMatrix type="matrix" values="0 0 0 0 0 0 0 0 0 0 0 0 0 0 0 0 0 0 0.25 0"/>
<feBlend mode="normal" in2="BackgroundImageFix" result="effect1_dropShadow_443_1468"/>
<feBlend mode="normal" in="SourceGraphic" in2="effect1_dropShadow_443_1468" result="shape"/>
</filter>
<filter id="filter6_d_443_1468" x="-4" y="23.051" width="55.449" height="47.7959" filterUnits="userSpaceOnUse" color-interpolation-filters="sRGB">
<feFlood flood-opacity="0" result="BackgroundImageFix"/>
<feColorMatrix in="SourceAlpha" type="matrix" values="0 0 0 0 0 0 0 0 0 0 0 0 0 0 0 0 0 0 127 0" result="hardAlpha"/>
<feOffset dy="4"/>
<feGaussianBlur stdDeviation="2"/>
<feComposite in2="hardAlpha" operator="out"/>
<feColorMatrix type="matrix" values="0 0 0 0 0 0 0 0 0 0 0 0 0 0 0 0 0 0 0.25 0"/>
<feBlend mode="normal" in2="BackgroundImageFix" result="effect1_dropShadow_443_1468"/>
<feBlend mode="normal" in="SourceGraphic" in2="effect1_dropShadow_443_1468" result="shape"/>
</filter>
<filter id="filter7_d_443_1468" x="231.714" y="53.6633" width="72.2852" height="30.9592" filterUnits="userSpaceOnUse" color-interpolation-filters="sRGB">
<feFlood flood-opacity="0" result="BackgroundImageFix"/>
<feColorMatrix in="SourceAlpha" type="matrix" values="0 0 0 0 0 0 0 0 0 0 0 0 0 0 0 0 0 0 127 0" result="hardAlpha"/>
<feOffset dy="4"/>
<feGaussianBlur stdDeviation="2"/>
<feComposite in2="hardAlpha" operator="out"/>
<feColorMatrix type="matrix" values="0 0 0 0 0 0 0 0 0 0 0 0 0 0 0 0 0 0 0.25 0"/>
<feBlend mode="normal" in2="BackgroundImageFix" result="effect1_dropShadow_443_1468"/>
<feBlend mode="normal" in="SourceGraphic" in2="effect1_dropShadow_443_1468" result="shape"/>
</filter>
<filter id="filter8_d_443_1468" x="126.102" y="12.3367" width="29.4287" height="50.8572" filterUnits="userSpaceOnUse" color-interpolation-filters="sRGB">
<feFlood flood-opacity="0" result="BackgroundImageFix"/>
<feColorMatrix in="SourceAlpha" type="matrix" values="0 0 0 0 0 0 0 0 0 0 0 0 0 0 0 0 0 0 127 0" result="hardAlpha"/>
<feOffset dy="4"/>
<feGaussianBlur stdDeviation="2"/>
<feComposite in2="hardAlpha" operator="out"/>
<feColorMatrix type="matrix" values="0 0 0 0 0 0 0 0 0 0 0 0 0 0 0 0 0 0 0.25 0"/>
<feBlend mode="normal" in2="BackgroundImageFix" result="effect1_dropShadow_443_1468"/>
<feBlend mode="normal" in="SourceGraphic" in2="effect1_dropShadow_443_1468" result="shape"/>
</filter>
<filter id="filter9_d_443_1468" x="48.0408" y="18.4592" width="32.4897" height="50.8572" filterUnits="userSpaceOnUse" color-interpolation-filters="sRGB">
<feFlood flood-opacity="0" result="BackgroundImageFix"/>
<feColorMatrix in="SourceAlpha" type="matrix" values="0 0 0 0 0 0 0 0 0 0 0 0 0 0 0 0 0 0 127 0" result="hardAlpha"/>
<feOffset dy="4"/>
<feGaussianBlur stdDeviation="2"/>
<feComposite in2="hardAlpha" operator="out"/>
<feColorMatrix type="matrix" values="0 0 0 0 0 0 0 0 0 0 0 0 0 0 0 0 0 0 0.25 0"/>
<feBlend mode="normal" in2="BackgroundImageFix" result="effect1_dropShadow_443_1468"/>
<feBlend mode="normal" in="SourceGraphic" in2="effect1_dropShadow_443_1468" result="shape"/>
</filter>
<clipPath id="clip0_443_1468">
<rect width="300" height="96.4286" fill="white" transform="translate(0 0.0917969)"/>
</clipPath>
</defs>
</svg>
