<svg width="223" height="118" viewBox="0 0 223 118" fill="none" xmlns="http://www.w3.org/2000/svg">
<path d="M24.657 63.6011C28.8012 63.5969 32.9455 63.5716 37.0856 63.6095C40.1306 63.6348 41.2804 64.7593 41.3183 67.7832C41.3646 71.5443 41.3604 75.3011 41.3141 79.0621C41.2804 81.8249 40.1559 82.9873 37.3593 83.0042C28.9192 83.0505 20.479 83.0463 12.0389 83.0084C9.28865 82.9957 8.06305 81.7912 8.02094 79.0873C7.95776 75.2505 7.96197 71.4137 8.01673 67.5769C8.05884 64.8393 9.25916 63.6516 11.9925 63.6179C16.2168 63.5674 20.4369 63.6053 24.657 63.6011ZM24.6696 76.0339C27.0492 76.0339 29.433 75.9833 31.8126 76.0507C33.8679 76.1097 33.9268 74.8083 33.9268 73.3047C33.9268 71.8012 33.8594 70.5335 31.8084 70.5587C27.0492 70.6135 22.2858 70.6135 17.5266 70.5587C15.4756 70.5335 15.4124 71.8054 15.4124 73.3089C15.4124 74.8125 15.4798 76.1097 17.5309 76.0507C19.9104 75.9833 22.29 76.0339 24.6696 76.0339Z" fill="white"/>
<path d="M1.25674 59.7939C0.431259 58.164 0.730287 56.134 2.01063 54.8283C2.01905 54.8199 2.02748 54.8115 2.03169 54.8073C4.14594 52.693 6.42444 50.7473 8.59344 48.6878C10.9014 46.4935 12.0259 43.9328 11.39 40.6224C10.7877 37.4805 12.0133 35.3873 14.3129 35.0125C16.9073 34.5871 19.0763 36.057 19.0341 38.7188C18.9331 45.3437 22.0876 49.8712 27.4953 53.2658C30.2793 55.0137 30.3214 57.9913 27.8365 59.6549C26.3287 60.6657 24.8041 60.3751 23.5406 59.4064C21.2368 57.646 18.9625 55.8012 16.903 53.767C15.53 52.4066 14.9025 52.3856 13.5421 53.8976C11.2552 56.4414 8.73243 58.8589 5.97801 60.8679C4.15015 62.203 2.20437 61.6639 1.25674 59.7939Z" fill="white"/>
<path d="M33.918 47.917C33.918 44.6193 33.8801 41.3216 33.9222 38.0239C33.9559 35.4505 35.7669 33.2478 37.6917 33.3152C39.7132 33.3826 41.2716 35.4379 41.3053 38.0997C41.3179 38.942 41.3768 39.7927 41.2968 40.6309C41.0862 42.8883 41.4274 44.3792 44.3124 44.4845C46.4477 44.5646 47.8712 46.683 47.6649 48.4603C47.4374 50.4103 46.0897 51.5643 43.5964 51.6107C41.9286 51.6443 41.2168 52.2508 41.2968 53.9313C41.3726 55.5359 41.3516 57.1532 41.2758 58.762C41.1747 60.931 39.6037 62.6115 37.7885 62.6073C35.9859 62.6031 33.9854 60.6952 33.9475 58.7283C33.8759 55.1274 33.918 51.5222 33.918 47.917C33.9264 47.917 33.9138 47.917 33.918 47.917Z" fill="white"/>
<path d="M65.6193 60.0043C57.3729 60.4634 52.2599 53.9143 52.3231 47.4494C52.3905 40.3696 58.2236 34.9323 65.792 34.8734C72.5306 34.8228 79.2861 40.5549 78.945 47.6136C78.5912 55.0725 73.5751 60.0254 65.6193 60.0043ZM60.3547 47.6094C60.3884 50.9619 62.4858 53.0214 65.8636 53.0172C69.1276 53.013 71.3598 50.7682 71.3513 47.4915C71.3429 44.4928 68.7064 41.9405 65.6951 42.0205C62.3847 42.1048 60.3252 44.2654 60.3547 47.6094Z" fill="white"/>
<path d="M85.2159 48.6371C85.2159 45.0235 85.1822 41.4099 85.2243 37.7963C85.2538 35.3788 86.631 33.5089 88.3957 33.332C90.3289 33.134 92.4178 34.9914 92.5863 37.4046C92.7084 39.1693 93.5213 39.5526 95.0754 39.5989C97.5055 39.6705 99.0259 41.0477 99.0049 42.9009C98.9838 44.7329 97.4676 46.0091 95.0122 46.1607C93.7866 46.2365 92.6832 46.2575 92.6663 47.9464C92.6495 49.5847 93.6603 49.7237 94.9238 49.8501C97.2654 50.0901 99.047 51.7243 99.0554 53.4637C99.0638 55.2031 97.2865 56.9594 94.9575 57.0815C93.1043 57.1784 92.6621 57.9996 92.5989 59.6717C92.5105 61.9923 90.67 63.6727 88.6189 63.6011C86.551 63.5295 85.2707 62.0428 85.2328 59.4821C85.178 55.8643 85.2159 52.2507 85.2159 48.6371Z" fill="white"/>
<path d="M92.4681 69.3166C91.7058 68.0025 90.5603 66.8696 89.0272 65.9262C87.4858 64.9743 85.5484 64.2373 83.2151 63.7151C80.8777 63.1928 78.1569 62.9317 75.0403 62.9317C71.9237 62.9317 69.2114 63.1928 66.895 63.7151C64.5786 64.2373 62.6538 64.9743 61.1166 65.9262C59.5793 66.8738 58.4211 68.0025 57.6462 69.3166C56.867 70.6306 56.4753 72.0794 56.4753 73.663C56.4753 75.2761 56.8544 76.7459 57.6125 78.0768C58.3748 79.4077 59.5204 80.5533 61.0576 81.5177C62.5949 82.4822 64.5196 83.2277 66.836 83.7499C69.1482 84.2721 71.8647 84.5333 74.9814 84.5333C78.0938 84.5333 80.8187 84.2721 83.1562 83.7499C85.4936 83.2277 87.4394 82.4822 88.9935 81.5177C90.556 80.5533 91.71 79.4035 92.4724 78.0768C93.2262 76.7459 93.6095 75.2761 93.6095 73.663C93.6053 72.0752 93.2262 70.6264 92.4681 69.3166ZM75.1919 77.7904C69.6031 77.7904 65.0713 75.9247 65.0713 73.6209C65.0713 71.3171 69.6031 69.4513 75.1919 69.4513C80.7808 69.4513 85.3125 71.3171 85.3125 73.6209C85.3125 75.9204 80.7808 77.7904 75.1919 77.7904Z" fill="white"/>
<path d="M91.7776 14.371C92.1313 14.7753 92.3167 15.2723 92.6115 15.7271C92.9484 16.2536 93.3569 16.7337 93.8328 17.1423C95.029 18.1825 96.5662 18.7132 98.1161 18.9533C98.6299 19.0333 99.1479 19.0796 99.6702 19.1091C96.9747 22.7438 89.3811 23.7335 86.2856 21.1855C84.702 19.8841 84.1123 17.2476 85.0221 15.5503C85.9865 13.7477 88.1387 13.2044 90.0381 13.5034C90.6025 13.5918 91.1584 13.7982 91.588 14.173C91.6554 14.232 91.7186 14.2994 91.7776 14.371Z" fill="white"/>
<path d="M116.02 12.4506C119.811 12.1179 123.446 11.5367 127.08 11.5409C133.04 11.5409 136.94 15.6472 136.552 21.5688C136.35 24.6728 135.398 27.7263 134.779 30.805C134.695 31.2261 134.594 31.6473 134.446 32.2875C135.769 32.039 136.868 31.7652 137.988 31.6347C139.644 31.4409 141.092 31.7779 141.606 33.6521C142.238 35.9642 141.573 37.7332 139.627 38.3986C136.582 39.4389 133.305 39.9569 130.45 41.3552C127.042 43.0272 123.98 45.4026 120.754 47.4537C119.79 48.0643 118.842 48.814 117.777 49.1299C116.235 49.5847 114.458 49.8838 113.388 48.2202C112.238 46.4344 112.196 44.4255 113.805 42.9345C115.646 41.2288 117.553 39.2704 119.811 38.4028C125.067 36.3812 127.4 32.6076 127.859 27.3177C128.028 25.3762 128.318 23.3798 128.04 21.4846C127.788 19.741 126.331 18.9365 124.461 18.886C118.164 18.7259 113.986 22.2511 113.658 28.4759C113.506 31.3609 113.986 34.2838 114.197 37.1856C114.23 37.6405 114.395 38.0869 114.445 38.5418C114.664 40.4202 114.1 42.0543 112.23 42.6145C110.36 43.1746 109.092 41.9027 108.507 40.3023C107.749 38.2259 106.927 36.0527 106.801 33.8837C106.409 27.3009 106.022 20.6717 108.46 14.3163C108.899 13.1708 109.4 12.0505 109.897 10.9302C110.714 9.08548 112.221 8.58008 114.075 8.89174C115.822 9.18235 115.801 10.5764 115.865 11.9115C115.881 12.1937 116.029 12.4759 116.02 12.4506Z" fill="white"/>
<path d="M171.597 94.4221C170.186 93.8957 169.141 93.6261 168.206 93.1418C158.018 87.873 148.34 81.7871 139.205 74.8463C137.773 73.7597 136.488 73.6839 135.006 74.6989C132.155 76.6531 129.253 78.54 126.368 80.4478C123.82 82.1325 122.371 82.082 120.653 80.2667C119.149 78.6747 119.098 76.9564 121.234 74.7958C124.245 71.7508 127.379 68.7437 130.836 66.2335C137.609 61.3143 144.613 56.711 151.57 52.0487C154.759 49.9133 156.506 50.4735 158.14 53.9102C159.193 56.1255 158.831 57.4817 156.426 59.179C153.221 61.4364 149.924 63.5549 146.676 65.7534C144.12 67.4886 143.994 68.0951 146.487 69.944C153.516 75.158 160.646 80.233 167.751 85.346C169.432 86.5547 171.277 87.5697 172.818 88.9343C173.66 89.6798 174.709 91.2086 174.444 91.9541C174.077 92.9986 172.574 93.643 171.597 94.4221Z" fill="white"/>
<path d="M158.284 20.1284C163.119 19.6904 167.748 19.2566 172.381 18.8607C173.143 18.7975 173.914 18.8818 174.684 18.9197C176.331 18.9955 177.624 19.7494 177.805 21.413C178.003 23.224 176.508 23.9315 175.059 24.2853C173.126 24.757 171.113 24.896 169.18 25.3804C165.844 26.2143 162.517 27.1156 159.236 28.1516C157.526 28.6907 156.469 29.9247 156.267 31.8705C155.762 36.7476 155.067 41.6036 154.608 46.485C154.355 49.1551 153.786 50.0817 151.605 50.2923C149.094 50.5366 147.418 49.5131 147.33 46.923C147.144 41.6542 146.892 36.3138 147.524 31.1082C148.635 21.9816 150.379 12.9307 151.883 3.85459C152.278 1.46237 153.664 0.37155 155.816 0.662154C158.975 1.08753 160.748 2.83537 160.373 5.32867C159.729 9.57402 158.967 13.7983 158.297 18.0394C158.183 18.7681 158.284 19.5388 158.284 20.1284Z" fill="white"/>
<path d="M190.47 62.6071C193.001 62.4723 195.06 62.4892 197.069 62.1859C197.76 62.0807 198.569 61.3057 198.905 60.6276C199.554 59.3389 199.798 57.8522 200.405 56.5339C201.053 55.1188 202.127 54.0869 203.871 54.5923C205.779 55.1483 205.674 56.7403 205.362 58.1891C204.667 61.4068 203.745 64.574 203.083 67.7959C202.658 69.8722 201.778 72.0707 204.911 73.271C206.537 73.8944 205.905 76.8215 204.014 77.7438C202.57 78.4471 201.011 78.9231 199.554 79.6096C196.85 80.8773 194.151 82.1618 191.514 83.5601C190.356 84.175 189.492 84.3772 188.465 83.3158C184.013 78.7335 182.766 73.1742 183.878 67.1389C184.666 62.8767 186.009 58.7071 187.273 54.5502C187.74 53.0172 188.869 51.7495 190.76 52.4444C192.685 53.1519 192.782 54.6766 192.222 56.4413C191.577 58.4502 191.059 60.5055 190.47 62.6071ZM190.28 78.3966C191.628 77.5206 192.895 76.5182 194.311 75.8233C196.817 74.5977 196.998 72.5256 196.682 70.1923C196.492 68.7898 195.717 68.2676 194.277 68.4276C189.577 68.9457 187.757 73.2331 190.28 78.3966Z" fill="white"/>
<path d="M209.359 25.1867C211.844 24.7613 213.857 24.2601 215.891 24.1127C217.698 23.9821 219.556 24.0958 221.337 24.4033C221.939 24.5044 222.769 25.5067 222.794 26.1216C222.82 26.7323 222.074 27.7431 221.459 27.9411C219.063 28.7118 216.565 29.1793 214.139 29.8658C212.602 30.3038 211.031 30.7755 209.641 31.5378C208.875 31.959 208.458 33.0119 207.885 33.7826C208.028 33.93 208.176 34.0732 208.319 34.2207C210.488 33.9174 212.653 33.5552 214.834 33.3362C216.195 33.1972 217.639 33.0372 218.936 33.3531C219.779 33.5552 220.933 34.5407 221.004 35.2694C221.072 35.9516 220.044 37.1562 219.252 37.4342C217.167 38.1712 214.969 38.6261 212.783 39.0304C207.464 40.0117 206.702 40.8287 206.373 46.1944C206.327 46.9567 206.188 47.719 206.045 48.4729C205.771 49.9428 205.194 51.1136 203.408 51.1136C201.525 51.1136 200.397 49.9891 200.275 48.3465C200.047 45.2973 199.849 42.1807 200.241 39.1694C201.205 31.7189 202.503 24.3064 203.686 16.8855C204.036 14.6828 205.472 13.8405 207.961 14.2995C210.05 14.687 211.17 16.2537 210.77 18.2964C210.353 20.457 209.89 22.6133 209.359 25.1867Z" fill="white"/>
<path d="M194.31 49.2351C193.371 48.7213 191.716 47.9548 190.204 46.9693C187.631 45.293 185.188 43.4273 182.619 41.7468C179.275 39.5652 178.972 39.6873 177.072 43.0988C176.251 44.5729 175.4 46.0343 174.52 47.4747C173.745 48.7508 172.7 49.7448 171.121 48.974C169.605 48.2328 168.687 46.8429 169.344 45.1751C170.325 42.686 171.378 40.1717 172.81 37.9269C176.819 31.6515 181.023 25.494 185.192 19.3198C186.89 16.8054 188.536 16.4643 190.806 17.972C192.706 19.2313 193.106 20.7349 191.796 22.6722C189.69 25.7847 187.483 28.8339 185.247 31.8579C183.63 34.0395 183.659 34.2459 185.799 35.8295C189.126 38.2933 192.415 40.8034 195.662 43.3683C196.362 43.92 196.926 44.7203 197.364 45.512C198.493 47.5463 197.478 49.1972 194.31 49.2351Z" fill="white"/>
<path d="M98.6012 10.1089C98.7359 9.27499 98.9381 8.44951 99.1023 7.61981C99.2497 6.93752 99.254 6.31842 99.1108 5.62771C98.9086 4.65902 98.6938 3.60611 98.1 2.79326C97.5145 1.99304 96.6259 1.46658 95.6698 1.24336C93.4377 0.725331 91.096 0.855898 89.7904 3.22285C89.2302 4.23786 88.7838 5.49713 88.8385 6.61743C88.8975 7.81354 89.4787 9.04757 90.0557 10.1426C91.4329 12.7665 93.7914 14.3711 96.3353 15.7146C97.2366 16.1905 98.1758 16.6075 99.1276 16.9739C100.067 17.3361 101.044 17.5972 102 17.9005C102.109 17.7699 98.1589 12.8296 98.6012 10.1089ZM96.7944 7.68298C96.5711 8.63482 96.4827 9.61193 96.4406 10.5848C96.4195 11.0692 96.4069 11.5535 96.4279 12.0378C96.4448 12.5138 96.5248 12.977 96.5627 13.4487C96.4406 13.3898 96.3226 13.3182 96.2005 13.2592C95.2992 12.8128 94.4948 12.2905 93.762 11.5914C93.046 10.9091 92.4395 10.1173 91.9804 9.2413C91.4708 8.27262 91.0117 7.19443 91.0497 6.06571C91.0833 5.01701 91.6182 4.0357 92.4142 3.36183C93.863 2.13203 95.8383 3.33235 96.6806 4.69693C97.245 5.63191 97.026 6.68903 96.7944 7.68298Z" fill="white"/>
<path d="M30.9569 109.686C30.4346 109.185 30.0051 108.604 29.6765 107.943C29.3565 108.709 28.9227 109.387 28.3794 109.981C27.8361 110.575 27.1959 111.102 26.4588 111.552C26.3451 111.628 26.2525 111.615 26.1767 111.51L26.0756 111.367C26.0377 111.321 26.0208 111.27 26.025 111.219C26.0293 111.169 26.0587 111.123 26.1177 111.085C26.6652 110.765 27.158 110.398 27.5918 109.985C28.0256 109.577 28.3962 109.114 28.6952 108.6C28.9985 108.086 29.2301 107.509 29.3944 106.873C29.5586 106.237 29.6555 105.53 29.685 104.755C29.685 104.624 29.7397 104.557 29.8534 104.557L30.1061 104.569C30.2114 104.569 30.262 104.637 30.262 104.767C30.2409 105.626 30.1398 106.401 29.9503 107.088C30.2325 107.871 30.6326 108.541 31.1548 109.093C31.6771 109.644 32.3004 110.133 33.0375 110.558C33.1512 110.626 33.1722 110.714 33.109 110.828L33.0248 110.984C32.9701 111.097 32.8774 111.123 32.7553 111.055C32.0814 110.642 31.4791 110.183 30.9569 109.686ZM34.8274 112.517C35.2317 112.517 35.5097 112.584 35.6613 112.723C35.8129 112.862 35.8887 113.123 35.8887 113.511V116.202C35.8887 116.589 35.8129 116.85 35.6613 116.989C35.5097 117.128 35.2317 117.196 34.8274 117.196H29.049C28.6321 117.196 28.3541 117.128 28.2067 116.989C28.0593 116.85 27.9877 116.589 27.9877 116.202V113.511C27.9877 113.123 28.0593 112.862 28.2067 112.723C28.3541 112.588 28.6321 112.517 29.049 112.517H34.8274ZM34.8695 116.61C35.0296 116.61 35.1391 116.581 35.2022 116.518C35.2654 116.455 35.2949 116.337 35.2949 116.156V113.549C35.2949 113.372 35.2654 113.249 35.2022 113.186C35.1391 113.123 35.0296 113.094 34.8695 113.094H29.0069C28.8469 113.094 28.7331 113.123 28.6742 113.186C28.611 113.249 28.5815 113.367 28.5815 113.549V116.156C28.5815 116.337 28.611 116.455 28.6742 116.518C28.7374 116.581 28.8469 116.61 29.0069 116.61H34.8695ZM35.8887 108.553H38.0283C38.1588 108.553 38.2262 108.486 38.2262 108.356V108.212C38.2262 108.082 38.1588 108.014 38.0283 108.014H35.8887V104.46C35.8887 104.329 35.8214 104.262 35.6908 104.262H35.4928C35.3623 104.262 35.2949 104.329 35.2949 104.46V111.556C35.2949 111.687 35.3623 111.754 35.4928 111.754H35.6908C35.8214 111.754 35.8887 111.687 35.8887 111.556V108.553Z" fill="white"/>
<path d="M45.9546 109.285C45.7693 109.681 45.525 110.009 45.2176 110.271C44.9101 110.532 44.5606 110.721 44.1605 110.843C43.7646 110.965 43.356 111.029 42.9433 111.029C42.5263 111.029 42.122 110.965 41.7261 110.843C41.3302 110.721 40.9764 110.527 40.6732 110.271C40.3658 110.009 40.1215 109.681 39.9362 109.285C39.7509 108.889 39.6582 108.422 39.6582 107.883C39.6582 107.343 39.7509 106.876 39.9362 106.48C40.1215 106.084 40.3658 105.756 40.6732 105.495C40.9807 105.233 41.3302 105.044 41.7261 104.922C42.122 104.8 42.5305 104.736 42.9433 104.736C43.3602 104.736 43.7646 104.8 44.1605 104.922C44.5564 105.044 44.9101 105.238 45.2176 105.495C45.525 105.756 45.7693 106.084 45.9546 106.48C46.1399 106.876 46.2326 107.343 46.2326 107.883C46.2284 108.422 46.1357 108.889 45.9546 109.285ZM40.4711 109.053C40.6185 109.378 40.8122 109.651 41.0607 109.866C41.305 110.085 41.5913 110.245 41.9156 110.346C42.2399 110.452 42.5853 110.502 42.9433 110.502C43.3013 110.502 43.6424 110.452 43.9709 110.346C44.2952 110.241 44.5816 110.081 44.8259 109.866C45.0702 109.647 45.2681 109.378 45.4155 109.053C45.5629 108.729 45.6345 108.337 45.6345 107.887C45.6345 107.436 45.5629 107.044 45.4155 106.72C45.2681 106.396 45.0744 106.122 44.8259 105.907C44.5816 105.692 44.2952 105.528 43.9709 105.427C43.6466 105.326 43.3013 105.271 42.9433 105.271C42.5853 105.271 42.2442 105.322 41.9156 105.427C41.5871 105.532 41.305 105.692 41.0607 105.907C40.8164 106.126 40.6185 106.396 40.4711 106.72C40.3236 107.044 40.252 107.436 40.252 107.887C40.252 108.337 40.3236 108.729 40.4711 109.053ZM43.8193 112.482C43.3266 112.583 42.9054 112.73 42.5516 112.937C42.1978 113.139 41.9241 113.396 41.7303 113.707C41.5366 114.019 41.4397 114.381 41.4397 114.798C41.4397 115.215 41.5366 115.577 41.7303 115.889C41.9241 116.201 42.1978 116.457 42.5516 116.66C42.9054 116.862 43.3266 117.013 43.8193 117.114C44.3121 117.216 44.847 117.262 45.4324 117.262C46.0178 117.262 46.5569 117.211 47.0454 117.114C47.5382 117.013 47.9594 116.866 48.3132 116.66C48.6669 116.457 48.9407 116.201 49.1344 115.889C49.3282 115.577 49.425 115.215 49.425 114.798C49.425 114.381 49.3282 114.019 49.1344 113.707C48.9407 113.396 48.6669 113.139 48.3132 112.937C47.9594 112.734 47.5382 112.583 47.0454 112.482C46.5527 112.381 46.0178 112.334 45.4324 112.334C44.8512 112.33 44.3121 112.381 43.8193 112.482ZM46.8096 112.996C47.2265 113.071 47.5845 113.189 47.8878 113.349C48.191 113.509 48.4227 113.711 48.5869 113.952C48.7512 114.192 48.8354 114.474 48.8354 114.794C48.8354 115.106 48.7512 115.379 48.5869 115.615C48.4227 115.851 48.191 116.053 47.892 116.217C47.593 116.382 47.2392 116.508 46.8222 116.592C46.4053 116.676 45.9462 116.719 45.4324 116.719C44.9186 116.719 44.4595 116.676 44.0425 116.592C43.6256 116.508 43.2718 116.382 42.9728 116.217C42.6737 116.053 42.4421 115.851 42.2778 115.615C42.1136 115.379 42.0294 115.106 42.0294 114.794C42.0294 114.474 42.1136 114.192 42.2778 113.952C42.4421 113.711 42.678 113.509 42.977 113.349C43.2802 113.189 43.6382 113.071 44.0552 112.996C44.4721 112.92 44.927 112.882 45.4282 112.882C45.9378 112.886 46.3926 112.924 46.8096 112.996ZM49.2018 109.98H51.3413C51.4719 109.98 51.5393 109.913 51.5393 109.782V109.639C51.5393 109.508 51.4719 109.441 51.3413 109.441H49.2018V107.445H51.3413C51.4719 107.445 51.5393 107.377 51.5393 107.247V107.103C51.5393 106.973 51.4719 106.905 51.3413 106.905H49.2018V104.454C49.2018 104.324 49.1344 104.256 49.0039 104.256H48.8059C48.6754 104.256 48.608 104.324 48.608 104.454V111.846C48.608 111.976 48.6754 112.044 48.8059 112.044H49.0039C49.1344 112.044 49.2018 111.976 49.2018 111.846V109.98Z" fill="white"/>
<path d="M57.579 109.74C57.0567 109.239 56.6271 108.657 56.2986 107.996C55.9785 108.763 55.5447 109.441 55.0014 110.035C54.4581 110.628 53.818 111.155 53.0809 111.605C52.9672 111.681 52.8745 111.669 52.7987 111.563L52.6977 111.42C52.6597 111.374 52.6429 111.323 52.6471 111.273C52.6513 111.222 52.6808 111.176 52.7398 111.138C53.2873 110.818 53.78 110.451 54.2138 110.039C54.6476 109.63 55.0183 109.167 55.3173 108.653C55.6205 108.139 55.8522 107.562 56.0164 106.926C56.1807 106.29 56.2776 105.583 56.307 104.808C56.307 104.677 56.3618 104.61 56.4755 104.61L56.7282 104.623C56.8335 104.623 56.884 104.69 56.884 104.82C56.863 105.68 56.7619 106.455 56.5724 107.141C56.8546 107.924 57.2547 108.594 57.7769 109.146C58.2992 109.698 58.9225 110.186 59.6595 110.612C59.7732 110.679 59.7943 110.767 59.7311 110.881L59.6469 111.037C59.5921 111.151 59.4995 111.176 59.3773 111.108C58.7077 110.7 58.1054 110.241 57.579 109.74ZM62.4013 117.173C62.4013 117.304 62.4687 117.371 62.5993 117.371H62.7972C62.9278 117.371 62.9951 117.304 62.9951 117.173V113.661C62.9951 113.273 62.9235 112.995 62.7761 112.831C62.6287 112.667 62.3339 112.583 61.8917 112.583H55.1067C54.9762 112.583 54.9088 112.65 54.9088 112.781V112.936C54.9088 113.067 54.9762 113.134 55.1067 113.134H62.0054C62.2707 113.134 62.4013 113.256 62.4013 113.501V117.173ZM62.9951 104.458C62.9951 104.328 62.9278 104.26 62.7972 104.26H62.5993C62.4687 104.26 62.4013 104.328 62.4013 104.458V111.61C62.4013 111.74 62.4687 111.808 62.5993 111.808H62.7972C62.9278 111.808 62.9951 111.74 62.9951 111.61V104.458Z" fill="white"/>
<path d="M65.7155 111.214C65.585 111.214 65.5176 111.146 65.5176 111.016V110.86C65.5176 110.729 65.585 110.662 65.7155 110.662H77.7819C77.9125 110.662 77.9799 110.729 77.9799 110.86V111.016C77.9799 111.146 77.9125 111.214 77.7819 111.214H72.0162V112.97H74.8632C75.2676 112.97 75.5455 113.037 75.6971 113.176C75.8488 113.315 75.9246 113.577 75.9246 113.964V116.217C75.9246 116.605 75.8488 116.866 75.6971 117.005C75.5455 117.14 75.2676 117.211 74.8632 117.211H68.6047C68.1878 117.211 67.9098 117.144 67.7624 117.005C67.615 116.866 67.5434 116.605 67.5434 116.217V113.964C67.5434 113.577 67.615 113.315 67.7624 113.176C67.9098 113.037 68.1878 112.97 68.6047 112.97H71.4223V111.214H65.7155V111.214ZM67.3707 109.045C67.2401 109.045 67.1728 108.977 67.1728 108.847V108.704C67.1728 108.573 67.2401 108.506 67.3707 108.506H69.2954V105.077H67.6529C67.5223 105.077 67.4549 105.01 67.4549 104.879V104.736C67.4549 104.606 67.5223 104.538 67.6529 104.538H75.6845C75.8151 104.538 75.8825 104.606 75.8825 104.736V104.879C75.8825 105.01 75.8151 105.077 75.6845 105.077H74.0967V108.506H75.9667C76.0973 108.506 76.1646 108.573 76.1646 108.704V108.847C76.1646 108.977 76.0973 109.045 75.9667 109.045H67.3707ZM74.9054 116.664C75.0654 116.664 75.1749 116.634 75.2381 116.571C75.3013 116.508 75.3307 116.39 75.3307 116.209V113.956C75.3307 113.774 75.3013 113.657 75.2381 113.593C75.1749 113.53 75.0654 113.501 74.9054 113.501H68.5626C68.4026 113.501 68.2931 113.53 68.2299 113.593C68.1667 113.657 68.1372 113.774 68.1372 113.956V116.209C68.1372 116.39 68.1667 116.508 68.2299 116.571C68.2931 116.634 68.4026 116.664 68.5626 116.664H74.9054ZM69.8935 108.506H73.5029V105.077H69.8935V108.506Z" fill="white"/>
<path d="M95.0583 111.424C95.1888 111.424 95.2562 111.492 95.2562 111.622V111.765C95.2562 111.896 95.1888 111.963 95.0583 111.963H82.9919C82.8613 111.963 82.7939 111.896 82.7939 111.765V111.622C82.7939 111.492 82.8613 111.424 82.9919 111.424H88.7113V109.525C88.3618 109.508 87.9616 109.453 87.5068 109.369C87.0519 109.285 86.6223 109.146 86.2096 108.956C85.7969 108.767 85.4515 108.514 85.1693 108.19C84.8871 107.87 84.7439 107.47 84.7439 106.985C84.7439 106.636 84.8198 106.332 84.9714 106.071C85.123 105.81 85.3209 105.587 85.5652 105.397C85.8095 105.208 86.0875 105.052 86.3991 104.922C86.7108 104.791 87.0224 104.694 87.3425 104.623C87.6584 104.551 87.9616 104.5 88.2565 104.475C88.5513 104.45 88.7998 104.433 89.0061 104.433C89.2125 104.433 89.4652 104.446 89.7642 104.475C90.0633 104.505 90.3665 104.555 90.6866 104.623C91.0025 104.694 91.3183 104.791 91.63 104.922C91.9417 105.052 92.2196 105.208 92.4639 105.397C92.7082 105.587 92.9061 105.81 93.0578 106.071C93.2094 106.332 93.2852 106.636 93.2852 106.985C93.2852 107.465 93.142 107.87 92.8598 108.19C92.5776 108.51 92.2281 108.767 91.8195 108.956C91.4068 109.146 90.973 109.281 90.5181 109.369C90.0591 109.453 89.6547 109.508 89.3052 109.525V111.424H95.0583ZM84.8198 115.986C84.8198 116.373 84.8871 116.647 85.0261 116.815C85.1609 116.98 85.4515 117.064 85.8979 117.064H93.42C93.5505 117.064 93.6179 116.996 93.6179 116.866V116.71C93.6179 116.579 93.5505 116.512 93.42 116.512H85.7421C85.6115 116.512 85.5189 116.495 85.4726 116.457C85.4262 116.419 85.401 116.335 85.401 116.2V113.454C85.401 113.324 85.3336 113.256 85.203 113.256H85.0177C84.8871 113.256 84.8198 113.324 84.8198 113.454V115.986V115.986ZM85.3462 106.994C85.3462 107.398 85.4726 107.731 85.7295 107.983C85.9864 108.24 86.298 108.438 86.6729 108.586C87.0477 108.733 87.4436 108.83 87.869 108.885C88.2944 108.939 88.6776 108.961 89.0146 108.961C89.3641 108.961 89.7516 108.935 90.177 108.885C90.6024 108.834 91.0025 108.733 91.3731 108.586C91.7479 108.438 92.0596 108.24 92.3165 107.983C92.5734 107.727 92.6998 107.398 92.6998 106.994C92.6998 106.589 92.5734 106.257 92.3165 105.996C92.0638 105.734 91.7479 105.532 91.3731 105.385C90.9983 105.237 90.6024 105.141 90.177 105.086C89.7516 105.031 89.3641 105.006 89.0146 105.006C88.6734 105.006 88.2944 105.031 87.869 105.086C87.4436 105.141 87.0435 105.237 86.6729 105.385C86.298 105.532 85.9864 105.734 85.7295 105.996C85.4726 106.252 85.3462 106.585 85.3462 106.994Z" fill="white"/>
<path d="M97.6106 113.067C97.6106 113.21 97.6358 113.311 97.6822 113.379C97.7285 113.446 97.8169 113.488 97.9517 113.505C98.3939 113.543 98.9162 113.555 99.51 113.539C100.104 113.526 100.71 113.492 101.329 113.438C101.949 113.387 102.547 113.315 103.128 113.227C103.709 113.139 104.202 113.042 104.606 112.936C104.737 112.898 104.817 112.953 104.846 113.105L104.876 113.231C104.893 113.299 104.884 113.345 104.846 113.379C104.808 113.412 104.762 113.438 104.703 113.459C104.383 113.551 103.945 113.644 103.393 113.728C102.841 113.812 102.252 113.884 101.624 113.939C100.997 113.993 100.369 114.04 99.7459 114.065C99.1226 114.095 98.5793 114.095 98.116 114.065C97.6906 114.048 97.4 113.956 97.2442 113.796C97.0883 113.635 97.0083 113.358 97.0083 112.962V110.308C97.0083 109.912 97.0925 109.647 97.2568 109.508C97.421 109.369 97.7159 109.302 98.1412 109.302H102.092C102.222 109.302 102.311 109.285 102.349 109.247C102.387 109.209 102.403 109.121 102.403 108.977V106.257C102.403 105.991 102.281 105.861 102.037 105.861H97.2652C97.1431 105.861 97.0799 105.798 97.0799 105.675V105.507C97.0799 105.385 97.1431 105.322 97.2652 105.322H101.881C102.109 105.322 102.294 105.334 102.433 105.364C102.576 105.393 102.69 105.444 102.774 105.52C102.858 105.595 102.917 105.701 102.951 105.831C102.985 105.962 103.001 106.13 103.001 106.328V108.834C103.001 109.23 102.917 109.5 102.753 109.634C102.589 109.773 102.294 109.841 101.869 109.841H97.9012C97.7706 109.841 97.6864 109.87 97.6527 109.933C97.619 109.997 97.6021 110.098 97.6021 110.237V113.067H97.6106ZM106.417 117.119C106.417 117.249 106.35 117.316 106.219 117.316H106.021C105.891 117.316 105.823 117.249 105.823 117.119V104.458C105.823 104.328 105.891 104.26 106.021 104.26H106.219C106.35 104.26 106.417 104.328 106.417 104.458V109.769H108.557C108.687 109.769 108.755 109.837 108.755 109.967V110.11C108.755 110.241 108.687 110.308 108.557 110.308H106.417V117.119Z" fill="white"/>
<path d="M116.592 109.529C116.428 109.933 116.197 110.283 115.906 110.578C115.615 110.873 115.266 111.096 114.866 111.252C114.466 111.408 114.032 111.483 113.568 111.483C113.126 111.483 112.701 111.408 112.301 111.252C111.901 111.096 111.547 110.873 111.248 110.586C110.945 110.3 110.709 109.95 110.532 109.538C110.355 109.125 110.271 108.67 110.271 108.169C110.271 107.6 110.359 107.116 110.532 106.703C110.705 106.29 110.945 105.953 111.248 105.684C111.551 105.414 111.901 105.212 112.301 105.082C112.701 104.951 113.126 104.884 113.568 104.884C113.956 104.884 114.343 104.947 114.735 105.073C115.127 105.2 115.476 105.397 115.788 105.667C116.1 105.937 116.352 106.278 116.546 106.695C116.74 107.112 116.837 107.6 116.837 108.169C116.841 108.67 116.757 109.121 116.592 109.529ZM116.049 106.943C115.898 106.598 115.695 106.311 115.447 106.088C115.198 105.865 114.908 105.692 114.583 105.587C114.259 105.482 113.918 105.423 113.573 105.423C113.215 105.423 112.869 105.478 112.537 105.587C112.204 105.697 111.918 105.865 111.665 106.088C111.416 106.316 111.214 106.602 111.063 106.943C110.911 107.289 110.835 107.697 110.835 108.169C110.835 108.594 110.907 108.977 111.046 109.323C111.189 109.668 111.383 109.959 111.627 110.199C111.871 110.439 112.162 110.624 112.49 110.75C112.819 110.877 113.181 110.94 113.568 110.94C113.918 110.94 114.255 110.877 114.579 110.75C114.904 110.624 115.194 110.439 115.443 110.199C115.691 109.959 115.893 109.664 116.045 109.323C116.197 108.977 116.272 108.594 116.272 108.169C116.272 107.697 116.197 107.289 116.049 106.943ZM112.423 113.181C112.423 113.05 112.49 112.983 112.621 112.983H112.806C112.937 112.983 113.004 113.05 113.004 113.181V116.196C113.004 116.327 113.029 116.415 113.076 116.453C113.122 116.491 113.21 116.508 113.345 116.508H120.425C120.556 116.508 120.623 116.575 120.623 116.706V116.862C120.623 116.992 120.556 117.06 120.425 117.06H113.501C113.059 117.06 112.768 116.975 112.629 116.811C112.49 116.647 112.423 116.369 112.423 115.981V113.181V113.181ZM120.198 104.458C120.198 104.328 120.13 104.26 120 104.26H119.814C119.684 104.26 119.616 104.328 119.616 104.458V113.48C119.616 113.61 119.684 113.678 119.814 113.678H120C120.13 113.678 120.198 113.61 120.198 113.48V104.458Z" fill="white"/>
<path d="M138.961 110.393C139.091 110.393 139.159 110.46 139.159 110.591V110.73C139.159 110.86 139.091 110.928 138.961 110.928H126.894C126.764 110.928 126.697 110.86 126.697 110.73V110.586C126.697 110.456 126.764 110.389 126.894 110.389H132.151V107.84C132.151 107.71 132.218 107.643 132.349 107.643H132.547C132.677 107.643 132.744 107.71 132.744 107.84V110.389H138.961V110.393ZM137.205 114.84C137.205 115.341 137.057 115.754 136.758 116.078C136.459 116.403 136.093 116.664 135.655 116.858C135.217 117.051 134.745 117.186 134.244 117.262C133.743 117.338 133.292 117.376 132.883 117.376C132.475 117.376 132.024 117.338 131.523 117.262C131.022 117.186 130.554 117.051 130.112 116.858C129.674 116.664 129.304 116.403 129.009 116.078C128.714 115.754 128.562 115.341 128.562 114.84C128.562 114.339 128.71 113.926 129.009 113.602C129.308 113.278 129.674 113.017 130.112 112.823C130.55 112.629 131.022 112.494 131.523 112.419C132.024 112.343 132.475 112.305 132.883 112.305C133.292 112.305 133.743 112.343 134.244 112.419C134.745 112.494 135.212 112.629 135.655 112.823C136.093 113.017 136.463 113.278 136.758 113.602C137.053 113.926 137.205 114.339 137.205 114.84ZM137.15 105.238C137.158 105.541 137.154 105.874 137.137 106.244C137.12 106.615 137.091 106.981 137.053 107.348C137.015 107.714 136.969 108.068 136.91 108.401C136.855 108.738 136.796 109.02 136.741 109.256C136.712 109.386 136.636 109.441 136.514 109.411L136.345 109.382C136.194 109.365 136.139 109.293 136.177 109.171C136.232 108.965 136.286 108.695 136.341 108.371C136.392 108.047 136.438 107.706 136.476 107.352C136.514 106.998 136.543 106.644 136.569 106.299C136.594 105.949 136.598 105.646 136.59 105.394C136.59 105.263 136.543 105.179 136.455 105.145C136.366 105.111 136.253 105.094 136.122 105.094H128.887C128.756 105.094 128.689 105.027 128.689 104.897V104.753C128.689 104.623 128.756 104.555 128.887 104.555H136.08C136.383 104.555 136.636 104.593 136.838 104.669C137.032 104.745 137.141 104.934 137.15 105.238ZM136.611 114.84C136.611 114.444 136.484 114.116 136.228 113.855C135.971 113.594 135.655 113.391 135.28 113.244C134.901 113.097 134.497 112.996 134.063 112.932C133.629 112.869 133.237 112.84 132.888 112.84C132.538 112.84 132.146 112.869 131.713 112.932C131.279 112.996 130.87 113.097 130.495 113.244C130.121 113.391 129.801 113.594 129.548 113.855C129.295 114.116 129.165 114.444 129.165 114.84C129.165 115.236 129.291 115.565 129.548 115.826C129.805 116.087 130.121 116.289 130.495 116.436C130.874 116.584 131.279 116.685 131.713 116.748C132.146 116.811 132.538 116.841 132.888 116.841C133.237 116.841 133.629 116.811 134.063 116.748C134.497 116.685 134.905 116.584 135.28 116.436C135.659 116.289 135.975 116.087 136.228 115.826C136.484 115.565 136.611 115.236 136.611 114.84Z" fill="white"/>
<path d="M145.384 109.74C144.861 109.239 144.432 108.657 144.103 107.996C143.783 108.763 143.349 109.441 142.806 110.035C142.263 110.628 141.623 111.155 140.886 111.605C140.772 111.681 140.679 111.669 140.603 111.563L140.502 111.42C140.464 111.374 140.448 111.323 140.452 111.273C140.456 111.222 140.485 111.176 140.544 111.138C141.092 110.818 141.585 110.451 142.019 110.039C142.452 109.63 142.819 109.167 143.122 108.653C143.425 108.139 143.657 107.562 143.825 106.926C143.99 106.29 144.086 105.583 144.116 104.808C144.116 104.677 144.171 104.61 144.284 104.61L144.541 104.623C144.647 104.623 144.697 104.69 144.697 104.82C144.68 105.68 144.575 106.455 144.385 107.141C144.668 107.924 145.068 108.594 145.59 109.146C146.108 109.698 146.736 110.186 147.473 110.612C147.586 110.679 147.612 110.767 147.544 110.881L147.46 111.037C147.405 111.151 147.313 111.176 147.19 111.108C146.512 110.7 145.91 110.241 145.384 109.74ZM150.206 117.173C150.206 117.304 150.273 117.371 150.404 117.371H150.602C150.732 117.371 150.8 117.304 150.8 117.173V113.661C150.8 113.273 150.728 112.995 150.581 112.831C150.433 112.667 150.139 112.583 149.696 112.583H142.911C142.781 112.583 142.713 112.65 142.713 112.781V112.936C142.713 113.067 142.781 113.134 142.911 113.134H149.81C150.075 113.134 150.206 113.256 150.206 113.501V117.173V117.173ZM150.8 104.458C150.8 104.328 150.732 104.26 150.602 104.26H150.404C150.273 104.26 150.206 104.328 150.206 104.458V111.61C150.206 111.74 150.273 111.808 150.404 111.808H150.602C150.732 111.808 150.8 111.74 150.8 111.61V104.458Z" fill="white"/>
<path d="M161.75 114.541H165.208V111.113C165.208 110.982 165.275 110.915 165.406 110.915H165.604C165.734 110.915 165.802 110.982 165.802 111.113V114.541H169.554C169.685 114.541 169.752 114.608 169.752 114.739V114.882C169.752 115.013 169.685 115.08 169.554 115.08H157.488C157.357 115.08 157.29 115.013 157.29 114.882V114.739C157.29 114.608 157.357 114.541 157.488 114.541H161.156V111.113C161.156 110.982 161.224 110.915 161.354 110.915H161.552C161.683 110.915 161.75 110.982 161.75 111.113V114.541V114.541ZM158.49 110.645C159.876 110.051 160.988 109.289 161.818 108.367C162.647 107.44 163.161 106.349 163.363 105.094C163.393 104.964 163.452 104.901 163.549 104.909L163.805 104.938C163.919 104.947 163.966 105.018 163.949 105.149C163.894 105.536 163.805 105.903 163.692 106.252C164.079 107.242 164.686 108.093 165.52 108.796C166.349 109.5 167.356 110.064 168.535 110.489C168.657 110.527 168.683 110.616 168.607 110.759L168.535 110.915C168.489 111.007 168.396 111.033 168.266 110.986C167.764 110.805 167.28 110.586 166.808 110.329C166.337 110.068 165.89 109.773 165.469 109.445C165.048 109.116 164.66 108.742 164.307 108.333C163.953 107.92 163.654 107.482 163.405 107.011C163.178 107.491 162.896 107.946 162.563 108.371C162.23 108.796 161.855 109.184 161.451 109.538C161.047 109.891 160.609 110.207 160.15 110.481C159.686 110.755 159.215 110.986 158.735 111.176C158.604 111.222 158.511 111.189 158.465 111.075L158.393 110.919C158.343 110.784 158.377 110.696 158.49 110.645Z" fill="white"/>
<path d="M175.169 110.906C173.804 110.995 172.461 111.016 171.138 110.97C170.995 110.97 170.927 110.898 170.927 110.759V110.603C170.927 110.46 170.999 110.393 171.138 110.393C171.441 110.409 171.74 110.422 172.044 110.422C172.347 110.422 172.646 110.422 172.949 110.422V105.423H171.235C171.104 105.423 171.037 105.355 171.037 105.225V105.082C171.037 104.951 171.104 104.884 171.235 104.884H178.26C178.391 104.884 178.458 104.951 178.458 105.082V105.225C178.458 105.355 178.391 105.423 178.26 105.423H176.887V110.224C177.228 110.186 177.565 110.144 177.906 110.102C178.247 110.06 178.588 110.005 178.938 109.938C179.069 109.908 179.149 109.963 179.178 110.093L179.208 110.237C179.237 110.367 179.182 110.447 179.052 110.477C177.826 110.675 176.533 110.818 175.169 110.906ZM175.952 112.347C175.451 112.46 175.021 112.629 174.663 112.848C174.305 113.071 174.023 113.345 173.821 113.669C173.619 113.993 173.518 114.364 173.518 114.781C173.518 115.198 173.619 115.569 173.821 115.893C174.023 116.217 174.305 116.491 174.663 116.714C175.021 116.937 175.451 117.102 175.952 117.215C176.453 117.329 176.996 117.384 177.582 117.384C178.167 117.384 178.706 117.329 179.203 117.215C179.7 117.102 180.13 116.933 180.492 116.714C180.854 116.491 181.141 116.217 181.343 115.893C181.545 115.569 181.646 115.198 181.646 114.781C181.646 114.364 181.545 113.993 181.343 113.669C181.141 113.345 180.854 113.071 180.492 112.848C180.13 112.625 179.7 112.46 179.203 112.347C178.706 112.233 178.167 112.178 177.582 112.178C176.996 112.174 176.453 112.233 175.952 112.347ZM174.924 110.376C175.383 110.359 175.838 110.325 176.293 110.275V105.419H173.547V110.418C174.01 110.409 174.47 110.397 174.924 110.376ZM178.972 112.856C179.397 112.949 179.764 113.084 180.071 113.261C180.378 113.438 180.619 113.652 180.791 113.913C180.964 114.175 181.052 114.465 181.052 114.785C181.052 115.097 180.968 115.379 180.795 115.636C180.623 115.893 180.387 116.112 180.079 116.293C179.772 116.478 179.406 116.617 178.98 116.718C178.555 116.819 178.087 116.866 177.578 116.866C177.068 116.866 176.601 116.815 176.175 116.718C175.75 116.622 175.383 116.478 175.076 116.293C174.769 116.108 174.533 115.889 174.36 115.636C174.187 115.383 174.103 115.097 174.103 114.785C174.103 114.465 174.192 114.175 174.364 113.913C174.541 113.652 174.781 113.438 175.089 113.261C175.396 113.084 175.762 112.953 176.188 112.856C176.613 112.764 177.077 112.713 177.578 112.713C178.083 112.713 178.546 112.759 178.972 112.856ZM181.393 104.458C181.393 104.328 181.326 104.26 181.196 104.26H180.998C180.867 104.26 180.8 104.328 180.8 104.458V111.795C180.8 111.926 180.867 111.993 180.998 111.993H181.196C181.326 111.993 181.393 111.926 181.393 111.795V104.458Z" fill="white"/>
<path d="M194.294 107.672C194.294 108.068 194.218 108.337 194.066 108.472C193.915 108.611 193.633 108.678 193.216 108.678H190.428V110.136H196.176C196.307 110.136 196.374 110.203 196.374 110.334V110.477C196.374 110.607 196.307 110.675 196.176 110.675H184.11C183.979 110.675 183.912 110.607 183.912 110.477V110.334C183.912 110.203 183.979 110.136 184.11 110.136H189.829V108.678H187.083C186.667 108.678 186.384 108.611 186.233 108.472C186.081 108.337 186.005 108.068 186.005 107.672V105.364C186.005 104.968 186.081 104.703 186.233 104.564C186.384 104.425 186.667 104.357 187.083 104.357H193.216C193.633 104.357 193.915 104.425 194.066 104.564C194.218 104.703 194.294 104.968 194.294 105.364V107.672ZM186.928 116.693C186.768 116.693 186.662 116.664 186.616 116.609C186.57 116.554 186.544 116.445 186.544 116.285V115.152C186.544 114.975 186.591 114.861 186.679 114.811C186.768 114.764 186.894 114.739 187.054 114.739H193.06C193.287 114.739 193.477 114.726 193.633 114.697C193.788 114.667 193.915 114.617 194.016 114.541C194.117 114.465 194.184 114.356 194.226 114.217C194.269 114.074 194.29 113.897 194.29 113.678V113.054C194.29 112.827 194.273 112.642 194.239 112.494C194.205 112.347 194.142 112.233 194.05 112.149C193.957 112.065 193.831 112.006 193.675 111.972C193.519 111.938 193.321 111.921 193.085 111.921H186.119C185.988 111.921 185.921 111.989 185.921 112.119V112.263C185.921 112.393 185.988 112.461 186.119 112.461H193.241C193.409 112.461 193.527 112.486 193.586 112.536C193.649 112.587 193.679 112.696 193.679 112.856V113.821C193.679 113.989 193.645 114.099 193.574 114.141C193.502 114.183 193.384 114.204 193.211 114.204H187.193C186.73 114.204 186.405 114.276 186.224 114.415C186.039 114.558 185.946 114.849 185.946 115.291V116.011C185.946 116.238 185.959 116.428 185.988 116.584C186.018 116.74 186.073 116.866 186.153 116.959C186.233 117.051 186.346 117.123 186.498 117.165C186.65 117.207 186.848 117.228 187.092 117.228H194.344C194.475 117.228 194.542 117.161 194.542 117.03V116.887C194.542 116.756 194.475 116.689 194.344 116.689H186.928V116.693ZM193.713 105.292C193.713 105.149 193.687 105.052 193.641 105.002C193.595 104.951 193.502 104.926 193.371 104.926H186.94C186.81 104.926 186.717 104.951 186.671 105.002C186.624 105.052 186.599 105.149 186.599 105.292V107.744C186.599 107.887 186.624 107.984 186.671 108.034C186.717 108.085 186.81 108.11 186.94 108.11H193.371C193.502 108.11 193.595 108.085 193.641 108.034C193.687 107.984 193.713 107.887 193.713 107.744V105.292Z" fill="white"/>
</svg>
