<svg width="51" height="105" viewBox="0 0 51 105" fill="none" xmlns="http://www.w3.org/2000/svg">
<g clip-path="url(#clip0_259_1667)">
<path d="M50.4306 32.4424C50.432 28.6335 49.3176 24.9076 47.2249 21.725C45.2279 18.554 42.3168 15.9721 39.9212 13.0263C38.8555 11.7267 38.0671 10.1629 37.2093 8.69433C36.4902 7.44672 37.062 6.74926 38.3313 6.45902C38.8728 6.33339 39.423 6.25541 39.9558 6.09946C42.0438 5.48432 42.1218 3.80783 41.9962 2.07936C41.8706 0.350892 40.6923 0 39.2367 0H11.7631C10.3119 0 9.09894 0.311904 8.99497 2.0707C8.891 3.82949 8.94732 5.47565 11.0353 6.0908C11.5639 6.24675 12.1183 6.32473 12.6555 6.45036C13.9291 6.7406 14.5009 7.43805 13.7775 8.68567C12.9869 10.1976 12.0802 11.6459 11.0657 13.0177C8.68307 15.9634 5.77629 18.5453 3.77491 21.7163C1.68064 24.9014 0.566113 28.6305 0.569222 32.4424C0.725174 52.3913 0.846471 72.3445 0.49991 92.2717C0.469586 94.1431 1.21902 96.1705 2.44498 97.9986C4.75394 101.464 8.73938 104.241 12.3003 104.063C16.7103 103.825 21.0726 103.73 25.4999 103.734C29.9272 103.739 34.2852 103.825 38.6995 104.063C42.1218 104.245 45.9383 101.681 48.2776 98.4318C49.6638 96.4954 50.5302 94.3121 50.4956 92.3064C50.149 72.3445 50.2746 52.3913 50.4306 32.4424ZM42.2821 98.4578C40.8354 99.234 39.2274 99.6613 37.5862 99.7054C33.5358 99.7661 29.5157 99.7921 25.4566 99.7921C21.3975 99.7921 17.451 99.7661 13.4006 99.7054C11.7684 99.6568 10.1697 99.2297 8.73072 98.4578C5.69832 96.7943 4.80592 93.8875 4.83191 90.5476C4.83191 87.7924 4.83191 85.0387 4.83191 82.2864C4.86224 66.4183 4.89256 50.5502 4.78426 34.682C4.74094 28.4786 6.89395 23.4188 11.2433 19.1345C12.8721 17.5316 14.8648 16.1324 16.0085 14.2263L16.2381 13.8321C16.5867 13.269 16.8937 12.6812 17.1565 12.0733C17.743 10.8819 18.1669 9.61725 18.4171 8.31312L18.534 7.87992C18.6058 7.61326 18.6351 7.33694 18.6207 7.06117C18.6207 6.62797 18.586 6.26841 18.5947 5.95651C18.7896 4.47929 19.5954 4.26702 20.8777 4.2237C22.0386 4.18038 23.1476 4.15439 24.2826 4.14573H25.5086C27.0854 4.14573 28.632 4.16739 30.2045 4.22804C31.7033 4.28868 32.5567 4.5616 32.5394 6.82724C32.5394 9.30948 33.761 11.9997 35.078 14.2306C36.2 16.1367 38.1927 17.536 39.8432 19.1388C44.1752 23.4102 46.3412 28.4829 46.2979 34.6864C46.1939 50.5545 46.2242 66.4226 46.2545 82.2908V90.5519C46.2112 93.8875 45.3275 96.7943 42.2821 98.4578Z" fill="#767676"/>
<path d="M41.953 60.2669C40.1856 60.4618 39.3538 61.3325 39.4188 62.5802C39.4708 63.9707 40.6881 65.1014 42.3169 65.123C43.3523 65.123 44.3833 64.9238 45.4186 64.8761C45.6661 64.8628 45.9143 64.8744 46.1594 64.9108V58.0186C45.6478 58.6595 45.011 59.1894 44.2878 59.5759C43.5646 59.9625 42.7701 60.1976 41.953 60.2669Z" fill="#767676"/>
<path d="M35.3986 44.0829C36.1063 44.1358 36.8163 44.1517 37.5256 44.1306C39.7523 44.2086 40.4237 44.997 40.4757 47.202C40.4757 48.1117 40.6837 49.3333 41.2815 49.8315C42.2042 50.6069 43.3305 49.9051 44.2446 49.251C44.4785 49.0864 44.6778 48.9001 44.9247 48.7355C45.3109 48.451 45.7315 48.2167 46.1766 48.038L46.2026 41.54H32.011C32.4875 43.2382 33.8131 43.862 35.3986 44.0829Z" fill="#767676"/>
<path d="M18.8937 51.642C18.8957 50.4599 18.7826 49.2803 18.5558 48.1201C18.3657 47.1884 18.4348 46.2223 18.7556 45.3271C19.0764 44.432 19.6366 43.6419 20.3752 43.043C20.8682 42.5613 21.3353 42.0537 21.7745 41.5225H10.9704C10.5372 42.3542 10.1387 43.1903 9.70549 44.0134C7.44418 48.3454 9.87877 53.9293 14.4707 54.995C17.0179 55.5798 18.8374 54.2412 18.8937 51.642Z" fill="#767676"/>
<path d="M33.6225 62.8959C31.6904 61.9819 29.65 62.3804 28.658 63.8793C26.9252 66.5305 25.7469 66.9117 22.7492 65.7377C21.6055 65.3045 20.4922 64.7457 19.3182 64.4121C17.2259 63.8143 14.6786 65.0229 13.3834 67.098C12.543 68.4539 12.8332 70.0437 14.3451 71.8848C14.9435 72.6154 15.6061 73.291 16.3248 73.9036C19.1276 76.2818 21.4669 78.842 20.1976 82.5892C20.2366 83.1654 20.2453 83.3993 20.2669 83.6376C20.4619 86.0635 21.9781 88.1082 24.0098 88.6627C26.2668 89.2822 27.5534 88.0216 28.6364 86.2974C28.9393 85.8149 29.3607 85.4179 29.8603 85.1442C30.36 84.8705 30.9214 84.7291 31.4911 84.7336C33.5229 84.6166 34.4023 83.434 33.8131 81.4672C33.482 80.4876 32.9981 79.5665 32.3792 78.7381C30.1656 75.6147 30.2695 74.0378 32.9987 71.3217C33.5013 70.8913 33.9691 70.422 34.3979 69.9181C35.0546 69.1197 35.6009 68.2368 36.0224 67.2929C36.6549 65.5861 35.6282 63.8446 33.6225 62.8959Z" fill="#767676"/>
<path d="M10.4635 99.7057C11.7631 99.0386 11.3689 97.8906 11.135 96.8379C10.9184 95.8849 10.8144 95.1657 12.2267 95.2221C12.6599 95.2221 13.3227 94.6329 13.4786 94.1737C13.6727 93.5438 13.6311 92.8648 13.3616 92.2633C12.3393 90.2619 12.7162 88.4598 13.7385 86.6014C14.1147 85.8165 14.422 85.0005 14.6569 84.1624C14.6569 81.0781 12.6599 79.0767 10.0996 78.9987C8.19357 78.9381 6.8853 79.9431 5.76764 81.2903C5.49391 81.6147 5.18273 81.9055 4.84059 82.1567C4.84059 82.6722 4.84059 83.1877 4.84059 83.7033C4.84059 86.4584 4.84059 89.2121 4.84059 91.9644C4.83318 92.8458 4.90714 93.7261 5.06153 94.5939C6.03717 95.6839 6.78797 96.9559 7.27085 98.3368C7.37131 98.6504 7.53795 98.9388 7.7595 99.1825C7.98105 99.4262 8.25235 99.6195 8.55504 99.7493C8.85773 99.879 9.18476 99.9423 9.51402 99.9348C9.84328 99.9273 10.1671 99.8491 10.4635 99.7057Z" fill="#767676"/>
<path d="M43.4128 79.9778C42.2562 77.3786 40.6057 77.0451 37.7812 78.0198C37.4345 78.1848 37.1298 78.4266 36.8904 78.7268C36.651 79.027 36.483 79.3778 36.3993 79.7526C36.3256 80.3071 36.9191 81.1518 37.4563 81.5417C38.3227 82.1698 39.4014 82.4817 40.3501 83.0016C42.4251 84.1366 42.8843 85.2455 42.3081 87.5415C42.2388 87.8144 42.2085 88.096 42.1565 88.4079C42.1565 90.0584 43.2309 91.0071 44.5305 91.6526C45.1134 91.9456 45.6688 92.2906 46.1896 92.6836C46.1896 92.4583 46.1896 92.2504 46.1896 91.9991C46.1896 90.1797 46.1896 88.3588 46.1896 86.5365C45.1857 84.7001 44.37 82.7668 43.755 80.7663C43.6576 80.4965 43.5433 80.2332 43.4128 79.9778Z" fill="#767676"/>
<path d="M38.8167 96.3571C38.8973 96.0827 38.8973 95.791 38.8167 95.5167C38.3835 94.7672 38.0413 93.7839 37.3741 93.433C36.9106 93.1904 35.78 93.6409 35.2905 94.1261C33.5577 95.8372 31.6559 95.9152 29.5202 95.2784C28.6264 94.9908 27.7087 94.7834 26.7781 94.6589C25.6951 94.5376 25.1189 95.2048 24.9456 96.2185C24.6684 97.856 25.5261 99.7924 26.856 101.231C29.7238 101.231 32.5786 101.209 35.4421 101.174C37.1749 99.736 38.6218 97.8473 38.8167 96.3571Z" fill="#767676"/>
<path d="M8.15907 60.2147C8.18507 58.196 7.29267 56.5195 5.65084 55.8264C5.3886 55.7222 5.11538 55.6481 4.83643 55.6055C4.83643 59.3166 4.83643 63.0291 4.83643 66.7431C6.92012 65.6384 8.11575 63.3078 8.15907 60.2147Z" fill="#767676"/>
<path d="M34.3807 49.8179C34.1034 49.8655 33.8219 49.9045 33.2197 49.9955C32.2017 49.6359 30.9194 49.1724 29.6328 48.7305C27.8394 48.1154 26.6567 48.7305 26.2582 50.5846C26.1244 51.2744 26.1496 51.9855 26.3318 52.664C26.8257 54.5658 29.087 56.4848 30.9411 56.5888C33.1071 56.7058 34.3027 55.3585 35.1864 53.6214C35.511 52.9878 35.7904 52.332 36.0225 51.659C36.5813 49.9565 36.1741 49.506 34.3807 49.8179Z" fill="#767676"/>
</g>
<defs>
<clipPath id="clip0_259_1667">
<rect width="50" height="104.076" fill="white" transform="translate(0.5)"/>
</clipPath>
</defs>
</svg>
