<svg width="79" height="80" viewBox="0 0 79 80" fill="none" xmlns="http://www.w3.org/2000/svg">
<path d="M69.2022 26.1441C69.7802 25.5646 70.1048 24.7794 70.1048 23.9608C70.1048 23.1423 69.7802 22.3571 69.2022 21.7775L66.8569 19.4322C66.2773 18.8542 65.4921 18.5296 64.6736 18.5296C63.855 18.5296 63.0699 18.8542 62.4903 19.4322L59.6204 22.3176C55.2019 18.6034 49.8389 16.1889 44.129 15.3434V11.918H45.7645C46.5958 11.9066 47.3898 11.5714 47.9777 10.9835C48.5656 10.3956 48.9008 9.6016 48.9122 8.77031V5.45293C48.9122 3.75566 47.4618 2.35156 45.7645 2.35156H33.2356C31.5383 2.35156 30.0879 3.75566 30.0879 5.45293V8.77031C30.1019 9.60077 30.438 10.3933 31.0253 10.9806C31.6126 11.5679 32.4051 11.904 33.2356 11.918H34.8711V15.3434C19.75 17.5652 8.16235 30.6188 8.16235 46.3262C8.16235 63.592 22.2188 77.633 39.4846 77.633C56.7504 77.633 70.8069 63.592 70.8069 46.3262C70.8193 40.3513 69.1047 34.5001 65.8694 29.477L69.2022 26.1441ZM64.6659 21.6232L67.0112 23.9686L64.0641 26.9156C63.3698 26.0516 62.6446 25.2184 61.8577 24.416L64.6659 21.6232ZM33.1739 8.83203V5.4375H45.8262V8.83203H33.1739ZM37.9571 11.918H41.043V15.0502C40.4258 15.0193 39.9938 15.0193 39.5 15.0193C39.0063 15.0193 38.5743 15.0348 37.9571 15.0502V11.918ZM39.5 74.5471C23.9315 74.5471 11.2792 61.8793 11.2792 46.3262C11.2792 30.773 23.9315 18.0898 39.5 18.0898C55.0686 18.0898 67.7209 30.7576 67.7209 46.3262C67.7209 61.8947 55.0686 74.5471 39.5 74.5471Z" fill="#BCBCBC"/>
<path d="M39.5001 21.1758H39.2069C25.6597 21.3301 14.6583 32.2543 14.3651 45.7707C14.2548 45.9856 14.1967 46.2235 14.1954 46.465C14.1926 46.7188 14.2564 46.9689 14.3806 47.1902C14.8435 60.5215 25.7368 71.2605 39.1298 71.4457C39.201 71.4585 39.2734 71.4637 39.3458 71.4611C39.4079 71.4637 39.4701 71.4585 39.531 71.4457C53.3868 71.4457 64.6505 60.182 64.6505 46.3262C64.6505 32.4549 53.3714 21.1758 39.5001 21.1758ZM40.8888 68.3289V65.459C40.8888 65.0498 40.7262 64.6573 40.4368 64.3679C40.1475 64.0786 39.755 63.916 39.3458 63.916C38.9366 63.916 38.5441 64.0786 38.2547 64.3679C37.9654 64.6573 37.8028 65.0498 37.8028 65.459V68.3135C26.9866 67.4803 18.3306 58.8396 17.5128 48.0234H20.213C20.6222 48.0234 21.0147 47.8609 21.304 47.5715C21.5934 47.2822 21.756 46.8897 21.756 46.4805C21.756 46.0712 21.5934 45.6788 21.304 45.3894C21.0147 45.1001 20.6222 44.9375 20.213 44.9375H17.4819C17.8216 39.6313 20.0635 34.6256 23.7962 30.839C27.5289 27.0524 32.502 24.7391 37.8028 24.3234V27.1934C37.8028 27.6026 37.9654 27.995 38.2547 28.2844C38.5441 28.5738 38.9366 28.7363 39.3458 28.7363C39.755 28.7363 40.1475 28.5738 40.4368 28.2844C40.7262 27.995 40.8888 27.6026 40.8888 27.1934V24.308C46.2466 24.6536 51.2954 26.938 55.0918 30.7345C58.8882 34.5309 61.1726 39.5797 61.5183 44.9375H58.4786C58.0694 44.9375 57.6769 45.1001 57.3876 45.3894C57.0982 45.6788 56.9356 46.0712 56.9356 46.4805C56.9356 46.8897 57.0982 47.2822 57.3876 47.5715C57.6769 47.8609 58.0694 48.0234 58.4786 48.0234H61.4874C60.6542 58.9322 51.8438 67.65 40.8888 68.3289Z" fill="#BCBCBC"/>
<path d="M48.2796 45.0916H41.0431V34.8926C41.0431 34.4834 40.8805 34.0909 40.5911 33.8015C40.3018 33.5122 39.9093 33.3496 39.5001 33.3496C39.0909 33.3496 38.6984 33.5122 38.4091 33.8015C38.1197 34.0909 37.9571 34.4834 37.9571 34.8926V46.65C37.9528 46.8492 37.9884 47.0472 38.0617 47.2325C38.135 47.4177 38.2446 47.5864 38.384 47.7287C38.5234 47.871 38.6899 47.984 38.8736 48.0611C39.0573 48.1382 39.2546 48.1778 39.4538 48.1775H48.2642C48.6734 48.1796 49.0667 48.019 49.3575 47.7311C49.6483 47.4432 49.8128 47.0515 49.8149 46.6423C49.8169 46.2331 49.6563 45.8398 49.3684 45.549C49.0805 45.2582 48.6888 45.0936 48.2796 45.0916Z" fill="#EB6220"/>
</svg>
