<svg width="79" height="80" viewBox="0 0 79 80" fill="none" xmlns="http://www.w3.org/2000/svg">
<path d="M39.5 16.5469C34.8614 16.5469 30.327 17.9224 26.4702 20.4994C22.6133 23.0765 19.6073 26.7394 17.8321 31.0249C16.057 35.3104 15.5926 40.026 16.4975 44.5755C17.4025 49.1249 19.6362 53.3039 22.9161 56.5839C26.1961 59.8638 30.3751 62.0975 34.9245 63.0025C39.474 63.9074 44.1896 63.443 48.4751 61.6679C52.7606 59.8927 56.4235 56.8867 59.0006 53.0299C61.5776 49.173 62.9531 44.6386 62.9531 40C62.9463 33.7819 60.4731 27.8205 56.0763 23.4237C51.6795 19.0269 45.7181 16.5537 39.5 16.5469ZM39.5 60.9844C35.3497 60.9844 31.2926 59.7537 27.8417 57.4479C24.3909 55.1421 21.7012 51.8648 20.113 48.0304C18.5247 44.196 18.1092 39.9767 18.9188 35.9062C19.7285 31.8356 21.7271 28.0965 24.6618 25.1618C27.5965 22.2271 31.3356 20.2285 35.4062 19.4188C39.4767 18.6091 43.696 19.0247 47.5304 20.613C51.3648 22.2012 54.6421 24.8908 56.9479 28.3417C59.2537 31.7926 60.4844 35.8497 60.4844 40C60.4782 45.5635 58.2653 50.8974 54.3313 54.8313C50.3974 58.7653 45.0635 60.9782 39.5 60.9844Z" fill="#BCBCBC"/>
<path d="M16.0469 26.4219V14.0781H13.5781V25.1875H12.3438V14.0781H9.875V25.1875H8.64062V14.0781H6.17188V25.1875H4.9375V14.0781H2.46875V32.5938C2.46968 33.3594 2.70745 34.106 3.14944 34.7312C3.59143 35.3564 4.216 35.8296 4.9375 36.0858V64.6875C4.9375 65.6696 5.32765 66.6115 6.02212 67.306C6.71659 68.0005 7.65849 68.3906 8.64062 68.3906H9.875C10.8571 68.3906 11.799 68.0005 12.4935 67.306C13.188 66.6115 13.5781 65.6696 13.5781 64.6875V36.0858C14.2996 35.8296 14.9242 35.3564 15.3662 34.7312C15.8082 34.106 16.0459 33.3594 16.0469 32.5938V26.4219ZM13.5781 32.5938C13.5781 32.9211 13.4481 33.2351 13.2166 33.4666C12.9851 33.6981 12.6711 33.8281 12.3438 33.8281C12.0164 33.8281 11.7024 33.9582 11.4709 34.1897C11.2394 34.4212 11.1094 34.7351 11.1094 35.0625V64.6875C11.1094 65.0149 10.9793 65.3288 10.7478 65.5603C10.5163 65.7918 10.2024 65.9219 9.875 65.9219H8.64062C8.31325 65.9219 7.99928 65.7918 7.76779 65.5603C7.5363 65.3288 7.40625 65.0149 7.40625 64.6875V35.0625C7.40625 34.7351 7.2762 34.4212 7.04471 34.1897C6.81322 33.9582 6.49925 33.8281 6.17188 33.8281C5.8445 33.8281 5.53053 33.6981 5.29904 33.4666C5.06755 33.2351 4.9375 32.9211 4.9375 32.5938V27.6562H13.5781V32.5938ZM75.2969 12.8438C72.3515 12.847 69.5277 14.0185 67.445 16.1012C65.3623 18.1839 64.1908 21.0077 64.1875 23.9531V40C64.1875 40.9821 64.5777 41.924 65.2721 42.6185C65.9666 43.313 66.9085 43.7031 67.8906 43.7031V67.1562C67.8906 67.4836 68.0207 67.7976 68.2522 68.0291C68.4837 68.2606 68.7976 68.3906 69.125 68.3906H75.2969C75.6243 68.3906 75.9382 68.2606 76.1697 68.0291C76.4012 67.7976 76.5312 67.4836 76.5312 67.1562V14.0781C76.5312 13.7507 76.4012 13.4368 76.1697 13.2053C75.9382 12.9738 75.6243 12.8438 75.2969 12.8438ZM74.0625 65.9219H70.3594V42.4688C70.3594 42.1414 70.2293 41.8274 69.9978 41.5959C69.7663 41.3644 69.4524 41.2344 69.125 41.2344H67.8906C67.5632 41.2344 67.2493 41.1043 67.0178 40.8728C66.7863 40.6413 66.6562 40.3274 66.6562 40V23.9531C66.6588 21.876 67.4084 19.869 68.7682 18.2988C70.1279 16.7285 72.007 15.6997 74.0625 15.4001V65.9219Z" fill="#BCBCBC"/>
<path d="M70.3594 20.25H67.8906V38.7656H70.3594V20.25Z" fill="#BCBCBC"/>
<path d="M39.5 27.6563C37.0586 27.6562 34.6721 28.3802 32.6422 29.7365C30.6123 31.0929 29.0301 33.0207 28.0959 35.2763C27.1616 37.5318 26.9172 40.0137 27.3934 42.4081C27.8697 44.8026 29.0454 47.002 30.7717 48.7283C32.498 50.4547 34.6974 51.6303 37.0919 52.1066C39.4863 52.5829 41.9682 52.3384 44.2238 51.4041C46.4793 50.4699 48.4071 48.8877 49.7635 46.8578C51.1198 44.8279 51.8438 42.4414 51.8438 40C51.8402 36.7273 50.5385 33.5897 48.2244 31.2756C45.9103 28.9615 42.7727 27.6598 39.5 27.6563ZM39.5 49.875C37.5469 49.875 35.6377 49.2958 34.0138 48.2108C32.3898 47.1257 31.1241 45.5834 30.3767 43.779C29.6293 41.9746 29.4337 39.989 29.8148 38.0735C30.1958 36.1579 31.1363 34.3984 32.5173 33.0173C33.8984 31.6363 35.6579 30.6958 37.5735 30.3147C39.4891 29.9337 41.4746 30.1293 43.279 30.8767C45.0834 31.6241 46.6257 32.8898 47.7108 34.5137C48.7958 36.1377 49.375 38.0469 49.375 40C49.3721 42.6181 48.3307 45.1281 46.4794 46.9794C44.6282 48.8307 42.1181 49.8721 39.5 49.875Z" fill="#EB6220"/>
</svg>
