<?xml version="1.0" encoding="utf-8"?>
<!-- Generator: Adobe Illustrator 27.0.0, SVG Export Plug-In . SVG Version: 6.00 Build 0)  -->
<svg version="1.1" id="그룹_5" xmlns="http://www.w3.org/2000/svg" xmlns:xlink="http://www.w3.org/1999/xlink" x="0px" y="0px"
	 viewBox="0 0 70.5 69.1" style="enable-background:new 0 0 70.5 69.1;" xml:space="preserve">
<style type="text/css">
	.st0{fill:none;stroke:#FFFFFF;}
	.st1{fill:none;stroke:#FFFFFF;stroke-width:2;stroke-linejoin:round;}
	.st2{clip-path:url(#SVGID_00000156545657928842105470000006006718494725338524_);}
	.st3{fill:#1D1D1D;stroke:#FFFFFF;}
	.st4{fill:#1D1D1D;stroke:#FFFFFF;stroke-width:2;}
	.st5{opacity:5.000000e-02;fill:#1D1D1D;stroke:#FFFFFF;stroke-width:2;stroke-linejoin:round;}
	.st6{fill:#1D1D1D;stroke:#FFFFFF;stroke-width:2;stroke-linejoin:round;}
</style>
<path id="패스_5" class="st0" d="M35.3,3.5L35.3,3.5z"/>
<line id="선_1" class="st1" x1="35.3" y1="3.5" x2="62.5" y2="3.5"/>
<g id="그룹_4">
	<g>
		<defs>
			<rect id="SVGID_1_" y="0" width="70.5" height="69.1"/>
		</defs>
		<clipPath id="SVGID_00000047753194147222089840000001412407849191839125_">
			<use xlink:href="#SVGID_1_"  style="overflow:visible;"/>
		</clipPath>
		<g id="그룹_3" style="clip-path:url(#SVGID_00000047753194147222089840000001412407849191839125_);">
			<path id="패스_6" class="st3" d="M60.7,3.5c0,1,0.8,1.8,1.8,1.8c1,0,1.8-0.8,1.8-1.8s-0.8-1.8-1.8-1.8l0,0
				C61.5,1.7,60.7,2.5,60.7,3.5"/>
			<path id="패스_36" class="st4" d="M62.5,1.7c1,0,1.8,0.8,1.8,1.8s-0.8,1.8-1.8,1.8c-1,0-1.8-0.8-1.8-1.8S61.5,1.7,62.5,1.7
				C62.5,1.7,62.5,1.7,62.5,1.7z"/>
			<path id="패스_7" class="st5" d="M3.5,35.7C3.4,18.2,17.6,3.9,35.1,3.8s31.8,14,31.9,31.6c0,0.1,0,0.2,0,0.4"/>
			<path id="패스_8" class="st3" d="M46.2,38L35.3,52.5L24.4,38l10.9-27.8L46.2,38z"/>
			<path id="패스_9" class="st6" d="M46.2,38L35.3,52.5L24.4,38l10.9-27.8L46.2,38z"/>
			<rect id="사각형_6" x="26.4" y="48" class="st3" width="17.8" height="6.3"/>
			<rect id="사각형_7" x="26.4" y="48" class="st6" width="17.8" height="6.3"/>
			<path id="패스_10" class="st3" d="M25.8,69l1.6-14.8h15.8L44.7,69"/>
			<path id="패스_11" class="st6" d="M25.8,69l1.6-14.8h15.8L44.7,69"/>
			<line id="선_2" class="st0" x1="35.3" y1="10.2" x2="35.3" y2="35.7"/>
			<line id="선_3" class="st1" x1="35.3" y1="10.2" x2="35.3" y2="35.7"/>
			<path id="패스_12" class="st3" d="M37.4,35.7c0,1.2-0.9,2.1-2.1,2.1s-2.1-0.9-2.1-2.1c0-1.2,0.9-2.1,2.1-2.1h0
				C36.4,33.6,37.4,34.6,37.4,35.7"/>
			<circle id="타원_3" class="st6" cx="35.3" cy="35.7" r="2.1"/>
			<rect id="사각형_8" x="0.9" y="33.1" class="st3" width="5.3" height="5.3"/>
			<rect id="사각형_9" x="0.9" y="33.1" class="st6" width="5.3" height="5.3"/>
			<rect id="사각형_10" x="64.4" y="33.1" class="st3" width="5.3" height="5.3"/>
			<rect id="사각형_11" x="64.4" y="33.1" class="st6" width="5.3" height="5.3"/>
			<line id="선_4" class="st0" x1="35.3" y1="3.5" x2="8" y2="3.5"/>
			<line id="선_5" class="st1" x1="35.3" y1="3.5" x2="8" y2="3.5"/>
			<rect id="사각형_12" x="32.6" y="0.9" class="st3" width="5.3" height="5.3"/>
			<rect id="사각형_13" x="32.6" y="0.9" class="st6" width="5.3" height="5.3"/>
			<path id="패스_13" class="st3" d="M9.8,3.5c0,1-0.8,1.8-1.8,1.8c-1,0-1.8-0.8-1.8-1.8c0-1,0.8-1.8,1.8-1.8
				C9,1.7,9.8,2.5,9.8,3.5C9.8,3.5,9.8,3.5,9.8,3.5"/>
			<circle id="타원_4" class="st6" cx="8" cy="3.5" r="1.8"/>
		</g>
	</g>
</g>
</svg>
