<svg id="그룹_16" data-name="그룹 16" xmlns="http://www.w3.org/2000/svg" xmlns:xlink="http://www.w3.org/1999/xlink" width="60.995" height="77.622" viewBox="0 0 60.995 77.622">
  <defs>
    <clipPath id="clip-path">
      <rect id="사각형_25" data-name="사각형 25" width="60.995" height="77.622" fill="none" stroke="#fff" stroke-width="2"/>
    </clipPath>
  </defs>
  <g id="그룹_15" data-name="그룹 15" clip-path="url(#clip-path)">
    <path id="패스_20" data-name="패스 20" d="M30.439,39.613c2.24-1.029,4.795-1.013,7.226-1.418.2-.033.4-.08.6-.12a41.982,41.982,0,0,0-6.114-4.152s1.251-5.065,7.542-6.344,15.517-3.553,14.368-9.532S61.1,7.653,61.1,7.653L57.088,2s-8.133,8.78-17.607,9.332c0,0,2.3,3.772.276,5.151S29.73,15.931,27.063,12.8c0,0-11.309,11.7-25.063,15.1,0,0,4.916,5.377,10.482,4.937A30.356,30.356,0,0,1,5.2,43.17S10.07,48.9,15.025,46.3a6.468,6.468,0,0,1,7.309,1.134c2.713-2.6,4.678-6.252,8.1-7.826" transform="translate(-1.051 -1.051)" fill="none" stroke="#fff" stroke-width="2"/>
    <path id="패스_21" data-name="패스 21" d="M30.439,39.613c2.24-1.029,4.795-1.013,7.226-1.418.2-.033.4-.08.6-.12a41.982,41.982,0,0,0-6.114-4.152s1.251-5.065,7.542-6.344,15.517-3.553,14.368-9.532S61.1,7.653,61.1,7.653L57.088,2s-8.133,8.78-17.607,9.332c0,0,2.3,3.772.276,5.151S29.73,15.931,27.063,12.8c0,0-11.309,11.7-25.063,15.1,0,0,4.916,5.377,10.482,4.937A30.356,30.356,0,0,1,5.2,43.17S10.07,48.9,15.025,46.3a6.468,6.468,0,0,1,7.309,1.134C25.047,44.842,27.012,41.186,30.439,39.613Z" transform="translate(-1.051 -1.051)" fill="none" stroke="#fff" stroke-linecap="round" stroke-linejoin="round" stroke-width="2"/>
    <path id="패스_22" data-name="패스 22" d="M42.622,95.051s-4.512-1.026-6.443,2.838c0,0,9.953,3.594-1.785,19.8,0,0,34.9-1.176,36.692-17.319l-2.9.69s-.59-12.936-12.9-23.02c-.2.04-.4.086-.6.12-2.431.405-4.986.389-7.226,1.418-3.427,1.574-5.392,5.23-8.1,7.826a9.419,9.419,0,0,1,3.262,7.645" transform="translate(-18.077 -41.018)" fill="none" stroke="#fff" stroke-width="2"/>
    <path id="패스_23" data-name="패스 23" d="M42.622,95.051s-4.512-1.026-6.443,2.838c0,0,9.953,3.594-1.785,19.8,0,0,34.9-1.176,36.692-17.319l-2.9.69s-.59-12.936-12.9-23.02c-.2.04-.4.086-.6.12-2.431.405-4.986.389-7.226,1.418-3.427,1.574-5.392,5.23-8.1,7.826A9.419,9.419,0,0,1,42.622,95.051Z" transform="translate(-18.077 -41.018)" fill="none" stroke="#fff" stroke-linecap="round" stroke-linejoin="round" stroke-width="2"/>
  </g>
</svg>
