<svg xmlns="http://www.w3.org/2000/svg" xmlns:xlink="http://www.w3.org/1999/xlink" width="66.019" height="51.265" viewBox="0 0 66.019 51.265">
  <defs>
    <clipPath id="clip-path">
      <rect id="사각형_422" data-name="사각형 422" width="66.019" height="51.265" fill="#fff"/>
    </clipPath>
  </defs>
  <g id="그룹_699" data-name="그룹 699" transform="translate(-4 -3)">
    <g id="그룹_698" data-name="그룹 698" transform="translate(4 3)" clip-path="url(#clip-path)">
      <path id="패스_38" data-name="패스 38" d="M30.682,48.752C13.476,48.752,0,41.1,0,31.328V19.565a1.136,1.136,0,1,1,2.273,0V31.328c0,8.355,12.744,15.151,28.409,15.151s28.409-6.8,28.409-15.151V19.565a1.136,1.136,0,1,1,2.273,0V31.328c0,9.771-13.476,17.424-30.682,17.424" transform="translate(0 2.514)" fill="#fff"/>
      <path id="패스_39" data-name="패스 39" d="M30.682,38.944C13.764,38.944,0,31.128,0,21.52S13.764,4.095,30.682,4.095a1.136,1.136,0,0,1,1.136,1.136V20.384H60.228a1.136,1.136,0,0,1,1.136,1.136c0,9.608-13.764,17.424-30.682,17.424M29.546,6.38C14.406,6.7,2.273,13.368,2.273,21.52c0,8.355,12.744,15.151,28.409,15.151,14.948,0,27.237-6.189,28.331-14.015H30.682a1.136,1.136,0,0,1-1.136-1.136Z" transform="translate(0 0.559)" fill="#fff"/>
      <path id="패스_40" data-name="패스 40" d="M60.778,18.56H31.232A1.136,1.136,0,0,1,30.1,17.424V1.136A1.136,1.136,0,0,1,31.232,0C48.438,0,61.914,7.653,61.914,17.424a1.136,1.136,0,0,1-1.136,1.136M32.369,16.288H59.563C58.5,8.661,46.8,2.589,32.369,2.285Z" transform="translate(4.104 0)" fill="#fff"/>
      <path id="패스_41" data-name="패스 41" d="M57.791,28.079H53.136a1.136,1.136,0,1,1,0-2.273h3.518V15.469a1.136,1.136,0,0,1,2.273,0V26.942a1.136,1.136,0,0,1-1.136,1.136" transform="translate(7.091 1.955)" fill="#fff"/>
      <path id="패스_42" data-name="패스 42" d="M31.232,21.26A1.136,1.136,0,0,1,30.1,20.124V15.469a1.136,1.136,0,0,1,2.273,0v4.655a1.136,1.136,0,0,1-1.136,1.136" transform="translate(4.104 1.955)" fill="#fff"/>
    </g>
  </g>
</svg>
