<?xml version="1.0" encoding="utf-8"?>
<!-- Generator: Adobe Illustrator 27.0.0, SVG Export Plug-In . SVG Version: 6.00 Build 0)  -->
<svg version="1.1" id="Layer_1" xmlns="http://www.w3.org/2000/svg" xmlns:xlink="http://www.w3.org/1999/xlink" x="0px" y="0px"
	 viewBox="0 0 559.8 593.4" style="enable-background:new 0 0 559.8 593.4;" xml:space="preserve">
<style type="text/css">
	.st0{fill:#EDEDEE;}
	.st1{clip-path:url(#SVGID_00000080193117375187826470000012718418567412903826_);}
</style>
<path class="st0" d="M154.4,6.8v315.5c0,0,73.1-34.5,73.1-84.6c0-50.1,0-230.9,0-230.9H154.4z"/>
<path class="st0" d="M83,320.2c0,0-10.3-9.7-14.1-27.7c6.2-6.5,10-15.3,10-25.1c0-19.7-15.7-35.8-34.9-35.8s-34.9,16-34.9,35.8
	c0,12.2,6,23,15.2,29.4C24.3,296.9,50.1,318.3,83,320.2z"/>
<g>
	<g>
		<defs>
			<rect id="SVGID_1_" x="135" y="272.6" width="423.9" height="319.5"/>
		</defs>
		<clipPath id="SVGID_00000178182267778678338960000012858317570522969516_">
			<use xlink:href="#SVGID_1_"  style="overflow:visible;"/>
		</clipPath>
		
			<g id="그룹_30_00000115499087171368485870000005391839252433129875_" style="clip-path:url(#SVGID_00000178182267778678338960000012858317570522969516_);">
			<path id="패스_32_00000128462341858080742390000010042556844697944225_" class="st0" d="M290,272.6L179.6,496.8l50.6,95.2
				l150-319.4H290z"/>
			<path id="패스_33_00000042718489533576955150000001379915871712763810_" class="st0" d="M468.7,272.6L358.2,496.8l50.6,95.2
				l150-319.4H468.7z"/>
			<g id="그룹_29_00000127010850276403231700000004638873457954716322_" transform="translate(0 -0.002)">
				<g>
					<g>
						<defs>
							<rect id="SVGID_00000035497713479774322650000007915191250094534025_" x="135" y="272.6" width="423.9" height="319.5"/>
						</defs>
						<clipPath id="SVGID_00000177456508086600011380000001588916697325041300_">
							<use xlink:href="#SVGID_00000035497713479774322650000007915191250094534025_"  style="overflow:visible;"/>
						</clipPath>
					</g>
				</g>
			</g>
		</g>
	</g>
</g>
<polygon class="st0" points="323.3,409.9 318.9,420.2 353.8,484.9 358.2,475.2 "/>
<polygon class="st0" points="136.1,398.1 136.3,419.7 173.4,486.6 177.8,476.9 "/>
</svg>
