<svg width="88" height="45" viewBox="0 0 88 45" fill="none" xmlns="http://www.w3.org/2000/svg">
<path d="M20.5312 0.6875V44.3135C20.5312 44.3135 30.634 39.5446 30.634 32.6122C30.634 25.6797 30.634 0.6875 30.634 0.6875H20.5312Z" fill="#E51A1F"/>
<path d="M52.1583 0.96875H64.0384L44.2815 44.0295L37.6211 31.189L52.1583 0.96875Z" fill="#E51A1F"/>
<path d="M75.6943 0.96875H87.5657L67.8088 44.0295L61.1484 31.189L75.6943 0.96875Z" fill="#E51A1F"/>
<path d="M10.6532 44.0291C10.6532 44.0291 9.22969 42.6867 8.70341 40.2052C9.56616 39.3132 10.0924 38.0857 10.0924 36.7345C10.0924 34.0057 7.92694 31.7891 5.26106 31.7891C2.59518 31.7891 0.429688 34.0057 0.429688 36.7345C0.429688 38.4213 1.25792 39.9137 2.52616 40.8057C2.53479 40.8057 6.09792 43.7641 10.6532 44.0291Z" fill="#E51A1F"/>
<path opacity="0.5" d="M37.4174 28.7249L31.7578 17.8008V20.1675L36.8308 29.9613L37.4174 28.7249Z" fill="#E51A1F"/>
<path opacity="0.5" d="M61.1491 28.3558L56.5507 19.4805L55.9727 20.7345L60.5711 29.5922L61.1491 28.3558Z" fill="#E51A1F"/>
</svg>
