<svg width="94" height="30" viewBox="0 0 94 30" fill="none" xmlns="http://www.w3.org/2000/svg">
<g clip-path="url(#clip0_650_2165)">
<path d="M8.51988 19.9453C8.51774 19.9108 8.50819 19.8772 8.49192 19.8468C8.4757 19.8163 8.45308 19.7898 8.42569 19.769C7.52883 19.0771 5.336 18.0325 1.82929 16.6578C1.82929 16.6578 -0.00927734 15.9252 -0.00927734 13.9852C-0.00927734 12.3075 3.2239 10.3223 9.85621 7.91202C10.2052 7.78856 10.5716 7.7229 10.9414 7.71758C11.2513 7.68644 11.5629 7.75785 11.829 7.92096C12.0952 8.08412 12.3015 8.33019 12.4167 8.622C12.4986 8.88324 12.5206 9.15978 12.481 9.43086C12.4413 9.70189 12.3412 9.96033 12.188 10.1866C11.7127 10.8695 10.5423 11.3488 8.76204 12.0633L5.05796 13.8721C4.60955 14.0892 4.99522 14.3244 4.99522 14.3244C9.61405 15.8438 11.8338 17.6436 11.8651 19.8323C11.8949 20.3451 11.8239 20.8588 11.6561 21.3438C11.4883 21.8288 11.2272 22.2757 10.8876 22.6586C10.7799 22.7536 10.6051 22.9344 10.5647 22.9751C10.1656 23.364 9.84275 23.6128 9.45707 23.9338C8.80274 24.5018 8.0954 25.0046 7.34498 25.4352C6.71981 25.7567 6.06104 26.0069 5.38086 26.1813L5.25532 26.2175C4.12973 26.543 1.01314 26.6697 0.658883 25.1005C0.48848 24.3182 1.06247 23.9655 1.70821 23.7439C2.42122 23.4906 3.09386 23.2465 3.79342 22.9797C4.12973 22.8575 4.41673 22.6902 4.71718 22.5591C5.52796 22.2524 6.29418 21.8372 6.99522 21.3246C8.43466 20.2709 8.51988 19.9453 8.51988 19.9453Z" fill="white"/>
<path d="M23.8834 23.0696C23.8917 23.1918 23.8744 23.3144 23.8326 23.4293C23.7908 23.5443 23.7255 23.6492 23.6409 23.737C23.5563 23.8249 23.4543 23.8938 23.3416 23.9393C23.2289 23.9849 23.1079 24.0059 22.9866 24.0012L23.5202 26.8366V27.343C23.5202 27.343 23.5202 27.3656 23.5202 27.3792C23.4126 27.7229 23.018 27.9987 22.3005 28.2384C22.2889 28.243 22.2761 28.243 22.2646 28.2384C21.5381 28.2113 20.7713 27.0129 19.991 24.6795C18.8766 24.8131 17.7774 25.0538 16.7085 25.3985C16.7085 25.3985 14.3767 26.1175 14.1749 26.2035C14.1911 26.3538 14.1911 26.5054 14.1749 26.6557C14.1749 27.3747 13.7713 27.7229 12.9372 27.7229H12.3812C11.8879 27.7229 11.4125 26.8185 10.9776 25.0639C10.9728 25.0582 10.9702 25.051 10.9702 25.0435C10.9702 25.0361 10.9728 25.0289 10.9776 25.0232C11.0045 24.8016 11.426 24.3946 12.2108 23.8113C14.1211 17.7969 15.8475 14.7671 17.3184 14.7671H17.4888C18.8789 14.7671 20.1794 16.6121 21.7309 21.202L22.1794 21.0754C22.3394 21.0363 22.5035 21.0166 22.6682 21.0166C23.1749 21.0166 23.6906 21.2382 23.6906 21.7402C23.7811 22.1791 23.8454 22.623 23.8834 23.0696ZM15.3632 22.9204H15.5516L18.7534 21.9618V21.7809C18.009 19.6102 17.4529 19.0676 17.1435 19.0676H17.13L15.3632 22.9204Z" fill="white"/>
<path d="M59.4483 23.0471C59.4521 23.1669 59.4311 23.2862 59.3877 23.3976C59.3438 23.5091 59.278 23.6103 59.194 23.695C59.11 23.7798 59.0093 23.8462 58.8991 23.8903C58.7884 23.9345 58.6701 23.9553 58.5512 23.9515L59.0804 26.7824C59.0804 26.7824 59.0804 26.7824 59.0804 26.805V27.3114C59.0804 27.3114 59.0804 27.3341 59.0804 27.3476C58.9773 27.6913 58.5784 27.9717 57.8651 28.2068C57.8522 28.2103 57.8379 28.2103 57.825 28.2068C57.1031 28.2068 56.3272 26.9859 55.5514 24.648C54.4353 24.7816 53.335 25.0223 52.2642 25.367C52.2642 25.367 49.9414 26.0905 49.7353 26.1764C49.7486 26.3269 49.7486 26.4782 49.7353 26.6286C49.7353 27.3386 49.3316 27.6913 48.4975 27.6913H47.9641C47.4706 27.6913 46.9908 26.7869 46.5603 25.0368C46.5561 25.0221 46.5561 25.0064 46.5603 24.9916C46.5872 24.77 47.0087 24.3585 47.7933 23.7752C49.7129 17.7608 51.4301 14.731 52.9055 14.731H53.0806C54.4706 14.731 55.7708 16.5715 57.3183 21.1659L57.7668 21.0393C57.9295 20.9999 58.0965 20.9802 58.2645 20.9805C58.7664 20.9805 59.2865 21.2021 59.2865 21.704C59.3696 22.1477 59.4235 22.5963 59.4483 23.0471ZM50.9282 22.8888H51.1209L54.3317 21.9347V21.7538C53.5826 19.5832 53.031 19.0405 52.7127 19.0405H52.6813L50.9282 22.8888Z" fill="white"/>
<path d="M28.2778 24.4944C27.9415 25.851 27.7801 26.3033 27.2106 26.5067H26.6321C25.4258 26.5067 24.8384 25.6295 24.8384 23.8342V23.382C24.8384 18.7739 25.529 15.4819 27.1971 12.0043C27.2032 11.9888 27.2128 11.9749 27.2253 11.9638C27.2378 11.9528 27.2527 11.945 27.2689 11.9411L28.2016 11.7285H28.2509C29.7622 11.7285 30.8877 14.0393 31.7935 18.9639C31.7935 18.9639 31.8249 19.095 31.8743 19.095C31.9236 19.095 31.9774 19.0136 31.9908 18.9639C33.0492 15.4457 34.233 13.7363 35.5783 13.7363C37.5155 13.7363 38.6097 16.3003 39.1343 22.0525V24.2773C39.1343 25.037 38.9415 25.4802 38.5514 25.5978C38.5514 25.5978 38.5514 25.5978 38.52 25.5978H37.9146C36.937 25.5978 36.3317 24.6934 36.1209 22.9524C35.7307 20.2391 35.4034 18.9548 35.1388 18.9548C34.0267 22.8303 32.8967 24.716 31.7711 24.716C30.5245 24.716 29.4213 22.7579 28.4169 18.7242C28.4169 18.7242 28.3855 18.6157 28.3137 18.6157C28.3002 18.6163 28.2868 18.6195 28.2746 18.6253C28.2623 18.6311 28.2512 18.6392 28.2421 18.6493C28.2329 18.6594 28.2258 18.6712 28.2212 18.684C28.2165 18.6969 28.2145 18.7105 28.2151 18.7242L28.0133 22.4956L28.2196 23.5041C28.3463 23.8188 28.3668 24.1668 28.2778 24.4944Z" fill="white"/>
<path d="M69.0583 23.8025H68.8474C68.8297 23.8084 68.8111 23.8084 68.7935 23.8025C67.8115 23.2553 65.9324 21.139 63.2017 17.5213C63.4569 17.8559 63.1072 19.2804 63.0356 19.6919C62.9416 20.3024 63.0356 21.0485 62.8161 21.6319C62.6544 22.0841 62.2869 22.9388 61.7621 22.9885C59.1835 23.1377 59.9369 19.2894 60.2018 17.8966C60.4795 16.4269 60.6813 14.9528 60.8698 13.4695C60.865 13.4547 60.865 13.439 60.8698 13.4243C61.3632 12.5198 61.9906 12.0676 62.7173 12.0676H63.1344C63.1516 12.0676 63.1687 12.0717 63.1845 12.0796C63.2002 12.0874 63.2136 12.0988 63.2241 12.1128L68.6098 19.1583V17.5032C68.6098 11.4345 69.3002 8.45898 70.7174 8.45898H71.1296C71.1463 8.46051 71.1621 8.46526 71.1769 8.47306C71.1917 8.48081 71.2045 8.49141 71.215 8.5042L71.8516 9.24584C71.8621 9.25563 71.8702 9.26756 71.8759 9.28083C71.8811 9.29409 71.8835 9.30835 71.8831 9.32271V16.6847C71.8606 21.4103 70.9101 23.8025 69.0583 23.8025Z" fill="white"/>
<path d="M75.8741 21.5731C76.7173 22.9298 78.1435 23.59 80.1118 23.5222L81.3228 23.486C81.3333 23.4811 81.3447 23.4786 81.3562 23.4786C81.3681 23.4786 81.3796 23.4811 81.3901 23.486L81.9865 23.8568H82.2017L82.9594 21.9485H82.7576L79.8832 22.473C79.8612 22.4797 79.8379 22.4797 79.8159 22.473C79.2109 22.2288 78.8654 21.962 78.7891 21.6907C78.7872 21.6865 78.7862 21.6818 78.7862 21.6772C78.7862 21.6724 78.7872 21.6678 78.7891 21.6636L78.7666 20.8812C78.7614 20.8605 78.7614 20.8387 78.7666 20.8179C79.3946 19.6919 81.6053 19.0679 85.3271 18.9413H85.3676C85.6306 19.0091 85.8777 19.1297 86.0934 19.296C86.3091 19.4623 86.4894 19.6708 86.623 19.909C86.6297 19.9265 86.6297 19.9458 86.623 19.9633V20.7411C86.6254 20.7606 86.6254 20.7803 86.623 20.7998L83.9328 26.7509C83.9891 27.3417 83.9032 27.9375 83.6814 28.4874C83.6069 28.6664 83.4824 28.8198 83.3235 28.9289C83.1641 29.0381 82.9771 29.0984 82.7848 29.1024H82.1926C82.1736 29.1071 82.1535 29.1071 82.1344 29.1024C81.8267 28.9543 81.5652 28.7244 81.3772 28.4377C81.1892 28.1509 81.0818 27.8179 81.067 27.4744L81.4216 25.3853L78.7309 26.1178H78.7041C75.5425 26.2264 73.4616 24.6662 72.5335 21.5053V21.4736V21.2747C72.4395 18.48 74.7309 15.717 79.3364 13.0716C79.3364 13.0716 80.3499 12.4521 82.2871 12.547C83.0267 12.5742 83.7129 12.9992 84.3542 13.9036C84.6409 14.3061 84.4081 15.2241 84.4081 15.2241C84.0717 15.9205 83.8384 16.219 83.1031 16.2461H82.9236L81.4841 15.9612C81.3457 15.9301 81.2006 15.946 81.0718 16.0064C78.9408 16.785 77.1586 18.3096 76.0492 20.3024C76.0492 20.3024 75.6456 21.1526 75.8741 21.5731Z" fill="white"/>
<path d="M44.9819 28.8174L44.3945 29.1566C44.3784 29.1612 44.3613 29.1612 44.3452 29.1566H43.946C43.8224 29.1302 43.7041 29.0828 43.5963 29.0164L42.9775 28.4828C42.8097 28.2476 42.7245 27.9628 42.7353 27.6733L42.8519 23.8566C42.8649 23.3408 42.9173 22.8268 43.0089 22.3191L43.6815 18.819C39.2241 16.2369 37.4034 13.3925 37.4034 11.2807V11.2309C37.3987 11.2116 37.3987 11.1914 37.4034 11.1721L37.4304 11.1314C37.5779 10.8645 37.796 10.6441 38.0605 10.4948C38.3249 10.3454 38.6253 10.2731 38.9281 10.2858H38.9954C39.0245 10.2874 39.0518 10.3004 39.0716 10.322L39.1164 10.3582L44.0088 15.8751L44.4169 16.0967C44.5107 15.7898 44.6199 15.488 44.7443 15.1923C44.8294 15.0114 44.9012 14.817 44.973 14.6225C45.0742 14.2242 45.2426 13.8464 45.4707 13.5055C45.6501 13.1347 45.8295 12.7323 46.0313 12.3072C46.6546 10.9777 47.2779 9.63918 47.937 8.32776C48.0401 8.10351 48.1651 7.88996 48.3092 7.69014C48.4967 7.48966 48.7057 7.31067 48.9324 7.15654C49.1065 7.00246 49.2941 6.86469 49.493 6.74503C49.6767 6.67258 49.8752 6.64619 50.0718 6.66815C50.372 6.66815 50.6726 6.66815 50.9684 6.66815C51.834 6.66815 52.4123 6.9621 52.6862 7.5364V7.55898V7.63585V8.08806C52.6871 8.1086 52.6824 8.12904 52.6719 8.14673C52.6614 8.16446 52.6461 8.17867 52.6275 8.18756L52.5426 8.24186C51.3678 8.92469 48.91 13.076 48.8207 13.795V13.8176C46.9416 17.4353 45.5156 23.4723 45.1837 28.2385C45.1674 28.4459 45.0978 28.6454 44.9819 28.8174Z" fill="white"/>
<path d="M86.69 0.5C86.3374 0.504886 85.9871 0.559686 85.6498 0.662796C84.4502 1.0561 83.3327 1.66932 82.3541 2.47164C81.1736 3.38624 80.257 4.60246 79.6992 5.99436C79.2239 7.27863 79.2955 8.45888 79.9053 9.31358C80.2302 9.71539 80.6411 10.038 81.1068 10.2572C81.573 10.4765 82.0821 10.5867 82.596 10.5798C83.9144 10.6431 84.0847 9.61656 84.0847 9.61656C84.3357 8.73928 83.5961 7.97958 81.8831 7.35551C81.759 7.30996 81.6507 7.22933 81.5711 7.12327C81.4914 7.0172 81.4436 6.89022 81.4336 6.75758C81.4241 6.6249 81.4522 6.49216 81.5152 6.37521C81.5782 6.25831 81.6732 6.16218 81.7886 6.09838C81.8702 6.05564 81.9599 6.02997 82.0516 6.02298C82.1432 6.01599 82.2353 6.02778 82.3226 6.05768C83.6481 6.45784 84.7871 7.32432 85.5334 8.49958L85.8383 9.02866V4.32118C85.8535 4.107 85.949 3.90668 86.105 3.76047C86.261 3.61425 86.4662 3.53298 86.679 3.53298C86.8918 3.53298 87.097 3.61425 87.253 3.76047C87.4091 3.90668 87.504 4.107 87.5198 4.32118V9.00608L87.8247 8.477C88.5719 7.30278 89.7104 6.43668 91.0355 6.03505C91.2049 5.97981 91.389 5.99365 91.5484 6.07361C91.7083 6.15357 91.8304 6.2933 91.8886 6.46292C91.9473 6.6325 91.9378 6.81853 91.8624 6.98112C91.7865 7.14371 91.6505 7.26998 91.484 7.33288C89.771 7.95695 89.0309 8.71665 89.2776 9.59392C89.2776 9.59392 89.457 10.6205 90.7711 10.5572C91.9592 10.4983 92.9188 10.0688 93.4613 9.29095C94.0802 8.4363 94.1565 7.256 93.6813 5.97173C93.1063 4.57977 92.1783 3.36484 90.9906 2.44902C90.0234 1.65713 88.9198 1.05162 87.735 0.662796C87.3957 0.561569 87.044 0.506813 86.69 0.5Z" fill="white"/>
</g>
<defs>
<clipPath id="clip0_650_2165">
<rect width="94" height="29" fill="white" transform="translate(0 0.5)"/>
</clipPath>
</defs>
</svg>
