<svg width="291" height="291" viewBox="0 0 291 291" fill="none" xmlns="http://www.w3.org/2000/svg">
<g clip-path="url(#clip0_1086_6840)">
<path d="M145.408 3.44015e-07C116.649 -0.0019775 88.534 8.52449 64.6202 24.5011C40.7063 40.4778 22.0672 63.187 11.0599 89.7571C0.0526218 116.327 -2.82841 145.565 2.78114 173.772C8.39069 201.979 22.2389 227.89 42.5744 248.227C62.91 268.564 88.8195 282.414 117.027 288.025C145.234 293.637 174.471 290.758 201.042 279.752C227.613 268.747 250.323 250.109 266.302 226.197C282.28 202.284 290.808 174.17 290.808 145.41C290.808 106.847 275.49 69.8625 248.222 42.5931C220.955 15.3238 183.972 0.00265239 145.408 3.44015e-07V3.44015e-07ZM145.408 189C136.776 189.008 128.335 186.455 121.154 181.664C113.973 176.873 108.374 170.059 105.067 162.085C101.76 154.111 100.893 145.335 102.575 136.868C104.257 128.401 108.413 120.623 114.517 114.519C120.621 108.415 128.399 104.259 136.866 102.576C145.333 100.894 154.109 101.762 162.083 105.069C170.057 108.376 176.871 113.974 181.662 121.155C186.453 128.336 189.006 136.777 188.998 145.41C188.99 156.968 184.395 168.051 176.222 176.224C168.049 184.397 156.967 188.992 145.408 189Z" fill="#EB5D63"/>
</g>
<defs>
<clipPath id="clip0_1086_6840">
<rect width="290.81" height="290.81" fill="white"/>
</clipPath>
</defs>
</svg>
