<svg width="303" height="368" viewBox="0 0 303 368" fill="none" xmlns="http://www.w3.org/2000/svg">
<g clip-path="url(#clip0_1086_6824)">
<path d="M300.081 265.58C299.661 264.98 299.261 264.38 298.841 263.79C282.991 240.79 267.621 217.42 249.761 195.87C235.201 178.29 218.911 162.78 197.761 153.25C181.891 146.11 165.101 143.19 147.861 142.46C144.501 142.32 143.861 141.46 144.451 138.04C146.806 125.241 146.806 112.119 144.451 99.32C138.451 65.86 122.371 37.32 101.671 10.93C97.861 6.18 93.911 1.88 88.001 0H85.001C70.621 6.53 68.911 14.54 79.001 26.85C92.591 43.43 103.741 61.48 111.211 81.67C117.211 97.98 120.521 114.75 117.501 132.09C115.651 142.71 117.501 142.67 105.731 139.09C82.731 132.09 66.161 116.44 51.851 98C41.6617 84.8202 33.1966 70.3936 26.661 55.07C24.001 49 19.001 45.77 13.001 46.07C10.2433 46.2323 7.5973 47.2162 5.40348 48.895C3.20967 50.5737 1.56843 52.8706 0.690973 55.49C-0.589027 59.33 0.000973105 63 1.63097 66.63C10.4411 86.9748 22.2044 105.909 36.541 122.82C53.391 142.52 73.161 158.23 98.471 165.62C103.041 166.96 103.571 168.03 101.691 172.26C89.691 199.11 86.121 226.87 94.361 255.47C105.361 293.8 126.951 327.06 146.361 361.35C149.411 366.75 156.551 368.29 162.361 366.07C165.087 365.009 167.398 363.1 168.954 360.624C170.51 358.147 171.228 355.236 171.001 352.32C170.851 348.99 169.201 346.32 167.651 343.56C154.271 319.98 140.721 296.5 129.311 271.85C115.171 241.3 113.141 210.85 128.181 179.94C133.121 169.79 132.881 169.77 144.101 169.83C173.401 169.98 198.331 180.09 218.351 201.83C227.07 211.228 235.199 221.157 242.691 231.56C253.621 246.86 264.291 262.35 275.121 277.72C275.561 278.35 276.021 278.94 276.491 279.5C277.745 281.353 279.407 282.892 281.351 284C283.9 285.455 286.851 286.046 289.763 285.686C292.676 285.325 295.394 284.032 297.511 282C302.001 277.76 303.651 270.64 300.081 265.58Z" fill="#EB5D63"/>
</g>
<defs>
<clipPath id="clip0_1086_6824">
<rect width="302.02" height="367.05" fill="white"/>
</clipPath>
</defs>
</svg>
