<svg width="206" height="61" viewBox="0 0 206 61" fill="none" xmlns="http://www.w3.org/2000/svg">
<path d="M43.0381 22.1335C43.0381 25.1501 43.104 28.1585 43.0216 31.1751C42.8651 37.3668 40.5002 42.6335 36.1742 46.9751C32.9771 50.1835 29.129 52.2585 24.6794 53.0668C23.1303 53.3501 21.5399 53.4751 19.9661 53.4835C13.9015 53.5335 7.83683 53.4918 1.76395 53.5168C1.00587 53.5168 0.742188 53.3085 0.742188 52.5168C0.766907 46.4085 0.742188 40.3001 0.758668 34.1918C0.775148 28.7001 2.38195 23.7168 5.81803 19.4418C9.22115 15.2001 13.5636 12.3418 18.9361 11.4168C21.4081 10.9918 23.946 10.9418 26.4592 10.8335C28.5769 10.7418 30.7028 10.8335 32.8205 10.8085C33.3726 10.8001 33.6033 10.9835 33.5868 11.5501C33.5621 12.4418 33.5456 13.3418 33.5951 14.2335C33.628 14.9668 33.3808 15.2335 32.631 15.2251C29.8706 15.1918 27.1019 15.2335 24.3333 15.2085C20.3616 15.1751 16.6619 16.2001 13.3659 18.3835C9.48483 20.9668 6.89747 24.6168 5.80155 29.2085C5.38955 30.9251 5.24947 32.7418 5.22475 34.5251C5.14235 38.9501 5.20003 43.3751 5.20003 47.8001C5.20003 49.0335 5.24123 49.0751 6.47723 49.0751C11.2317 49.0751 15.9779 49.1251 20.7324 49.0501C24.3251 49.0001 27.6128 47.8585 30.5957 45.8251C34.2295 43.3501 36.6356 39.9585 37.9293 35.7585C38.5226 33.8335 38.6791 31.8335 38.6709 29.8168C38.6627 23.8751 38.6709 17.9251 38.6709 11.9835C38.6709 10.8168 38.6709 10.8085 39.808 10.8085C40.5826 10.8085 41.3654 10.8501 42.1399 10.7918C42.8403 10.7418 43.0711 10.9668 43.0628 11.7001C43.0299 15.1835 43.0463 18.6585 43.0381 22.1335C43.0463 22.1335 43.0463 22.1335 43.0381 22.1335Z" fill="#BBBBBB"/>
<path d="M29.212 40.5258C29.212 40.0174 29.212 39.6924 29.212 39.3674C29.212 34.8591 29.1955 30.3591 29.2202 25.8508C29.2284 25.0674 29.0224 24.7258 28.1819 24.7591C26.7317 24.8174 25.2815 24.7674 23.8312 24.7758C19.67 24.8174 16.4317 27.1674 15.0968 31.1674C14.8496 31.9008 14.7178 32.7008 14.6848 33.4758C14.6271 35.2091 14.6766 36.9508 14.6519 38.6841C14.6436 39.2841 14.8826 39.5008 15.4676 39.5008C17.4535 39.4758 19.4393 39.5341 21.4251 39.4508C22.2574 39.4174 23.0731 39.0924 24.0867 38.8591C24.0867 39.5008 24.0867 40.0758 24.0867 40.6591C24.0867 40.9841 24.0867 41.3091 24.0867 41.6341C24.0867 43.7424 24.0867 43.8008 21.9443 43.8758C19.1015 43.9674 16.2587 43.9424 13.4159 43.9674C12.5836 43.9758 11.7514 43.9508 10.9191 43.9674C10.4 43.9841 10.2187 43.7841 10.2187 43.2508C10.2352 39.9424 10.0704 36.6174 10.2599 33.3174C10.5978 27.4758 14.1987 22.3258 20.4693 20.7508C21.4251 20.5091 22.4304 20.4174 23.411 20.4008C26.468 20.3591 29.5333 20.4008 32.5903 20.3674C33.299 20.3591 33.5874 20.5508 33.5791 21.3258C33.5462 24.6924 33.6121 28.0591 33.5462 31.4258C33.4803 34.8091 32.0548 37.6424 29.7887 40.0674C29.6816 40.2008 29.5168 40.2924 29.212 40.5258Z" fill="#BBBBBB"/>
<path d="M24.1605 29.9004H19.7109V34.4004H24.1605V29.9004Z" fill="#BBBBBB"/>
<path d="M55.8835 18.4753H72.0092V22.0919H66.1918V23.8169C66.1918 24.2253 66.2165 24.6003 66.2742 24.9503C66.3318 25.3003 66.439 25.6253 66.612 25.9336C66.7768 26.2419 66.9993 26.5503 67.2794 26.8669C67.5596 27.1836 67.9222 27.5086 68.3671 27.8503C69.084 28.3919 69.8421 28.9503 70.6578 29.5253C71.4736 30.1003 72.3058 30.6586 73.1463 31.2003L70.8721 34.2086C70.1387 33.7169 69.4136 33.2169 68.7132 32.7169C68.0128 32.2169 67.3454 31.7503 66.7191 31.2919C66.0022 30.7753 65.4419 30.3253 65.0299 29.9586C64.6179 29.5836 64.379 29.3086 64.313 29.1336H64.2801C64.2142 29.3336 63.9587 29.6586 63.5138 30.1003C63.0688 30.5419 62.4508 31.0669 61.6762 31.6753C60.9594 32.2586 60.226 32.8503 59.4679 33.4336C58.7098 34.0169 57.9106 34.6086 57.0618 35.1919L54.5898 32.0836C55.661 31.3586 56.6746 30.6253 57.6304 29.8669C58.5862 29.1086 59.4267 28.4169 60.1354 27.7836C60.7122 27.2669 61.1654 26.6836 61.4867 26.0419C61.8081 25.4003 61.9729 24.6586 61.9729 23.8253V22.1003H55.8835V18.4753ZM59.2619 36.4336H79.8702V48.5086H75.6513V40.0586H59.2619V36.4336ZM79.8702 35.0169H75.6513V16.6836H79.8702V35.0169Z" fill="#BBBBBB"/>
<path d="M85.9587 19.3836H102.554V23.0336H96.5306V26.6169C96.5306 27.2753 96.5635 27.8669 96.6295 28.3919C96.6954 28.9253 96.8107 29.4253 96.9838 29.9003C97.1568 30.3753 97.3875 30.8503 97.7007 31.3253C98.0138 31.8003 98.4258 32.3086 98.9367 32.8503C99.6535 33.6419 100.428 34.4503 101.26 35.2836C102.101 36.1169 102.941 36.9169 103.79 37.6836L101.079 40.5253C100.362 39.8503 99.6535 39.1586 98.9367 38.4419C98.2198 37.7336 97.5523 37.0503 96.9261 36.3919C96.2751 35.7419 95.7313 35.1419 95.2863 34.6169C94.8414 34.0836 94.5612 33.6836 94.4541 33.4169H94.3882C94.2316 33.7336 93.9103 34.1836 93.4159 34.7669C92.9215 35.3503 92.4023 35.9419 91.842 36.5253C91.2158 37.1836 90.5731 37.8503 89.9056 38.5419C89.2382 39.2336 88.4307 40.0003 87.4995 40.8586L84.7227 37.9836C86.5519 36.3336 88.1999 34.7003 89.6749 33.0753C90.1693 32.5086 90.5813 31.9919 90.9109 31.5169C91.2487 31.0419 91.5124 30.5586 91.7102 30.0586C91.9079 29.5669 92.048 29.0419 92.1304 28.4836C92.2046 27.9336 92.2458 27.3086 92.2458 26.6086V23.0253H85.9587V19.3836ZM110.646 48.1419H106.394V16.6836H110.646V48.1419Z" fill="#BBBBBB"/>
<path d="M143.393 32.2092V35.7926H131.717V41.2759H127.498V35.7926H114.891V32.2092H143.393ZM139.38 17.7676V29.7426H118.904V17.7676H139.38ZM123.122 44.1842H140.014V47.8009H118.904V38.6342H123.122V44.1842ZM123.089 26.1842H135.202V21.3092H123.089V26.1842Z" fill="#BBBBBB"/>
<path d="M145.434 39.0422C146.909 39.0422 148.269 39.0422 149.53 39.0422C150.79 39.0422 151.977 39.0339 153.089 39.0089V36.6755C152.15 36.5172 151.334 36.2589 150.634 35.9005C149.933 35.5422 149.348 35.1255 148.895 34.6505C148.442 34.1755 148.096 33.6589 147.857 33.0922C147.626 32.5255 147.503 31.9505 147.503 31.3672V30.1505C147.503 29.4755 147.659 28.8089 147.972 28.1505C148.285 27.5005 148.755 26.9089 149.39 26.3922C150.024 25.8755 150.823 25.4589 151.779 25.1422C152.735 24.8255 153.864 24.6672 155.158 24.6672C156.451 24.6672 157.58 24.8255 158.536 25.1422C159.492 25.4589 160.291 25.8755 160.926 26.3922C161.56 26.9089 162.038 27.5005 162.343 28.1505C162.656 28.8089 162.813 29.4672 162.813 30.1505V31.3672C162.813 31.9505 162.697 32.5255 162.458 33.0922C162.228 33.6589 161.881 34.1755 161.42 34.6505C160.959 35.1255 160.39 35.5422 159.698 35.9005C159.006 36.2589 158.19 36.5255 157.259 36.6755V38.9089C158.816 38.8672 160.192 38.8089 161.371 38.7422C162.549 38.6755 163.645 38.5839 164.65 38.4755L164.955 42.0589C164.04 42.1755 162.977 42.2672 161.774 42.3505C160.571 42.4255 159.179 42.4922 157.613 42.5339C156.039 42.5755 154.251 42.6172 152.241 42.6339C150.23 42.6589 147.956 42.6672 145.418 42.6672V39.0422H145.434ZM153.098 20.0672V16.6172H157.284V20.0672H163.941V23.6505H146.044V20.0672H153.098ZM155.166 28.0172C153.872 28.0172 152.933 28.2839 152.34 28.8255C151.746 29.3672 151.45 29.9422 151.45 30.5505V30.9589C151.45 31.5672 151.746 32.1422 152.34 32.6839C152.933 33.2255 153.872 33.4922 155.166 33.4922C156.46 33.4922 157.399 33.2172 157.992 32.6839C158.585 32.1505 158.882 31.5672 158.882 30.9589V30.5505C158.882 29.9422 158.585 29.3672 157.992 28.8255C157.399 28.2839 156.46 28.0172 155.166 28.0172ZM170.385 28.9255H174.703V32.6505H170.385V48.1422H166.207V16.6839H170.385V28.9255Z" fill="#BBBBBB"/>
<path d="M176.508 19.6919H190.392V23.3419H185.613V27.3336C185.613 27.9169 185.646 28.4419 185.712 28.8919C185.778 29.3419 185.893 29.7669 186.05 30.1586C186.206 30.5503 186.404 30.9419 186.651 31.3253C186.898 31.7086 187.187 32.1169 187.524 32.5419C188.151 33.3336 188.859 34.1586 189.65 35.0086C190.441 35.8669 191.191 36.6586 191.908 37.3753L189.131 40.0169C188.48 39.3419 187.846 38.6503 187.211 37.9503C186.577 37.2503 186 36.6003 185.489 35.9919C185.085 35.5169 184.723 35.0753 184.402 34.6753C184.08 34.2753 183.858 33.9336 183.751 33.6586H183.718C183.602 33.9253 183.388 34.2753 183.067 34.7086C182.745 35.1336 182.366 35.6086 181.946 36.1336C181.386 36.8086 180.751 37.5503 180.043 38.3503C179.326 39.1503 178.625 39.9003 177.933 40.6003L175.156 37.7919C175.848 37.1169 176.59 36.3336 177.381 35.4586C178.172 34.5836 178.889 33.7336 179.54 32.9253C179.894 32.4753 180.199 32.0419 180.463 31.6419C180.718 31.2336 180.924 30.8253 181.081 30.4086C181.237 29.9919 181.344 29.5419 181.419 29.0586C181.485 28.5753 181.518 28.0169 181.518 27.3836V23.3586H176.532V19.6919H176.508ZM192.633 30.6503H188.818V26.9253H192.633V17.3253H196.646V46.6253H192.633V30.6503ZM202.9 48.1419H198.887V16.6836H202.9V48.1419Z" fill="#BBBBBB"/>
</svg>
