<svg width="313" height="36" viewBox="0 0 313 36" fill="none" xmlns="http://www.w3.org/2000/svg">
<g clip-path="url(#clip0_1036_3146)">
<path d="M120.128 20.4803L117.588 27.5503H114.328L122.638 5.07031H126.448L134.788 27.5503H131.418L128.808 20.4803H120.128ZM128.148 18.2103L125.758 11.7403C125.218 10.2703 124.848 8.94031 124.488 7.64031H124.418C124.058 8.97031 123.658 10.3403 123.188 11.7103L120.798 18.2103H128.148Z" fill="#EC5D63"/>
<path d="M154.481 6.76953V11.4095H159.051V13.6395H154.481V22.3395C154.481 24.3395 155.101 25.4695 156.871 25.4695C157.701 25.4695 158.321 25.3695 158.721 25.2695L158.871 27.4695C158.251 27.6995 157.271 27.8695 156.041 27.8695C154.551 27.8695 153.361 27.4395 152.591 26.6395C151.681 25.7695 151.361 24.3395 151.361 22.4395V13.6395H148.641V11.4095H151.361V6.77953L154.481 6.76953Z" fill="#EC5D63"/>
<path d="M162.458 24.5491C163.398 25.1191 165.068 25.7191 166.668 25.7191C168.988 25.7191 170.078 24.6491 170.078 23.3191C170.078 21.9191 169.168 21.1491 166.808 20.3491C163.648 19.3191 162.168 17.7191 162.168 15.7791C162.168 13.1791 164.458 11.0391 168.228 11.0391C170.008 11.0391 171.568 11.5091 172.548 12.0391L171.748 14.1691C171.058 13.7691 169.788 13.2391 168.158 13.2391C166.268 13.2391 165.218 14.2391 165.218 15.4391C165.218 16.7691 166.268 17.3691 168.558 18.1691C171.608 19.2391 173.168 20.6391 173.168 23.0391C173.168 25.8691 170.778 27.8791 166.598 27.8791C164.678 27.8791 162.898 27.4491 161.668 26.7791L162.458 24.5491Z" fill="#EC5D63"/>
<path d="M15.9196 0.859375C16.8896 1.14937 17.9196 1.31938 18.8196 1.75938C20.3696 2.51938 21.8496 3.45938 23.5296 4.41938C22.4396 5.41938 21.6296 6.17937 20.7096 7.02937C18.2296 4.99937 15.3296 4.03938 12.0496 4.74938C9.97963 5.19938 8.22963 6.23938 6.80963 7.83938C3.90963 11.1194 3.51963 16.0894 5.88963 19.8194C8.22963 23.5094 12.7596 25.1794 17.0396 23.9294C20.5196 22.9094 22.8496 20.1594 22.8396 16.8794C19.9996 16.8794 17.1496 16.8794 14.2196 16.8794C14.2196 15.6394 14.2196 14.5794 14.2196 13.3694C14.6196 13.3394 15.0296 13.2994 15.4396 13.2894C18.7096 13.2794 21.9796 13.3394 25.2396 13.2594C26.4296 13.2294 26.6796 13.7294 26.6996 14.7694C26.8396 20.7294 24.1396 25.1694 19.1696 27.0794C13.8196 29.1394 7.37963 27.4994 3.65963 23.1494C-3.08037 15.2494 1.21963 3.09938 11.4496 1.16938C11.8196 1.09938 12.1796 0.959375 12.5396 0.859375C13.6796 0.859375 14.7996 0.859375 15.9196 0.859375Z" fill="#EC5D63"/>
<path d="M312.571 19.4489C312.111 19.5989 311.651 19.8789 311.191 19.8889C307.841 19.9289 304.481 19.9089 301.131 19.9089C300.671 19.9089 300.201 19.9089 299.751 19.9089C299.621 22.0589 300.821 23.9589 302.761 24.8289C304.581 25.6389 307.031 25.2389 308.291 23.9289C309.721 22.4389 309.721 22.4389 311.811 23.7189C310.691 25.9789 308.921 27.3289 306.451 27.8089C302.311 28.6089 298.421 26.4089 297.131 22.5189C295.701 18.2189 297.421 13.3189 301.061 11.5689C305.391 9.48893 311.531 11.3389 312.291 17.7089C312.341 18.1289 312.481 18.5289 312.581 18.9389C312.571 19.1089 312.571 19.2789 312.571 19.4489ZM309.151 17.3589C308.861 14.9689 307.141 13.5089 304.701 13.4689C302.261 13.4189 300.351 14.9689 299.971 17.3589C303.011 17.3589 306.031 17.3589 309.151 17.3589Z" fill="#EC5D63"/>
<path d="M79.3292 12.3985C79.4292 11.9585 79.4992 11.6385 79.5892 11.2485C80.6492 11.2485 81.7192 11.2485 82.9292 11.2485C82.9492 11.7385 82.9892 12.1885 82.9892 12.6485C82.9892 17.2485 83.0092 21.8485 82.9792 26.4585C82.9692 27.4385 82.8892 28.4385 82.7192 29.4085C82.0792 32.9885 79.4392 35.4185 75.9992 35.6785C71.6992 35.9985 68.4392 34.1685 67.1492 30.6485C68.1692 30.2285 69.1792 29.8085 70.1792 29.3985C72.4992 32.3385 74.3492 33.0585 76.7992 32.0485C78.7292 31.2485 79.6992 29.0785 79.3692 26.0685C77.2292 27.8585 74.8792 28.4185 72.2792 27.5485C70.3292 26.8985 68.7992 25.7085 67.7092 23.9585C65.4292 20.3185 66.0392 15.8085 69.2192 12.7885C72.0392 10.1085 75.7692 9.91845 79.3292 12.3985ZM70.0892 19.2685C70.0792 22.1885 72.2292 24.5585 74.9292 24.5985C77.5692 24.6385 79.7392 22.2285 79.7292 19.2585C79.7192 16.2785 77.6892 13.9885 75.0592 13.9685C72.2592 13.9485 70.0992 16.2585 70.0892 19.2685Z" fill="#EC5D63"/>
<path d="M199.532 26.2602C198.842 26.8102 198.212 27.3002 197.462 27.9002C196.902 27.2302 196.362 26.6002 195.832 25.9702C190.372 28.9002 185.982 28.3202 183.132 24.3102C180.532 20.6602 181.392 16.5802 185.672 12.5702C184.512 10.7702 183.452 8.89024 184.512 6.62024C185.162 5.23024 186.192 4.25024 187.622 3.70024C190.712 2.50024 193.832 3.97024 194.912 7.23024C194.172 7.64024 193.412 8.07024 192.582 8.53024C192.262 8.04024 192.022 7.60024 191.722 7.20024C190.932 6.15024 189.682 5.85024 188.502 6.41024C187.402 6.93024 186.832 8.08024 187.152 9.31024C187.292 9.84024 187.532 10.3802 187.862 10.8102C190.292 14.0402 192.762 17.2402 195.212 20.4502C195.342 20.6202 195.422 20.8302 195.632 21.2402C196.482 19.8502 197.142 18.7702 197.862 17.6002C198.622 18.0702 199.312 18.4802 200.132 18.9802C199.612 19.8502 199.132 20.6402 198.652 21.4302C197.192 23.8702 197.232 22.9702 198.792 25.1302C199.001 25.4902 199.242 25.8402 199.532 26.2602ZM190.192 25.4802C191.222 25.1102 192.272 24.7802 193.262 24.3402C193.972 24.0202 194.101 23.5302 193.541 22.8202C191.681 20.4602 189.862 18.0602 188.082 15.6502C187.532 14.9002 187.091 14.9302 186.431 15.5002C184.681 17.0002 183.982 19.2902 184.692 21.4202C185.432 23.6702 187.572 25.1802 190.192 25.4802Z" fill="#EC5D63"/>
<path d="M36.7512 27.9389C31.8712 27.9089 28.1012 24.1089 28.1212 19.2389C28.1312 14.3389 32.0712 10.4489 36.9312 10.5589C41.9312 10.6789 45.6112 14.4489 45.5612 19.4089C45.5112 24.2389 41.6612 27.9689 36.7512 27.9389ZM36.8312 13.9689C34.0112 13.9689 31.8712 16.2489 31.8712 19.2589C31.8712 22.2289 34.0812 24.5989 36.8312 24.5989C39.5912 24.5989 41.7912 22.2189 41.7912 19.2489C41.7912 16.2489 39.6612 13.9689 36.8312 13.9689Z" fill="#EC5D63"/>
<path d="M55.8488 27.9391C50.9688 27.9091 47.2088 24.1091 47.2188 19.2391C47.2288 14.3391 51.1788 10.4491 56.0288 10.5691C61.0288 10.6891 64.7088 14.4591 64.6588 19.4191C64.6088 24.2391 60.7688 27.9691 55.8488 27.9391ZM60.8988 19.3191C60.9188 16.2991 58.8088 13.9891 55.9988 13.9691C53.1588 13.9491 50.9988 16.1891 50.9688 19.1891C50.9488 22.1691 53.0988 24.5491 55.8688 24.5991C58.6188 24.6491 60.8788 22.2891 60.8988 19.3191Z" fill="#EC5D63"/>
<path d="M107.359 17.06C103.449 18.69 99.6991 20.25 95.9491 21.8C96.9291 25.23 101.009 25.47 104.429 22.28C105.309 22.86 106.219 23.46 107.119 24.06C105.539 26.82 102.039 28.38 98.7491 27.87C95.1291 27.31 92.3291 24.75 91.6191 21.32C90.9991 18.33 91.5291 15.57 93.5691 13.25C95.6591 10.88 98.3891 10.12 101.399 10.82C104.609 11.56 106.299 13.93 107.359 17.06ZM95.2891 18.98C97.8491 17.91 100.379 16.86 102.939 15.8C101.909 14.08 100.199 13.5 98.3791 14.11C96.3391 14.79 94.9891 16.85 95.2891 18.98Z" fill="#EC5D63"/>
<path d="M228.169 21.73C228.799 22.43 229.369 23.06 229.959 23.7C228.279 26.81 222.779 28.63 217.899 27.63C212.949 26.62 209.029 22.1 208.589 16.88C208.119 11.26 210.999 6.25003 215.859 4.25003C220.739 2.24003 226.319 3.40003 229.259 7.00003C228.659 7.65003 228.049 8.30003 227.359 9.05003C225.249 6.52003 222.419 5.85003 219.259 6.25003C216.979 6.54003 215.159 7.69003 213.669 9.42003C210.659 12.91 210.909 19.13 214.199 22.44C217.109 25.37 223.029 26.91 228.169 21.73Z" fill="#EC5D63"/>
<path d="M243.949 11.4196C244.999 11.4196 245.919 11.4196 246.879 11.4196C246.879 16.7596 246.879 21.9896 246.879 27.3096C245.989 27.3096 245.159 27.3096 244.259 27.3096C244.179 26.6996 244.109 26.1196 244.019 25.3896C243.749 25.5896 243.579 25.6796 243.449 25.8196C241.369 27.9696 238.899 28.5096 236.139 27.4496C233.569 26.4596 232.789 24.2196 232.689 21.7496C232.569 18.6096 232.669 15.4696 232.649 12.3296C232.649 11.6396 232.859 11.2696 233.609 11.3096C234.239 11.3396 234.869 11.3196 235.599 11.3196C235.599 14.4496 235.589 17.3696 235.609 20.2996C235.609 20.9396 235.669 21.5896 235.779 22.2196C236.029 23.7096 236.869 24.7696 238.359 25.1096C239.999 25.4796 241.669 25.3296 242.619 23.7896C243.289 22.7096 243.809 21.3796 243.889 20.1296C244.079 17.2496 243.949 14.3696 243.949 11.4196Z" fill="#EC5D63"/>
<path d="M280.101 11.4189C281.171 11.4189 282.091 11.4189 283.041 11.4189C283.041 16.7589 283.041 21.9889 283.041 27.3089C282.151 27.3089 281.321 27.3089 280.411 27.3089C280.331 26.7189 280.261 26.1589 280.161 25.3989C279.791 25.7289 279.551 25.9389 279.321 26.1589C277.321 27.9589 275.001 28.4289 272.501 27.5289C270.121 26.6689 269.071 24.7189 268.971 22.3189C268.831 18.9789 268.861 15.6189 268.801 12.2789C268.791 11.5489 269.111 11.2789 269.811 11.3089C270.401 11.3389 270.991 11.3189 271.751 11.3189C271.751 13.7489 271.721 16.0089 271.761 18.2689C271.781 19.5989 271.761 20.9489 272.001 22.2389C272.541 25.1589 276.091 26.2989 278.341 24.3289C279.531 23.2889 280.121 21.9489 280.121 20.3389C280.091 17.4189 280.101 14.4989 280.101 11.4189Z" fill="#EC5D63"/>
<path d="M89.3713 27.33C88.1513 27.33 87.0113 27.33 85.7812 27.33C85.7812 18.9 85.7812 10.51 85.7812 2C86.9713 2 88.1313 2 89.3713 2C89.3713 10.44 89.3713 18.8 89.3713 27.33Z" fill="#EC5D63"/>
<path d="M266.26 11.3102C266.26 12.3002 266.26 13.0302 266.26 14.0002C265.28 14.0002 264.31 14.0302 263.35 13.9902C262.63 13.9602 262.35 14.2502 262.36 14.9702C262.39 17.5502 262.34 20.1302 262.4 22.7102C262.43 24.1502 263.14 24.8602 264.38 24.9502C266.28 25.0902 266.39 25.1902 266.76 27.2002C263.01 28.9102 259.45 26.6702 259.42 22.5802C259.41 20.2202 259.36 17.8502 259.44 15.4902C259.48 14.3002 259.11 13.8202 257.92 13.9802C257.55 14.0302 257.16 13.9602 256.68 13.9302C256.68 13.0902 256.68 12.3002 256.68 11.4502C256.97 11.4002 257.25 11.3302 257.55 11.3102C259.42 11.2102 259.42 11.2202 259.42 9.29016C259.42 8.36016 259.42 7.42016 259.42 6.41016C260.41 6.41016 261.25 6.41016 262.36 6.41016C262.36 7.63016 262.41 8.85016 262.34 10.0702C262.29 11.0302 262.63 11.3902 263.59 11.3102C264.44 11.2602 265.29 11.3102 266.26 11.3102Z" fill="#EC5D63"/>
<path d="M253.57 27.3297C252.61 27.3297 251.73 27.3297 250.75 27.3297C250.75 19.5497 250.75 11.7997 250.75 3.92969C251.67 3.92969 252.58 3.92969 253.57 3.92969C253.57 11.7597 253.57 19.5097 253.57 27.3297Z" fill="#EC5D63"/>
<path d="M289.541 27.3295C288.501 27.3295 287.621 27.3295 286.641 27.3295C286.641 22.0295 286.641 16.7695 286.641 11.4095C287.511 11.4095 288.341 11.4095 289.251 11.4095C289.301 12.1395 289.351 12.8095 289.421 13.7395C291.281 11.3095 293.481 10.4095 296.431 11.2795C296.151 12.0095 295.971 12.7195 295.611 13.3095C295.431 13.5995 294.901 13.8795 294.561 13.8495C291.781 13.5995 289.581 15.4695 289.541 18.2795C289.501 21.2495 289.541 24.2095 289.541 27.3295Z" fill="#EC5D63"/>
<path d="M137.13 16.4393C137.13 14.5393 137.09 12.8993 136.98 11.3993H139.85L139.96 14.5693H140.11C140.93 12.3993 142.91 11.0293 145.11 11.0293C145.48 11.0293 145.74 11.0593 146.04 11.1293V13.8993C145.7 13.8293 145.37 13.7993 144.92 13.7993C142.61 13.7993 140.96 15.3693 140.52 17.5693C140.45 17.9693 140.37 18.4393 140.37 18.9393V27.5393H137.12V16.4393H137.13Z" fill="#EC5D63"/>
</g>
<defs>
<clipPath id="clip0_1036_3146">
<rect width="313" height="35" fill="white" transform="translate(0 0.789062)"/>
</clipPath>
</defs>
</svg>
