<svg width="137" height="40" viewBox="0 0 137 40" fill="none" xmlns="http://www.w3.org/2000/svg">
<path d="M28.621 14.423C28.621 16.4341 28.6649 18.4396 28.6101 20.4507C28.5059 24.5785 26.9332 28.0896 24.0562 30.9841C21.9299 33.123 19.3708 34.5063 16.4116 35.0452C15.3813 35.2341 14.3237 35.3174 13.277 35.323C9.24375 35.3563 5.21047 35.3285 1.17171 35.3452C0.667548 35.3452 0.492188 35.2063 0.492188 34.6785C0.508627 30.6063 0.492188 26.5341 0.503148 22.4619C0.514108 18.8007 1.58271 15.4785 3.86787 12.6285C6.13111 9.80075 9.01907 7.89519 12.592 7.27852C14.236 6.99519 15.9239 6.96186 17.5953 6.88963C19.0036 6.82852 20.4175 6.88963 21.8258 6.87297C22.193 6.86741 22.3464 6.98963 22.3355 7.36741C22.319 7.96186 22.3081 8.56186 22.3409 9.1563C22.3629 9.64519 22.1985 9.82297 21.6998 9.81741C19.864 9.79519 18.0227 9.82297 16.1814 9.8063C13.5401 9.78408 11.0795 10.4674 8.88755 11.923C6.30647 13.6452 4.58575 16.0785 3.85691 19.1396C3.58291 20.2841 3.48975 21.4952 3.47331 22.6841C3.41851 25.6341 3.45687 28.5841 3.45687 31.5341C3.45687 32.3563 3.48427 32.3841 4.30627 32.3841C7.46823 32.3841 10.6247 32.4174 13.7867 32.3674C16.1759 32.3341 18.3625 31.573 20.3462 30.2174C22.7629 28.5674 24.3631 26.3063 25.2234 23.5063C25.618 22.223 25.7221 20.8896 25.7166 19.5452C25.7111 15.5841 25.7166 11.6174 25.7166 7.6563C25.7166 6.87852 25.7166 6.87297 26.4729 6.87297C26.988 6.87297 27.5086 6.90075 28.0237 6.86186C28.4895 6.82852 28.6429 6.97852 28.6375 7.46741C28.6155 9.78963 28.6265 12.1063 28.621 14.423C28.6265 14.423 28.6265 14.423 28.621 14.423Z" fill="#AB7D3E"/>
<path d="M19.4269 26.6832C19.4269 26.3443 19.4269 26.1276 19.4269 25.911C19.4269 22.9054 19.4159 19.9054 19.4324 16.8999C19.4379 16.3776 19.3009 16.1499 18.7419 16.1721C17.7774 16.211 16.8129 16.1776 15.8485 16.1832C13.0811 16.211 10.9274 17.7776 10.0396 20.4443C9.87525 20.9332 9.78757 21.4665 9.76565 21.9832C9.72729 23.1388 9.76017 24.2999 9.74373 25.4554C9.73825 25.8554 9.89717 25.9999 10.2863 25.9999C11.6069 25.9832 12.9276 26.0221 14.2483 25.9665C14.8018 25.9443 15.3443 25.7276 16.0183 25.5721C16.0183 25.9999 16.0183 26.3832 16.0183 26.7721C16.0183 26.9888 16.0183 27.2054 16.0183 27.4221C16.0183 28.8276 16.0183 28.8665 14.5935 28.9165C12.7029 28.9776 10.8123 28.961 8.92173 28.9776C8.36825 28.9832 7.81477 28.9665 7.26129 28.9776C6.91605 28.9888 6.79549 28.8554 6.79549 28.4999C6.80645 26.2943 6.69685 24.0776 6.82289 21.8776C7.04757 17.9832 9.44233 14.5499 13.6126 13.4999C14.2483 13.3388 14.9169 13.2776 15.569 13.2665C17.6021 13.2388 19.6406 13.2665 21.6737 13.2443C22.145 13.2388 22.3368 13.3665 22.3313 13.8832C22.3094 16.1276 22.3532 18.3721 22.3094 20.6165C22.2655 22.8721 21.3175 24.761 19.8105 26.3776C19.7393 26.4665 19.6297 26.5276 19.4269 26.6832Z" fill="#AB7D3E"/>
<path d="M16.0686 19.5996H13.1094V22.5996H16.0686V19.5996Z" fill="#AB7D3E"/>
<path d="M37.165 11.9835H47.8894V14.3946H44.0205V15.5446C44.0205 15.8168 44.037 16.0668 44.0753 16.3002C44.1137 16.5335 44.1849 16.7502 44.3 16.9557C44.4096 17.1613 44.5576 17.3668 44.7439 17.578C44.9302 17.7891 45.1713 18.0057 45.4672 18.2335C45.944 18.5946 46.4482 18.9668 46.9907 19.3502C47.5332 19.7335 48.0867 20.1057 48.6456 20.4668L47.1332 22.4724C46.6454 22.1446 46.1632 21.8113 45.6974 21.478C45.2316 21.1446 44.7877 20.8335 44.3712 20.528C43.8945 20.1835 43.5218 19.8835 43.2478 19.6391C42.9738 19.3891 42.8149 19.2057 42.7711 19.0891H42.7492C42.7053 19.2224 42.5354 19.4391 42.2395 19.7335C41.9436 20.028 41.5326 20.378 41.0175 20.7835C40.5407 21.1724 40.053 21.5668 39.5488 21.9557C39.0447 22.3446 38.5131 22.7391 37.9487 23.128L36.3047 21.0557C37.0171 20.5724 37.6911 20.0835 38.3268 19.578C38.9625 19.0724 39.5214 18.6113 39.9927 18.1891C40.3763 17.8446 40.6777 17.4557 40.8914 17.028C41.1052 16.6002 41.2148 16.1057 41.2148 15.5502V14.4002H37.165V11.9835ZM39.4118 23.9557H53.1173V32.0057H50.3116V26.3724H39.4118V23.9557ZM53.1173 23.0113H50.3116V10.7891H53.1173V23.0113Z" fill="black"/>
<path d="M57.1658 12.5891H68.2025V15.0224H64.1966V17.4113C64.1966 17.8502 64.2185 18.2446 64.2623 18.5946C64.3062 18.9502 64.3829 19.2835 64.498 19.6002C64.6131 19.9168 64.7665 20.2335 64.9748 20.5502C65.183 20.8668 65.457 21.2057 65.7968 21.5668C66.2735 22.0946 66.7886 22.6335 67.3421 23.1891C67.9011 23.7446 68.46 24.278 69.0245 24.7891L67.2215 26.6835C66.7448 26.2335 66.2735 25.7724 65.7968 25.2946C65.32 24.8224 64.8761 24.3668 64.4596 23.928C64.0267 23.4946 63.665 23.0946 63.3691 22.7446C63.0732 22.3891 62.8869 22.1224 62.8156 21.9446H62.7718C62.6677 22.1557 62.454 22.4557 62.1252 22.8446C61.7964 23.2335 61.4511 23.628 61.0785 24.0168C60.662 24.4557 60.2346 24.9002 59.7907 25.3613C59.3468 25.8224 58.8098 26.3335 58.1905 26.9057L56.3438 24.9891C57.5603 23.8891 58.6563 22.8002 59.6372 21.7168C59.966 21.3391 60.24 20.9946 60.4592 20.678C60.6839 20.3613 60.8593 20.0391 60.9908 19.7057C61.1223 19.378 61.2155 19.028 61.2703 18.6557C61.3196 18.2891 61.347 17.8724 61.347 17.4057V15.0168H57.1658V12.5891ZM73.5838 31.7613H70.7561V10.7891H73.5838V31.7613Z" fill="black"/>
<path d="M95.3616 21.1395V23.5284H87.5964V27.1839H84.7907V23.5284H76.4062V21.1395H95.3616ZM92.6928 11.5117V19.4951H79.075V11.5117H92.6928ZM81.8808 29.1228H93.1148V31.5339H79.075V25.4228H81.8808V29.1228ZM81.8589 17.1228H89.9145V13.8728H81.8589V17.1228Z" fill="black"/>
<path d="M96.7219 25.6941C97.7028 25.6941 98.607 25.6941 99.4455 25.6941C100.284 25.6941 101.073 25.6886 101.813 25.6719V24.1164C101.188 24.0108 100.646 23.8386 100.18 23.5997C99.714 23.3608 99.3249 23.083 99.0235 22.7664C98.7221 22.4497 98.4919 22.1053 98.333 21.7275C98.1796 21.3497 98.0974 20.9664 98.0974 20.5775V19.7664C98.0974 19.3164 98.2015 18.8719 98.4097 18.433C98.618 17.9997 98.9303 17.6053 99.3523 17.2608C99.7743 16.9164 100.306 16.6386 100.941 16.4275C101.577 16.2164 102.328 16.1108 103.188 16.1108C104.049 16.1108 104.799 16.2164 105.435 16.4275C106.071 16.6386 106.602 16.9164 107.024 17.2608C107.446 17.6053 107.764 17.9997 107.967 18.433C108.175 18.8719 108.279 19.3108 108.279 19.7664V20.5775C108.279 20.9664 108.203 21.3497 108.044 21.7275C107.89 22.1053 107.66 22.4497 107.353 22.7664C107.046 23.083 106.668 23.3608 106.208 23.5997C105.747 23.8386 105.205 24.0164 104.586 24.1164V25.6053C105.621 25.5775 106.537 25.5386 107.32 25.4941C108.104 25.4497 108.833 25.3886 109.501 25.3164L109.704 27.7053C109.096 27.783 108.389 27.8441 107.589 27.8997C106.789 27.9497 105.863 27.9941 104.821 28.0219C103.775 28.0497 102.585 28.0775 101.248 28.0886C99.9113 28.1053 98.3988 28.1108 96.7109 28.1108V25.6941H96.7219ZM101.818 13.0441V10.7441H104.602V13.0441H109.03V15.433H97.1274V13.0441H101.818ZM103.194 18.3441C102.333 18.3441 101.709 18.5219 101.314 18.883C100.92 19.2441 100.722 19.6275 100.722 20.033V20.3053C100.722 20.7108 100.92 21.0941 101.314 21.4553C101.709 21.8164 102.333 21.9941 103.194 21.9941C104.054 21.9941 104.679 21.8108 105.073 21.4553C105.468 21.0997 105.665 20.7108 105.665 20.3053V20.033C105.665 19.6275 105.468 19.2441 105.073 18.883C104.679 18.5219 104.054 18.3441 103.194 18.3441ZM113.315 18.9497H116.187V21.433H113.315V31.7608H110.537V10.7886H113.315V18.9497Z" fill="black"/>
<path d="M117.387 12.7946H126.621V15.228H123.442V17.8891C123.442 18.278 123.464 18.628 123.508 18.928C123.552 19.228 123.629 19.5113 123.733 19.7724C123.837 20.0335 123.968 20.2946 124.133 20.5502C124.297 20.8057 124.489 21.078 124.714 21.3613C125.13 21.8891 125.602 22.4391 126.128 23.0057C126.654 23.578 127.152 24.1057 127.629 24.5835L125.782 26.3446C125.349 25.8946 124.927 25.4335 124.506 24.9668C124.084 24.5002 123.7 24.0668 123.36 23.6613C123.092 23.3446 122.851 23.0502 122.637 22.7835C122.423 22.5168 122.275 22.2891 122.204 22.1057H122.182C122.105 22.2835 121.963 22.5168 121.749 22.8057C121.535 23.0891 121.283 23.4057 121.004 23.7557C120.631 24.2057 120.209 24.7002 119.738 25.2335C119.261 25.7668 118.795 26.2668 118.335 26.7335L116.488 24.8613C116.949 24.4113 117.442 23.8891 117.968 23.3057C118.494 22.7224 118.971 22.1557 119.404 21.6168C119.639 21.3168 119.842 21.028 120.017 20.7613C120.187 20.4891 120.324 20.2168 120.428 19.9391C120.533 19.6613 120.604 19.3613 120.653 19.0391C120.697 18.7168 120.719 18.3446 120.719 17.9224V15.2391H117.403V12.7946H117.387ZM128.111 20.1002H125.574V17.6168H128.111V11.2168H130.78V30.7502H128.111V20.1002ZM134.939 31.7613H132.271V10.7891H134.939V31.7613Z" fill="black"/>
</svg>
