<svg width="157" height="28" viewBox="0 0 157 28" fill="none" xmlns="http://www.w3.org/2000/svg">
<g clip-path="url(#clip0_1034_2926)">
<path d="M13.3389 -0.000224852C15.7024 -0.000224852 17.5999 1.02623 19.2105 2.77932C20.821 4.5324 22.5599 6.34898 24.2447 8.11265C24.9992 8.87715 25.5991 9.79218 26.0088 10.8035C26.4185 11.8147 26.6296 12.9017 26.6296 13.9998C26.6296 15.0979 26.4185 16.1848 26.0088 17.1961C25.5991 18.2074 24.9992 19.1224 24.2447 19.8869C22.4012 21.8199 20.5847 23.767 18.7141 25.6894C17.2791 27.1817 15.3367 28.0194 13.3119 28.0194C11.287 28.0194 9.34465 27.1817 7.90959 25.6894C5.96927 23.7094 4.05597 21.6988 2.16968 19.6576C0.75955 18.1246 -0.0229452 16.0777 -0.011597 13.9516C-0.00024887 11.8256 0.804049 9.78786 2.23045 8.27138C4.09086 6.27138 5.97828 4.29607 7.87245 2.33134C8.58265 1.57297 9.43416 0.974791 10.3744 0.573765C11.3146 0.172739 12.3235 -0.0226142 13.3389 -0.000224852ZM9.45261 11.2273C9.50984 13.7506 9.97561 16.2456 10.8302 18.6065C11.2588 19.8566 12.0003 20.9638 12.9776 21.8128C13.4131 22.2087 13.9399 22.479 14.5059 22.5972C15.072 22.7153 15.6578 22.6772 16.2054 22.4865C17.9646 21.8834 19.0889 20.4901 20.0107 18.8992C20.0978 18.7242 20.1187 18.5213 20.0693 18.3308C20.0199 18.1404 19.9038 17.9763 19.7441 17.8711C19.5843 17.7659 19.3925 17.7272 19.2067 17.7628C19.0209 17.7984 18.8548 17.9057 18.7411 18.0633C18.5993 18.2467 18.4845 18.4548 18.3528 18.6453C17.8077 19.5012 17.0824 20.2154 16.2325 20.7335C15.9014 20.9427 15.5179 21.0435 15.1315 21.0227C14.7451 21.002 14.3735 20.8607 14.0648 20.6171C13.4075 20.1129 12.8892 19.4364 12.5623 18.6559C11.4008 16.0985 11.053 13.3649 11.0091 10.5677C10.9591 9.58526 11.1303 8.60428 11.5088 7.70348C11.6423 7.37992 11.8643 7.10475 12.1469 6.91251C12.4295 6.72027 12.7602 6.61952 13.0974 6.62291C13.4347 6.6263 13.7634 6.73368 14.0424 6.93157C14.3215 7.12946 14.5383 7.40904 14.6658 7.73523C14.8253 8.08328 14.9388 8.45231 15.0034 8.83223C15.4156 11.5889 15.0226 14.4113 13.8757 16.931C13.7373 17.2379 13.5617 17.5271 13.4165 17.834C13.3653 17.928 13.3325 18.0318 13.32 18.1392C13.3076 18.2466 13.3158 18.3555 13.344 18.4596C13.3723 18.5637 13.4202 18.6609 13.4848 18.7454C13.5494 18.83 13.6295 18.9003 13.7204 18.9522C13.897 19.0453 14.1013 19.0632 14.2903 19.002C14.4793 18.9408 14.6381 18.8053 14.7333 18.6241C14.7874 18.5364 14.8369 18.4457 14.8819 18.3525C16.1583 15.8353 16.769 13.008 16.6511 10.162C16.6593 9.01485 16.4168 7.88084 15.9421 6.84634C15.7653 6.43019 15.5026 6.06004 15.1728 5.76245C14.843 5.46485 14.4542 5.24716 14.0344 5.125C12.1672 4.63822 10.6985 5.40366 9.98271 7.31194C9.53702 8.49008 9.45261 9.71406 9.45261 11.2273ZM9.97933 22.6206C10.0927 22.624 10.2055 22.6032 10.311 22.5597C10.4165 22.5161 10.5124 22.4506 10.5929 22.3672C10.6734 22.2837 10.7369 22.184 10.7794 22.0742C10.8219 21.9644 10.8426 21.8466 10.8403 21.7282C10.8395 21.497 10.7521 21.2753 10.5969 21.1105C10.4417 20.9458 10.231 20.8509 10.0097 20.8463C9.89637 20.8459 9.78405 20.8688 9.6792 20.9138C9.57435 20.9588 9.47903 21.025 9.39872 21.1085C9.31842 21.1921 9.25469 21.2914 9.21122 21.4008C9.16774 21.5101 9.14535 21.6274 9.14536 21.7458C9.1458 21.8614 9.16809 21.9759 9.21096 22.0825C9.25383 22.1891 9.31644 22.2858 9.39518 22.3671C9.47392 22.4484 9.56725 22.5126 9.66981 22.5561C9.77237 22.5996 9.88215 22.6215 9.99284 22.6206H9.97933Z" fill="#CCCCCC"/>
<path d="M47.7614 19.7843C46.2521 19.7843 45.0366 19.4986 43.9562 18.7473C40.9444 16.6591 41.0322 11.9748 44.1891 10.1194C46.4783 8.772 48.8823 8.81433 51.1682 10.2041C52.7754 11.1812 53.4979 12.7685 53.4304 14.6979C53.4235 15.6114 53.1697 16.5042 52.6984 17.2737C52.2271 18.0431 51.5574 18.6579 50.7664 19.0471C49.8368 19.5438 48.8055 19.7968 47.7614 19.7843ZM44.5133 14.4933C44.4876 15.4682 44.7416 16.4288 45.2426 17.2517C46.2555 18.8884 48.1564 19.1812 49.4462 17.8937C51.1344 16.2076 51.1344 12.7685 49.4462 11.0859C49.2067 10.8339 48.9219 10.6339 48.6081 10.4974C48.2943 10.3609 47.9578 10.2907 47.6179 10.2907C47.278 10.2907 46.9414 10.3609 46.6276 10.4974C46.3138 10.6339 46.029 10.8339 45.7895 11.0859C45.3644 11.5298 45.0317 12.0607 44.812 12.6452C44.5924 13.2297 44.4907 13.8553 44.5133 14.4828V14.4933Z" fill="#CCCCCC"/>
<path d="M85.2016 13.616V14.6742C85.0227 14.6742 84.864 14.6989 84.6952 14.6989C83.088 14.6989 81.4808 14.6989 79.8736 14.6989C79.5124 14.6989 79.3672 14.7871 79.3841 15.1927C79.4145 15.8982 79.3841 16.6354 79.3841 17.355C79.3841 18.0745 79.5461 18.2297 80.2417 18.2297H85.2557V19.3126C85.0936 19.3126 84.918 19.3373 84.7661 19.3373H77.9119C77.0442 19.3373 76.6323 18.9246 76.6289 18.0252C76.6402 15.6501 76.6458 13.2868 76.6458 10.9352C76.6458 10.0216 77.0408 9.62305 77.9187 9.62305C80.2315 9.62305 82.5444 9.62305 84.8572 9.62305C85.2557 9.62305 85.3232 9.77119 85.3131 10.138C85.3029 10.5049 85.3131 10.7412 84.8437 10.7306C83.3075 10.6989 81.7712 10.7306 80.2349 10.7306C79.5596 10.7306 79.4009 10.9105 79.3976 11.5878C79.3976 12.1028 79.4178 12.6213 79.3976 13.1327C79.3739 13.5349 79.4955 13.6654 79.8905 13.6583C81.4707 13.6372 83.0475 13.6583 84.6175 13.6583L85.2016 13.616Z" fill="#CCCCCC"/>
<path d="M54.0234 10.7196V9.63672H63.9501V10.7196C63.3018 10.7196 62.6569 10.7196 62.0154 10.7196C61.6001 10.7196 61.0498 10.6138 60.8067 10.8395C60.5636 11.0653 60.7189 11.6402 60.7155 12.0635C60.7155 14.2905 60.7155 16.5139 60.7155 18.7337V19.3016H57.8388V18.7514C57.8388 16.2822 57.8388 13.7743 57.8388 11.2875C57.8388 10.8466 57.7307 10.6949 57.2952 10.709C56.2215 10.7372 55.1377 10.7196 54.0234 10.7196Z" fill="#CCCCCC"/>
<path d="M71.1608 19.3272H68.3213C68.3213 19.1367 68.301 18.9745 68.301 18.7946C68.301 16.2725 68.301 13.754 68.301 11.2355C68.301 10.8298 68.1896 10.6993 67.7979 10.7099C66.8998 10.7381 65.9983 10.7099 65.0664 10.7099V9.64112C65.2487 9.64112 65.4243 9.60938 65.6033 9.60938H74.4022C75.0133 9.60938 75.0133 9.60938 75.01 10.2619C75.01 10.3924 75.01 10.523 75.01 10.724H73.8586C73.1225 10.724 72.3899 10.7417 71.6572 10.724C71.2756 10.724 71.1473 10.8263 71.1507 11.2425C71.1507 13.7469 71.1507 16.2513 71.1507 18.7558L71.1608 19.3272Z" fill="#CCCCCC"/>
<path d="M41.3822 18.2292V19.3192C41.2269 19.3192 41.0783 19.3474 40.9298 19.3474H34.5146C33.6435 19.3474 33.2383 18.9347 33.2383 18.0246C33.2383 15.3615 33.2383 12.6948 33.2383 10.0282C33.2383 9.69306 33.3429 9.59077 33.6536 9.60135C34.2748 9.61899 34.8961 9.62604 35.514 9.60135C35.882 9.58372 36.0002 9.69659 35.9968 10.0917C35.9968 12.4656 35.9968 14.8359 35.9968 17.2063C35.9968 18.0952 36.1217 18.2292 36.976 18.2327H41.416L41.3822 18.2292Z" fill="#CCCCCC"/>
<path d="M138.264 15.3554C138.834 13.8457 139.403 12.336 139.973 10.8263C140.482 9.48238 140.621 9.38008 141.965 9.38361C144.041 9.38361 144.041 9.38361 144.041 11.5811V18.8968C143.29 18.9281 142.539 18.9164 141.789 18.8616C141.613 18.8404 141.37 18.3748 141.364 18.1102C141.323 16.4524 141.347 14.791 141.34 13.1332C141.34 12.8192 141.316 12.5088 141.299 12.1984L141.087 12.1385C140.915 12.5794 140.749 13.0168 140.567 13.4577C140 14.9427 139.426 16.4277 138.879 17.9198C138.656 18.53 138.352 18.9145 137.653 18.9251C136.954 18.9356 136.64 18.5512 136.421 17.9445C135.728 16.0714 135.019 14.2055 134.32 12.336L134.104 12.3572V18.8545H132.571C132.544 18.5582 132.504 18.3042 132.504 18.0503C132.504 15.5882 132.504 13.1285 132.504 10.6711C132.504 9.54234 132.642 9.41536 133.74 9.39067C135.884 9.34834 135.884 9.34834 136.637 11.4824C137.087 12.7781 137.547 14.0714 138.018 15.3624L138.264 15.3554Z" fill="#CCCCCC"/>
<path d="M116.735 16.4661V9.41147C117.542 9.41147 118.295 9.38325 119.044 9.43616C119.186 9.43616 119.416 9.78889 119.419 9.97231C119.442 12.6672 119.442 15.3633 119.419 18.0605C119.407 18.2 119.366 18.3353 119.3 18.457C119.234 18.5787 119.143 18.6841 119.034 18.766C118.146 19.3162 116.411 18.8541 115.854 17.9476C114.695 16.0499 113.551 14.1416 112.396 12.2404C112.295 12.0711 112.167 11.9159 111.89 11.5349C111.849 12.0958 111.805 12.4168 111.805 12.7377C111.805 14.5437 111.788 16.3533 111.805 18.1593C111.805 18.7272 111.633 18.9494 111.073 18.9353C108.652 18.8788 109.128 19.2492 109.097 16.9847C109.067 14.8683 109.097 12.7801 109.097 10.6778C109.097 9.61958 109.29 9.50318 110.269 9.38677C111.684 9.22099 112.609 9.70423 113.308 11.0623C114.135 12.7095 115.158 14.2369 116.097 15.8383C116.242 16.0817 116.404 16.3109 116.556 16.5437L116.735 16.4661Z" fill="#CCCCCC"/>
<path d="M145.445 18.8037C145.871 17.9677 146.249 17.2164 146.634 16.4686C147.704 14.3839 148.791 12.3098 149.838 10.2111C150.206 9.4809 150.767 9.37155 151.465 9.37508C152.114 9.37508 152.613 9.54087 152.924 10.197C154.221 12.9271 155.534 15.6432 156.837 18.3698C156.903 18.5407 156.957 18.7164 156.999 18.8954C156.193 18.9422 155.383 18.928 154.579 18.853C154.302 18.8107 153.988 18.3416 153.863 17.9888C153.569 17.167 153.086 16.8813 152.249 16.9306C151.147 16.9959 150.042 16.9959 148.94 16.9306C148.663 16.8849 148.38 16.9426 148.139 17.0935C147.899 17.2445 147.718 17.4791 147.626 17.756C147.049 19.047 147.019 19.047 145.445 18.8037ZM152.803 15.8724C152.185 14.6096 151.665 13.5056 151.114 12.4227C150.905 12.0171 150.527 11.9712 150.307 12.3768C149.72 13.4738 149.197 14.6026 148.562 15.8724H152.803Z" fill="#CCCCCC"/>
<path d="M101.919 12.1418C101.095 12.1418 100.417 12.1842 99.7481 12.1207C99.4897 12.0519 99.2677 11.8796 99.1302 11.6409C98.4785 10.5827 97.6513 9.79615 96.3582 9.96193C95.065 10.1277 94.3154 11.0483 93.8866 12.2618C93.6007 12.9933 93.4849 13.7852 93.5489 14.5726C93.6129 15.3599 93.8547 16.1202 94.2546 16.7909C95.3621 18.6815 97.6108 18.9073 98.7689 17.0942C99.38 16.1454 100.028 15.8914 100.987 16.036C101.261 16.0713 101.538 16.0713 101.922 16.096C101.532 17.1853 100.749 18.0716 99.7413 18.5651C98.0666 19.4325 96.1307 19.5695 94.3593 18.9461C93.3632 18.6583 92.4861 18.0347 91.8645 17.1722C91.2429 16.3097 90.9115 15.2567 90.9221 14.1771C90.9221 11.9196 92.1579 10.1101 94.2985 9.37286C95.9008 8.80526 97.642 8.83643 99.2247 9.46105C99.8318 9.67954 100.387 10.0321 100.852 10.4947C101.317 10.9573 101.681 11.5191 101.919 12.1418Z" fill="#CCCCCC"/>
<path d="M130.288 18.8293C130.082 18.8505 129.862 18.8928 129.639 18.8963C127.512 18.8963 125.388 18.8963 123.261 18.8963C122.15 18.8963 121.877 18.6212 121.867 17.4854C121.846 15.2679 121.846 13.0468 121.867 10.8223C121.867 9.70058 122.177 9.41134 123.244 9.39017C125.371 9.39017 127.495 9.39017 129.622 9.39017C129.96 9.39017 130.406 9.28082 130.399 9.90516C130.392 10.5295 129.947 10.399 129.605 10.4025C128.255 10.4025 126.884 10.4272 125.523 10.4025C124.848 10.4025 124.544 10.66 124.554 11.3972C124.592 13.6688 124.321 13.2738 126.327 13.302C127.627 13.3196 128.927 13.302 130.298 13.302L130.352 14.332C128.701 14.332 127.117 14.3743 125.54 14.332C124.754 14.3002 124.527 14.5542 124.544 15.3902C124.629 18.212 124.153 17.8381 126.965 17.8593C127.843 17.8593 128.724 17.8805 129.602 17.8593C130.277 17.8205 130.575 18.0498 130.288 18.8293Z" fill="#CCCCCC"/>
<path d="M104.238 18.8815V9.3965C105.001 9.3965 105.731 9.3577 106.45 9.42119C106.615 9.42119 106.875 9.79156 106.879 9.99262C106.908 12.751 106.908 15.5082 106.879 18.2642C106.879 18.4688 106.619 18.8392 106.457 18.8533C105.734 18.9168 105.008 18.8815 104.238 18.8815Z" fill="#CCCCCC"/>
</g>
<defs>
<clipPath id="clip0_1034_2926">
<rect width="157" height="28" fill="white"/>
</clipPath>
</defs>
</svg>
