<svg width="125" height="126" viewBox="0 0 125 126" fill="none" xmlns="http://www.w3.org/2000/svg">
<g clip-path="url(#clip0_1040_2811)">
<path d="M111.674 23.5771C111.695 24.0516 111.608 24.5247 111.418 24.9595C111.228 25.3944 110.941 25.7791 110.579 26.0838C107.73 29.0631 104.816 31.9898 102.019 35.0018C100.52 36.6227 99.1118 36.6817 97.5864 35.1921C94.4769 32.1735 91.3934 29.1221 88.2774 26.1101C87.0909 24.9683 87.1366 23.7805 88.1666 22.6781C91.3478 19.2701 94.5659 15.8994 97.8211 12.5658C97.9951 12.3511 98.2123 12.1757 98.4584 12.0513C98.7044 11.9269 98.9738 11.8562 99.2489 11.8438C99.5239 11.8314 99.7985 11.8776 100.055 11.9794C100.311 12.0812 100.543 12.2363 100.735 12.4346C104.212 15.7113 107.643 19.0186 111.028 22.3565C111.311 22.7231 111.53 23.136 111.674 23.5771Z" fill="#EC5D63"/>
<path d="M59.974 110.796C58.8919 115.166 57.8098 119.72 56.6168 124.255C56.2191 125.777 54.9871 126.223 53.5334 125.888C49.3221 124.869 45.1153 123.826 40.9128 122.758C39.0157 122.273 38.3052 121.098 38.7941 119.09C39.8045 115.192 40.7041 111.261 41.6885 107.35C42.2426 105.139 43.3247 103.991 45.8997 104.726C49.7394 105.854 53.6768 106.694 57.5555 107.652C59.0549 108.046 60.1826 108.801 59.974 110.796Z" fill="#EC5D63"/>
<path d="M118.356 86.6213C114.386 85.5779 109.771 84.423 105.182 83.1433C103.604 82.7037 103.441 81.4306 103.8 79.9804C104.816 75.8528 105.755 71.7121 106.818 67.5976C107.287 65.7668 108.33 64.8349 110.41 65.3861C114.491 66.4623 118.617 67.3942 122.717 68.4179C124.673 68.8969 125.325 70.1371 124.843 72.0927C123.839 76.1087 122.887 80.1379 121.876 84.1539C121.505 85.6501 120.814 86.8182 118.356 86.6213Z" fill="#EC5D63"/>
<path d="M101.181 112.64C100.26 112.522 99.4123 112.072 98.7953 111.373C95.8292 108.486 92.9283 105.546 89.91 102.718C88.3389 101.248 88.5019 99.8829 89.8187 98.4917C92.7262 95.4009 95.7184 92.3889 98.6127 89.3047C99.9165 87.9004 101.22 87.8282 102.524 89.1078C105.751 92.1855 108.965 95.2828 112.126 98.4327C113.046 99.3448 113.43 100.559 112.4 101.655C109.128 105.155 105.823 108.613 102.485 112.029C102.09 112.309 101.648 112.516 101.181 112.64Z" fill="#EC5D63"/>
<path d="M26.3965 113.853C24.7733 113.761 23.5934 112.836 22.4852 111.753C19.7929 109.089 17.1397 106.392 14.4148 103.767C13.1762 102.586 12.8959 101.536 14.1931 100.204C17.1266 97.1721 19.9884 94.0747 22.9024 91.0168C23.3179 90.5106 23.858 90.123 24.4689 89.8927C25.0797 89.6625 25.7399 89.5975 26.3835 89.7043C29.4278 92.7689 32.3417 95.9581 35.5099 98.8388C37.7264 100.807 37.3939 102.363 35.549 104.24C32.4917 107.416 29.4604 110.651 26.3965 113.853Z" fill="#EC5D63"/>
<path d="M87.8804 118.881C88.0107 120.646 87.3523 121.263 86.3093 121.565C81.8439 122.877 77.3784 124.13 72.926 125.456C71.4788 125.889 70.5401 125.325 70.1424 124.025C68.8386 119.662 67.5349 115.265 66.3223 110.868C66.2037 110.557 66.1525 110.224 66.172 109.891C66.1916 109.558 66.2815 109.233 66.4358 108.938C66.5901 108.643 66.8051 108.385 67.0666 108.18C67.3281 107.975 67.63 107.829 67.9521 107.751C72.3914 106.38 76.8699 105.126 81.3549 103.886C81.5898 103.801 81.839 103.765 82.0881 103.778C82.3372 103.791 82.5812 103.855 82.8058 103.964C83.0303 104.073 83.231 104.227 83.396 104.415C83.561 104.603 83.6871 104.823 83.7669 105.061C85.2467 109.831 86.6287 114.635 87.8804 118.881Z" fill="#EC5D63"/>
<path d="M103.001 44.0259C102.89 41.9589 103.887 41.2108 105.237 40.8236C109.291 39.6424 113.359 38.5268 117.407 37.3325C119.226 36.7944 120.289 37.3325 120.804 39.2159C121.977 43.5141 123.177 47.8057 124.441 52.0777C124.917 53.6854 124.376 54.6041 122.877 55.0569C118.626 56.3169 114.372 57.5659 110.113 58.8039C108.809 59.1845 107.505 58.9745 107.094 57.6621C105.608 53.0095 104.304 48.2913 103.001 44.0259Z" fill="#EC5D63"/>
<path d="M5.82236 39.4261C10.2161 40.5744 14.6294 41.6835 19.0036 42.9106C20.3074 43.2781 20.8289 44.3149 20.4769 45.7454C19.4208 49.9715 18.456 54.2237 17.3673 58.4366C16.9762 59.9394 15.8745 60.4643 14.3295 60.0903C10.2226 59.06 6.09615 58.1742 2.00228 57.0914C0.457298 56.6977 -0.311933 55.5755 0.118315 53.8563C1.09615 49.919 1.9762 45.9817 3.0453 42.1231C3.39732 40.8304 3.76238 39.1964 5.82236 39.4261Z" fill="#EC5D63"/>
<path d="M7.348 88.0314C5.03378 88.3201 4.29715 87.4867 3.93861 86.194C2.80432 82.1058 1.7287 77.9979 0.522702 73.9293C0.0207466 72.2429 0.77694 71.4029 2.17199 70.9698C6.20719 69.7164 10.2619 68.5221 14.3232 67.354C16.1746 66.8159 17.185 67.7609 17.6805 69.4867C18.8213 73.4634 19.936 77.4466 21.142 81.4036C21.5722 82.8145 21.2463 83.9301 19.9295 84.3369C15.4966 85.7347 11.0116 86.9683 7.348 88.0314Z" fill="#EC5D63"/>
<path d="M58.3031 15.6763C57.221 11.3125 56.1389 6.75177 54.9459 2.21732C54.5483 0.694903 53.3162 0.248676 51.8625 0.583346C47.6512 1.60267 43.4444 2.64824 39.2419 3.72006C37.3383 4.1991 36.6017 5.37372 37.1167 7.38174C38.1336 11.2797 39.0333 15.2104 40.0176 19.1214C40.5717 21.3329 41.6539 22.4813 44.2288 21.7463C48.0685 20.6176 52.0059 19.8105 55.8846 18.8196C57.3644 18.4259 58.4922 17.6712 58.3031 15.6763Z" fill="#EC5D63"/>
<path d="M24.1711 37.6339C23.2484 37.5147 22.3991 37.0651 21.7787 36.3674C18.8191 33.48 15.9116 30.5336 12.8934 27.7119C11.3289 26.242 11.4918 24.877 12.8021 23.4859C15.7161 20.3951 18.7083 17.3831 21.6027 14.2988C22.9064 12.8945 24.2102 12.8224 25.514 14.102C28.7409 17.1796 31.9547 20.277 35.1163 23.4268C36.029 24.3389 36.4201 25.5529 35.3901 26.6488C32.1176 30.1486 28.8104 33.6069 25.4684 37.0236C25.0761 37.3042 24.6366 37.511 24.1711 37.6339Z" fill="#EC5D63"/>
<path d="M86.2911 6.71913C86.4149 4.95391 85.763 4.33707 84.7135 4.03521C80.2546 2.72278 75.7891 1.46941 71.3367 0.143851C69.883 -0.289251 68.9443 0.275095 68.5531 1.5744C67.2494 5.9448 65.9456 10.3349 64.7331 14.7315C64.6144 15.0424 64.5629 15.3752 64.582 15.7077C64.6012 16.0402 64.6906 16.3647 64.8442 16.6597C64.9978 16.9547 65.2121 17.2133 65.4728 17.4183C65.7336 17.6233 66.0348 17.77 66.3563 17.8486C70.8022 19.22 75.2741 20.4734 79.7591 21.7202C79.9949 21.804 80.2448 21.8398 80.4944 21.8256C80.744 21.8115 80.9884 21.7476 81.2133 21.6378C81.4382 21.5279 81.6393 21.3742 81.8048 21.1856C81.9703 20.997 82.0971 20.7773 82.1776 20.539C83.6574 15.7487 85.0329 10.9649 86.2911 6.71913Z" fill="#EC5D63"/>
</g>
<defs>
<clipPath id="clip0_1040_2811">
<rect width="125" height="126" fill="white"/>
</clipPath>
</defs>
</svg>
