<svg width="200" height="200" viewBox="0 0 200 200" fill="none" xmlns="http://www.w3.org/2000/svg">
<g clip-path="url(#clip0_1086_6826)">
<path d="M178.681 37.4243C178.716 38.1775 178.575 38.9285 178.271 39.6187C177.967 40.3089 177.508 40.9196 176.929 41.4033C172.371 46.1322 167.708 50.7778 163.234 55.5588C160.835 58.1316 158.582 58.2253 156.141 55.8609C151.166 51.0695 146.233 46.226 141.247 41.445C139.349 39.6326 139.422 37.7472 141.07 35.9973C146.16 30.5879 151.309 25.2375 156.517 19.9461C156.795 19.6052 157.143 19.3269 157.537 19.1294C157.93 18.9319 158.361 18.8197 158.801 18.8C159.241 18.7803 159.681 18.8537 160.09 19.0153C160.5 19.1769 160.871 19.4231 161.179 19.7378C166.742 24.9389 172.232 30.1886 177.649 35.4869C178.101 36.0688 178.451 36.7242 178.681 37.4243Z" fill="#EB5D63"/>
<path d="M95.9592 175.866C94.2278 182.803 92.4964 190.032 90.5877 197.229C89.9514 199.646 87.9801 200.354 85.6541 199.823C78.9162 198.205 72.1852 196.549 65.4612 194.854C62.426 194.083 61.2891 192.219 62.0714 189.032C63.688 182.844 65.1274 176.605 66.7024 170.397C67.589 166.887 69.3204 165.064 73.4403 166.231C79.5837 168.022 85.8836 169.356 92.0896 170.876C94.4886 171.501 96.293 172.699 95.9592 175.866Z" fill="#EB5D63"/>
<path d="M189.373 137.492C183.021 135.836 175.637 134.003 168.294 131.971C165.769 131.274 165.509 129.253 166.082 126.951C167.71 120.399 169.211 113.827 170.912 107.296C171.663 104.39 173.331 102.91 176.659 103.785C183.188 105.494 189.79 106.973 196.351 108.598C199.48 109.358 200.523 111.327 199.751 114.431C198.145 120.805 196.622 127.201 195.005 133.575C194.411 135.95 193.305 137.804 189.373 137.492Z" fill="#EB5D63"/>
<path d="M161.887 178.794C160.413 178.607 159.056 177.892 158.069 176.783C153.324 172.2 148.682 167.534 143.853 163.044C141.339 160.711 141.6 158.545 143.707 156.336C148.359 151.431 153.146 146.65 157.777 141.754C159.863 139.525 161.949 139.41 164.035 141.441C169.198 146.327 174.34 151.243 179.399 156.243C180.87 157.691 181.485 159.618 179.837 161.357C174.601 166.912 169.313 172.402 163.973 177.825C163.34 178.269 162.634 178.597 161.887 178.794Z" fill="#EB5D63"/>
<path d="M42.2321 180.719C39.6349 180.574 37.7471 179.105 35.9739 177.386C31.6662 173.157 27.4211 168.876 23.0613 164.71C21.0795 162.835 20.631 161.168 22.7066 159.054C27.4003 154.242 31.9791 149.325 36.6415 144.471C37.3063 143.668 38.1705 143.053 39.1478 142.687C40.1252 142.322 41.1815 142.218 42.2112 142.388C47.0821 147.252 51.7444 152.315 56.8136 156.887C60.3598 160.012 59.8279 162.481 56.8761 165.46C51.9843 170.501 47.1343 175.636 42.2321 180.719Z" fill="#EB5D63"/>
<path d="M140.611 188.699C140.82 191.501 139.766 192.48 138.097 192.959C130.953 195.043 123.808 197.032 116.684 199.136C114.368 199.824 112.866 198.928 112.23 196.865C110.144 189.939 108.058 182.96 106.118 175.981C105.928 175.487 105.846 174.958 105.878 174.43C105.909 173.901 106.053 173.386 106.3 172.917C106.546 172.449 106.891 172.039 107.309 171.714C107.727 171.389 108.21 171.157 108.726 171.034C115.829 168.857 122.994 166.867 130.17 164.898C130.546 164.764 130.945 164.706 131.343 164.727C131.742 164.748 132.132 164.848 132.492 165.022C132.851 165.196 133.172 165.439 133.436 165.738C133.7 166.037 133.902 166.385 134.029 166.763C136.397 174.335 138.608 181.96 140.611 188.699Z" fill="#EB5D63"/>
<path d="M164.799 69.8817C164.621 66.6006 166.217 65.4132 168.376 64.7987C174.864 62.9238 181.372 61.153 187.849 59.2573C190.76 58.4032 192.46 59.2573 193.284 62.2467C195.161 69.0693 197.08 75.8814 199.104 82.6623C199.865 85.2143 198.999 86.6725 196.6 87.3912C189.8 89.3911 182.992 91.3737 176.178 93.3388C174.092 93.943 172.006 93.6097 171.349 91.5264C168.971 84.1414 166.885 76.6522 164.799 69.8817Z" fill="#EB5D63"/>
<path d="M9.31577 62.5795C16.3458 64.4023 23.407 66.1626 30.4057 68.1104C32.4918 68.6937 33.3262 70.3395 32.763 72.6102C31.0733 79.3182 29.5296 86.0678 27.7877 92.755C27.1619 95.1403 25.3992 95.9736 22.9272 95.3799C16.3562 93.7445 9.75384 92.3383 3.20364 90.6197C0.731676 89.9947 -0.499093 88.2136 0.189303 85.4845C1.75384 79.2349 3.16192 72.9852 4.87248 66.8605C5.43572 64.8085 6.01981 62.2149 9.31577 62.5795Z" fill="#EB5D63"/>
<path d="M11.7552 139.733C8.05249 140.191 6.87387 138.868 6.30021 136.816C4.48535 130.327 2.76436 123.806 0.834761 117.348C0.0316321 114.671 1.24154 113.338 3.47361 112.651C9.92994 110.661 16.4176 108.765 22.9156 106.911C25.8778 106.057 27.4945 107.557 28.2872 110.297C30.1125 116.609 31.896 122.931 33.8256 129.212C34.514 131.452 33.9925 133.223 31.8856 133.868C24.793 136.087 17.617 138.045 11.7552 139.733Z" fill="#EB5D63"/>
<path d="M93.2866 24.8832C91.5552 17.9565 89.8237 10.7173 87.915 3.51978C87.2788 1.10324 85.3074 0.394941 82.9815 0.926163C76.2436 2.54413 69.5126 4.20377 62.7885 5.90507C59.7429 6.66545 58.5643 8.52993 59.3883 11.7173C61.0154 17.9044 62.4548 24.1437 64.0297 30.3517C64.9163 33.8619 66.6477 35.6848 70.7677 34.5182C76.9111 32.7266 83.211 31.4454 89.417 29.8726C91.7846 29.2476 93.5891 28.0497 93.2866 24.8832Z" fill="#EB5D63"/>
<path d="M38.6745 59.737C37.1982 59.5479 35.8394 58.8342 34.8466 57.7267C30.1113 53.1436 25.4594 48.4668 20.6302 43.9878C18.127 41.6546 18.3877 39.4881 20.4842 37.2799C25.1465 32.3739 29.934 27.5929 34.565 22.6973C36.6511 20.4682 38.7371 20.3537 40.8232 22.3848C45.9861 27.27 51.1283 32.1864 56.1869 37.1861C57.6472 38.634 58.273 40.5609 56.625 42.3004C51.389 47.8557 46.0974 53.345 40.7502 58.7683C40.1226 59.2138 39.4193 59.542 38.6745 59.737Z" fill="#EB5D63"/>
<path d="M138.065 10.6653C138.263 7.86335 137.22 6.88424 135.541 6.4051C128.407 4.32187 121.262 2.33239 114.138 0.228336C111.812 -0.459129 110.31 0.436658 109.684 2.49905C107.598 9.43619 105.512 16.4046 103.572 23.3834C103.382 23.8768 103.3 24.4051 103.33 24.9328C103.361 25.4606 103.504 25.9757 103.75 26.4439C103.996 26.9122 104.339 27.3227 104.756 27.6481C105.173 27.9735 105.655 28.2063 106.169 28.331C113.283 30.508 120.438 32.4975 127.614 34.4765C127.991 34.6094 128.391 34.6663 128.79 34.6438C129.19 34.6214 129.581 34.52 129.94 34.3456C130.3 34.1713 130.622 33.9273 130.887 33.628C131.152 33.3286 131.355 32.9798 131.483 32.6016C133.851 24.9979 136.052 17.4045 138.065 10.6653Z" fill="#EB5D63"/>
</g>
<defs>
<clipPath id="clip0_1086_6826">
<rect width="200" height="200" fill="white"/>
</clipPath>
</defs>
</svg>
