<svg width="27" height="27" viewBox="0 0 27 27" fill="none" xmlns="http://www.w3.org/2000/svg">
<g clip-path="url(#clip0_1012_2887)">
<path d="M0.160156 0.150625V26.8406H13.2902C20.7802 26.8406 26.8402 20.8606 26.8402 13.4906C26.8402 6.12062 20.7702 0.140625 13.2902 0.140625H0.160156V0.150625Z" fill="white"/>
<path d="M0 0H13.29C20.85 0 27 6.06 27 13.5C27 20.94 20.85 27 13.29 27H0V0ZM0.31 0.31V26.69H13.29C20.68 26.69 26.69 20.77 26.69 13.5C26.69 6.23 20.68 0.31 13.29 0.31H0.31Z" fill="#BEBDBD"/>
<path d="M14.9591 13.4704L12.0391 16.3504L14.9591 13.4704L12.0991 10.6504L14.9591 13.4704Z" fill="white"/>
<path d="M12.5391 16.8402L15.9591 13.4702L12.5991 10.1602L11.5991 11.1402L13.9691 13.4702L11.5391 15.8602L12.5391 16.8402Z" fill="#BEBDBD"/>
</g>
<defs>
<clipPath id="clip0_1012_2887">
<rect width="27" height="27" fill="white"/>
</clipPath>
</defs>
</svg>
