<svg width="27" height="27" viewBox="0 0 27 27" fill="none" xmlns="http://www.w3.org/2000/svg">
<g clip-path="url(#clip0_1012_2879)">
<path d="M13.7102 0.150391C6.22016 0.150391 0.160156 6.13039 0.160156 13.5004C0.160156 20.8704 6.23016 26.8504 13.7102 26.8504H26.8402V0.150391H13.7102Z" fill="white"/>
<path d="M27 27H13.71C6.15 27 0 20.94 0 13.5C0 6.06 6.15 0 13.71 0H27V27ZM13.71 0.31C6.32 0.31 0.31 6.23 0.31 13.5C0.31 20.77 6.32 26.69 13.71 26.69H26.69V0.31H13.71Z" fill="#BEBDBD"/>
<path d="M14.8991 10.6504L12.0391 13.4704L14.9591 16.3504L12.0391 13.4704L14.8991 10.6504Z" fill="white"/>
<path d="M14.4591 16.8402L11.0391 13.4702L14.3991 10.1602L15.3991 11.1402L13.0291 13.4702L15.4591 15.8602L14.4591 16.8402Z" fill="#BEBDBD"/>
</g>
<defs>
<clipPath id="clip0_1012_2879">
<rect width="27" height="27" fill="white"/>
</clipPath>
</defs>
</svg>
