<svg width="26" height="17" viewBox="0 0 26 17" fill="none" xmlns="http://www.w3.org/2000/svg">
<path d="M24.4838 2.59534C24.3434 2.09448 24.0699 1.64103 23.6924 1.28318C23.3042 0.914338 22.8284 0.650494 22.31 0.516555C20.3696 0.00512338 12.5959 0.0051235 12.5959 0.0051235C9.35511 -0.0317485 6.11511 0.130424 2.8942 0.490725C2.37573 0.634559 1.90085 0.904299 1.51179 1.27595C1.1295 1.64377 0.852609 2.09734 0.707961 2.59431C0.360491 4.46619 0.191666 6.36686 0.203763 8.27068C0.191364 10.1728 0.359775 12.0728 0.707961 13.947C0.849509 14.4419 1.12537 14.8935 1.50869 15.2582C1.892 15.6229 2.36934 15.8864 2.8942 16.0258C4.86037 16.5362 12.5959 16.5362 12.5959 16.5362C15.8408 16.5732 19.0849 16.411 22.31 16.0506C22.8284 15.9167 23.3042 15.6528 23.6924 15.284C24.0698 14.9262 24.343 14.4727 24.4828 13.9718C24.8393 12.1007 25.0127 10.1992 25.0004 8.29444C25.0272 6.38159 24.8541 4.47117 24.4838 2.59431V2.59534ZM10.1245 11.8083V4.73405L16.5923 8.27171L10.1245 11.8083Z" fill="black"/>
</svg>
