<svg width="24" height="23" viewBox="0 0 24 23" fill="none" xmlns="http://www.w3.org/2000/svg">
<path d="M11.6 0.599609C18.0065 0.599609 23.2 4.70048 23.2 9.76054C23.2 14.8195 18.0065 18.9204 11.6 18.9204C10.9621 18.9207 10.3248 18.8796 9.69208 18.7972L4.82229 22.024C4.2688 22.3206 4.07326 22.2881 4.30084 21.5618L5.28629 17.4452C2.10457 15.8111 0 12.9795 0 9.76054C0 4.7016 5.19349 0.599609 11.6 0.599609ZM18.1258 9.62064L19.7498 8.02685C19.8435 7.92825 19.8958 7.79666 19.8957 7.65979C19.8955 7.52292 19.8429 7.39145 19.749 7.29309C19.655 7.19472 19.5271 7.13714 19.392 7.13246C19.257 7.12778 19.1255 7.17638 19.0251 7.26801L16.8951 9.3565V7.63064C16.8951 7.49053 16.8402 7.35616 16.7424 7.25709C16.6446 7.15802 16.512 7.10236 16.3737 7.10236C16.2354 7.10236 16.1027 7.15802 16.005 7.25709C15.9072 7.35616 15.8522 7.49053 15.8522 7.63064V10.4925C15.8327 10.5742 15.8327 10.6594 15.8522 10.741V12.3516C15.8522 12.4917 15.9072 12.626 16.005 12.7251C16.1027 12.8242 16.2354 12.8798 16.3737 12.8798C16.512 12.8798 16.6446 12.8242 16.7424 12.7251C16.8402 12.626 16.8951 12.4917 16.8951 12.3516V10.8261L17.3669 10.3638L18.9445 12.6392C18.9838 12.696 19.0339 12.7444 19.0917 12.7816C19.1496 12.8188 19.2141 12.8441 19.2816 12.8561C19.3491 12.868 19.4183 12.8664 19.4852 12.8513C19.552 12.8362 19.6153 12.8078 19.6714 12.7679C19.7275 12.728 19.7752 12.6773 19.812 12.6187C19.8487 12.5601 19.8737 12.4947 19.8855 12.4264C19.8973 12.358 19.8957 12.2879 19.8807 12.2201C19.8658 12.1524 19.8378 12.0883 19.7984 12.0315L18.1258 9.61952V9.62064ZM14.8579 11.774H13.245V7.64743C13.2388 7.51167 13.1812 7.38355 13.0842 7.28969C12.9872 7.19583 12.8582 7.14346 12.7241 7.14346C12.59 7.14346 12.461 7.19583 12.364 7.28969C12.2669 7.38355 12.2094 7.51167 12.2032 7.64743V12.3023C12.2032 12.5933 12.4352 12.8306 12.7235 12.8306H14.8579C14.9962 12.8306 15.1289 12.7749 15.2267 12.6759C15.3245 12.5768 15.3794 12.4424 15.3794 12.3023C15.3794 12.1622 15.3245 12.0278 15.2267 11.9288C15.1289 11.8297 14.9962 11.774 14.8579 11.774ZM8.38735 10.5518L9.15627 8.64131L9.8611 10.5518H8.38735ZM11.1747 11.098L11.1769 11.0801C11.1766 10.947 11.1265 10.819 11.0366 10.722L9.88099 7.58811C9.83255 7.43877 9.74028 7.30796 9.6165 7.21316C9.49272 7.11836 9.34334 7.06409 9.18831 7.05759C9.03214 7.0569 8.87946 7.10439 8.75059 7.19376C8.62172 7.28314 8.52277 7.41014 8.4669 7.55789L6.63189 12.1188C6.60599 12.183 6.59283 12.2518 6.59317 12.3212C6.59351 12.3905 6.60733 12.4592 6.63385 12.5231C6.66037 12.5871 6.69906 12.6452 6.74773 12.694C6.79639 12.7428 6.85407 12.7814 6.91747 12.8077C6.98087 12.8339 7.04875 12.8472 7.11723 12.8469C7.18571 12.8465 7.25346 12.8325 7.3166 12.8057C7.37975 12.7788 7.43705 12.7396 7.48523 12.6903C7.53342 12.641 7.57155 12.5826 7.59745 12.5183L7.96202 11.6084H10.2489L10.5792 12.5038C10.6017 12.5707 10.6371 12.6324 10.6836 12.6852C10.73 12.738 10.7864 12.7808 10.8494 12.8111C10.9125 12.8414 10.9809 12.8585 11.0506 12.8616C11.1203 12.8646 11.1899 12.8534 11.2553 12.8287C11.3206 12.804 11.3804 12.7662 11.4311 12.7176C11.4818 12.6691 11.5224 12.6107 11.5504 12.5459C11.5785 12.4812 11.5934 12.4114 11.5943 12.3407C11.5952 12.2701 11.5821 12.1999 11.5558 12.1344L11.1747 11.098ZM7.50465 7.65302C7.50465 7.51311 7.44986 7.37891 7.35231 7.27987C7.25476 7.18083 7.12241 7.12504 6.9843 7.12475H3.39935C3.26106 7.12475 3.12842 7.1804 3.03063 7.27948C2.93284 7.37855 2.8779 7.51292 2.8779 7.65302C2.8779 7.79313 2.93284 7.9275 3.03063 8.02657C3.12842 8.12565 3.26106 8.1813 3.39935 8.1813H4.68088V12.3628C4.68088 12.5029 4.73581 12.6372 4.8336 12.7363C4.9314 12.8354 5.06403 12.891 5.20232 12.891C5.34062 12.891 5.47325 12.8354 5.57104 12.7363C5.66883 12.6372 5.72377 12.5029 5.72377 12.3628V8.1813H6.9832C7.1215 8.1813 7.25413 8.12565 7.35192 8.02657C7.44971 7.9275 7.50465 7.79313 7.50465 7.65302Z" fill="black"/>
</svg>
