<svg width="24" height="24" viewBox="0 0 24 24" fill="none" xmlns="http://www.w3.org/2000/svg">
<path fill-rule="evenodd" clip-rule="evenodd" d="M7.48128 0.868981C8.69338 0.813181 9.07985 0.800781 12.1674 0.800781C15.255 0.800781 15.6415 0.814215 16.8526 0.868981C18.0636 0.923748 18.8903 1.11698 19.6136 1.39701C20.3711 1.68325 21.0582 2.13068 21.6266 2.70935C22.2052 3.27665 22.6516 3.96278 22.9368 4.72125C23.2179 5.44458 23.4101 6.27125 23.4659 7.48025C23.5217 8.69441 23.5341 9.08088 23.5341 12.1674C23.5341 15.255 23.5207 15.6415 23.4659 16.8536C23.4111 18.0626 23.2179 18.8893 22.9368 19.6126C22.6516 20.3712 22.2045 21.0585 21.6266 21.6266C21.0582 22.2052 20.3711 22.6516 19.6136 22.9368C18.8903 23.2179 18.0636 23.4101 16.8546 23.4659C15.6415 23.5217 15.255 23.5341 12.1674 23.5341C9.07985 23.5341 8.69338 23.5207 7.48128 23.4659C6.27228 23.4111 5.44561 23.2179 4.72228 22.9368C3.96373 22.6516 3.27646 22.2045 2.70831 21.6266C2.13004 21.0589 1.68254 20.372 1.39701 19.6136C1.11698 18.8903 0.924781 18.0636 0.868981 16.8546C0.813181 15.6405 0.800781 15.254 0.800781 12.1674C0.800781 9.07985 0.814215 8.69338 0.868981 7.48231C0.923748 6.27125 1.11698 5.44458 1.39701 4.72125C1.68296 3.96287 2.1308 3.27594 2.70935 2.70831C3.27669 2.13017 3.96327 1.68267 4.72125 1.39701C5.44458 1.11698 6.27125 0.924781 7.48025 0.868981H7.48128ZM16.7606 2.91498C15.5619 2.86021 15.2023 2.84885 12.1674 2.84885C9.13255 2.84885 8.77295 2.86021 7.57428 2.91498C6.46551 2.96561 5.86411 3.15058 5.46318 3.30661C4.93308 3.51328 4.55385 3.75818 4.15601 4.15601C3.77889 4.5229 3.48867 4.96954 3.30661 5.46318C3.15058 5.86411 2.96561 6.46551 2.91498 7.57428C2.86021 8.77295 2.84885 9.13255 2.84885 12.1674C2.84885 15.2023 2.86021 15.5619 2.91498 16.7606C2.96561 17.8694 3.15058 18.4708 3.30661 18.8717C3.48848 19.3646 3.77885 19.812 4.15601 20.1789C4.52285 20.556 4.97028 20.8464 5.46318 21.0283C5.86411 21.1843 6.46551 21.3693 7.57428 21.4199C8.77295 21.4747 9.13151 21.486 12.1674 21.486C15.2034 21.486 15.5619 21.4747 16.7606 21.4199C17.8694 21.3693 18.4708 21.1843 18.8717 21.0283C19.4018 20.8216 19.781 20.5767 20.1789 20.1789C20.556 19.812 20.8464 19.3646 21.0283 18.8717C21.1843 18.4708 21.3693 17.8694 21.4199 16.7606C21.4747 15.5619 21.486 15.2023 21.486 12.1674C21.486 9.13255 21.4747 8.77295 21.4199 7.57428C21.3693 6.46551 21.1843 5.86411 21.0283 5.46318C20.8216 4.93308 20.5767 4.55385 20.1789 4.15601C19.812 3.77892 19.3653 3.4887 18.8717 3.30661C18.4708 3.15058 17.8694 2.96561 16.7606 2.91498ZM10.7156 15.6715C11.5264 16.009 12.4293 16.0546 13.2699 15.8004C14.1106 15.5462 14.837 15.008 15.3249 14.2778C15.8129 13.5475 16.0322 12.6705 15.9454 11.7966C15.8586 10.9226 15.471 10.1059 14.8489 9.48595C14.4524 9.08964 13.9729 8.78619 13.445 8.59743C12.9171 8.40868 12.3539 8.33932 11.796 8.39435C11.238 8.44938 10.6992 8.62743 10.2184 8.91568C9.73752 9.20393 9.32655 9.59522 9.01506 10.0614C8.70357 10.5275 8.49931 11.0569 8.41698 11.6115C8.33465 12.166 8.3763 12.7319 8.53894 13.2685C8.70157 13.805 8.98114 14.2988 9.35753 14.7143C9.73391 15.1298 10.1977 15.4567 10.7156 15.6715ZM8.03618 8.03618C8.57871 7.49366 9.22278 7.0633 9.93162 6.76969C10.6405 6.47608 11.4002 6.32495 12.1674 6.32495C12.9347 6.32495 13.6944 6.47607 14.4033 6.76969C15.1121 7.0633 15.7562 7.49366 16.2987 8.03618C16.8412 8.57871 17.2716 9.22278 17.5652 9.93162C17.8588 10.6405 18.0099 11.4002 18.0099 12.1674C18.0099 12.9347 17.8588 13.6944 17.5652 14.4033C17.2716 15.1121 16.8412 15.7562 16.2987 16.2987C15.203 17.3944 13.717 18.0099 12.1674 18.0099C10.6179 18.0099 9.13186 17.3944 8.03618 16.2987C6.9405 15.203 6.32495 13.717 6.32495 12.1674C6.32495 10.6179 6.9405 9.13186 8.03618 8.03618ZM19.3057 7.19505C19.4402 7.06823 19.5478 6.91572 19.6222 6.74655C19.6967 6.57739 19.7364 6.39501 19.7391 6.21021C19.7418 6.02541 19.7074 5.84195 19.6379 5.67068C19.5684 5.49942 19.4653 5.34384 19.3346 5.21315C19.2039 5.08247 19.0483 4.97933 18.8771 4.90985C18.7058 4.84037 18.5224 4.80596 18.3376 4.80865C18.1528 4.81134 17.9704 4.85109 17.8012 4.92553C17.632 4.99998 17.4795 5.10761 17.3527 5.24205C17.1061 5.50351 16.971 5.85081 16.9763 6.21021C16.9815 6.56961 17.1266 6.91282 17.3808 7.16699C17.6349 7.42115 17.9781 7.56625 18.3376 7.57149C18.697 7.57673 19.0443 7.44169 19.3057 7.19505Z" fill="black"/>
</svg>
