<svg width="26" height="21" viewBox="0 0 26 21" fill="none" xmlns="http://www.w3.org/2000/svg">
<path d="M25.1758 3.00808C24.2573 3.41508 23.2706 3.69008 22.2333 3.81438C23.3036 3.17395 24.1044 2.16599 24.4861 0.97858C23.4805 1.57587 22.38 1.99629 21.2323 2.22158C20.4605 1.39753 19.4383 0.851338 18.3243 0.667801C17.2103 0.484264 16.0668 0.67365 15.0715 1.20656C14.0761 1.73946 13.2846 2.58608 12.8197 3.61495C12.3548 4.64383 12.2426 5.7974 12.5005 6.89658C10.463 6.79427 8.46971 6.26468 6.65009 5.34217C4.83046 4.41967 3.22514 3.12486 1.93832 1.54178C1.49832 2.30078 1.24532 3.18078 1.24532 4.11798C1.24483 4.96167 1.45259 5.79245 1.85019 6.53658C2.24778 7.28072 2.8229 7.91522 3.52452 8.38378C2.71082 8.35789 1.91508 8.13802 1.20352 7.74248V7.80848C1.20344 8.99179 1.61275 10.1387 2.36202 11.0546C3.11129 11.9705 4.15435 12.5989 5.31422 12.8333C4.55938 13.0376 3.76799 13.0677 2.99982 12.9213C3.32707 13.9395 3.96451 14.8298 4.82292 15.4677C5.68133 16.1056 6.71773 16.4591 7.78702 16.4787C5.97184 17.9036 3.73009 18.6766 1.42242 18.6732C1.01364 18.6733 0.605203 18.6494 0.199219 18.6017C2.54164 20.1078 5.26839 20.9071 8.05322 20.904C17.4802 20.904 22.6337 13.0962 22.6337 6.32458C22.6337 6.10458 22.6282 5.88238 22.6183 5.66238C23.6207 4.93745 24.486 4.03976 25.1736 3.01138L25.1758 3.00808Z" fill="black"/>
</svg>
