<svg width="21" height="20" viewBox="0 0 21 20" fill="none" xmlns="http://www.w3.org/2000/svg">
<path d="M13.817 10.01V9.14411C13.817 6.53305 13.831 3.92064 13.8058 1.30958C13.8058 0.68552 14.0084 0.393751 14.6762 0.400505C16.2828 0.416715 17.8894 0.411311 19.496 0.400505C20.126 0.400505 20.3984 0.620682 20.397 1.27986C20.3766 7.11164 20.3766 12.9425 20.397 18.7725C20.397 19.383 20.1987 19.6127 19.5588 19.5992C17.976 19.5667 16.3917 19.5762 14.8089 19.5992C14.3339 19.6059 14.0559 19.4249 13.7877 19.0494C11.6767 16.102 9.54765 13.1748 7.42555 10.2423C7.33474 10.118 7.23136 10.0005 7.00644 9.71954C6.98548 10.1437 6.96173 10.3949 6.96173 10.6475C6.96173 13.3491 6.94077 16.0507 6.96872 18.7522C6.96872 19.41 6.73541 19.6127 6.07601 19.5992C4.44706 19.5667 2.81672 19.5721 1.18637 19.5992C0.627559 19.6086 0.397047 19.4276 0.398444 18.8643C0.411483 12.9668 0.411483 7.06841 0.398444 1.1691C0.397047 0.654452 0.608 0.412662 1.13049 0.412662C2.80694 0.412662 4.48338 0.382945 6.15983 0.434275C6.46019 0.442379 6.84019 0.723342 7.03018 0.982692C9.07126 3.77746 11.0816 6.59248 13.1017 9.40076C13.2694 9.63174 13.4496 9.85597 13.6242 10.0829L13.817 10.01Z" fill="black"/>
</svg>
