<svg width="528" height="203" viewBox="0 0 528 203" fill="none" xmlns="http://www.w3.org/2000/svg">
<path d="M93.9986 181.072C86.3486 181.072 79.5186 184.442 72.3786 186.442C55.3786 191.202 38.5986 196.442 21.7086 201.442C15.7786 203.192 13.2386 201.752 11.5686 196.042C7.82861 183.492 4.25861 170.852 0.398612 158.312C-0.411388 155.682 -0.101388 154.312 2.39861 153.312C4.65861 152.442 6.04861 150.572 7.51861 148.712C11.3186 143.892 14.5186 143.112 20.2086 145.292C25.7386 147.392 28.9786 146.432 32.7786 141.572C36.9986 136.172 38.9886 135.662 45.6386 137.842C50.4886 139.432 54.6386 138.762 58.0386 134.342C62.7786 128.212 64.1786 127.872 71.6886 130.412C75.9986 131.872 79.8386 131.412 82.4286 127.762C83.7708 125.856 85.4906 124.247 87.4809 123.034C89.4713 121.821 91.6898 121.031 93.9986 120.712C101.999 124.712 104.109 124.192 109.609 117.292C112.899 113.182 116.509 112.292 122.099 114.392C128.159 116.602 130.549 115.882 134.439 110.672C138.189 105.672 141.599 104.672 147.439 106.892C153.279 109.112 156.009 108.302 159.849 103.152C163.689 98.0017 166.719 97.1517 172.779 99.3117C178.839 101.472 181.509 100.652 185.269 95.6217C189.029 90.5917 192.169 89.6217 198.269 91.7817C204.579 93.9917 206.869 93.3017 210.979 87.6917C213.979 83.5517 217.819 82.2317 222.769 83.8317C230.709 86.3917 231.769 86.0717 236.769 79.7217C239.999 75.5717 243.989 74.7217 248.769 76.4417C255.719 78.9217 257.509 78.3917 261.909 72.6217C265.469 67.9317 269.069 66.9217 274.569 69.0517C280.509 71.3617 283.349 70.5617 287.059 65.5517C290.959 60.2717 293.949 59.4117 300.409 61.7217C306.169 63.7817 308.709 63.0117 312.469 58.0717C316.579 52.6517 319.289 51.8517 325.809 54.1417C331.539 56.1417 334.229 55.3417 337.879 50.5117C341.939 45.1317 345.029 44.2117 351.259 46.5117C357.029 48.6717 359.499 47.9517 363.259 42.9817C367.259 37.6617 370.489 36.7117 376.629 38.9817C382.249 41.0617 385.169 40.2117 388.739 35.4617C392.839 30.0217 395.509 29.2117 402.019 31.4617C407.789 33.4617 410.619 32.5417 414.469 27.4617C418.109 22.6917 421.379 21.7217 427.069 23.7117C433.559 25.9817 435.759 25.3317 439.889 19.8917C443.539 15.0817 446.779 14.1017 452.529 16.0717C459.159 18.3517 461.129 17.7717 465.319 12.3217C469.049 7.45168 472.499 6.52168 478.459 8.77168C484.099 10.9117 486.699 10.1417 490.459 5.22168C494.749 -0.368322 497.459 -1.11832 504.229 1.31168C505.077 1.78555 506.027 2.04635 506.999 2.07168C513.379 0.751678 514.999 4.60168 516.329 9.72168C519.389 21.1117 522.949 32.3817 526.329 43.7217C528.069 49.6217 526.609 52.3517 520.579 54.1317C464.265 70.7983 407.955 87.465 351.649 104.132C300.942 119.185 250.239 134.268 199.539 149.382C165.179 159.582 130.862 169.742 96.5886 179.862C95.6386 180.142 94.5886 180.152 93.9986 181.072Z" fill="#EB5D63"/>
</svg>
