<?xml version="1.0" encoding="utf-8"?>
<!-- Generator: Adobe Illustrator 26.2.1, SVG Export Plug-In . SVG Version: 6.00 Build 0)  -->
<svg version="1.1" id="Layer_1" xmlns="http://www.w3.org/2000/svg" xmlns:xlink="http://www.w3.org/1999/xlink" x="0px" y="0px"
	 viewBox="0 0 850.39 850.39" style="enable-background:new 0 0 850.39 850.39;" xml:space="preserve">
<style type="text/css">
	.st0{fill:#AB7E3E;}
</style>
<path class="st0" d="M815.7,237.67c0,56.46,1.23,112.75-0.31,169.21c-2.93,115.88-47.07,214.44-127.84,295.69
	c-59.69,60.04-131.53,98.88-214.6,114c-28.92,5.3-58.61,7.64-87.99,7.8c-113.22,0.93-226.44,0.15-339.82,0.62
	c-14.15,0-19.08-3.9-19.08-18.72c0.46-114.32,0-228.63,0.31-342.95c0.31-102.78,30.31-196.04,94.45-276.04
	c63.53-79.38,144.6-132.87,244.9-150.18c46.15-7.95,93.53-8.89,140.45-10.92c39.53-1.72,79.22,0,118.76-0.47
	c10.31-0.16,14.61,3.27,14.31,13.88c-0.46,16.69-0.77,33.53,0.15,50.22c0.62,13.72-4,18.71-18,18.56
	c-51.53-0.62-103.22,0.16-154.91-0.31c-74.15-0.62-143.22,18.56-204.75,59.42c-72.46,48.35-120.76,116.65-141.22,202.58
	c-7.69,32.13-10.31,66.13-10.77,99.5c-1.54,82.81-0.46,165.63-0.46,248.44c0,23.08,0.77,23.86,23.84,23.86
	c88.76,0,177.37,0.93,266.14-0.47c67.07-0.93,128.45-22.3,184.14-60.35c67.84-46.32,112.76-109.79,136.91-188.39
	c11.08-36.02,14-73.46,13.85-111.2c-0.15-111.2,0-222.55,0-333.75c0-21.83,0-21.99,21.23-21.99c14.46,0,29.07,0.78,43.53-0.31
	c13.08-0.94,17.38,3.27,17.23,17C815.55,107.61,815.85,172.64,815.7,237.67C815.85,237.67,815.85,237.67,815.7,237.67z"/>
<path class="st0" d="M557.6,581.84c0-9.51,0-15.6,0-21.68c0-84.37-0.31-168.59,0.15-252.96c0.15-14.66-3.69-21.05-19.38-20.43
	c-27.08,1.09-54.15,0.15-81.22,0.31c-77.69,0.78-138.15,44.76-163.07,119.62c-4.61,13.72-7.08,28.7-7.69,43.2
	c-1.08,32.44-0.15,65.03-0.62,97.47c-0.15,11.23,4.31,15.29,15.23,15.29c37.07-0.47,74.15,0.62,111.22-0.94
	c15.54-0.62,30.77-6.71,49.69-11.07c0,12.01,0,22.77,0,33.69c0,6.08,0,12.16,0,18.25c0,39.46,0,40.55-40,41.95
	c-53.07,1.72-106.15,1.25-159.22,1.72c-15.54,0.16-31.07-0.31-46.61,0c-9.69,0.31-13.08-3.43-13.08-13.41
	c0.31-61.92-2.77-124.14,0.77-185.9c6.31-109.32,73.53-205.7,190.6-235.18c17.85-4.52,36.61-6.24,54.92-6.55
	c57.07-0.78,114.3,0,171.37-0.62c13.23-0.15,18.61,3.43,18.46,17.94c-0.61,63,0.61,126.01-0.61,189.02
	c-1.23,63.32-27.84,116.34-70.15,161.73C566.37,575.76,563.3,577.48,557.6,581.84z"/>
<path class="st0" d="M463.33,382.99h-83.07v84.22h83.07V382.99z"/>
</svg>
