<svg width="103" height="139" viewBox="0 0 103 139" fill="none" xmlns="http://www.w3.org/2000/svg">
<g clip-path="url(#clip0_1117_2618)">
<path d="M102.49 83.0001C100.49 61.6301 93.41 42.0001 82.34 23.7101C78 16.5201 72.87 10.0001 66 5.13014C56.22 -1.78986 46.16 -1.69986 36.49 5.36014C31.1549 9.36903 26.5652 14.2837 22.93 19.8801C10.1 39.0001 2.93 60.1601 0 82.8801L0.36 83.1501C-0.164533 87.7741 0.0719309 92.4527 1.06 97.0001C5.84 118.26 18.65 132.19 39.81 137.15C59.87 141.86 77.17 135.85 90.81 120.24C100 109.68 102.87 96.8901 103 83.2701C102.871 83.1182 102.688 83.0216 102.49 83.0001V83.0001Z" fill="#264198"/>
</g>
<defs>
<clipPath id="clip0_1117_2618">
<rect width="102.95" height="138.69" fill="white"/>
</clipPath>
</defs>
</svg>
