<svg width="197" height="61" viewBox="0 0 197 61" fill="none" xmlns="http://www.w3.org/2000/svg">
<g clip-path="url(#clip0_384_2170)">
<path d="M17.8559 40.9017C17.8514 40.8291 17.8314 40.7584 17.7973 40.6944C17.7633 40.6303 17.7159 40.5745 17.6585 40.5308C15.7789 39.0754 11.1833 36.8781 3.83412 33.9865C3.83412 33.9865 -0.019043 32.4455 -0.019043 28.3649C-0.019043 24.8359 6.75688 20.6602 20.6565 15.5903C21.3878 15.3306 22.1558 15.1925 22.9308 15.1813C23.5803 15.1158 24.2333 15.266 24.791 15.6091C25.3488 15.9523 25.7811 16.4699 26.0227 17.0837C26.1943 17.6332 26.2403 18.2149 26.1573 18.7851C26.0742 19.3552 25.8643 19.8988 25.5434 20.3748C24.5472 21.8111 22.0944 22.8194 18.3634 24.3223L10.6006 28.1271C9.66085 28.5837 10.4691 29.0783 10.4691 29.0783C20.149 32.2743 24.801 36.0601 24.8667 40.6639C24.9291 41.7426 24.7802 42.8231 24.4286 43.8434C24.077 44.8636 23.5297 45.8035 22.818 46.6089C22.5924 46.8087 22.2259 47.1892 22.1413 47.2748C21.3049 48.0928 20.6283 48.616 19.82 49.2913C18.4487 50.486 16.9663 51.5436 15.3936 52.4493C14.0834 53.1256 12.7028 53.652 11.2773 54.0188L11.0142 54.0949C8.65527 54.7797 2.12369 55.0461 1.38125 51.7454C1.02413 50.0998 2.22707 49.3579 3.58037 48.8918C5.07465 48.3591 6.48434 47.8455 7.95043 47.2843C8.65527 47.0274 9.25674 46.6755 9.8864 46.3997C11.5856 45.7546 13.1914 44.8812 14.6606 43.8029C17.6773 41.5866 17.8559 40.9017 17.8559 40.9017Z" fill="#EB6220"/>
<path d="M50.0536 47.4743C50.0709 47.7313 50.0346 47.9891 49.947 48.2309C49.8595 48.4728 49.7226 48.6933 49.5453 48.8781C49.3681 49.0629 49.1543 49.2079 48.9181 49.3036C48.6818 49.3994 48.4283 49.4437 48.174 49.4338L49.2923 55.3978V56.4631C49.2923 56.4631 49.2923 56.5107 49.2923 56.5392C49.0668 57.2622 48.2398 57.8424 46.7361 58.3465C46.7119 58.3561 46.6851 58.3561 46.6609 58.3465V58.3465C45.1384 58.2895 43.5314 55.7688 41.8961 50.8606C39.5606 51.1415 37.257 51.6479 35.0168 52.373C35.0168 52.373 30.1299 53.8854 29.707 54.0661C29.741 54.3823 29.741 54.7012 29.707 55.0173C29.707 56.5297 28.8612 57.2622 27.1131 57.2622H25.9478C24.914 57.2622 23.9178 55.3598 23.0062 51.6691C22.9963 51.6571 22.9908 51.6419 22.9908 51.6263C22.9908 51.6106 22.9963 51.5955 23.0062 51.5835C23.0626 51.1174 23.946 50.2613 25.5907 49.0343C29.5942 36.3833 33.2124 30.0103 36.295 30.0103H36.6521C39.5654 30.0103 42.2908 33.8912 45.5425 43.5458L46.4823 43.2795C46.8177 43.1973 47.1616 43.1558 47.5067 43.1558C48.5687 43.1558 49.6495 43.6219 49.6495 44.6778C49.8391 45.601 49.974 46.5348 50.0536 47.4743V47.4743ZM32.1974 47.1604H32.5922L39.3023 45.1439V44.7634C37.7422 40.1976 36.5769 39.0562 35.9284 39.0562H35.9002L32.1974 47.1604Z" fill="#EB6220"/>
<path d="M124.589 47.4269C124.597 47.6789 124.553 47.9298 124.462 48.1642C124.37 48.3986 124.232 48.6115 124.056 48.7897C123.88 48.968 123.669 49.1078 123.438 49.2006C123.206 49.2934 122.958 49.3372 122.709 49.3293L123.818 55.2838C123.818 55.2838 123.818 55.2838 123.818 55.3314V56.3967C123.818 56.3967 123.818 56.4443 123.818 56.4728C123.602 57.1957 122.766 57.7855 121.271 58.2801C121.244 58.2874 121.214 58.2874 121.187 58.2801C119.674 58.2801 118.048 55.7119 116.422 50.7942C114.083 51.0753 111.777 51.5817 109.533 52.3066C109.533 52.3066 104.665 53.8285 104.233 54.0092C104.261 54.3257 104.261 54.644 104.233 54.9604C104.233 56.4538 103.387 57.1957 101.639 57.1957H100.521C99.4868 57.1957 98.4812 55.2933 97.579 51.6122C97.5702 51.5811 97.5702 51.5481 97.579 51.5171C97.6354 51.051 98.5188 50.1854 100.163 48.9583C104.186 36.3074 107.785 29.9343 110.877 29.9343H111.244C114.157 29.9343 116.882 33.8057 120.125 43.4699L121.065 43.2036C121.406 43.1208 121.756 43.0793 122.108 43.0799C123.16 43.0799 124.25 43.546 124.25 44.6018C124.424 45.535 124.537 46.4787 124.589 47.4269V47.4269ZM106.733 47.094H107.137L113.866 45.087V44.7065C112.296 40.1407 111.14 38.9993 110.473 38.9993H110.407L106.733 47.094Z" fill="#EB6220"/>
<path d="M59.2635 50.4708C58.5587 53.3244 58.2204 54.2756 57.0268 54.7036H55.8145C53.2864 54.7036 52.0553 52.8583 52.0553 49.082V48.1308C52.0553 38.4381 53.5026 31.5134 56.9986 24.1986C57.0113 24.1658 57.0315 24.1366 57.0577 24.1134C57.0839 24.0902 57.1152 24.0738 57.149 24.0655L59.1038 23.6184H59.2071C62.3743 23.6184 64.7331 28.479 66.6315 38.8376C66.6315 38.8376 66.6973 39.1135 66.8007 39.1135C66.9041 39.1135 67.0168 38.9423 67.045 38.8376C69.263 31.4373 71.744 27.8417 74.5634 27.8417C78.6233 27.8417 80.9164 33.235 82.016 45.3343V50.0142C82.016 51.6122 81.6119 52.5444 80.7943 52.7917C80.7943 52.7917 80.7943 52.7917 80.7285 52.7917H79.4597C77.411 52.7917 76.1423 50.8893 75.7006 47.2272C74.8829 41.52 74.1969 38.8186 73.6424 38.8186C71.3117 46.9704 68.9434 50.9369 66.5845 50.9369C63.9719 50.9369 61.66 46.8182 59.5549 38.3335C59.5549 38.3335 59.4891 38.1052 59.3387 38.1052C59.3103 38.1064 59.2824 38.1133 59.2567 38.1254C59.2309 38.1376 59.2078 38.1547 59.1886 38.1759C59.1694 38.1971 59.1545 38.222 59.1448 38.249C59.135 38.276 59.1307 38.3047 59.132 38.3335L58.7091 46.2665L59.1414 48.3877C59.407 49.0496 59.4499 49.7817 59.2635 50.4708V50.4708Z" fill="#EB6220"/>
<path d="M144.729 49.0155H144.287C144.25 49.0278 144.211 49.0278 144.174 49.0155C142.116 47.8645 138.178 43.4129 132.455 35.8033C132.99 36.5072 132.257 39.5034 132.107 40.369C131.91 41.6532 132.107 43.2226 131.647 44.4497C131.308 45.4009 130.538 47.1987 129.438 47.3033C124.034 47.6172 125.613 39.5225 126.168 36.5928C126.75 33.5014 127.173 30.4005 127.568 27.2805C127.558 27.2495 127.558 27.2164 127.568 27.1854C128.602 25.283 129.917 24.3318 131.44 24.3318H132.314C132.35 24.3318 132.386 24.3404 132.419 24.3569C132.452 24.3734 132.48 24.3974 132.502 24.4269L143.789 39.2466V35.7652C143.789 23.0001 145.236 16.7412 148.206 16.7412H149.07C149.105 16.7444 149.138 16.7544 149.169 16.7708C149.2 16.7871 149.227 16.8094 149.249 16.8363L150.583 18.3963C150.605 18.4169 150.622 18.442 150.634 18.4699C150.645 18.4978 150.65 18.5278 150.649 18.558V34.0436C150.602 43.9836 148.61 49.0155 144.729 49.0155Z" fill="#EB6220"/>
<path d="M159.013 44.3259C160.78 47.1795 163.769 48.5682 167.894 48.4256L170.432 48.3495C170.454 48.3392 170.478 48.3339 170.502 48.3339C170.527 48.3339 170.551 48.3392 170.573 48.3495L171.823 49.1294H172.274L173.862 45.1154H173.439L167.415 46.2188C167.369 46.2328 167.32 46.2328 167.274 46.2188C166.006 45.7051 165.282 45.1439 165.122 44.5732C165.118 44.5643 165.116 44.5545 165.116 44.5447C165.116 44.5348 165.118 44.525 165.122 44.5161L165.075 42.8705C165.064 42.8269 165.064 42.781 165.075 42.7374C166.391 40.3689 171.024 39.0562 178.824 38.7899H178.909C179.46 38.9325 179.978 39.1863 180.43 39.5361C180.882 39.8859 181.26 40.3244 181.54 40.8255C181.554 40.8622 181.554 40.9028 181.54 40.9396V42.5757C181.545 42.6168 181.545 42.6582 181.54 42.6993L175.902 55.2171C176.02 56.4598 175.84 57.7131 175.375 58.8697C175.219 59.2462 174.958 59.5688 174.625 59.7984C174.291 60.028 173.899 60.1548 173.496 60.1634H172.255C172.215 60.1731 172.173 60.1731 172.133 60.1634C171.488 59.8517 170.94 59.3683 170.546 58.7651C170.152 58.1619 169.927 57.4615 169.896 56.739L170.639 52.3445L165 53.8854H164.944C158.318 54.1137 153.957 50.8321 152.012 44.1832V44.1166V43.6981C151.815 37.8197 156.617 32.0078 166.269 26.4433C166.269 26.4433 168.393 25.1402 172.453 25.3399C174.003 25.397 175.441 26.2911 176.785 28.1935C177.386 29.0401 176.898 30.971 176.898 30.971C176.193 32.4359 175.704 33.0637 174.163 33.1207H173.787L170.77 32.5215C170.48 32.456 170.176 32.4895 169.906 32.6166C165.44 34.2543 161.705 37.4612 159.38 41.653C159.38 41.653 158.534 43.4413 159.013 44.3259Z" fill="#EB6220"/>
<path d="M94.2709 59.5641L93.0397 60.2775C93.006 60.2873 92.9701 60.2873 92.9364 60.2775H92.0999C91.8408 60.2221 91.5929 60.1223 91.3669 59.9826L90.07 58.8602C89.7184 58.3656 89.5399 57.7664 89.5625 57.1575L89.8068 49.1294C89.8341 48.0444 89.944 46.9632 90.1358 45.8953L91.5455 38.533C82.2039 33.1017 78.3883 27.1186 78.3883 22.6765V22.5719C78.3784 22.5313 78.3784 22.4888 78.3883 22.4482L78.4447 22.3626C78.7539 21.8011 79.2111 21.3374 79.7653 21.0234C80.3195 20.7093 80.949 20.5572 81.5836 20.5839H81.7246C81.7856 20.5873 81.8429 20.6145 81.8844 20.66L81.9783 20.7361L92.2315 32.3407L93.0867 32.8068C93.2832 32.1612 93.5122 31.5263 93.7728 30.9044C93.9513 30.5239 94.1017 30.1149 94.2521 29.7059C94.4643 28.8681 94.8172 28.0733 95.2952 27.3564C95.6712 26.5764 96.0471 25.7299 96.47 24.8357C97.7763 22.0392 99.0826 19.2237 100.464 16.4652C100.68 15.9935 100.942 15.5443 101.244 15.124C101.637 14.7023 102.075 14.3258 102.55 14.0016C102.915 13.6775 103.308 13.3877 103.725 13.136C104.11 12.9836 104.526 12.9281 104.938 12.9743C105.567 12.9743 106.197 12.9743 106.817 12.9743C108.631 12.9743 109.843 13.5926 110.417 14.8006V14.8481V15.0098V15.961C110.419 16.0042 110.409 16.0472 110.387 16.0844C110.365 16.1217 110.333 16.1516 110.294 16.1703L110.116 16.2845C107.654 17.7208 102.503 26.4528 102.316 27.9652V28.0128C98.3778 35.6224 95.3892 48.3209 94.6938 58.3465C94.6596 58.7827 94.5138 59.2022 94.2709 59.5641V59.5641Z" fill="#EB6220"/>
<path d="M181.681 0C180.942 0.0102765 180.208 0.125546 179.501 0.342432C176.987 1.16973 174.645 2.45961 172.594 4.14724C170.12 6.07105 168.199 8.62932 167.03 11.5571C166.034 14.2585 166.184 16.7411 167.462 18.5389C168.143 19.3841 169.004 20.0626 169.98 20.5238C170.957 20.985 172.024 21.2169 173.101 21.2023C175.864 21.3354 176.221 19.1762 176.221 19.1762C176.747 17.3309 175.197 15.7329 171.607 14.4202C171.347 14.3244 171.12 14.1548 170.953 13.9317C170.786 13.7086 170.686 13.4415 170.665 13.1625C170.645 12.8834 170.704 12.6042 170.836 12.3582C170.968 12.1123 171.167 11.9101 171.409 11.7759C171.58 11.686 171.768 11.632 171.96 11.6173C172.152 11.6026 172.345 11.6274 172.528 11.6903C175.306 12.532 177.693 14.3546 179.257 16.8267L179.896 17.9396V8.03765C179.928 7.58713 180.128 7.16577 180.455 6.85822C180.782 6.55067 181.212 6.37972 181.658 6.37972C182.104 6.37972 182.534 6.55067 182.861 6.85822C183.188 7.16577 183.387 7.58713 183.42 8.03765V17.8921L184.059 16.7792C185.625 14.3093 188.011 12.4875 190.788 11.6427C191.143 11.5265 191.529 11.5556 191.863 11.7238C192.198 11.892 192.454 12.1859 192.576 12.5427C192.699 12.8994 192.679 13.2907 192.521 13.6327C192.362 13.9747 192.077 14.2403 191.728 14.3726C188.138 15.6853 186.587 17.2833 187.104 19.1286C187.104 19.1286 187.48 21.2879 190.234 21.1547C192.724 21.031 194.735 20.1274 195.872 18.4913C197.169 16.6936 197.329 14.2109 196.333 11.5095C195.128 8.58158 193.183 6.02605 190.694 4.09967C188.667 2.43396 186.354 1.16031 183.871 0.342432C183.16 0.129507 182.423 0.0143314 181.681 0V0Z" fill="#EB6220"/>
</g>
<defs>
<clipPath id="clip0_384_2170">
<rect width="197" height="60.3061" fill="white"/>
</clipPath>
</defs>
</svg>
