<svg width="66" height="66" viewBox="0 0 66 66" fill="none" xmlns="http://www.w3.org/2000/svg">
<g clip-path="url(#clip0_339_4185)">
<path d="M66 33C66 41.7521 62.5232 50.1458 56.3345 56.3345C50.1458 62.5232 41.7521 66 33 66C24.2479 66 15.8542 62.5232 9.66548 56.3345C3.47678 50.1458 0 41.7521 0 33C0 24.2479 3.47678 15.8542 9.66548 9.66548C15.8542 3.47678 24.2479 0 33 0C41.7521 0 50.1458 3.47678 56.3345 9.66548C62.5232 15.8542 66 24.2479 66 33ZM33 16.5C32.4786 16.5003 31.9631 16.6098 31.4866 16.8215C31.0101 17.0331 30.5833 17.3422 30.2335 17.7289C29.8838 18.1155 29.6189 18.5712 29.456 19.0664C29.293 19.5617 29.2357 20.0856 29.2875 20.6044L30.7312 35.0708C30.7798 35.6391 31.0398 36.1685 31.4599 36.5542C31.88 36.94 32.4296 37.1541 33 37.1541C33.5704 37.1541 34.12 36.94 34.5401 36.5542C34.9602 36.1685 35.2202 35.6391 35.2687 35.0708L36.7125 20.6044C36.7643 20.0856 36.707 19.5617 36.544 19.0664C36.3811 18.5712 36.1162 18.1155 35.7665 17.7289C35.4167 17.3422 34.9899 17.0331 34.5134 16.8215C34.0369 16.6098 33.5214 16.5003 33 16.5ZM33.0083 41.25C31.9142 41.25 30.865 41.6846 30.0914 42.4582C29.3178 43.2318 28.8832 44.281 28.8832 45.375C28.8832 46.469 29.3178 47.5182 30.0914 48.2918C30.865 49.0654 31.9142 49.5 33.0083 49.5C34.1023 49.5 35.1515 49.0654 35.9251 48.2918C36.6987 47.5182 37.1333 46.469 37.1333 45.375C37.1333 44.281 36.6987 43.2318 35.9251 42.4582C35.1515 41.6846 34.1023 41.25 33.0083 41.25Z" fill="white"/>
<path d="M31.4 36.3636C31.8 36.7455 32.4667 37 33 37C33.5333 37 34.2 36.7455 34.6 36.3636C35 35.9818 35.2667 35.4727 35.4 34.8364L37 20.2C37 19.6909 37 19.1818 36.8667 18.6727C36.7333 18.1636 36.4667 17.6545 36.0667 17.2727C35.6667 16.8909 35.2667 16.5091 34.7333 16.3818C34.2 16.1273 33.6667 16 33.1333 16C32.6 16 32.0667 16.1273 31.5333 16.3818C31 16.6364 30.6 16.8909 30.2 17.2727C29.8 17.6545 29.5333 18.1636 29.4 18.6727C29 19.1818 29 19.6909 29 20.2L30.4667 34.8364C30.6 35.4727 30.8667 35.9818 31.4 36.3636Z" fill="#696969"/>
<path d="M33 41C31.9091 41 30.9394 41.4091 30.2121 42.3636C29.4848 43.1818 29 44.4091 29 45.5C29 46.7273 29.3636 47.8182 30.2121 48.6364C30.9394 49.4545 32.0303 50 33 50C34.0909 50 35.0606 49.5909 35.7879 48.6364C36.5152 47.8182 37 46.5909 37 45.5C37 44.2727 36.6364 43.1818 35.7879 42.3636C35.0606 41.4091 34.0909 41 33 41Z" fill="#696969"/>
</g>
<defs>
<clipPath id="clip0_339_4185">
<rect width="66" height="66" fill="white"/>
</clipPath>
</defs>
</svg>
