<svg width="20" height="21" viewBox="0 0 20 21" fill="none" xmlns="http://www.w3.org/2000/svg">
<circle cx="10" cy="10.2141" r="10" fill="#EB6220"/>
<path d="M9.41406 10.4983V13.3157C9.30339 13.4491 9.13249 13.594 8.90137 13.7502C8.67025 13.9032 8.3724 14.0351 8.00781 14.1458C7.64323 14.2564 7.20215 14.3118 6.68457 14.3118C6.22559 14.3118 5.80729 14.2369 5.42969 14.0872C5.05208 13.9342 4.72656 13.7112 4.45312 13.4182C4.18294 13.1252 3.97461 12.7672 3.82812 12.344C3.68164 11.9176 3.6084 11.4309 3.6084 10.884V10.4397C3.6084 9.89282 3.67839 9.40617 3.81836 8.97974C3.96159 8.5533 4.16504 8.1936 4.42871 7.90063C4.69238 7.60767 5.00651 7.38468 5.37109 7.23169C5.73568 7.07869 6.14095 7.0022 6.58691 7.0022C7.2054 7.0022 7.71322 7.10311 8.11035 7.30493C8.50749 7.5035 8.81022 7.78019 9.01855 8.13501C9.23014 8.48657 9.36035 8.89022 9.40918 9.34595H7.98828C7.95247 9.10506 7.88411 8.8951 7.7832 8.71606C7.68229 8.53703 7.53743 8.39705 7.34863 8.29614C7.16309 8.19523 6.9222 8.14478 6.62598 8.14478C6.38184 8.14478 6.16374 8.19523 5.97168 8.29614C5.78288 8.3938 5.62337 8.53866 5.49316 8.73071C5.36296 8.92277 5.26367 9.1604 5.19531 9.4436C5.12695 9.72681 5.09277 10.0556 5.09277 10.4299V10.884C5.09277 11.2551 5.12858 11.5839 5.2002 11.8704C5.27181 12.1536 5.3776 12.3928 5.51758 12.5881C5.66081 12.7802 5.83659 12.925 6.04492 13.0227C6.25326 13.1204 6.49577 13.1692 6.77246 13.1692C7.00358 13.1692 7.19564 13.1497 7.34863 13.1106C7.50488 13.0715 7.63021 13.0243 7.72461 12.969C7.82227 12.9104 7.89714 12.8551 7.94922 12.803V11.5432H6.61133V10.4983H9.41406ZM16.4355 10.4934V10.8303C16.4355 11.3707 16.3623 11.8557 16.2158 12.2854C16.0693 12.7151 15.8626 13.0813 15.5957 13.384C15.3288 13.6835 15.0098 13.913 14.6387 14.0725C14.2708 14.232 13.8623 14.3118 13.4131 14.3118C12.9671 14.3118 12.5586 14.232 12.1875 14.0725C11.8197 13.913 11.5007 13.6835 11.2305 13.384C10.9603 13.0813 10.7503 12.7151 10.6006 12.2854C10.4541 11.8557 10.3809 11.3707 10.3809 10.8303V10.4934C10.3809 9.94979 10.4541 9.46476 10.6006 9.03833C10.7471 8.60864 10.9538 8.24243 11.2207 7.9397C11.4909 7.63696 11.8099 7.40584 12.1777 7.24634C12.5488 7.08683 12.9574 7.00708 13.4033 7.00708C13.8525 7.00708 14.2611 7.08683 14.6289 7.24634C15 7.40584 15.319 7.63696 15.5859 7.9397C15.8561 8.24243 16.0645 8.60864 16.2109 9.03833C16.3607 9.46476 16.4355 9.94979 16.4355 10.4934ZM14.9561 10.8303V10.4836C14.9561 10.106 14.9219 9.77401 14.8535 9.48755C14.7852 9.20109 14.6842 8.96021 14.5508 8.76489C14.4173 8.56958 14.2546 8.4231 14.0625 8.32544C13.8704 8.22453 13.6507 8.17407 13.4033 8.17407C13.1559 8.17407 12.9362 8.22453 12.7441 8.32544C12.5553 8.4231 12.3942 8.56958 12.2607 8.76489C12.1305 8.96021 12.0312 9.20109 11.9629 9.48755C11.8945 9.77401 11.8604 10.106 11.8604 10.4836V10.8303C11.8604 11.2047 11.8945 11.5367 11.9629 11.8264C12.0312 12.1129 12.1322 12.3554 12.2656 12.554C12.3991 12.7493 12.5618 12.8974 12.7539 12.9983C12.946 13.0992 13.1657 13.1497 13.4131 13.1497C13.6605 13.1497 13.8802 13.0992 14.0723 12.9983C14.2643 12.8974 14.4255 12.7493 14.5557 12.554C14.6859 12.3554 14.7852 12.1129 14.8535 11.8264C14.9219 11.5367 14.9561 11.2047 14.9561 10.8303Z" fill="white"/>
</svg>
