<svg width="300" height="97" viewBox="0 0 300 97" fill="none" xmlns="http://www.w3.org/2000/svg">
<g clip-path="url(#clip0_488_2237)">
<path d="M298.4 26.6132C298.4 32.2941 298.4 37.9808 298.315 43.6616C298.235 49.0895 295.576 52.1198 291.19 52.0393C286.575 51.953 283.212 48.3594 283.097 43.3915C283.08 42.6842 283.132 41.9654 283.076 41.2639C283.036 40.8098 282.871 39.9817 282.722 39.9761C280.677 39.861 278.61 39.677 276.592 39.9185C275.922 39.999 275.036 41.149 274.843 41.9539C273.689 46.7379 272.16 47.9281 267.274 48.2789C258.415 48.9113 249.569 49.7392 240.722 50.4868C239.711 50.573 238.699 50.6822 237.687 50.6881C233.778 50.7225 231.153 48.4685 231.136 44.5587C231.09 34.4619 231.153 24.3594 231.392 14.2625C231.494 9.96737 233.04 8.5184 237.285 8.14465C246.364 7.33967 255.454 6.64969 264.54 5.90795C265.552 5.82746 266.57 5.79296 267.569 5.6492C271.797 5.06272 273.643 6.1782 275.495 10.1226C275.831 10.8356 276.921 11.2841 277.757 11.6176C278.285 11.8303 278.985 11.6061 279.609 11.5773C283.036 11.4106 283.24 11.2036 283.422 7.70192C283.746 1.3483 289.331 -1.90615 294.712 1.1758C297.638 2.85476 298.405 5.75846 298.445 8.8634C298.518 14.7743 298.4 20.6966 298.4 26.6132C298.354 26.6132 298.44 26.6132 298.4 26.6132ZM247.25 28.2923C247.221 28.2923 247.194 28.2923 247.165 28.2923C247.165 30.5749 247.211 32.8577 247.148 35.1404C247.097 36.9401 247.818 37.7853 249.637 37.6358C252.194 37.4288 254.75 37.2678 257.313 37.0724C258.938 36.9458 259.602 35.9913 259.602 34.3987C259.602 29.8332 259.608 25.2678 259.665 20.7081C259.682 19.0924 258.961 18.3794 257.404 18.4829C254.767 18.6612 252.131 18.8625 249.494 19.0407C248 19.1441 247.227 19.8859 247.244 21.4499C247.267 23.7268 247.25 26.0095 247.25 28.2923ZM283.087 25.7853C283.053 24.1523 283.428 22.3469 280.78 22.4102C275.74 22.5251 275.189 22.9218 275.115 26.7283C275.08 28.5222 275.547 29.5399 277.587 29.5342C282.075 29.5169 283.07 28.9075 283.087 25.7853Z" fill="#103380"/>
<path d="M155.825 59.1616C155.825 54.6337 155.786 50.1002 155.838 45.5724C155.879 41.9376 157.556 40.0718 161.227 39.6396C166.714 38.991 172.22 38.4734 177.713 37.8533C181.887 37.3813 181.962 37.2617 181.962 33.2744C181.962 31.09 181.898 28.9 181.974 26.7157C182.051 24.6111 181.068 24.0138 179.017 24.2015C173.114 24.7305 167.193 25.1287 161.285 25.5781C158.836 25.7658 156.854 25.015 155.593 22.8648C154.23 20.5439 154.23 18.0867 155.767 15.9991C156.603 14.8671 158.21 13.7294 159.572 13.5929C170.577 12.5008 181.595 11.5679 192.629 10.7545C197.79 10.3733 200.14 12.7055 200.098 17.8591C200.034 26.3687 199.893 34.8784 199.758 43.388C199.694 47.2504 197.923 49.0536 193.967 49.446C187.586 50.0832 181.215 50.7942 174.826 51.3573C172.425 51.5678 171.461 52.5461 171.6 54.9409C171.77 57.8192 171.705 60.7202 171.577 63.6042C171.483 65.7316 172.232 66.5678 174.505 66.3801C180.817 65.851 187.136 65.4472 193.458 65.0319C197.923 64.7361 200.233 66.2492 200.484 69.537C200.799 73.7179 198.24 76.7327 194.084 77.074C183.938 77.8987 173.786 78.7236 163.634 79.5428C158.392 79.9637 155.831 77.6883 155.802 72.5234C155.773 68.0695 155.796 63.6212 155.796 59.1673C155.815 59.1616 155.821 59.1616 155.825 59.1616Z" fill="#103380"/>
<path d="M65.7892 77.5009C65.7892 80.5092 65.812 83.5118 65.7835 86.52C65.7551 90.0932 63.9918 92.2601 60.5562 92.5483C48.7418 93.5452 36.9162 94.4501 25.0905 95.3722C20.2669 95.7469 15.4434 96.1502 10.6141 96.4096C6.68924 96.6228 4.75526 95.0552 4.66993 91.1478C4.52774 84.9065 4.57892 78.6534 4.82921 72.4121C4.98847 68.4412 7.01345 66.6834 10.9724 66.3723C23.9585 65.3465 36.9503 64.3148 49.942 63.3351C53.7474 63.047 57.5641 62.9028 61.3809 62.7588C63.8268 62.6608 65.6926 64.5338 65.7665 67.2943C65.8631 70.7004 65.7892 74.1006 65.7892 77.5009ZM24.1348 84.2264C27.5306 83.9382 31.3304 83.5866 35.1358 83.2927C39.8683 82.9238 44.6066 82.5724 49.3448 82.2611C51.0399 82.1517 51.8874 81.4139 51.8987 79.6159C51.9385 74.0544 51.8874 74.5212 47.1889 74.965C38.6625 75.7719 30.1131 76.3251 21.5865 77.1147C20.6423 77.2012 19.1804 77.9619 18.9699 78.7053C17.7356 83.0795 18.8335 84.3646 23.2588 84.2264C23.4125 84.2206 23.5717 84.2264 24.1348 84.2264Z" fill="#103380"/>
<path d="M97.0821 88.7441C94.3369 88.8797 91.859 88.5803 89.506 87.7446C82.1346 85.113 78.9631 75.8458 82.6916 68.2049C85.3002 62.857 89.5969 59.6774 95.6384 59.1749C106.664 58.2601 117.69 57.1983 128.739 56.6618C136.514 56.2835 142.22 59.5645 143.579 67.132C145.153 75.9079 140.373 83.8423 132.479 85.5422C128.091 86.4852 123.533 86.6773 119.037 87.0443C111.734 87.6316 104.391 88.2302 97.0821 88.7441C97.0651 88.8402 97.1049 88.6481 97.0821 88.7441ZM123.806 67.9509C122.578 68.0863 120.805 68.3292 119.02 68.4647C112.734 68.939 106.448 69.3457 100.163 69.8257C97.2469 70.046 95.2861 71.9773 95.4907 74.2983C95.684 76.546 97.7073 77.6528 100.833 77.3817C108.04 76.7606 115.252 76.2185 122.465 75.6198C123.857 75.5012 125.261 75.3658 126.613 75.0439C128.642 74.5582 129.995 72.7397 129.79 71.0343C129.569 69.1989 128.017 68.0128 125.761 67.9509C125.295 67.9395 124.829 67.9509 123.806 67.9509Z" fill="#103380"/>
<path d="M205.24 43.4081C205.24 33.6733 205.223 23.9328 205.246 14.198C205.258 9.09309 208.049 6.15148 212.823 6.12286C218.099 6.08852 221.239 9.02441 221.275 14.2209C221.316 20.3444 221.256 26.4737 221.158 32.5974C221.129 34.4058 221.549 35.4817 223.615 35.9052C226.422 36.4833 227.818 38.3603 228.034 41.0845C228.266 44.1006 227.024 46.8476 224.316 47.5001C221.001 48.2955 220.721 50.2126 220.756 52.994C220.843 59.7414 220.667 66.4945 220.534 73.2419C220.434 78.0893 217.312 81.1397 212.595 81.1226C208.107 81.1053 205.194 78.2095 205.153 73.3278C205.059 63.3584 205.124 53.3833 205.124 43.4081C205.165 43.4081 205.205 43.4081 205.24 43.4081Z" fill="#103380"/>
<path d="M120.857 33.9083C121.229 39.9187 119.998 45.7799 114.662 49.6455C106.096 55.845 96.6376 56.648 86.9497 52.6334C82.6841 50.867 80.0961 47.2252 79.8155 42.5339C79.5523 38.2497 79.4148 33.8682 80.0217 29.6414C80.7316 24.7148 83.9036 21.0731 88.2723 18.7161C95.0973 15.0226 102.426 14.5064 109.807 16.3187C117.049 18.0966 120.668 23.0861 120.857 30.5532C120.88 31.5798 120.857 32.6064 120.857 33.9083ZM93.6774 36.2655C93.6086 38.1867 93.3968 40.8535 96.0821 42.511C100.159 45.0287 106.062 42.2414 106.554 37.4985C106.732 35.7836 106.686 34.0344 106.6 32.3082C106.411 28.4656 103.428 26.2118 99.6377 26.9573C95.229 27.8234 93.6659 30.0772 93.6774 36.2655Z" fill="#103380"/>
<path d="M47.4484 52.7601C47.4032 57.6717 43.0782 60.9928 38.4083 59.4869C33.2972 57.8402 28.8704 55.0585 25.5066 50.7876C24.1214 49.0343 23.5221 49.0343 22.2669 50.9338C19.4005 55.2833 15.5674 58.5821 11.0896 61.1895C10.4903 61.5379 9.85714 61.8527 9.21262 62.1056C5.57731 63.5329 2.23033 62.5608 0.703837 59.6554C-0.850924 56.6883 0.274158 52.7264 3.05576 50.5629C6.21052 48.1071 9.48964 45.73 12.2317 42.8641C15.426 39.526 16.7264 35.2326 16.7659 30.5684C16.8112 25.2859 20.9836 22.066 26.1793 23.1786C28.9779 23.7743 30.8945 25.8141 30.8662 29.0006C30.787 38.0032 35.9149 43.1395 43.5248 46.5898C46.4308 47.8992 47.4767 49.557 47.4484 52.7601Z" fill="#103380"/>
<path d="M235.821 64.1511C235.821 62.8548 235.832 61.553 235.821 60.2567C235.782 56.4568 238.482 53.7642 242.527 53.5807C246.751 53.3915 250.723 56.1675 250.633 59.7671C250.532 63.7338 250.639 64.4459 255.978 63.9007C262.762 63.2108 269.581 62.8603 276.376 62.3263C281.398 61.9312 286.41 61.4751 291.427 61.0467C292.273 60.9743 293.127 60.852 293.974 60.8353C297.686 60.7741 299.81 62.738 299.985 66.3486C300.182 70.4154 298.41 72.4072 294.427 72.6908C279.353 73.7702 264.275 74.8606 249.203 75.9622C247.503 76.0845 245.819 76.4071 244.119 76.5129C239.668 76.78 236.273 74.0149 235.809 69.6476C235.618 67.834 235.775 65.9869 235.775 64.1566C235.792 64.1511 235.809 64.1511 235.821 64.1511Z" fill="#103380"/>
<path d="M130.15 33.9927C130.15 29.2976 130.055 24.6024 130.177 19.9129C130.309 14.5222 135.087 10.9154 139.552 12.7104C141.522 13.5013 142.992 14.9598 143.247 17.1868C143.502 19.4081 144.479 19.9354 146.433 19.8344C149.283 19.6829 150.966 21.0797 151.407 23.5703C151.938 26.5546 150.733 29.3032 148.344 30.2568C147.553 30.5766 146.64 30.6271 145.78 30.6831C144.468 30.7728 143.444 31.143 143.529 32.8091C143.613 34.4358 144.766 34.6377 145.891 34.4415C149.66 33.7852 151.959 36.416 151.433 40.5782C151.104 43.1867 149.342 45.0489 146.507 45.2508C144.351 45.4079 143.486 46.1764 143.359 48.566C143.157 52.3693 140.088 55.2581 136.93 55.0954C132.083 54.8487 130.134 52.7955 130.113 47.8425C130.092 43.2258 130.108 38.6092 130.108 33.9927C130.118 33.9927 130.134 33.9927 130.15 33.9927Z" fill="#103380"/>
<path d="M52.1 40.3721C52.1 35.4045 51.9468 30.4254 52.1414 25.4635C52.3477 20.2375 57.5484 17.0675 62.5841 18.8822C65.0489 19.7724 66.3754 21.5297 66.517 24.0507C66.6291 26.0148 66.5406 27.9962 66.576 29.9659C66.6291 32.9753 66.9946 33.2854 69.9842 32.958C73.127 32.6191 75.5268 33.9859 76.2758 36.5531C77.113 39.413 75.8336 42.6864 73.245 43.8408C72.1717 44.3174 70.9099 44.5011 69.7188 44.5701C67.4016 44.7079 66.405 45.7302 66.5406 48.033C66.6704 50.2326 66.6762 52.4607 66.4993 54.6546C66.1338 59.2087 62.9496 61.0579 58.5037 61.2188C54.4234 61.3623 52.1236 58.8641 52.0707 54.5684C52.0117 49.8363 52.0589 45.1042 52.0589 40.3721C52.0707 40.3721 52.0824 40.3721 52.1 40.3721Z" fill="#103380"/>
</g>
<defs>
<clipPath id="clip0_488_2237">
<rect width="300" height="96.4286" fill="white"/>
</clipPath>
</defs>
</svg>
